<svg width="56" height="56" viewBox="0 0 56 56" fill="none" xmlns="http://www.w3.org/2000/svg">
<g clip-path="url(#clip0_2635_8006)">
<path d="M47.6 0H8.4C3.76081 0 0 3.76081 0 8.4V47.6C0 52.2392 3.76081 56 8.4 56H47.6C52.2392 56 56 52.2392 56 47.6V8.4C56 3.76081 52.2392 0 47.6 0Z" fill="#FF5A5F"/>
<path d="M28.3396 40.4155C26.3761 42.3789 20.2547 50.1173 13.6713 44.9199C8.93588 41.1085 11.9388 35.2181 11.9388 35.2181C15.7503 27.1332 19.4462 19.3948 23.6041 11.772C23.6041 11.772 24.9901 9 28.3396 9C32.0355 9 33.1905 11.772 33.1905 11.772C37.0019 18.7018 41.1599 27.3642 44.7403 35.2181C44.7403 35.2181 47.3968 41.5705 43.2388 44.9199C36.5399 50.2328 30.303 42.4944 28.3396 40.4155ZM28.3396 40.4155C30.303 38.452 33.8835 33.9476 33.8835 28.8657C33.8835 28.8657 33.768 23.7838 28.3396 23.7838C22.9112 23.7838 22.6802 28.8657 22.6802 28.8657C22.6802 33.6011 26.3761 38.452 28.3396 40.4155Z" stroke="white" stroke-width="2.5"/>
</g>
<defs>
<clipPath id="clip0_2635_8006">
<rect width="56" height="56" fill="white"/>
</clipPath>
</defs>
</svg>
