<svg width="56" height="56" viewBox="0 0 56 56" fill="none" xmlns="http://www.w3.org/2000/svg">
<g clip-path="url(#clip0_2730_15539)">
<path fill-rule="evenodd" clip-rule="evenodd" d="M11.4844 0H44.5156C47.5589 0.00841846 50.4751 1.22108 52.627 3.373C54.7789 5.52491 55.9916 8.44112 56 11.4844V44.5156C55.9916 47.5589 54.7789 50.4751 52.627 52.627C50.4751 54.7789 47.5589 55.9916 44.5156 56H11.4844C8.44112 55.9916 5.52491 54.7789 3.373 52.627C1.22108 50.4751 0.00841846 47.5589 0 44.5156L0 11.4844C0.00841846 8.44112 1.22108 5.52491 3.373 3.373C5.52491 1.22108 8.44112 0.00841846 11.4844 0Z" fill="white"/>
<g clip-path="url(#clip1_2730_15539)">
<path d="M28 56C43.464 56 56 43.464 56 28C56 12.536 43.464 0 28 0C12.536 0 0 12.536 0 28C0 43.464 12.536 56 28 56Z" fill="white"/>
</g>
<path d="M14.2228 25.6896V30.3437C14.2228 30.4191 14.1929 30.4915 14.1395 30.5448C14.0862 30.5982 14.0138 30.6281 13.9384 30.6281H12.4692C12.3938 30.6281 12.3214 30.5981 12.2681 30.5448C12.2148 30.4915 12.1848 30.4191 12.1848 30.3437V22.7736C12.1848 22.6981 12.2147 22.6258 12.2681 22.5724C12.3214 22.5191 12.3938 22.4891 12.4692 22.4891H13.8288C13.9042 22.4891 13.9766 22.5191 14.0299 22.5724C14.0832 22.6258 14.1132 22.6981 14.1132 22.7736V23.8397C14.1132 23.8397 14.5992 22.3189 16.0416 22.3189C16.0416 22.3189 17.4682 22.1465 18.0483 23.7299C18.0483 23.7299 18.5343 22.3189 20.008 22.3189C20.008 22.3189 22.1996 22.1886 22.1996 24.4563L22.2162 25.7053V30.3594C22.2162 30.4348 22.1863 30.5072 22.1329 30.5605C22.0796 30.6138 22.0072 30.6438 21.9318 30.6438H20.4625C20.3871 30.6438 20.3147 30.6138 20.2614 30.5605C20.208 30.5071 20.1781 30.4348 20.178 30.3594L20.1646 25.282C20.2064 24.1323 19.2763 24.2159 19.2763 24.2159C18.1057 24.2369 18.2183 25.7053 18.2183 25.7053V30.3594C18.2183 30.4348 18.1884 30.5072 18.135 30.5605C18.0817 30.6138 18.0093 30.6438 17.9339 30.6438H16.4647C16.3893 30.6438 16.317 30.6138 16.2636 30.5605C16.2103 30.5071 16.1803 30.4348 16.1803 30.3594V25.3969C16.1803 25.3969 16.2662 24.2054 15.2209 24.2054C15.2211 24.2054 14.1863 24.0695 14.2228 25.6896ZM52.0941 25.6757V30.3296C52.094 30.4051 52.064 30.4774 52.0107 30.5307C51.9574 30.5841 51.885 30.6141 51.8096 30.6141L50.2816 30.6437C50.2062 30.6437 50.1339 30.6137 50.0805 30.5603C50.0272 30.507 49.9972 30.4347 49.9972 30.3592V25.3969C49.9972 25.3969 50.0831 24.2054 49.0379 24.2054C49.0379 24.2054 48.0397 24.1562 48.0397 26.0243V30.3436C48.0397 30.419 48.0097 30.4913 47.9564 30.5447C47.903 30.598 47.8307 30.628 47.7553 30.628H46.286C46.2105 30.628 46.1382 30.598 46.0849 30.5447C46.0315 30.4913 46.0016 30.419 46.0015 30.3436V22.7736C46.0016 22.6982 46.0315 22.6258 46.0849 22.5725C46.1382 22.5191 46.2105 22.4892 46.286 22.4891H47.6455C47.721 22.4891 47.7933 22.5191 47.8467 22.5724C47.9 22.6258 47.93 22.6981 47.93 22.7736V23.8397C47.93 23.8397 48.416 22.3189 49.8583 22.3189C49.8583 22.3189 51.4034 22.0845 51.9237 23.7004C51.9239 23.7003 52.0941 24.0337 52.0941 25.6757ZM41.486 22.2876C39.6072 22.2876 38.084 23.871 38.084 26.5362C38.084 28.8827 39.2598 30.7848 41.486 30.7848C43.5868 30.7848 44.888 28.8827 44.888 26.5362C44.888 23.918 43.3649 22.2876 41.486 22.2876ZM42.6719 26.6302C42.6719 27.6336 42.5465 28.1666 42.5465 28.1666C42.368 29.2273 41.598 29.2288 41.4845 29.2232C41.362 29.2281 40.5855 29.217 40.4249 28.1666C40.4249 28.1666 40.2994 27.6336 40.2994 26.6302V26.4631C40.2994 25.4597 40.4249 24.9267 40.4249 24.9267C40.5855 23.8763 41.3621 23.8652 41.4845 23.87C41.598 23.8644 42.368 23.8657 42.5465 24.9267C42.5465 24.9267 42.6719 25.4597 42.6719 26.4631V26.6302ZM37.2313 23.8291V22.743C37.2312 22.6675 37.2013 22.5952 37.1479 22.5419C37.0946 22.4885 37.0223 22.4586 36.9468 22.4585H32.0906C32.0151 22.4585 31.9428 22.4885 31.8894 22.5418C31.8361 22.5952 31.8061 22.6675 31.8061 22.743V23.8207C31.8061 23.8961 31.8361 23.9685 31.8895 24.0218C31.9428 24.0752 32.0151 24.1051 32.0906 24.1052H34.6237L31.6254 28.4547C31.6254 28.4547 31.5072 28.6311 31.5111 28.8259V30.1489C31.5111 30.1489 31.4916 30.6026 32.006 30.3393C32.006 30.3393 32.9198 29.7872 34.4521 29.7872C34.4521 29.7872 35.9653 29.7684 36.9742 30.3868C36.9742 30.3868 37.3929 30.5772 37.3929 30.1586V29.007C37.3929 29.007 37.4309 28.7022 37.0312 28.5119C37.0312 28.5119 35.8701 27.8743 34.3474 27.9789L37.2313 23.8291ZM11.0508 29.2744L10.5909 28.5743C10.4446 28.3129 10.4551 28.0202 10.4551 28.0202V24.7907C10.5178 22.0001 7.42406 22.2405 7.42406 22.2405C4.67385 22.2405 4.26761 24.3808 4.26761 24.3808C4.15298 24.8112 4.48635 24.8216 4.48635 24.8216L5.83022 24.9579C5.83022 24.9579 6.05937 25.0103 6.14277 24.7375C6.14277 24.7375 6.31974 23.8038 7.30943 23.8038C8.38628 23.8038 8.37512 24.728 8.37512 24.728V25.5017C6.22542 25.5736 5.22921 26.1703 5.22921 26.1703C3.90189 26.9229 3.98542 28.4175 3.98542 28.4175C3.98542 30.8526 6.30569 30.748 6.30569 30.748C7.78979 30.748 8.66773 29.6612 8.66773 29.6612C8.92898 30.1212 9.40984 30.5599 9.40984 30.5599C9.65039 30.8208 9.90111 30.6018 9.90111 30.6018L10.9881 29.6717C11.2284 29.4938 11.0508 29.2744 11.0508 29.2744ZM7.02999 29.2443C6.3319 29.2443 6.07241 28.5506 6.1883 27.8688C6.30431 27.187 6.90683 26.6512 8.37525 26.6669V27.0814C8.4273 28.8922 7.61106 29.2443 7.02999 29.2443ZM30.5745 29.2744L30.1147 28.5743C29.9683 28.3129 29.9787 28.0202 29.9787 28.0202V24.7907C30.0414 22.0001 26.9477 22.2405 26.9477 22.2405C24.1975 22.2405 23.7913 24.3808 23.7913 24.3808C23.6766 24.8112 24.01 24.8216 24.01 24.8216L25.3539 24.9579C25.3539 24.9579 25.583 25.0103 25.6664 24.7375C25.6664 24.7375 25.8434 23.8038 26.8331 23.8038C27.9099 23.8038 27.8988 24.728 27.8988 24.728V25.5017C25.7492 25.5736 24.7529 26.1703 24.7529 26.1703C23.4255 26.9229 23.5091 28.4175 23.5091 28.4175C23.5091 30.8526 25.8293 30.748 25.8293 30.748C27.3134 30.748 28.1914 29.6612 28.1914 29.6612C28.4527 30.1212 28.9334 30.5599 28.9334 30.5599C29.1739 30.8208 29.4248 30.6018 29.4248 30.6018L30.5116 29.6717C30.7521 29.4938 30.5745 29.2744 30.5745 29.2744ZM26.5536 29.2443C25.8555 29.2443 25.5961 28.5506 25.7119 27.8688C25.828 27.187 26.4305 26.6512 27.8988 26.6669V27.0814C27.9509 28.8922 27.1348 29.2443 26.5536 29.2443Z" fill="black"/>
<path d="M34.2756 35.387C34.2756 35.387 34.1527 35.6008 34.3037 35.6486C34.3037 35.6486 34.4743 35.7152 34.687 35.5178C34.687 35.5178 36.2383 34.1626 36.2757 31.6953C36.2757 31.6953 36.2871 31.3872 36.1635 31.3029C36.1635 31.3029 35.6775 30.873 33.9299 31.0038C33.9299 31.0038 32.4065 31.1066 31.5748 31.845C31.5748 31.845 31.5001 31.9103 31.5001 31.9943C31.5001 31.9943 31.4822 32.1758 31.9393 32.0972C31.9393 32.0972 33.4625 31.8821 34.3691 31.9943C34.3691 31.9943 34.8365 32.0504 34.9673 32.2094C34.9673 32.2094 35.1823 32.387 35.0701 32.9756C35.0701 32.9759 34.7615 34.4711 34.2756 35.387Z" fill="#F3971B"/>
<path d="M33.9722 33.0198C33.9722 33.0198 34.1997 33.3145 33.8326 33.5688C33.8326 33.5688 29.9111 36.7055 23.3265 36.7055C23.3265 36.7055 16.5486 37.0399 10.889 31.8977C10.889 31.8977 10.6906 31.7235 10.8137 31.5615C10.8137 31.5615 10.9239 31.4125 11.2089 31.5746C11.2089 31.5746 16.5329 34.8921 23.5251 34.8921C23.5251 34.8921 28.3851 35.0802 33.3705 32.9481C33.3705 32.9481 33.7677 32.7422 33.9722 33.0198Z" fill="#F3971B"/>
</g>
<defs>
<clipPath id="clip0_2730_15539">
<rect width="56" height="56" fill="white"/>
</clipPath>
<clipPath id="clip1_2730_15539">
<rect width="56" height="56" fill="white"/>
</clipPath>
</defs>
</svg>
