<svg width="56" height="56" viewBox="0 0 56 56" fill="none" xmlns="http://www.w3.org/2000/svg">
<g clip-path="url(#clip0_2730_9168)">
<path fill-rule="evenodd" clip-rule="evenodd" d="M11.4844 0H44.5156C47.5589 0.00841846 50.4751 1.22108 52.627 3.373C54.7789 5.52491 55.9916 8.44112 56 11.4844V44.5156C55.9916 47.5589 54.7789 50.4751 52.627 52.627C50.4751 54.7789 47.5589 55.9916 44.5156 56H11.4844C8.44112 55.9916 5.52491 54.7789 3.373 52.627C1.22108 50.4751 0.00841846 47.5589 0 44.5156L0 11.4844C0.00841846 8.44112 1.22108 5.52491 3.373 3.373C5.52491 1.22108 8.44112 0.00841846 11.4844 0Z" fill="white"/>
<g clip-path="url(#clip1_2730_9168)">
<path d="M28 56C43.464 56 56 43.464 56 28C56 12.536 43.464 0 28 0C12.536 0 0 12.536 0 28C0 43.464 12.536 56 28 56Z" fill="white"/>
</g>
<g clip-path="url(#clip2_2730_9168)">
<path d="M37.1305 25.2049C38.7026 25.4467 39.791 26.1723 40.3957 27.1398C41.0003 28.1072 41.3631 29.8003 41.3631 31.9771C41.3631 36.3306 40.0329 39.9586 37.3724 42.74C34.7119 45.5214 31.3258 46.9726 27.2141 46.9726C25.642 46.9726 24.0699 46.7307 22.4978 46.1261C20.9257 45.5214 19.7163 44.6749 18.628 43.7074C17.4186 42.6191 16.4512 41.2888 15.8465 40.0795C15.3628 38.7492 15 37.419 15 36.0887C15 34.6376 15.3628 33.4282 15.9675 32.5817C16.5721 31.7352 17.6605 31.2515 18.9908 30.8887C18.7489 30.284 18.507 29.8003 18.3861 29.3166C18.2652 28.9538 18.1442 28.591 18.1442 28.3491C18.1442 27.6235 18.507 26.777 19.3535 25.9305C20.2001 25.0839 20.9257 24.7211 21.6513 24.7211C22.014 24.7211 22.2559 24.7211 22.6187 24.8421C22.9815 24.963 23.3443 25.0839 23.828 25.4467C22.7396 21.8188 21.6513 18.7955 21.0466 16.7396C20.4419 14.6838 20.2001 13.3535 20.2001 12.507C20.2001 11.4186 20.4419 10.5721 21.0466 9.96745C21.5303 9.3628 22.3768 9 23.3443 9C24.9164 9 26.9723 12.628 29.5118 20.0048C29.9955 21.2141 30.2374 22.1816 30.4793 22.9072C30.7211 22.4234 30.963 21.5769 31.3258 20.6095C33.8654 13.3535 36.0421 9.72559 37.7352 9.72559C38.5817 9.72559 39.3073 9.96745 39.912 10.5721C40.3957 11.1768 40.7585 12.0233 40.7585 12.9908C40.7585 13.7163 40.5166 15.1675 39.912 17.2234C39.1864 19.2792 38.3398 21.9397 37.1305 25.2049ZM18.507 35.8469C18.7489 36.0887 19.1117 36.5725 19.4745 37.1771C20.5629 38.7492 21.6513 39.5958 22.6187 39.5958C22.9815 39.5958 23.2234 39.4748 23.4652 39.233C23.7071 38.9911 23.828 38.7492 23.828 38.6283C23.828 38.3864 23.7071 37.9027 23.3443 37.2981C22.9815 36.6934 22.4978 35.9678 21.8931 35.2422C21.1675 34.3957 20.5629 33.6701 20.2001 33.3073C19.7163 32.9445 19.3535 32.7026 19.1117 32.7026C18.507 32.7026 17.9024 33.0654 17.4186 33.6701C16.9349 34.2748 16.693 35.1213 16.693 35.9678C16.693 36.6934 16.814 37.419 17.1768 38.3864C17.5396 39.233 18.0233 40.2004 18.7489 41.0469C19.8373 42.2563 21.0466 43.3446 22.6187 44.0702C24.1908 44.7958 25.7629 45.1586 27.6978 45.1586C31.0839 45.1586 33.8654 43.9493 36.1631 41.4097C38.4608 38.8702 39.5492 35.7259 39.5492 31.8561C39.5492 30.6468 39.4282 29.8003 39.3073 29.0747C39.1864 28.3491 38.8236 27.8654 38.4608 27.6235C37.7352 27.0188 36.4049 26.5351 34.3491 26.0514C32.2933 25.5677 30.1165 25.3258 27.9397 25.3258C27.335 25.3258 26.8513 25.4467 26.6095 25.6886C26.3676 25.9305 26.2467 26.2933 26.2467 26.777C26.2467 27.9863 26.8513 28.8328 28.1816 29.3166C29.5118 29.8003 31.6886 30.1631 34.591 30.1631H35.6793C35.9212 30.1631 36.1631 30.284 36.284 30.4049C36.4049 30.6468 36.5259 30.8887 36.5259 31.2515C36.284 31.4933 35.6793 31.8561 34.7119 32.2189C33.7444 32.5817 33.1398 32.9445 32.656 33.3073C31.5677 34.0329 30.7211 35.0003 30.1165 36.0887C29.5118 37.1771 29.149 38.1446 29.149 39.112C29.149 39.7167 29.27 40.3214 29.5118 41.1679C29.7537 42.0144 29.8746 42.4981 29.8746 42.6191V42.8609V43.1028C29.149 43.1028 28.5444 42.6191 28.0606 41.7725C27.5769 40.926 27.456 39.8376 27.456 38.3864V38.1446C27.335 38.2655 27.2141 38.3864 27.0932 38.3864C26.9723 38.3864 26.8513 38.5074 26.6095 38.5074H26.1257C26.0048 38.5074 25.8839 38.3864 25.642 38.3864C25.642 38.6283 25.7629 38.7492 25.7629 38.9911V39.4748C25.7629 40.0795 25.5211 40.6841 25.0373 41.1679C24.5536 41.6516 23.949 41.8935 23.2234 41.8935C22.135 41.8935 21.0466 41.4097 19.8373 40.3214C18.7489 39.233 18.1442 38.2655 18.1442 37.1771C18.1442 36.9353 18.1442 36.8143 18.2652 36.6934C18.2652 36.0887 18.3861 35.9678 18.507 35.8469ZM26.3676 36.4515C26.6095 36.4515 26.9723 36.3306 27.2141 36.0887C27.456 35.8469 27.5769 35.4841 27.5769 35.2422C27.5769 34.8794 27.335 34.1538 26.8513 32.9445C26.3676 31.7352 25.7629 30.5259 25.0373 29.4375C24.5536 28.591 23.949 27.8654 23.4652 27.5026C22.9815 27.0188 22.4978 26.8979 22.014 26.8979C21.6513 26.8979 21.2885 27.1398 20.8047 27.6235C20.321 28.1072 20.2001 28.47 20.2001 28.9538C20.2001 29.3166 20.4419 30.0421 20.8047 30.8887C21.2885 31.7352 21.7722 32.5817 22.4978 33.5492C23.2234 34.5166 23.949 35.3631 24.6745 35.9678C25.4001 36.2097 25.8839 36.4515 26.3676 36.4515ZM28.9072 23.8746L26.0048 15.7722C25.2792 13.7163 24.7955 12.2652 24.3118 11.6605C23.949 11.0558 23.5862 10.693 23.1024 10.693C22.7396 10.693 22.4978 10.814 22.2559 11.0558C21.8931 11.4186 21.7722 11.7814 21.7722 12.2652C21.7722 13.1117 22.135 14.4419 22.7396 16.3768C23.3443 18.3118 24.3118 20.9723 25.5211 24.1165C25.642 23.8746 25.7629 23.7537 26.0048 23.7537C26.2467 23.6328 26.4885 23.6328 26.7304 23.6328H27.335C27.6978 23.7537 28.1816 23.7537 28.9072 23.8746ZM31.8095 31.7352C31.0839 31.7352 30.3583 31.6143 29.6328 31.4933C28.9072 31.3724 28.3025 31.2515 27.6978 31.0096C27.9397 31.6143 28.1816 32.098 28.4234 32.7026C28.6653 33.3073 28.7862 33.791 28.9072 34.3957C29.27 33.912 29.7537 33.4282 30.2374 32.9445C30.8421 32.4608 31.3258 32.098 31.8095 31.7352ZM35.3166 24.7211C36.5259 21.5769 37.3724 18.9164 38.098 16.8606C38.7026 14.8047 39.0654 13.5954 39.0654 13.1117C39.0654 12.628 38.9445 12.2652 38.7026 11.9024C38.4608 11.6605 38.2189 11.5396 37.8561 11.5396C37.3724 11.5396 36.8887 11.9024 36.4049 12.7489C35.9212 13.5954 35.3165 14.8047 34.7119 16.6187L32.0514 24.1165L35.3166 24.7211Z" fill="black"/>
</g>
</g>
<defs>
<clipPath id="clip0_2730_9168">
<rect width="56" height="56" fill="white"/>
</clipPath>
<clipPath id="clip1_2730_9168">
<rect width="56" height="56" fill="white"/>
</clipPath>
<clipPath id="clip2_2730_9168">
<rect width="26.3631" height="38" fill="white" transform="translate(15 9)"/>
</clipPath>
</defs>
</svg>
