<svg width="56" height="56" viewBox="0 0 56 56" fill="none" xmlns="http://www.w3.org/2000/svg">
<g clip-path="url(#clip0_2635_7686)">
<path d="M0 0H56V56H0V0Z" fill="url(#paint0_linear_2635_7686)"/>
<path d="M18.2084 40.7695L18.2136 40.7711L16.3243 44.0435C15.6347 45.238 14.1072 45.6472 12.9127 44.9576C11.7183 44.268 11.309 42.7405 11.9986 41.5461L13.3904 39.1354L13.524 38.9041C13.7625 38.5612 14.3512 37.9696 15.5287 38.0807C15.5287 38.0807 18.2995 38.3815 18.5 39.8216C18.5001 39.8216 18.5274 40.2955 18.2084 40.7695ZM45.0052 32.4114H39.1136C38.7124 32.3846 38.5372 32.2413 38.4684 32.158L38.4641 32.1504L32.1573 21.2269L32.1492 21.2324L31.7709 20.6901C31.1511 19.7422 30.1668 22.1666 30.1668 22.1666C28.9915 24.8681 30.3335 27.9396 30.8015 28.868L39.5611 44.0401C40.2506 45.2346 41.7781 45.6438 42.9726 44.9542C44.167 44.2646 44.5763 42.7372 43.8867 41.5427L41.6963 37.7488C41.6539 37.6569 41.58 37.4073 42.0292 37.4063H45.0052C46.3844 37.4063 47.5026 36.2881 47.5026 34.9089C47.5026 33.5296 46.3844 32.4114 45.0052 32.4114ZM33.5619 35.8066C33.5619 35.8066 33.8764 37.4062 32.6596 37.4062H31.4428L10.8802 37.4063C9.50095 37.4063 8.38281 36.2881 8.38281 34.9089C8.38281 33.5296 9.50095 32.4114 10.8802 32.4114H16.4795C17.3834 32.3591 17.5978 31.8372 17.5978 31.8372L17.6027 31.8397L24.9116 19.1803L24.9094 19.1799C25.0426 18.9353 24.9317 18.7043 24.9124 18.6677L22.4986 14.487C21.809 13.2925 22.2183 11.7651 23.4127 11.0755C24.6072 10.3858 26.1346 10.7951 26.8243 11.9896L27.9437 13.9286L29.0612 11.993C29.7508 10.7986 31.2782 10.3893 32.4727 11.0789C33.6672 11.7686 34.0765 13.296 33.3868 14.4905L23.2163 32.1062C23.1718 32.2135 23.1582 32.3818 23.4891 32.4114H29.5684L29.5697 32.4707C29.5697 32.4707 33.0834 32.5254 33.5619 35.8066Z" fill="white"/>
</g>
<defs>
<linearGradient id="paint0_linear_2635_7686" x1="28" y1="56" x2="28" y2="0" gradientUnits="userSpaceOnUse">
<stop stop-color="#1D76F2"/>
<stop offset="1" stop-color="#1AC2FB"/>
</linearGradient>
<clipPath id="clip0_2635_7686">
<rect width="56" height="56" rx="11" fill="white"/>
</clipPath>
</defs>
</svg>
