<svg width="56" height="56" viewBox="0 0 56 56" fill="none" xmlns="http://www.w3.org/2000/svg">
<g clip-path="url(#clip0_2635_6605)">
<path fill-rule="evenodd" clip-rule="evenodd" d="M11.4844 0H44.5156C47.5589 0.00841846 50.4751 1.22108 52.627 3.373C54.7789 5.52491 55.9916 8.44112 56 11.4844V44.5156C55.9916 47.5589 54.7789 50.4751 52.627 52.627C50.4751 54.7789 47.5589 55.9916 44.5156 56H11.4844C8.44112 55.9916 5.52491 54.7789 3.373 52.627C1.22108 50.4751 0.00841846 47.5589 0 44.5156L0 11.4844C0.00841846 8.44112 1.22108 5.52491 3.373 3.373C5.52491 1.22108 8.44112 0.00841846 11.4844 0Z" fill="#1769FF"/>
<path fill-rule="evenodd" clip-rule="evenodd" d="M34.291 33.8971C34.8979 34.3804 35.6398 34.6636 36.4143 34.7077C37.1889 34.7518 37.9581 34.5546 38.6159 34.1432C39.0687 33.8658 39.4165 33.4458 39.6048 32.9492H42.8633C42.3392 34.5716 41.5462 35.7246 40.4616 36.4219C39.2923 37.1471 37.9359 37.5132 36.5605 37.4746C35.5784 37.4873 34.6027 37.3141 33.6849 36.9642C32.864 36.6441 32.1223 36.1497 31.5111 35.515C30.9113 34.8655 30.4466 34.1034 30.1439 33.2728C29.8147 32.3502 29.6511 31.3767 29.6608 30.3971C29.6537 29.4359 29.8221 28.4815 30.1576 27.5807C30.467 26.7322 30.9479 25.9566 31.5703 25.3021C32.1928 24.6621 32.9364 24.1524 33.7578 23.8027C34.6471 23.4271 35.6044 23.2394 36.5697 23.2513C37.6075 23.2259 38.6357 23.4559 39.5638 23.9212C40.3932 24.3455 41.1137 24.9552 41.6693 25.7031C42.2245 26.4792 42.621 27.3574 42.8359 28.2871C43.0797 29.2683 43.1674 30.2819 43.0957 31.2904H33.375C33.3369 32.2421 33.6629 33.1726 34.2865 33.8926L34.291 33.8971ZM21.64 18.5208C22.4558 18.5126 23.2702 18.5921 24.069 18.7578C24.7393 18.8892 25.3772 19.1509 25.9466 19.528C26.4725 19.8912 26.8937 20.3863 27.168 20.9635C27.4709 21.6503 27.6157 22.3963 27.5918 23.1465C27.6213 23.9753 27.3989 24.7937 26.9538 25.4935C26.4679 26.1581 25.8156 26.6831 25.0625 27.0156C26.0955 27.2688 27.0039 27.883 27.6237 28.7474C28.1161 29.5589 28.4 30.4796 28.4501 31.4275C28.5002 32.3753 28.3149 33.3208 27.9108 34.1797C27.5582 34.8503 27.0504 35.4268 26.4297 35.8613C25.7882 36.3062 25.072 36.6319 24.3151 36.8229C23.5207 37.0313 22.7028 37.137 21.8815 37.1374H12.8672V18.5254H21.64V18.5208ZM21.3346 33.9609C21.7192 33.9643 22.1028 33.9245 22.4785 33.8425C22.8221 33.7753 23.149 33.6405 23.4401 33.446C23.7239 33.2605 23.9547 33.0045 24.11 32.7031C24.2856 32.3272 24.3685 31.9146 24.3516 31.5C24.3516 30.543 24.0781 29.8548 23.5404 29.4401C22.9187 29.0093 22.1721 28.7962 21.4167 28.834H16.9596V33.9564H21.3346V33.9609ZM21.1068 26.0358C21.755 26.068 22.3958 25.8854 22.9297 25.5163C23.1752 25.3129 23.3672 25.0524 23.4888 24.7577C23.6103 24.4629 23.6578 24.1429 23.627 23.8255C23.6402 23.4547 23.5603 23.0865 23.3945 22.7546C23.246 22.4854 23.027 22.2617 22.7611 22.1074C22.4819 21.939 22.1721 21.8274 21.8496 21.7793C21.5023 21.7163 21.1499 21.6858 20.7969 21.6882H16.9688V26.0358H21.1159H21.1068ZM32.6139 20.0247H40.1608V21.8477H32.6139V20.0247ZM38.5384 26.8197C38.2611 26.5586 37.9333 26.3571 37.575 26.2278C37.2168 26.0984 36.8358 26.044 36.4557 26.0677C35.9481 26.0494 35.4434 26.1525 34.9837 26.3685C34.6223 26.5498 34.3026 26.8043 34.0449 27.1159C33.8167 27.3942 33.6491 27.7171 33.5527 28.0638C33.4617 28.3603 33.4036 28.666 33.3796 28.9753H39.3997C39.3545 28.1899 39.0536 27.4409 38.543 26.8425L38.5384 26.8197Z" fill="white"/>
</g>
<defs>
<clipPath id="clip0_2635_6605">
<rect width="56" height="56" fill="white"/>
</clipPath>
</defs>
</svg>
