<svg width="56" height="56" viewBox="0 0 56 56" fill="none" xmlns="http://www.w3.org/2000/svg">
<g clip-path="url(#clip0_2730_15698)">
<path fill-rule="evenodd" clip-rule="evenodd" d="M11.4844 0H44.5156C47.5589 0.00841846 50.4751 1.22108 52.627 3.373C54.7789 5.52491 55.9916 8.44112 56 11.4844V44.5156C55.9916 47.5589 54.7789 50.4751 52.627 52.627C50.4751 54.7789 47.5589 55.9916 44.5156 56H11.4844C8.44112 55.9916 5.52491 54.7789 3.373 52.627C1.22108 50.4751 0.00841846 47.5589 0 44.5156L0 11.4844C0.00841846 8.44112 1.22108 5.52491 3.373 3.373C5.52491 1.22108 8.44112 0.00841846 11.4844 0Z" fill="white"/>
<g clip-path="url(#clip1_2730_15698)">
<path d="M28 56C43.464 56 56 43.464 56 28C56 12.536 43.464 0 28 0C12.536 0 0 12.536 0 28C0 43.464 12.536 56 28 56Z" fill="white"/>
</g>
<g clip-path="url(#clip2_2730_15698)">
<path d="M41.6522 46.5945H13.9359C11.7665 46.5945 10 44.828 10 42.6586V14.932C10 12.7626 11.7665 10.9961 13.9359 10.9961H41.6522C43.8216 10.9961 45.5881 12.7626 45.5881 14.932V42.6483C45.5984 44.828 43.8319 46.5945 41.6522 46.5945ZM13.9359 13.1758C12.9648 13.1758 12.1797 13.9609 12.1797 14.932V42.6483C12.1797 43.6194 12.9648 44.4045 13.9359 44.4045H41.6522C42.6233 44.4045 43.4084 43.6194 43.4084 42.6483V14.932C43.4084 13.9609 42.6233 13.1758 41.6522 13.1758H13.9359Z" fill="#676B74"/>
<path d="M35.7397 16.8845C35.2748 16.8845 34.9029 16.5126 34.9029 16.0477V10.242C34.9029 9.77717 35.2748 9.40527 35.7397 9.40527C36.2046 9.40527 36.5764 9.77717 36.5764 10.242V16.0374C36.5764 16.5022 36.2046 16.8845 35.7397 16.8845ZM19.7586 16.8845C19.2938 16.8845 18.9219 16.5126 18.9219 16.0477V10.242C18.9219 9.77717 19.2938 9.40527 19.7586 9.40527C20.2235 9.40527 20.5954 9.77717 20.5954 10.242V16.0374C20.6057 16.5022 20.2235 16.8845 19.7586 16.8845ZM28.7977 35.6237C25.3267 35.6237 22.5065 32.8035 22.5065 29.3325C22.5065 25.8615 25.3267 23.0413 28.7977 23.0413C30.3679 23.0413 31.8658 23.6198 33.0228 24.6735C33.1674 24.7975 33.1778 25.0248 33.0435 25.1591C32.9195 25.3037 32.6922 25.314 32.5579 25.1797C31.5249 24.2397 30.1923 23.7231 28.7977 23.7231C25.7089 23.7231 23.1986 26.2334 23.1986 29.3222C23.1986 32.411 25.7089 34.9213 28.7977 34.9213C30.1923 34.9213 31.5249 34.4047 32.5579 33.4647C32.7026 33.3407 32.9195 33.351 33.0435 33.4853C33.1674 33.63 33.1571 33.8469 33.0228 33.9709C31.8658 35.0452 30.3679 35.6237 28.7977 35.6237Z" fill="#676B74"/>
</g>
</g>
<defs>
<clipPath id="clip0_2730_15698">
<rect width="56" height="56" fill="white"/>
</clipPath>
<clipPath id="clip1_2730_15698">
<rect width="56" height="56" fill="white"/>
</clipPath>
<clipPath id="clip2_2730_15698">
<rect width="35.5984" height="38" fill="white" transform="translate(10 9)"/>
</clipPath>
</defs>
</svg>
