<svg width="56" height="56" viewBox="0 0 56 56" fill="none" xmlns="http://www.w3.org/2000/svg">
<g clip-path="url(#clip0_3465_7042)">
<path d="M43.6406 0H12.3594C5.53348 0 0 5.53348 0 12.3594V43.6406C0 50.4665 5.53348 56 12.3594 56H43.6406C50.4665 56 56 50.4665 56 43.6406V12.3594C56 5.53348 50.4665 0 43.6406 0Z" fill="url(#paint0_linear_3465_7042)"/>
<path d="M45.7611 37.0948C45.3452 36.6518 43.8767 35.3418 41.1771 33.6088C38.4576 31.8605 36.452 30.7705 35.8767 30.5163C35.826 30.4938 35.7701 30.4856 35.7151 30.4925C35.66 30.4993 35.6079 30.5211 35.5643 30.5553C34.6376 31.278 33.0775 32.6056 32.9938 32.6773C32.4536 33.1402 32.4536 33.1402 32.0113 32.996C31.2337 32.741 28.8177 31.4581 26.7126 29.3482C24.6074 27.2382 23.2583 24.7625 23.0034 23.9856C22.8575 23.5426 22.8575 23.5426 23.3221 23.0023C23.3938 22.9187 24.7221 21.3585 25.4448 20.4326C25.4791 20.389 25.5008 20.3369 25.5077 20.2819C25.5146 20.2268 25.5063 20.171 25.4838 20.1203C25.2296 19.5442 24.1396 17.5394 22.3914 14.8199C20.656 12.1211 19.3476 10.6525 18.9045 10.2366C18.8639 10.1983 18.8137 10.1716 18.7591 10.1594C18.7046 10.1471 18.6477 10.1499 18.5946 10.1673C17.0459 10.6995 15.5518 11.3785 14.1324 12.1952C12.7623 12.9917 11.465 13.9076 10.2559 14.9322C10.2137 14.9681 10.1821 15.0148 10.1644 15.0673C10.1467 15.1198 10.1437 15.1761 10.1555 15.2302C10.3221 16.0063 11.1181 19.2462 13.5882 23.7338C16.1085 28.3139 17.8551 30.6605 21.5563 34.349C25.2575 38.0374 27.6783 39.8892 32.2631 42.4096C36.7508 44.8797 39.9922 45.6765 40.7668 45.8414C40.8209 45.8532 40.8774 45.8501 40.93 45.8324C40.9826 45.8147 41.0294 45.7832 41.0656 45.741C42.09 44.5319 43.0057 43.2347 43.8018 41.8646C44.6183 40.4451 45.2973 38.9509 45.8297 37.4024C45.8467 37.3497 45.8494 37.2933 45.8373 37.2393C45.8252 37.1852 45.799 37.1353 45.7611 37.0948Z" fill="#F8F8F8"/>
</g>
<defs>
<linearGradient id="paint0_linear_3465_7042" x1="46.3477" y1="-4.13162e-06" x2="5.55078" y2="53.7031" gradientUnits="userSpaceOnUse">
<stop stop-color="#66FE80"/>
<stop offset="1" stop-color="#06B824"/>
</linearGradient>
<clipPath id="clip0_3465_7042">
<rect width="56" height="56" fill="white"/>
</clipPath>
</defs>
</svg>
