<svg width="56" height="56" viewBox="0 0 56 56" fill="none" xmlns="http://www.w3.org/2000/svg">
<g clip-path="url(#clip0_2730_9233)">
<path fill-rule="evenodd" clip-rule="evenodd" d="M11.4844 0H44.5156C47.5589 0.00841846 50.4751 1.22108 52.627 3.373C54.7789 5.52491 55.9916 8.44112 56 11.4844V44.5156C55.9916 47.5589 54.7789 50.4751 52.627 52.627C50.4751 54.7789 47.5589 55.9916 44.5156 56H11.4844C8.44112 55.9916 5.52491 54.7789 3.373 52.627C1.22108 50.4751 0.00841846 47.5589 0 44.5156L0 11.4844C0.00841846 8.44112 1.22108 5.52491 3.373 3.373C5.52491 1.22108 8.44112 0.00841846 11.4844 0Z" fill="white"/>
<g clip-path="url(#clip1_2730_9233)">
<path d="M28 56C43.464 56 56 43.464 56 28C56 12.536 43.464 0 28 0C12.536 0 0 12.536 0 28C0 43.464 12.536 56 28 56Z" fill="white"/>
</g>
<g clip-path="url(#clip2_2730_9233)">
<path d="M27.9859 47.9718C39.0238 47.9718 47.9718 39.0238 47.9718 27.9859C47.9718 16.948 39.0238 8 27.9859 8C16.948 8 8 16.948 8 27.9859C8 39.0238 16.948 47.9718 27.9859 47.9718Z" fill="#7D2AE7"/>
<path d="M27.9859 47.9718C39.0238 47.9718 47.9718 39.0238 47.9718 27.9859C47.9718 16.948 39.0238 8 27.9859 8C16.948 8 8 16.948 8 27.9859C8 39.0238 16.948 47.9718 27.9859 47.9718Z" fill="url(#paint0_radial_2730_9233)"/>
<path d="M27.9859 47.9718C39.0238 47.9718 47.9718 39.0238 47.9718 27.9859C47.9718 16.948 39.0238 8 27.9859 8C16.948 8 8 16.948 8 27.9859C8 39.0238 16.948 47.9718 27.9859 47.9718Z" fill="url(#paint1_radial_2730_9233)"/>
<path d="M27.9859 47.9718C39.0238 47.9718 47.9718 39.0238 47.9718 27.9859C47.9718 16.948 39.0238 8 27.9859 8C16.948 8 8 16.948 8 27.9859C8 39.0238 16.948 47.9718 27.9859 47.9718Z" fill="url(#paint2_radial_2730_9233)"/>
<path d="M27.9859 47.9718C39.0238 47.9718 47.9718 39.0238 47.9718 27.9859C47.9718 16.948 39.0238 8 27.9859 8C16.948 8 8 16.948 8 27.9859C8 39.0238 16.948 47.9718 27.9859 47.9718Z" fill="url(#paint3_radial_2730_9233)"/>
<path d="M43.1743 29.7988C43.122 29.7988 43.0743 29.8326 43.0496 29.9035C42.7338 30.8048 42.3071 31.3408 41.9558 31.3408C41.754 31.3408 41.6724 31.116 41.6724 30.7632C41.6724 29.8805 42.2007 28.0087 42.4673 27.1553C42.4981 27.052 42.5181 26.9597 42.5181 26.8811C42.5181 26.633 42.3825 26.5113 42.0467 26.5113C41.6847 26.5113 41.295 26.653 40.916 27.3171C40.7851 26.7316 40.3891 26.4759 39.8361 26.4759C39.1967 26.4759 38.579 26.8872 38.0706 27.5543C37.5623 28.2213 36.9645 28.4401 36.5147 28.3323C36.8382 27.5404 36.9584 26.9488 36.9584 26.5098C36.9584 25.8211 36.6179 25.4052 36.068 25.4052C35.2314 25.4052 34.7493 26.2032 34.7493 27.0428C34.7493 27.6914 35.0435 28.3584 35.6906 28.6819C35.1483 29.9082 34.3565 31.0174 34.0561 31.0174C33.6679 31.0174 33.5538 29.1179 33.5754 27.7591C33.5892 26.9796 33.654 26.9396 33.654 26.7039C33.654 26.5683 33.5662 26.4759 33.2134 26.4759C32.3907 26.4759 32.1366 27.1723 32.098 27.9718C32.0856 28.2756 32.038 28.577 31.9563 28.8699C31.6128 30.0961 30.9041 31.0266 30.442 31.0266C30.2278 31.0266 30.1693 30.8124 30.1693 30.5321C30.1693 29.6494 30.6638 28.5463 30.6638 27.6051C30.6638 26.9134 30.3603 26.476 29.7888 26.476C29.1156 26.476 28.2252 27.277 27.3825 28.7774C27.6598 27.6282 27.7739 26.516 26.9527 26.516C26.7746 26.5186 26.5997 26.5641 26.4428 26.6485C26.3902 26.6732 26.3462 26.7131 26.3166 26.7631C26.2869 26.8131 26.2729 26.8708 26.2764 26.9288C26.355 28.152 25.2905 31.2854 24.2814 31.2854C24.0981 31.2854 24.0088 31.0867 24.0088 30.7663C24.0088 29.882 24.5356 28.0149 24.8006 27.1599C24.8344 27.0489 24.853 26.9534 24.853 26.8703C24.853 26.6361 24.7081 26.516 24.38 26.516C24.0195 26.516 23.6283 26.653 23.2509 27.3171C23.1184 26.7316 22.7225 26.4759 22.1694 26.4759C21.2621 26.4759 20.2484 27.4357 19.8032 28.6866C19.2069 30.3565 18.0054 31.9694 16.3878 31.9694C14.9197 31.9694 14.1448 30.7478 14.1448 28.8174C14.1448 26.0307 16.1906 23.7538 17.708 23.7538C18.4336 23.7538 18.7803 24.216 18.7803 24.9246C18.7803 25.7826 18.3011 26.1816 18.3011 26.5082C18.3011 26.6084 18.3843 26.707 18.5491 26.707C19.2085 26.707 19.9849 25.9321 19.9849 24.8753C19.9849 23.8185 19.1269 23.0452 17.6095 23.0452C15.1015 23.0452 12.5781 25.5686 12.5781 28.8021C12.5781 31.3748 13.8475 32.926 16.0427 32.926C17.5401 32.926 18.848 31.7615 19.5536 30.4026C19.6337 31.5288 20.1451 32.1173 20.9247 32.1173C21.6179 32.1173 22.1786 31.7045 22.6069 30.9789C22.7717 31.7383 23.2092 32.1096 23.7777 32.1096C24.4293 32.1096 24.9747 31.6967 25.4938 30.9296C25.4862 31.5319 25.6232 32.0989 26.1454 32.0989C26.3919 32.0989 26.6862 32.0418 26.7386 31.8261C27.2885 29.5523 28.6473 27.696 29.0632 27.696C29.1865 27.696 29.2203 27.8146 29.2203 27.9548C29.2203 28.5726 28.7843 29.8389 28.7843 30.6477C28.7843 31.5211 29.1557 32.0989 29.9228 32.0989C30.7732 32.0989 31.6374 31.0574 32.2136 29.5354C32.3939 30.9573 32.7836 32.1049 33.3936 32.1049C34.1423 32.1049 35.4717 30.529 36.2775 28.8606C36.5932 28.9007 37.0677 28.8899 37.5237 28.5679C37.3296 29.0593 37.2157 29.5971 37.2157 30.1346C37.2157 31.6829 37.9551 32.1173 38.5913 32.1173C39.283 32.1173 39.8438 31.7045 40.2736 30.9789C40.4153 31.6336 40.7773 32.108 41.4429 32.108C42.4842 32.108 43.3885 31.0435 43.3885 30.17C43.3885 29.939 43.2899 29.7988 43.1743 29.7988ZM21.5594 31.2592C21.1388 31.2592 20.974 30.8356 20.974 30.204C20.974 29.1071 21.7242 27.2754 22.5176 27.2754C22.8642 27.2754 22.9951 27.6837 22.9951 28.1828C22.9951 29.2966 22.2819 31.2592 21.5594 31.2592ZM35.9647 27.9856C35.7136 27.6867 35.6228 27.28 35.6228 26.918C35.6228 26.4713 35.7861 26.0938 35.9817 26.0938C36.1773 26.0938 36.2374 26.2864 36.2374 26.5545C36.2374 27.0027 36.0772 27.6574 35.9647 27.9856ZM39.226 31.2592C38.8055 31.2592 38.6406 30.7724 38.6406 30.204C38.6406 29.1456 39.3909 27.2754 40.1904 27.2754C40.537 27.2754 40.6603 27.6806 40.6603 28.1828C40.6603 29.2966 39.9593 31.2592 39.226 31.2592Z" fill="white"/>
</g>
</g>
<defs>
<radialGradient id="paint0_radial_2730_9233" cx="0" cy="0" r="1" gradientUnits="userSpaceOnUse" gradientTransform="translate(15.7094 43.4278) rotate(-49.416) scale(30.9148)">
<stop stop-color="#6420FF"/>
<stop offset="1" stop-color="#6420FF" stop-opacity="0"/>
</radialGradient>
<radialGradient id="paint1_radial_2730_9233" cx="0" cy="0" r="1" gradientUnits="userSpaceOnUse" gradientTransform="translate(18.5819 12.5441) rotate(54.703) scale(34.8622)">
<stop stop-color="#00C4CC"/>
<stop offset="1" stop-color="#00C4CC" stop-opacity="0"/>
</radialGradient>
<radialGradient id="paint2_radial_2730_9233" cx="0" cy="0" r="1" gradientUnits="userSpaceOnUse" gradientTransform="translate(15.7209 43.4276) rotate(-45.1954) scale(30.5405 14.046)">
<stop stop-color="#6420FF"/>
<stop offset="1" stop-color="#6420FF" stop-opacity="0"/>
</radialGradient>
<radialGradient id="paint3_radial_2730_9233" cx="0" cy="0" r="1" gradientUnits="userSpaceOnUse" gradientTransform="translate(24.3464 13.3857) rotate(66.5198) scale(31.4696 52.7187)">
<stop stop-color="#00C4CC"/>
<stop offset="1" stop-color="#00C4CC" stop-opacity="0"/>
</radialGradient>
<clipPath id="clip0_2730_9233">
<rect width="56" height="56" fill="white"/>
</clipPath>
<clipPath id="clip1_2730_9233">
<rect width="56" height="56" fill="white"/>
</clipPath>
<clipPath id="clip2_2730_9233">
<rect width="40" height="40" fill="white" transform="translate(8 8)"/>
</clipPath>
</defs>
</svg>
