<svg width="56" height="56" viewBox="0 0 56 56" fill="none" xmlns="http://www.w3.org/2000/svg">
<g clip-path="url(#clip0_2635_7421)">
<path d="M36.4875 0C42.0875 0 44.8875 0 47.95 0.9625C49.5758 1.55723 51.0522 2.49953 52.2764 3.72364C53.5005 4.94775 54.4428 6.42421 55.0375 8.05C56 11.1125 56 13.9125 56 19.5212V36.47C56 42.0875 56 44.905 55.0375 47.9325C54.4428 49.5583 53.5005 51.0347 52.2764 52.2589C51.0522 53.483 49.5758 54.4253 47.95 55.02C44.8875 56 42.0875 56 36.4875 56H19.5125C13.895 56 11.0775 56 8.05 55.0375C6.42421 54.4428 4.94775 53.5005 3.72364 52.2764C2.49953 51.0522 1.55723 49.5758 0.9625 47.95C0 44.8875 0 42.0875 0 36.4787V19.5125C0 13.895 0 11.0775 0.9625 8.05C1.55723 6.42421 2.49953 4.94775 3.72364 3.72364C4.94775 2.49953 6.42421 1.55723 8.05 0.9625C11.1125 0 13.9125 0 19.5125 0H36.4875Z" fill="#00D632"/>
<path d="M37.1621 20.825C37.5996 21.2625 38.3258 21.2625 38.7371 20.825L40.9246 18.55C41.3883 18.1125 41.3621 17.325 40.8721 16.8525C39.1531 15.3553 37.1547 14.2133 34.9921 13.4925L35.6833 10.1675C35.8321 9.44129 35.2896 8.75879 34.5633 8.75879H30.3283C30.0636 8.76163 29.8079 8.85531 29.604 9.02415C29.4002 9.193 29.2605 9.42675 29.2083 9.68629L28.5958 12.6438C22.9608 12.9325 18.1833 15.7938 18.1833 21.6563C18.1833 26.7313 22.1296 28.91 26.3033 30.4063C30.2496 31.9113 32.3408 32.4713 32.3408 34.5888C32.3408 36.7675 30.2583 38.045 27.1783 38.045C24.3783 38.045 21.4383 37.1088 19.1633 34.825C19.0577 34.7192 18.9322 34.6353 18.7941 34.578C18.6559 34.5207 18.5079 34.4912 18.3583 34.4912C18.2088 34.4912 18.0607 34.5207 17.9226 34.578C17.7845 34.6353 17.659 34.7192 17.5533 34.825L15.1908 37.1875C14.9686 37.4106 14.8438 37.7126 14.8438 38.0275C14.8437 38.3424 14.9686 38.6445 15.1908 38.8675C17.0283 40.6788 19.3558 41.9913 22.0088 42.7175L21.3613 45.8413C21.2126 46.5675 21.7463 47.2413 22.4726 47.25L26.7163 47.285C26.9841 47.2862 27.2439 47.1944 27.4514 47.0252C27.6588 46.856 27.8011 46.62 27.8538 46.3575L28.4663 43.3913C35.2458 42.9363 39.3758 39.2 39.3758 33.7488C39.3758 28.7263 35.2633 26.6088 30.2758 24.885C27.4233 23.8263 24.9558 23.1 24.9558 20.9213C24.9558 18.8038 27.2571 17.9638 29.5671 17.9638C32.5071 17.9638 35.3333 19.18 37.1796 20.8425L37.1621 20.825Z" fill="white"/>
</g>
<defs>
<clipPath id="clip0_2635_7421">
<rect width="56" height="56" fill="white"/>
</clipPath>
</defs>
</svg>
