<svg width="56" height="56" viewBox="0 0 56 56" fill="none" xmlns="http://www.w3.org/2000/svg">
<g clip-path="url(#clip0_2635_7094)">
<path fill-rule="evenodd" clip-rule="evenodd" d="M11.4844 0H44.5156C47.5589 0.00841846 50.4751 1.22108 52.627 3.373C54.7789 5.52491 55.9916 8.44112 56 11.4844V44.5156C55.9916 47.5589 54.7789 50.4751 52.627 52.627C50.4751 54.7789 47.5589 55.9916 44.5156 56H11.4844C8.44112 55.9916 5.52491 54.7789 3.373 52.627C1.22108 50.4751 0.00841846 47.5589 0 44.5156L0 11.4844C0.00841846 8.44112 1.22108 5.52491 3.373 3.373C5.52491 1.22108 8.44112 0.00841846 11.4844 0Z" fill="white"/>
<g clip-path="url(#clip1_2635_7094)">
<path d="M28 56C43.464 56 56 43.464 56 28C56 12.536 43.464 0 28 0C12.536 0 0 12.536 0 28C0 43.464 12.536 56 28 56Z" fill="white"/>
</g>
<g clip-path="url(#clip2_2635_7094)">
<path d="M16.1979 34.2714C15.5679 34.6611 12.2309 36.4092 11.477 36.6873C10.9389 36.8874 10.3557 36.839 10.012 35.8227C9.59032 34.5659 10.1826 34.269 11.0259 33.9417C11.7715 33.6529 14.8658 32.534 15.5843 32.3396C16.0897 32.2043 16.4408 32.3749 16.6844 32.9827C16.951 33.6505 16.7681 33.9179 16.1979 34.2714ZM17.5055 24.86C18.0699 26.7328 18.754 28.4891 19.4972 30.183C20.7753 33.2182 21.6374 34.8227 22.8285 36.8144C24.2854 39.1925 25.8932 41.9004 28.5387 43.6534C30.4706 44.9314 32.8216 45.586 35.0807 45.586C38.2643 45.586 40.9984 44.189 42.7547 42.5509C44.479 40.9463 46.7111 37.8521 46.7111 31.8154C46.7111 29.7343 47.6323 27.9485 48.3165 26.5211C48.3165 26.4916 48.346 26.4325 48.405 26.3136C48.6725 25.7189 48.9998 24.9461 48.9998 24.1734C48.9998 23.6082 48.8513 22.9544 48.4649 22.39C47.8702 21.3794 46.8005 21.0226 45.817 21.0226C43.5283 21.0226 41.95 22.6279 41.1469 24.2653L40.8795 24.8001C40.553 24.3243 40.2257 23.819 39.9583 23.3736C39.1257 21.9167 38.6507 20.9356 38.234 19.6846C37.9075 18.7044 37.6401 17.5748 37.4613 16.6503C36.9559 13.7349 36.1241 12.7834 34.7534 12.4265C33.7428 12.1591 32.5541 12.3675 31.6895 12.9318C31.0973 11.5947 30.0866 11 28.7471 11C26.844 11 25.1172 12.2485 25.1172 14.3616C25.1172 14.6291 25.1475 14.8965 25.1771 15.2238C24.9392 15.1639 24.6718 15.1344 24.4043 15.1344C22.3536 15.1344 20.8343 16.5609 20.8343 18.496C20.8343 18.9423 20.8942 19.4476 21.0427 20.0415C20.8647 20.012 20.6859 20.012 20.5079 20.012C19.4972 20.0718 18.5752 20.4582 17.919 21.2605C17.2676 22.0332 17.0002 23.2218 17.5055 24.86ZM13.9084 19.6445C12.8814 19.3204 9.83395 17.4747 9.03907 16.9989C8.32048 16.5666 8.2286 16.1778 8.72899 15.2287C9.17196 14.3912 9.66333 14.2452 10.3934 14.6233C11.2391 15.0638 14.2251 17.3878 14.7952 17.8471C15.3465 18.2909 15.271 18.5206 14.9814 19.0907C14.6927 19.6609 14.422 19.8069 13.9084 19.6445ZM13.4466 27.1889C12.5492 27.2135 8.82333 27.0543 7.97184 26.9698C7.23192 26.8968 6.93169 26.5704 7.0129 25.4974C7.09903 24.3465 7.54774 24.2759 8.27454 24.3465C9.11782 24.4269 13.0225 25.0626 13.6443 25.2546C14.2874 25.4539 14.376 25.7459 14.2981 26.3079C14.198 27.0379 13.8682 27.1757 13.4466 27.1889Z" fill="#1F1F1A"/>
<path d="M19.1962 24.3244C18.9287 23.4631 18.9583 22.8085 19.2856 22.3926C19.6129 22.0062 20.0583 21.8282 20.5932 21.7978C21.5152 21.7683 21.8712 22.4221 22.4069 24.1169C22.7334 25.1866 23.3871 26.7353 23.7743 27.5975C24.2796 28.6376 24.9925 30.0346 25.3198 30.5128C25.5872 30.9287 25.8251 31.0477 26.0925 31.0477C26.5683 31.0477 26.9252 30.7803 26.9252 30.3045C26.9252 30.0371 26.6569 29.5916 26.5084 29.3242C26.241 28.8181 25.6766 27.8075 25.2903 26.9461C24.8736 25.9946 24.3978 24.8059 24.0114 23.733C23.7743 23.1087 23.5061 22.217 23.2387 21.3253C22.8228 19.9579 22.6144 19.1253 22.6144 18.4985C22.6144 17.5478 23.3281 16.9235 24.3978 16.9235C25.1713 16.9235 25.6766 17.3099 26.0031 18.7069C26.2705 19.985 26.7463 22.0685 27.4305 23.7034C27.8759 24.7731 28.5297 26.2029 28.9161 26.9166C29.1539 27.3325 29.4214 27.6893 29.4214 27.8378C29.4214 28.0462 29.035 28.3726 28.7085 28.8189C28.5002 29.0863 28.4107 29.2643 28.4107 29.4727C28.4107 29.6507 28.5297 29.8295 28.7085 30.0674C28.8865 30.3045 29.0654 30.5424 29.2729 30.5424C29.4214 30.5424 29.5108 30.4833 29.6002 30.3644C30.5214 29.2053 31.532 28.4022 32.6936 27.7459C34.0611 26.9732 35.4613 26.5868 36.5605 26.3489C37.0962 26.23 37.2447 26.111 37.2447 25.8141C37.2447 25.4573 36.9773 25.2489 36.6204 25.2194C36.353 25.1898 36.1151 25.2194 35.6984 25.2489C35.4014 25.2784 35.253 25.13 35.0741 24.7436C34.5393 23.614 33.4991 21.7092 32.8749 19.2713C32.6075 18.2311 32.3696 17.1319 32.2211 15.7021C32.1317 15.0483 32.2506 14.8104 32.5779 14.5126C32.9938 14.1566 33.737 14.0073 34.3014 14.1566C34.9855 14.3346 35.3424 14.8695 35.6984 16.9531C35.8772 17.9342 36.1742 19.1827 36.531 20.2548C36.9773 21.6223 37.5416 22.7543 38.4038 24.2703C38.8796 25.1029 39.4735 25.965 40.0977 26.8001C39.9788 27.1569 39.7712 27.394 39.0871 27.9592C38.4038 28.5236 37.7196 29.1183 37.0954 30.2184C36.65 31.0206 36.4416 31.9123 36.4416 32.507C36.4416 33.0714 36.5605 33.1903 36.9174 33.1903C37.5416 33.1903 38.047 33.0714 38.0765 32.804C38.225 31.7343 38.4038 31.0501 38.9985 30.2454C39.3545 29.7992 39.9788 29.2348 40.4841 28.7885C41.4357 28.0158 41.7621 27.5704 42.0895 26.4703C42.2379 25.965 42.4168 25.4892 42.6538 25.0438C43.219 24.0028 44.2296 22.8142 45.8079 22.8142C46.3132 22.8142 46.7291 22.9627 46.9966 23.3786C47.145 23.6165 47.2049 23.9438 47.2049 24.1817C47.2049 24.7165 46.8186 25.4597 46.6397 25.8166C45.9859 27.2135 44.9162 29.3562 44.9162 31.8237C44.9162 37.2066 43.0139 39.8841 41.5251 41.2516C40.0682 42.619 37.7771 43.8109 35.0717 43.8109C33.1398 43.8109 31.1457 43.2457 29.5108 42.176C27.2221 40.6593 25.7923 38.2787 24.3362 35.9015C23.1763 33.9688 22.3741 32.4504 21.1231 29.508C20.4176 27.8025 19.7614 26.1381 19.1962 24.3244ZM26.8407 14.3617C26.8407 13.2321 27.8816 12.7859 28.7438 12.7859C29.665 12.7859 29.9915 13.2321 30.2294 14.1837C30.4377 14.9564 30.5271 15.6693 30.6157 16.5019C30.7347 17.3337 31.1506 19.2393 31.2695 19.7151C31.7158 21.35 32.6075 23.2842 33.678 25.6033C33.0537 25.8108 32.2211 26.1676 31.6567 26.4646C30.943 26.851 30.7946 26.851 30.4968 26.2866C29.8725 25.1275 29.4271 24.2653 29.0407 23.2523C28.7134 22.4196 28.387 21.4681 28.1195 20.3664C27.6733 18.4936 27.6142 17.958 27.2574 17.0933C27.049 16.205 26.8407 15.1049 26.8407 14.3617Z" fill="#FFE450"/>
</g>
</g>
<defs>
<clipPath id="clip0_2635_7094">
<rect width="56" height="56" fill="white"/>
</clipPath>
<clipPath id="clip1_2635_7094">
<rect width="56" height="56" fill="white"/>
</clipPath>
<clipPath id="clip2_2635_7094">
<rect width="42" height="34.586" fill="white" transform="translate(7 11)"/>
</clipPath>
</defs>
</svg>
