<svg width="56" height="56" viewBox="0 0 56 56" fill="none" xmlns="http://www.w3.org/2000/svg">
<g clip-path="url(#clip0_2730_15827)">
<path fill-rule="evenodd" clip-rule="evenodd" d="M11.4844 0H44.5156C47.5589 0.00841846 50.4751 1.22108 52.627 3.373C54.7789 5.52491 55.9916 8.44112 56 11.4844V44.5156C55.9916 47.5589 54.7789 50.4751 52.627 52.627C50.4751 54.7789 47.5589 55.9916 44.5156 56H11.4844C8.44112 55.9916 5.52491 54.7789 3.373 52.627C1.22108 50.4751 0.00841846 47.5589 0 44.5156L0 11.4844C0.00841846 8.44112 1.22108 5.52491 3.373 3.373C5.52491 1.22108 8.44112 0.00841846 11.4844 0Z" fill="#121212"/>
<g clip-path="url(#clip1_2730_15827)">
<path d="M28 56C43.464 56 56 43.464 56 28C56 12.536 43.464 0 28 0C12.536 0 0 12.536 0 28C0 43.464 12.536 56 28 56Z" fill="#121212"/>
</g>
<g clip-path="url(#clip2_2730_15827)">
<path d="M47.9698 21.6074C47.9606 21.559 47.9527 21.5105 47.9397 21.463C47.9316 21.4344 47.9219 21.4076 47.9128 21.3794C47.8997 21.3372 47.8849 21.2955 47.8686 21.2544C47.8567 21.226 47.8433 21.1985 47.8303 21.171C47.8123 21.1322 47.7927 21.0941 47.7716 21.0569C47.7566 21.0294 47.7392 21.0035 47.7227 20.9773C47.6827 20.915 47.6387 20.8554 47.5911 20.7988C47.5639 20.7668 47.5355 20.7357 47.5061 20.7057C47.4834 20.683 47.4608 20.6604 47.437 20.6383C47.4058 20.6098 47.3732 20.5827 47.3395 20.5571C47.3137 20.5371 47.2884 20.5165 47.2614 20.4982C47.2519 20.4913 47.2431 20.4832 47.233 20.4766L28.953 8.28913C28.6708 8.10077 28.3391 8.00024 27.9998 8.00024C27.6605 8.00024 27.3288 8.10077 27.0466 8.28913L8.76531 20.4763C8.75516 20.4827 8.74719 20.4908 8.73687 20.4979C8.71 20.5166 8.68469 20.5366 8.65875 20.5566C8.62555 20.5827 8.59304 20.6096 8.56125 20.6374C8.53765 20.659 8.51482 20.6814 8.49281 20.7046C8.46266 20.7349 8.43469 20.7655 8.40719 20.7979C8.38688 20.8221 8.36734 20.8463 8.34844 20.8733C8.32266 20.9073 8.29891 20.9418 8.27578 20.9779C8.25906 21.0043 8.24234 21.0301 8.22672 21.0576C8.20575 21.0944 8.18636 21.1322 8.16859 21.1707C8.15563 21.1982 8.14172 21.2262 8.13031 21.2541C8.11359 21.2951 8.09906 21.3371 8.08562 21.3791C8.07656 21.4073 8.06688 21.4346 8.05922 21.4599C8.04672 21.5073 8.03766 21.5552 8.02906 21.6043C8.02438 21.6291 8.01828 21.6533 8.015 21.6787C8.00531 21.7529 8 21.8273 8 21.9032V34.0932C8 34.1685 8.00531 34.244 8.01609 34.3177C8.02 34.3448 8.02703 34.3662 8.03234 34.3921C8.04094 34.4405 8.04844 34.489 8.06469 34.5376C8.07219 34.5644 8.08078 34.5915 8.09156 34.621C8.105 34.6641 8.11844 34.7073 8.13469 34.7466C8.14594 34.7735 8.16156 34.8004 8.17234 34.8274C8.19016 34.8651 8.21016 34.9027 8.23172 34.9421C8.24672 34.969 8.26391 34.996 8.28016 35.0207C8.30328 35.0585 8.32859 35.0908 8.35547 35.123C8.37438 35.1501 8.39328 35.1715 8.41484 35.1974C8.44219 35.2298 8.46859 35.2621 8.50094 35.2907C8.52297 35.3121 8.54406 35.3391 8.57094 35.3552C8.60219 35.3823 8.63563 35.4091 8.66781 35.4371C8.69375 35.4587 8.72188 35.4749 8.74328 35.4958C8.75359 35.5012 8.75953 35.5119 8.77031 35.5168L27.0466 47.7105C27.3281 47.9006 27.6603 48.0014 28 47.9998C28.3393 47.9991 28.6709 47.8986 28.9534 47.7107L47.2347 35.5232C47.2448 35.5169 47.2534 35.5093 47.2631 35.5023C47.29 35.4835 47.3153 35.4635 47.3412 35.4437C47.3747 35.4171 47.4075 35.3898 47.4388 35.3618C47.4623 35.3407 47.485 35.3176 47.5077 35.2949C47.5595 35.2426 47.6075 35.1866 47.6514 35.1274C47.6773 35.0935 47.7011 35.0585 47.7242 35.0229C47.7409 34.9971 47.7577 34.9707 47.7733 34.9443C47.7948 34.9065 47.8136 34.8683 47.8319 34.8296C47.8448 34.8021 47.8584 34.7746 47.8702 34.7466C47.8869 34.7051 47.9009 34.663 47.9144 34.621C47.9234 34.593 47.9331 34.5655 47.9412 34.5376C47.9538 34.4902 47.9623 34.4416 47.9714 34.3932C47.9758 34.3683 47.9823 34.3441 47.9848 34.3188C47.9947 34.2446 48 34.1702 48 34.0943V21.9063C48 21.8304 47.9941 21.756 47.9848 21.6816C47.9806 21.6552 47.9725 21.6338 47.9672 21.6074H47.9698ZM27.9995 32.066L21.9206 28.0002L27.9995 23.9338L34.0788 28.0002L27.9995 32.066ZM26.2811 20.948L18.8292 25.9324L12.8141 21.9083L26.2812 12.9305L26.2811 20.948ZM15.7378 27.9996L11.4383 30.8755V25.1238L15.7378 27.9996ZM18.8292 30.0691L26.2812 35.0529V43.0704L12.8141 34.0915L18.8294 30.068L18.8292 30.0691ZM29.7183 35.0519L37.1702 30.0682L43.1859 34.0915L29.7183 43.0693V35.0518V35.0519ZM40.2616 28.0007L44.5617 25.1243V30.8766L40.2617 27.9996V28.0007H40.2616ZM37.1702 25.9323L29.7183 20.9485V12.9305L43.1859 21.9085L37.1703 25.9323H37.1702Z" fill="#CCCCCC"/>
</g>
</g>
<defs>
<clipPath id="clip0_2730_15827">
<rect width="56" height="56" fill="white"/>
</clipPath>
<clipPath id="clip1_2730_15827">
<rect width="56" height="56" fill="white"/>
</clipPath>
<clipPath id="clip2_2730_15827">
<rect width="40" height="40" fill="white" transform="translate(8 8)"/>
</clipPath>
</defs>
</svg>
