<svg width="56" height="56" viewBox="0 0 56 56" fill="none" xmlns="http://www.w3.org/2000/svg">
<g clip-path="url(#clip0_2635_8189)">
<path fill-rule="evenodd" clip-rule="evenodd" d="M11.6637 0H44.3341C50.7786 0 56 5.61792 56 12.5485V43.4515C56 50.3821 50.7786 56 44.3363 56H11.6637C5.22144 56 0 50.3821 0 43.4515V12.5485C0 5.61792 5.22144 0 11.6637 0Z" fill="#0052FF"/>
<path fill-rule="evenodd" clip-rule="evenodd" d="M27.9983 8.11108C38.9833 8.11108 47.8873 17.0151 47.8873 28C47.8873 38.985 38.9833 47.889 27.9983 47.889C17.0134 47.889 8.10938 38.985 8.10938 28C8.10938 17.0151 17.0134 8.11108 27.9983 8.11108Z" fill="white"/>
<path fill-rule="evenodd" clip-rule="evenodd" d="M23.0989 21.6428H32.8944C33.7008 21.6428 34.3526 22.3462 34.3526 23.2108V32.7868C34.3526 33.6537 33.6985 34.3548 32.8944 34.3548H23.0989C22.2925 34.3548 21.6406 33.6515 21.6406 32.7868V23.2108C21.6406 22.3462 22.2947 21.6428 23.0989 21.6428Z" fill="#0052FF"/>
</g>
<defs>
<clipPath id="clip0_2635_8189">
<rect width="56" height="56" fill="white"/>
</clipPath>
</defs>
</svg>
