<svg width="56" height="56" viewBox="0 0 56 56" fill="none" xmlns="http://www.w3.org/2000/svg">
<g clip-path="url(#clip0_2635_6773)">
<path d="M50.4035 0H5.5965C2.5165 0.00875 0.00875 2.5165 0 5.5965V50.4035C0.00875 53.4835 2.5165 55.9912 5.5965 56H50.4035C53.4835 55.9912 55.9912 53.4835 56 50.4035V5.5965C55.9912 2.5165 53.4835 0.00875 50.4035 0Z" fill="white"/>
<path d="M50.4035 0H5.5965C2.5165 0.00875 0.00875 2.5165 0 5.5965V50.4035C0.00875 53.4835 2.5165 55.9912 5.5965 56H50.4035C53.4835 55.9912 55.9912 53.4835 56 50.4035V5.5965C55.9912 2.5165 53.4835 0.00875 50.4035 0ZM16.443 33.7505C18.9123 34.881 21.8295 33.7873 22.96 31.3162H26.8345C24.4195 41.2055 9.863 39.4555 9.863 29.274C9.863 19.0838 24.4195 17.3337 26.8345 27.2318H22.96C21.5373 24.1062 17.4282 23.3573 15.0028 25.7915C12.5685 28.2153 13.3158 32.3277 16.443 33.7505ZM42.9118 35.7192C42.1732 36.358 41.3438 36.8497 40.432 37.1962C37.8158 38.2077 34.8635 37.8805 32.529 36.3038V37.1962H29.001V12.5317H32.501V22.12C33.7505 21.273 35.1995 20.7708 36.7028 20.6517H37.331C45.297 20.6342 48.9615 30.5497 42.91 35.7175L42.9118 35.7192ZM42.392 29.267C42.4463 32.0198 40.2325 34.2895 37.4798 34.2895C34.727 34.2895 32.5115 32.0198 32.5762 29.267C32.7127 22.869 42.2467 22.869 42.392 29.267Z" fill="#0287D1"/>
</g>
<defs>
<clipPath id="clip0_2635_6773">
<rect width="56" height="56" fill="white"/>
</clipPath>
</defs>
</svg>
