<svg width="52" height="53" viewBox="0 0 52 53" fill="none" xmlns="http://www.w3.org/2000/svg">
<path d="M52 8.68457C52 4.19726 48.3623 0.55957 43.875 0.55957H8.125C3.63769 0.55957 0 4.19726 0 8.68457V44.4346C0 48.9219 3.63769 52.5596 8.125 52.5596H43.875C48.3623 52.5596 52 48.9219 52 44.4346V8.68457Z" fill="#7289DA"/>
<path d="M23.647 26.0916C22.906 26.0916 22.321 26.7416 22.321 27.5346C22.321 28.3276 22.919 28.9776 23.647 28.9776C24.388 28.9776 24.973 28.3276 24.973 27.5346C24.986 26.7416 24.388 26.0916 23.647 26.0916ZM28.392 26.0916C27.651 26.0916 27.066 26.7416 27.066 27.5346C27.066 28.3276 27.664 28.9776 28.392 28.9776C29.133 28.9776 29.718 28.3276 29.718 27.5346C29.718 26.7416 29.133 26.0916 28.392 26.0916Z" fill="white"/>
<path d="M34.71 15.1846H17.29C15.821 15.1846 14.625 16.3806 14.625 17.8626V35.4386C14.625 36.9206 15.821 38.1166 17.29 38.1166H32.032L31.343 35.7116L33.007 37.2586L34.58 38.7146L37.375 41.1846V17.8626C37.375 16.3806 36.179 15.1846 34.71 15.1846ZM29.692 32.1626C29.692 32.1626 29.224 31.6036 28.834 31.1096C30.537 30.6286 31.187 29.5626 31.187 29.5626C30.654 29.9136 30.147 30.1606 29.692 30.3296C29.042 30.6026 28.418 30.7846 27.807 30.8886C26.559 31.1226 25.415 31.0576 24.44 30.8756C23.699 30.7326 23.062 30.5246 22.529 30.3166C22.23 30.1996 21.905 30.0566 21.58 29.8746C21.541 29.8486 21.502 29.8356 21.463 29.8096C21.437 29.7966 21.424 29.7836 21.411 29.7706C21.177 29.6406 21.047 29.5496 21.047 29.5496C21.047 29.5496 21.671 30.5896 23.322 31.0836C22.932 31.5776 22.451 32.1626 22.451 32.1626C19.578 32.0716 18.486 30.1866 18.486 30.1866C18.486 26.0006 20.358 22.6076 20.358 22.6076C22.23 21.2036 24.011 21.2426 24.011 21.2426L24.141 21.3986C21.801 22.0746 20.722 23.1016 20.722 23.1016C20.722 23.1016 21.008 22.9456 21.489 22.7246C22.88 22.1136 23.985 21.9446 24.44 21.9056C24.518 21.8926 24.583 21.8796 24.661 21.8796C25.454 21.7756 26.351 21.7496 27.287 21.8536C28.522 21.9966 29.848 22.3606 31.2 23.1016C31.2 23.1016 30.173 22.1266 27.963 21.4506L28.145 21.2426C28.145 21.2426 29.926 21.2036 31.798 22.6076C31.798 22.6076 33.67 26.0006 33.67 30.1866C33.67 30.1866 32.565 32.0716 29.692 32.1626Z" fill="white"/>
</svg>
