<svg width="56" height="56" viewBox="0 0 56 56" fill="none" xmlns="http://www.w3.org/2000/svg">
<g clip-path="url(#clip0_2730_15515)">
<path fill-rule="evenodd" clip-rule="evenodd" d="M11.4844 0H44.5156C47.5589 0.00841846 50.4751 1.22108 52.627 3.373C54.7789 5.52491 55.9916 8.44112 56 11.4844V44.5156C55.9916 47.5589 54.7789 50.4751 52.627 52.627C50.4751 54.7789 47.5589 55.9916 44.5156 56H11.4844C8.44112 55.9916 5.52491 54.7789 3.373 52.627C1.22108 50.4751 0.00841846 47.5589 0 44.5156L0 11.4844C0.00841846 8.44112 1.22108 5.52491 3.373 3.373C5.52491 1.22108 8.44112 0.00841846 11.4844 0Z" fill="white"/>
<g clip-path="url(#clip1_2730_15515)">
<path d="M28 56C43.464 56 56 43.464 56 28C56 12.536 43.464 0 28 0C12.536 0 0 12.536 0 28C0 43.464 12.536 56 28 56Z" fill="white"/>
</g>
<g clip-path="url(#clip2_2730_15515)">
<path d="M17.5219 26.6721V29.2234H18.158C18.3203 29.221 18.4805 29.186 18.6291 29.1206C18.7777 29.0552 18.9117 28.9607 19.0231 28.8426C19.2518 28.6005 19.3769 28.2786 19.3718 27.9456C19.3767 27.7802 19.3488 27.6155 19.2898 27.4609C19.2308 27.3063 19.1418 27.1649 19.028 27.0448C18.9161 26.9265 18.7812 26.8324 18.6316 26.7683C18.482 26.7041 18.3208 26.6713 18.158 26.6718H17.5222L17.5219 26.6721ZM18.158 25.8721C19.3436 25.8721 20.2406 26.7908 20.2406 27.9456C20.2406 29.1004 19.3436 30.0243 18.158 30.0243H16.755C16.7416 30.0241 16.7284 30.0213 16.7161 30.0161C16.7038 30.0108 16.6927 30.0031 16.6834 29.9936C16.674 29.984 16.6667 29.9727 16.6617 29.9602C16.6567 29.9478 16.6543 29.9345 16.6544 29.9211V25.9795C16.6544 25.9224 16.6995 25.876 16.755 25.876L18.158 25.8721ZM23.2966 29.3123C23.8351 29.3139 24.3214 28.9827 24.5286 28.4731C24.6302 28.2241 24.6573 27.951 24.6068 27.6869C24.5562 27.4228 24.4301 27.179 24.2438 26.9851C24.0608 26.7944 23.8242 26.6637 23.5653 26.6103C23.3064 26.5569 23.0374 26.5833 22.7938 26.686C22.2962 26.8962 21.9712 27.3935 21.9702 27.9456C21.9702 28.6982 22.5628 29.3087 23.2966 29.3123ZM23.2969 25.7781C24.5449 25.7781 25.4989 26.7616 25.4989 27.9456C25.4989 29.1296 24.5449 30.1132 23.2966 30.1132C22.0487 30.1132 21.1028 29.1345 21.1028 27.9456C21.1028 26.7567 22.0571 25.7781 23.2969 25.7781ZM28.5303 29.3123C29.2644 29.3103 29.8583 28.6992 29.8577 27.9466C29.8567 27.1934 29.2615 26.5835 28.5277 26.5832C27.7933 26.5832 27.1977 27.1927 27.1967 27.9456C27.1967 28.3083 27.3372 28.656 27.5873 28.9123C27.7097 29.0386 27.8562 29.1391 28.0181 29.2078C28.18 29.2765 28.3544 29.312 28.5303 29.3123ZM28.53 25.7781C29.774 25.7781 30.728 26.7567 30.728 27.9456C30.728 29.1345 29.7701 30.1132 28.53 30.1132C27.2902 30.1132 26.328 29.1345 26.328 27.9456C26.328 26.7567 27.282 25.7781 28.53 25.7781ZM33.6378 26.6721H32.7408V27.7701H33.6378C33.7086 27.7733 33.7794 27.7619 33.8457 27.7366C33.912 27.7113 33.9724 27.6727 34.0231 27.6232C34.1269 27.5226 34.186 27.3831 34.1873 27.2365C34.1899 27.1621 34.1775 27.088 34.1507 27.0185C34.1239 26.9491 34.0834 26.8857 34.0316 26.8323C33.9807 26.7798 33.9194 26.7384 33.8515 26.711C33.7837 26.6836 33.7109 26.6707 33.6378 26.6731V26.6721ZM31.8731 25.9795C31.8731 25.9224 31.9185 25.876 31.974 25.876H33.6627C34.4679 25.876 35.0505 26.481 35.0505 27.2407C35.0566 27.7546 34.776 28.2265 34.3281 28.4565L35.1069 29.8686C35.1177 29.8848 35.1238 29.9037 35.1245 29.9232C35.1251 29.9427 35.1204 29.9619 35.1108 29.9789C35.1014 29.9956 35.0875 30.0092 35.0706 30.0182C35.0536 30.0272 35.0345 30.0311 35.0154 30.0295H34.332C34.313 30.0298 34.2944 30.0247 34.2782 30.0148C34.262 30.0049 34.2489 29.9907 34.2405 29.9737L33.4899 28.5762H32.7376V29.9179C32.7378 29.9313 32.7354 29.9446 32.7304 29.9571C32.7255 29.9695 32.7181 29.9809 32.7088 29.9905C32.6995 30.0001 32.6883 30.0078 32.676 30.0131C32.6637 30.0184 32.6504 30.0212 32.637 30.0214H31.9785C31.9651 30.0212 31.9519 30.0184 31.9396 30.0131C31.9273 30.0078 31.9161 30.0001 31.9068 29.9905C31.8974 29.9809 31.8901 29.9695 31.8851 29.9571C31.8802 29.9446 31.8778 29.9313 31.878 29.9179L31.8734 25.9798L31.8731 25.9795ZM37.3121 26.6915V29.2432H37.9479C38.1102 29.241 38.2704 29.2063 38.4191 29.1411C38.5677 29.0759 38.7018 28.9815 38.8134 28.8636C39.0422 28.6218 39.1675 28.3002 39.1627 27.9674C39.1679 27.8018 39.1403 27.6368 39.0815 27.4819C39.0226 27.327 38.9337 27.1853 38.8199 27.0649C38.7078 26.9465 38.5726 26.8522 38.4227 26.7881C38.2728 26.7239 38.1113 26.6912 37.9482 26.6919L37.3121 26.6915ZM37.9479 25.8906C39.1335 25.8906 40.0305 26.8103 40.0305 27.9674C40.0305 29.1245 39.1335 30.0441 37.9479 30.0441H36.5492C36.5357 30.0439 36.5225 30.0411 36.5102 30.0358C36.4979 30.0305 36.4867 30.0228 36.4774 30.0132C36.468 30.0036 36.4607 29.9923 36.4558 29.9798C36.4508 29.9673 36.4484 29.954 36.4486 29.9406V25.9993C36.4486 25.9419 36.4937 25.8955 36.5492 25.8955L37.9479 25.8906ZM42.6762 26.9053L42.1841 28.2697H43.1673L42.6762 26.9053ZM41.8954 29.0408L41.5733 29.949C41.5668 29.9704 41.5534 29.989 41.5352 30.002C41.517 30.0149 41.495 30.0214 41.4727 30.0204H40.774C40.7562 30.0221 40.7383 30.0189 40.7221 30.0113C40.706 30.0036 40.6922 29.9918 40.6822 29.9769C40.672 29.962 40.6658 29.9446 40.6643 29.9265C40.6627 29.9084 40.6659 29.8903 40.6734 29.8738L42.1831 25.936C42.1902 25.9153 42.2038 25.8974 42.222 25.8851C42.2401 25.8728 42.2618 25.8668 42.2837 25.8679H43.0655C43.0874 25.8667 43.1092 25.8727 43.1274 25.885C43.1456 25.8973 43.1593 25.9152 43.1663 25.936L44.676 29.8738C44.6835 29.8903 44.6866 29.9085 44.685 29.9266C44.6834 29.9446 44.6772 29.962 44.667 29.9769C44.6569 29.9917 44.6431 30.0035 44.627 30.0111C44.6108 30.0187 44.5929 30.0218 44.5752 30.0201H43.8767C43.8544 30.021 43.8325 30.0145 43.8142 30.0016C43.796 29.9887 43.7826 29.9701 43.7762 29.9487L43.4541 29.0404H41.8954V29.0408ZM45.486 26.9939C45.486 26.3419 46.0355 25.7781 46.9033 25.7781C47.3706 25.7676 47.823 25.9424 48.1619 26.2643C48.1722 26.2741 48.1805 26.2859 48.1861 26.2989C48.1917 26.312 48.1946 26.326 48.1946 26.3402C48.1946 26.3544 48.1917 26.3685 48.1861 26.3816C48.1805 26.3946 48.1722 26.4064 48.1619 26.4161L47.7749 26.8103C47.7657 26.8198 47.7546 26.8275 47.7423 26.8327C47.73 26.8379 47.7169 26.8405 47.7036 26.8405C47.6902 26.8405 47.6771 26.8379 47.6648 26.8327C47.6525 26.8275 47.6414 26.8198 47.6322 26.8103C47.4499 26.6394 47.2105 26.5426 46.9607 26.5388C46.6136 26.5388 46.357 26.7454 46.357 26.9838C46.357 27.7546 48.4081 27.3098 48.4081 28.7929C48.4071 29.5445 47.8534 30.1132 46.8744 30.1132C46.6026 30.116 46.3329 30.064 46.0815 29.9605C45.8301 29.857 45.6021 29.7039 45.4111 29.5105C45.4008 29.5007 45.3925 29.4889 45.3869 29.4759C45.3813 29.4628 45.3784 29.4488 45.3784 29.4346C45.3784 29.4204 45.3813 29.4063 45.3869 29.3932C45.3925 29.3802 45.4008 29.3684 45.4111 29.3587L45.7854 28.9746C45.7948 28.9645 45.8061 28.9565 45.8186 28.9511C45.8312 28.9456 45.8447 28.9428 45.8584 28.9428C45.8721 28.9428 45.8857 28.9456 45.8982 28.9511C45.9108 28.9565 45.9221 28.9645 45.9314 28.9746C46.167 29.2081 46.4843 29.3408 46.816 29.3444C47.2497 29.3444 47.5355 29.1069 47.5355 28.8095C47.5355 28.0384 45.4854 28.4835 45.4854 27M52.1276 25.9743V27.5327H50.3914V25.9743C50.3916 25.9609 50.3891 25.9477 50.3842 25.9352C50.3792 25.9228 50.3719 25.9115 50.3625 25.9019C50.3532 25.8923 50.342 25.8847 50.3297 25.8794C50.3175 25.8741 50.3042 25.8713 50.2909 25.8712H49.6324C49.619 25.8713 49.6058 25.8741 49.5935 25.8794C49.5812 25.8847 49.57 25.8923 49.5607 25.9019C49.5514 25.9115 49.544 25.9228 49.5391 25.9352C49.5341 25.9477 49.5316 25.9609 49.5318 25.9743V29.9114C49.5318 29.9685 49.5772 30.0149 49.6324 30.0149H50.2909C50.346 30.0149 50.3914 29.9685 50.3914 29.9114V28.3284H52.1263V29.9114C52.1263 29.9685 52.1717 30.0149 52.2268 30.0149H52.8853C52.9408 30.0149 52.9859 29.9685 52.9859 29.9114V25.9743C52.9861 25.9609 52.9836 25.9477 52.9786 25.9352C52.9737 25.9228 52.9663 25.9115 52.957 25.9019C52.9476 25.8923 52.9365 25.8847 52.9242 25.8794C52.9119 25.8741 52.8987 25.8713 52.8853 25.8712H52.2268C52.2 25.8718 52.1746 25.8831 52.156 25.9024C52.1374 25.9217 52.1272 25.9475 52.1276 25.9743ZM12.958 26.3967C12.5013 25.55 11.6076 25.0229 10.6358 25.0261H3.28253C3.23288 25.0263 3.18437 25.0411 3.14307 25.0687C3.10177 25.0963 3.0695 25.1354 3.05027 25.1812C3.03133 25.2267 3.02639 25.2768 3.0361 25.3251C3.04581 25.3734 3.06972 25.4177 3.10477 25.4524L4.7066 27.0419C4.84803 27.1827 5.04072 27.2615 5.24119 27.2615H10.4249C10.7944 27.2576 11.0964 27.5502 11.1003 27.9145C11.1042 28.2788 10.808 28.5772 10.4385 28.5808H6.86475C6.81505 28.5808 6.76646 28.5955 6.72504 28.6229C6.68362 28.6504 6.65121 28.6894 6.63184 28.7352C6.61271 28.7807 6.60765 28.831 6.6173 28.8794C6.62696 28.9278 6.65089 28.9723 6.68601 29.007L8.28881 30.5978C8.43113 30.7385 8.62326 30.8173 8.8234 30.8171H10.4398C12.5428 30.8171 14.133 28.5983 12.958 26.3957" fill="#FF3008"/>
</g>
</g>
<defs>
<clipPath id="clip0_2730_15515">
<rect width="56" height="56" fill="white"/>
</clipPath>
<clipPath id="clip1_2730_15515">
<rect width="56" height="56" fill="white"/>
</clipPath>
<clipPath id="clip2_2730_15515">
<rect width="50" height="5.84" fill="white" transform="translate(3 25)"/>
</clipPath>
</defs>
</svg>
