<svg width="56" height="56" viewBox="0 0 56 56" fill="none" xmlns="http://www.w3.org/2000/svg">
<g clip-path="url(#clip0_2730_9042)">
<path d="M0 0H56V56H0V0Z" fill="#E84C88"/>
<path d="M27.9968 47.7076C17.1737 47.7076 8.28906 38.8769 8.28906 27.9999C8.28906 17.123 17.1737 8.29224 27.9968 8.29224C38.8198 8.29224 47.7044 17.1769 47.7044 27.9999C47.7044 38.823 38.8737 47.7076 27.9968 47.7076ZM44.6352 30.6922C44.0429 30.5307 39.3583 29.1307 34.1352 29.9922C36.2891 36.0769 37.2044 40.923 37.366 41.9999C41.1891 39.3615 43.8275 35.3768 44.6352 30.6922ZM34.566 43.5076C34.2968 41.9999 33.3275 36.8307 30.9583 30.6922H30.8506C21.4275 34.0307 17.9814 40.5999 17.6583 41.1922C20.566 43.3999 24.1198 44.7999 27.9968 44.7999C30.366 44.7999 32.5737 44.3692 34.566 43.5076ZM15.5044 39.3076C15.8275 38.7153 20.5121 31.0153 29.1814 28.2153C29.4506 28.1076 29.6121 28.0538 29.8814 28.0538C29.4506 27.0845 29.0198 26.1153 28.4814 25.1461C20.0814 27.6769 11.9506 27.5692 11.1429 27.5153V28.0538C11.1968 32.3615 12.7583 36.2922 15.5044 39.3076ZM11.5198 24.6076C12.3275 24.6076 19.2198 24.6076 27.0814 22.6153C24.2814 17.6076 21.3198 13.5153 20.8891 12.923C16.0968 15.0769 12.5968 19.3307 11.5198 24.6076ZM24.066 11.7384C24.4968 12.3307 27.566 16.5307 30.366 21.5384C36.2891 19.2769 38.8737 15.9384 39.1968 15.5076C36.2352 12.8692 32.3044 11.3076 28.1044 11.3076C26.5968 11.1999 25.3044 11.3615 24.066 11.7384ZM41.0275 17.3922C40.6506 17.823 37.9044 21.4845 31.6583 24.0692C32.0352 24.8769 32.466 25.6307 32.7891 26.4922C32.8968 26.7615 33.0583 27.0845 33.166 27.3538C38.766 26.6538 44.366 27.7845 44.9044 27.8922C44.7968 23.9076 43.3968 20.2999 41.0275 17.3922Z" fill="white"/>
</g>
<defs>
<clipPath id="clip0_2730_9042">
<rect width="56" height="56" rx="12" fill="white"/>
</clipPath>
</defs>
</svg>
