<svg width="56" height="56" viewBox="0 0 56 56" fill="none" xmlns="http://www.w3.org/2000/svg">
<g clip-path="url(#clip0_2730_9204)">
<path fill-rule="evenodd" clip-rule="evenodd" d="M11.4844 0H44.5156C47.5589 0.00841846 50.4751 1.22108 52.627 3.373C54.7789 5.52491 55.9916 8.44112 56 11.4844V44.5156C55.9916 47.5589 54.7789 50.4751 52.627 52.627C50.4751 54.7789 47.5589 55.9916 44.5156 56H11.4844C8.44112 55.9916 5.52491 54.7789 3.373 52.627C1.22108 50.4751 0.00841846 47.5589 0 44.5156L0 11.4844C0.00841846 8.44112 1.22108 5.52491 3.373 3.373C5.52491 1.22108 8.44112 0.00841846 11.4844 0Z" fill="white"/>
<g clip-path="url(#clip1_2730_9204)">
<path d="M28 56C43.464 56 56 43.464 56 28C56 12.536 43.464 0 28 0C12.536 0 0 12.536 0 28C0 43.464 12.536 56 28 56Z" fill="white"/>
</g>
<g clip-path="url(#clip2_2730_9204)">
<path d="M9.57037 24.7778L6.78518 26.5556L9.57037 28.3333L6.78518 30.1111L4 28.3185L6.78518 26.5407L4 24.7778L6.78518 23L9.57037 24.7778ZM6.77037 30.6741L9.55555 28.8963L12.3407 30.6741L9.55555 32.4519L6.77037 30.6741ZM9.57037 28.3185L12.3556 26.5407L9.57037 24.7778L12.3407 23L15.1259 24.7778L12.3407 26.5556L15.1259 28.3333L12.3407 30.1111L9.57037 28.3185Z" fill="#0061FF"/>
<path d="M17.3047 24.7778H19.5565C20.9936 24.7778 22.1788 25.6074 22.1788 27.5037V27.9037C22.1788 29.8148 21.0677 30.6741 19.601 30.6741H17.3047V24.7778ZM18.5639 25.8445V29.5926H19.5269C20.3417 29.5926 20.8899 29.0593 20.8899 27.8741V27.563C20.8899 26.3778 20.3121 25.8445 19.4825 25.8445H18.5639ZM22.8454 25.9037H23.8528L24.0158 27.0148C24.2084 26.2593 24.6973 25.8593 25.5862 25.8593H25.8973V27.1333H25.3788C24.3565 27.1333 24.1047 27.4889 24.1047 28.4963V30.6889H22.8602V25.9037H22.8454ZM26.1491 28.3926V28.2593C26.1491 26.6593 27.1714 25.7852 28.5639 25.7852C29.9862 25.7852 30.9788 26.6593 30.9788 28.2593V28.3926C30.9788 29.963 30.0158 30.8074 28.5639 30.8074C27.0232 30.7926 26.1491 29.963 26.1491 28.3926ZM29.7047 28.3778V28.2593C29.7047 27.3704 29.2602 26.837 28.5491 26.837C27.8528 26.837 27.3936 27.3259 27.3936 28.2593V28.3778C27.3936 29.237 27.838 29.7259 28.5491 29.7259C29.2602 29.7111 29.7047 29.237 29.7047 28.3778ZM31.6306 25.9037H32.6677L32.7862 26.8074C33.038 26.2 33.5714 25.7852 34.3565 25.7852C35.5714 25.7852 36.3714 26.6593 36.3714 28.2741V28.4074C36.3714 29.9778 35.4825 30.8074 34.3565 30.8074C33.601 30.8074 33.0825 30.4667 32.8306 29.9185V32.3333H31.6158L31.6306 25.9037ZM35.1121 28.3778V28.2741C35.1121 27.3259 34.6232 26.8519 33.9714 26.8519C33.2751 26.8519 32.8158 27.3852 32.8158 28.2741V28.363C32.8158 29.2074 33.2602 29.7407 33.9565 29.7407C34.6677 29.7259 35.1121 29.2667 35.1121 28.3778ZM38.2084 29.8L38.1047 30.6741H37.038V24.3037H38.2528V26.7482C38.5195 26.1259 39.0528 25.7852 39.8084 25.7852C40.9491 25.8 41.7936 26.5852 41.7936 28.1704V28.3185C41.7936 29.9037 40.9936 30.8074 39.7788 30.8074C38.9788 30.7926 38.4602 30.4222 38.2084 29.8ZM40.5195 28.3185V28.2C40.5195 27.3259 40.0454 26.837 39.3788 26.837C38.6973 26.837 38.2232 27.3852 38.2232 28.2148V28.3185C38.2232 29.2074 38.6825 29.7259 39.3639 29.7259C40.0899 29.7259 40.5195 29.2667 40.5195 28.3185ZM42.3269 28.3926V28.2593C42.3269 26.6593 43.3491 25.7852 44.7417 25.7852C46.1639 25.7852 47.1565 26.6593 47.1565 28.2593V28.3926C47.1565 29.963 46.1788 30.8074 44.7417 30.8074C43.201 30.7926 42.3269 29.963 42.3269 28.3926ZM45.8973 28.3778V28.2593C45.8973 27.3704 45.4528 26.837 44.7417 26.837C44.0454 26.837 43.5862 27.3259 43.5862 28.2593V28.3778C43.5862 29.237 44.0306 29.7259 44.7417 29.7259C45.4528 29.7111 45.8973 29.237 45.8973 28.3778ZM48.7862 28.2L47.1121 25.9037H48.5491L49.5121 27.3407L50.4899 25.9037H51.9121L50.2084 28.1852L52.001 30.6741H50.5936L49.4973 29.0889L48.4306 30.6741H46.9639L48.7862 28.2Z" fill="black"/>
</g>
</g>
<defs>
<clipPath id="clip0_2730_9204">
<rect width="56" height="56" fill="white"/>
</clipPath>
<clipPath id="clip1_2730_9204">
<rect width="56" height="56" fill="white"/>
</clipPath>
<clipPath id="clip2_2730_9204">
<rect width="48" height="9.45185" fill="white" transform="translate(4 23)"/>
</clipPath>
</defs>
</svg>
