<svg width="56" height="56" viewBox="0 0 56 56" fill="none" xmlns="http://www.w3.org/2000/svg">
<g clip-path="url(#clip0_2730_9269)">
<path fill-rule="evenodd" clip-rule="evenodd" d="M11.4844 0H44.5156C47.5589 0.00841846 50.4751 1.22108 52.627 3.373C54.7789 5.52491 55.9916 8.44112 56 11.4844V44.5156C55.9916 47.5589 54.7789 50.4751 52.627 52.627C50.4751 54.7789 47.5589 55.9916 44.5156 56H11.4844C8.44112 55.9916 5.52491 54.7789 3.373 52.627C1.22108 50.4751 0.00841846 47.5589 0 44.5156L0 11.4844C0.00841846 8.44112 1.22108 5.52491 3.373 3.373C5.52491 1.22108 8.44112 0.00841846 11.4844 0Z" fill="white"/>
<g clip-path="url(#clip1_2730_9269)">
<path d="M28 56C43.464 56 56 43.464 56 28C56 12.536 43.464 0 28 0C12.536 0 0 12.536 0 28C0 43.464 12.536 56 28 56Z" fill="white"/>
</g>
<g clip-path="url(#clip2_2730_9269)">
<path d="M11.6895 22.8464C8.58622 22.8464 6 24.1631 6 28.1354C6 31.2822 7.7391 33.2639 11.7697 33.2639C16.5142 33.2639 16.8184 30.1388 16.8184 30.1388H14.5193C14.5193 30.1388 14.0263 31.8218 11.6295 31.8218C9.6772 31.8218 8.27305 30.5025 8.27305 28.6545H17.0587V27.4945C17.0587 25.666 15.8977 22.8468 11.6895 22.8468V22.8464ZM11.6094 24.3291C13.4679 24.3291 14.7351 25.4676 14.7351 27.1737H8.3242C8.32387 25.3624 9.9775 24.3291 11.6094 24.3291Z" fill="#E53238"/>
<path d="M17.0576 18.9998V31.2689C17.0576 31.9652 17.0078 32.943 17.0078 32.943H19.2C19.2 32.943 19.2789 32.2408 19.2789 31.5993C19.2789 31.5993 20.3623 33.2938 23.3079 33.2938C26.4099 33.2938 28.5166 31.1402 28.5166 28.0547C28.5166 25.1847 26.5811 22.876 23.3128 22.876C20.2521 22.876 19.301 24.5287 19.301 24.5287V18.9995H17.0576V18.9998ZM22.7469 24.394C24.8533 24.394 26.1927 25.9573 26.1927 28.0551C26.1927 30.3047 24.6457 31.7765 22.762 31.7765C20.5141 31.7765 19.3013 30.0212 19.3013 28.0752C19.3013 26.2622 20.3897 24.394 22.7469 24.394Z" fill="#0064D2"/>
<path d="M33.9633 22.8463C29.2948 22.8463 28.9948 25.4028 28.9948 25.8113H31.3187C31.3187 25.8113 31.4405 24.3191 33.8029 24.3191C35.3378 24.3191 36.5274 25.0216 36.5274 26.3723V26.8531H33.8029C30.1858 26.8531 28.2734 27.9111 28.2734 30.0584C28.2734 32.1714 30.0403 33.3212 32.4281 33.3212C35.6823 33.3212 36.73 31.5233 36.73 31.5233C36.73 32.2384 36.7851 32.9433 36.7851 32.9433H38.8513C38.8513 32.9433 38.7711 32.0695 38.7711 31.5111V26.6799C38.7711 23.5125 36.2162 22.8459 33.963 22.8459L33.9633 22.8463ZM36.5274 28.2956V28.9368C36.5274 29.773 36.0116 31.8517 32.974 31.8517C31.3104 31.8517 30.5973 31.0217 30.5973 30.0591C30.5976 28.3071 32.9994 28.2959 36.5274 28.2959V28.2956Z" fill="#F5AF02"/>
<path d="M37.5234 23.2473H40.1377L43.8898 30.7644L47.633 23.2473H50.0014L43.183 36.6298H40.6987L42.6658 32.8995L37.5234 23.2473Z" fill="#86B817"/>
<path d="M11.6895 22.8464C8.58622 22.8464 6 24.1631 6 28.1354C6 31.2822 7.7391 33.2639 11.7697 33.2639C16.5142 33.2639 16.8184 30.1388 16.8184 30.1388H14.5193C14.5193 30.1388 14.0263 31.8218 11.6295 31.8218C9.6772 31.8218 8.27305 30.5025 8.27305 28.6545H17.0587V27.4945C17.0587 25.666 15.8977 22.8468 11.6895 22.8468V22.8464ZM11.6094 24.3291C13.4679 24.3291 14.7351 25.4676 14.7351 27.1737H8.3242C8.32387 25.3624 9.9775 24.3291 11.6094 24.3291Z" fill="#E53238"/>
<path d="M17.0576 18.9998V31.2689C17.0576 31.9652 17.0078 32.943 17.0078 32.943H19.2C19.2 32.943 19.2789 32.2408 19.2789 31.5993C19.2789 31.5993 20.3623 33.2938 23.3079 33.2938C26.4099 33.2938 28.5166 31.1402 28.5166 28.0547C28.5166 25.1847 26.5811 22.876 23.3128 22.876C20.2521 22.876 19.301 24.5287 19.301 24.5287V18.9995H17.0576V18.9998ZM22.7469 24.394C24.8533 24.394 26.1927 25.9573 26.1927 28.0551C26.1927 30.3047 24.6457 31.7765 22.762 31.7765C20.5141 31.7765 19.3013 30.0212 19.3013 28.0752C19.3013 26.2622 20.3897 24.394 22.7469 24.394Z" fill="#0064D2"/>
<path d="M33.9633 22.8463C29.2948 22.8463 28.9948 25.4028 28.9948 25.8113H31.3187C31.3187 25.8113 31.4405 24.3191 33.8029 24.3191C35.3378 24.3191 36.5274 25.0216 36.5274 26.3723V26.8531H33.8029C30.1858 26.8531 28.2734 27.9111 28.2734 30.0584C28.2734 32.1714 30.0403 33.3212 32.4281 33.3212C35.6823 33.3212 36.73 31.5233 36.73 31.5233C36.73 32.2384 36.7851 32.9433 36.7851 32.9433H38.8513C38.8513 32.9433 38.7711 32.0695 38.7711 31.5111V26.6799C38.7711 23.5125 36.2162 22.8459 33.963 22.8459L33.9633 22.8463ZM36.5274 28.2956V28.9368C36.5274 29.773 36.0116 31.8517 32.974 31.8517C31.3104 31.8517 30.5973 31.0217 30.5973 30.0591C30.5976 28.3071 32.9994 28.2959 36.5274 28.2959V28.2956Z" fill="#F5AF02"/>
<path d="M37.5234 23.2473H40.1377L43.8898 30.7644L47.633 23.2473H50.0014L43.183 36.6298H40.6987L42.6658 32.8995L37.5234 23.2473Z" fill="#86B817"/>
</g>
</g>
<defs>
<clipPath id="clip0_2730_9269">
<rect width="56" height="56" fill="white"/>
</clipPath>
<clipPath id="clip1_2730_9269">
<rect width="56" height="56" fill="white"/>
</clipPath>
<clipPath id="clip2_2730_9269">
<rect width="44" height="17.63" fill="white" transform="translate(6 19)"/>
</clipPath>
</defs>
</svg>
