<svg width="56" height="56" viewBox="0 0 56 56" fill="none" xmlns="http://www.w3.org/2000/svg">
<mask id="mask0_3961_7489" style="mask-type:luminance" maskUnits="userSpaceOnUse" x="0" y="0" width="56" height="56">
<path d="M0 0H56V56H0V0Z" fill="white"/>
</mask>
<g mask="url(#mask0_3961_7489)">
<path d="M13.535 0H42.4645C42.6861 0 42.9076 0.00551526 43.1287 0.0160863C43.3502 0.0271169 43.5708 0.0436627 43.7914 0.0652643C44.0116 0.0868659 44.2317 0.113983 44.4505 0.146615C44.6697 0.178788 44.8881 0.216935 45.1055 0.260138C45.3224 0.303341 45.5384 0.3516 45.7535 0.405834C45.9681 0.459608 46.1819 0.518438 46.3937 0.582783C46.6056 0.647128 46.8161 0.716529 47.0248 0.790985C47.233 0.865901 47.4398 0.945413 47.6443 1.03044C47.8489 1.11501 48.0515 1.20463 48.2519 1.29931C48.4519 1.39445 48.65 1.49373 48.8453 1.59806C49.0406 1.70285 49.2332 1.81177 49.423 1.92576C49.6133 2.03974 49.8004 2.15786 49.9847 2.28103C50.1685 2.40421 50.3496 2.53152 50.5275 2.66343C50.7058 2.79579 50.88 2.93184 51.0514 3.07248C51.2224 3.21266 51.3901 3.35744 51.5542 3.50635C51.7188 3.65526 51.8792 3.80785 52.0354 3.96458C52.1922 4.12084 52.3447 4.28125 52.4937 4.44533C52.6426 4.60987 52.7869 4.77716 52.9275 4.9486C53.0682 5.12003 53.2042 5.29422 53.3361 5.47209C53.4685 5.65042 53.5958 5.8315 53.719 6.01535C53.8421 6.19965 53.9603 6.38671 54.0742 6.57653C54.1882 6.76681 54.2972 6.95938 54.4019 7.15472C54.5063 7.35005 54.6056 7.54814 54.7002 7.74807C54.7954 7.94846 54.885 8.15069 54.9696 8.35567C55.0546 8.5602 55.1341 8.76702 55.2086 8.97522C55.2835 9.18388 55.3529 9.39438 55.4172 9.60626C55.4816 9.81814 55.5404 10.0314 55.5942 10.2465C55.6479 10.4616 55.6967 10.6776 55.7399 10.8945C55.7831 11.1119 55.8208 11.3303 55.8534 11.5495C55.886 11.7683 55.9131 11.988 55.9347 12.2086C55.9563 12.4292 55.9729 12.6498 55.9835 12.8713C55.9945 13.0924 56 13.3139 56 13.5355V42.4645C56 42.6861 55.9945 42.9076 55.9835 43.1287C55.9729 43.3502 55.9563 43.5708 55.9347 43.7914C55.9131 44.012 55.886 44.2317 55.8534 44.451C55.8208 44.6697 55.7831 44.8881 55.7399 45.1055C55.6967 45.3224 55.6479 45.5389 55.5942 45.7535C55.5404 45.9686 55.4816 46.1819 55.4172 46.3937C55.3529 46.6056 55.2835 46.8161 55.2086 47.0248C55.1341 47.2334 55.0546 47.4398 54.9696 47.6443C54.885 47.8493 54.7954 48.0515 54.7002 48.2519C54.6056 48.4519 54.5063 48.65 54.4019 48.8453C54.2972 49.0406 54.1882 49.2332 54.0742 49.4235C53.9603 49.6133 53.8421 49.8004 53.719 49.9847C53.5958 50.169 53.4685 50.3496 53.3361 50.5279C53.2042 50.7058 53.0682 50.8804 52.9275 51.0514C52.7869 51.2228 52.6426 51.3906 52.4937 51.5547C52.3447 51.7188 52.1922 51.8792 52.0354 52.0359C51.8792 52.1921 51.7188 52.3452 51.5542 52.4937C51.3901 52.6426 51.2224 52.7873 51.0514 52.9275C50.88 53.0682 50.7058 53.2047 50.5275 53.3366C50.3496 53.4685 50.1685 53.5958 49.9847 53.719C49.8004 53.8421 49.6133 53.9607 49.423 54.0742C49.2332 54.1882 49.0406 54.2976 48.8453 54.4019C48.65 54.5063 48.4519 54.606 48.2519 54.7007C48.0515 54.7954 47.8489 54.885 47.6443 54.9696C47.4398 55.0546 47.233 55.1341 47.0248 55.209C46.8161 55.2835 46.6056 55.3529 46.3937 55.4172C46.1819 55.4816 45.9681 55.5404 45.7535 55.5946C45.5384 55.6484 45.3224 55.6967 45.1055 55.7399C44.8881 55.7831 44.6697 55.8212 44.4505 55.8534C44.2317 55.886 44.0116 55.9131 43.7914 55.9347C43.5708 55.9568 43.3502 55.9729 43.1287 55.9839C42.9076 55.9945 42.6861 56 42.4645 56H13.535C13.3139 56 13.0924 55.9945 12.8709 55.9839C12.6498 55.9729 12.4292 55.9568 12.2086 55.9347C11.988 55.9131 11.7683 55.886 11.549 55.8534C11.3303 55.8212 11.1119 55.7831 10.8945 55.7399C10.6772 55.6967 10.4611 55.6484 10.2465 55.5946C10.0314 55.5404 9.81814 55.4816 9.60626 55.4172C9.39393 55.3529 9.18388 55.2835 8.97522 55.209C8.76656 55.1341 8.5602 55.0546 8.35567 54.9696C8.15069 54.885 7.94846 54.7954 7.74807 54.7007C7.54768 54.606 7.35005 54.5063 7.15472 54.4019C6.95938 54.2976 6.76681 54.1882 6.57653 54.0742C6.38671 53.9607 6.19965 53.8421 6.01535 53.719C5.83105 53.5958 5.64996 53.4685 5.47209 53.3366C5.29422 53.2047 5.11957 53.0682 4.9486 52.9275C4.77716 52.7873 4.60941 52.6426 4.44533 52.4937C4.28125 52.3452 4.12084 52.1921 3.96412 52.0359C3.80785 51.8792 3.6548 51.7188 3.50635 51.5547C3.35744 51.3906 3.21266 51.2228 3.07248 51.0514C2.93184 50.8804 2.79534 50.7058 2.66343 50.5279C2.53152 50.3496 2.40421 50.169 2.28103 49.9847C2.15786 49.8004 2.03928 49.6133 1.92576 49.4235C1.81177 49.2332 1.70239 49.0406 1.59806 48.8453C1.49373 48.65 1.39399 48.4519 1.29931 48.2519C1.20463 48.0515 1.11501 47.8493 1.02998 47.6443C0.945413 47.4398 0.865901 47.2334 0.790985 47.0248C0.716529 46.8161 0.647128 46.6056 0.582783 46.3937C0.518438 46.1819 0.459148 45.9686 0.405374 45.7535C0.3516 45.5389 0.303341 45.3224 0.260138 45.1055C0.216935 44.8881 0.178787 44.6697 0.146155 44.451C0.113983 44.2317 0.0868659 44.012 0.0652643 43.7914C0.0432031 43.5708 0.0271169 43.3502 0.0160863 43.1287C0.00551526 42.9076 0 42.6861 0 42.4645V13.5355C0 13.3139 0.00551526 13.0924 0.0160863 12.8713C0.0271169 12.6498 0.0432031 12.4292 0.0652643 12.2086C0.0868659 11.988 0.113983 11.7683 0.146155 11.5495C0.178787 11.3303 0.216935 11.1119 0.260138 10.8945C0.303341 10.6776 0.3516 10.4616 0.405374 10.2465C0.459148 10.0314 0.518438 9.81814 0.582783 9.60626C0.647128 9.39438 0.716529 9.18388 0.790985 8.97522C0.865901 8.76702 0.945413 8.5602 1.02998 8.35567C1.11501 8.15069 1.20463 7.94846 1.29931 7.74807C1.39399 7.54814 1.49373 7.35005 1.59806 7.15472C1.70239 6.95938 1.81177 6.76681 1.92576 6.57653C2.03928 6.38671 2.15786 6.19965 2.28103 6.01535C2.40421 5.8315 2.53152 5.65042 2.66343 5.47209C2.79534 5.29422 2.93184 5.12003 3.07248 4.9486C3.21266 4.77716 3.35744 4.60987 3.50635 4.44533C3.6548 4.28125 3.80785 4.12084 3.96412 3.96458C4.12084 3.80785 4.28125 3.65526 4.44533 3.50635C4.60941 3.35744 4.77716 3.21266 4.9486 3.07248C5.11957 2.93184 5.29422 2.79579 5.47209 2.66343C5.64996 2.53152 5.83105 2.40421 6.01535 2.28103C6.19965 2.15786 6.38671 2.03974 6.57653 1.92576C6.76681 1.81177 6.95938 1.70285 7.15472 1.59806C7.35005 1.49373 7.54768 1.39445 7.74807 1.29931C7.94846 1.20463 8.15069 1.11501 8.35567 1.03044C8.5602 0.945413 8.76656 0.865901 8.97522 0.790985C9.18388 0.716529 9.39393 0.647128 9.60626 0.582783C9.81814 0.518438 10.0314 0.459608 10.2465 0.405834C10.4611 0.3516 10.6772 0.303341 10.8945 0.260138C11.1119 0.216935 11.3303 0.178788 11.549 0.146615C11.7683 0.113983 11.988 0.0868659 12.2086 0.0652643C12.4292 0.0436627 12.6498 0.0271169 12.8709 0.0160863C13.0924 0.00551526 13.3139 0 13.535 0Z" fill="#3F4956"/>
</g>
<path fill-rule="evenodd" clip-rule="evenodd" d="M27.9889 33.2126L22.7907 28.6685L7.93714 41.3992C8.48545 41.9093 9.21209 42.2095 10.0224 42.2095H45.983C46.7644 42.2095 47.4905 41.9093 48.0388 41.3992L33.1875 28.6685L27.9889 33.2126ZM7.22659 15.4681V40.3775L21.7217 28.0719L7.22659 15.4681ZM49.0003 40.3885V15.4571L34.5103 28.083L49.0003 40.3885ZM27.9889 31.8035L7 13.7905H49.0003" fill="white"/>
</svg>
