<svg width="56" height="56" viewBox="0 0 56 56" fill="none" xmlns="http://www.w3.org/2000/svg">
<g clip-path="url(#clip0_2635_7168)">
<path fill-rule="evenodd" clip-rule="evenodd" d="M11.4844 0H44.5156C47.5589 0.00841846 50.4751 1.22108 52.627 3.373C54.7789 5.52491 55.9916 8.44112 56 11.4844V44.5156C55.9916 47.5589 54.7789 50.4751 52.627 52.627C50.4751 54.7789 47.5589 55.9916 44.5156 56H11.4844C8.44112 55.9916 5.52491 54.7789 3.373 52.627C1.22108 50.4751 0.00841846 47.5589 0 44.5156L0 11.4844C0.00841846 8.44112 1.22108 5.52491 3.373 3.373C5.52491 1.22108 8.44112 0.00841846 11.4844 0Z" fill="white"/>
<g clip-path="url(#clip1_2635_7168)">
<path d="M28 56C43.464 56 56 43.464 56 28C56 12.536 43.464 0 28 0C12.536 0 0 12.536 0 28C0 43.464 12.536 56 28 56Z" fill="white"/>
</g>
<g clip-path="url(#clip2_2635_7168)">
<path d="M22.6201 13.6035V26.9277C22.6201 26.9277 27.3135 26.9277 29.8272 26.7373C31.8018 26.3916 32.168 26.2012 32.5313 24.2236L33.2578 21.3291H35.4053L35.042 27.6543L35.2324 34.1348H33.0645L32.5283 31.6035C31.9922 29.8018 31.2656 29.4385 29.8242 29.2627C28.0225 29.0723 22.6172 29.0723 22.6172 29.0723V40.2461C22.6172 42.3936 23.707 43.3135 26.2207 43.3135H33.791C36.1318 43.3135 38.4668 43.123 39.9258 39.71L41.8828 35.3799H43.7022C43.5117 36.2793 42.6123 44.2158 42.4395 46C42.4395 46 35.5957 45.8271 32.7188 45.8271H19.7402L12 46V44.043L14.5137 43.4893C16.333 43.126 16.8691 42.5898 16.8691 41.1484C16.8691 41.1484 17.0596 36.2822 17.0596 28.1699C17.0596 20.0811 16.8691 15.209 16.8691 15.209C16.8691 13.5977 16.333 13.2344 14.5137 12.8682L12 12.3379V10.3633L19.5703 10.5186H33.9844C36.8613 10.5186 41.71 10 41.71 10C41.71 10 41.5371 13.0498 41.3467 20.2568H39.3721L38.6455 17.7256C37.9336 14.4854 36.8584 12.874 34.8662 12.874H23.5371C22.6201 12.877 22.6201 13.0498 22.6201 13.6035Z" fill="#F45800"/>
</g>
</g>
<defs>
<clipPath id="clip0_2635_7168">
<rect width="56" height="56" fill="white"/>
</clipPath>
<clipPath id="clip1_2635_7168">
<rect width="56" height="56" fill="white"/>
</clipPath>
<clipPath id="clip2_2635_7168">
<rect width="31.7051" height="36" fill="white" transform="translate(12 10)"/>
</clipPath>
</defs>
</svg>
