<svg width="52" height="53" viewBox="0 0 52 53" fill="none" xmlns="http://www.w3.org/2000/svg">
<path d="M0 19.0485C0 12.5767 0 9.34088 1.25948 6.86901C2.36736 4.6947 4.13513 2.92693 6.30944 1.81905C8.78131 0.55957 12.0172 0.55957 18.489 0.55957H33.511C39.9828 0.55957 43.2187 0.55957 45.6905 1.81905C47.8649 2.92693 49.6327 4.6947 50.7405 6.86901C52 9.34088 52 12.5767 52 19.0485V34.0706C52 40.5424 52 43.7783 50.7405 46.2501C49.6327 48.4245 47.8649 50.1923 45.6905 51.3001C43.2187 52.5596 39.9828 52.5596 33.511 52.5596H18.489C12.0172 52.5596 8.78131 52.5596 6.30944 51.3001C4.13513 50.1923 2.36736 48.4245 1.25948 46.2501C0 43.7783 0 40.5424 0 34.0706V19.0485Z" fill="url(#paint0_linear_1724_5045)"/>
<path d="M8.00704 18.224C7.42871 19.3242 7.42871 20.7644 7.42871 23.6446V29.4731C7.42871 32.3533 7.42871 33.7936 8.00704 34.8937C8.51575 35.8613 9.32749 36.6482 10.3259 37.1412C11.4609 37.7017 12.9468 37.7017 15.9185 37.7017H24.8799C27.8517 37.7017 29.3376 37.7017 30.4725 37.1412C31.4709 36.6482 32.2827 35.8613 32.7913 34.8937C33.3698 33.7936 33.3698 32.3533 33.3698 29.4731V23.6446C33.3698 20.7644 33.3698 19.3242 32.7913 18.224C32.2827 17.2564 31.4709 16.4696 30.4725 15.9765C29.3376 15.416 27.8517 15.416 24.8799 15.416H15.9185C12.9468 15.416 11.4609 15.416 10.3259 15.9765C9.32749 16.4696 8.51575 17.2564 8.00704 18.224Z" fill="white"/>
<path d="M35.3931 21.7301L41.1833 17.0258C42.5262 15.9347 44.5724 16.8601 44.5724 18.5585V34.6059C44.5724 36.2961 42.5433 37.2243 41.1971 36.1497L35.4089 31.5295C34.865 31.0953 34.5498 30.4481 34.5498 29.7652V23.4818C34.5498 22.8058 34.8585 22.1643 35.3931 21.7301Z" fill="white"/>
<defs>
<linearGradient id="paint0_linear_1724_5045" x1="26" y1="0.55957" x2="26" y2="52.5596" gradientUnits="userSpaceOnUse">
<stop stop-color="#61F677"/>
<stop offset="1" stop-color="#10BC2B"/>
</linearGradient>
</defs>
</svg>
