<svg width="52" height="52" viewBox="0 0 52 52" fill="none" xmlns="http://www.w3.org/2000/svg">
<path d="M43.875 0H8.125C3.63769 0 0 3.63769 0 8.125V43.875C0 48.3623 3.63769 52 8.125 52H43.875C48.3623 52 52 48.3623 52 43.875V8.125C52 3.63769 48.3623 0 43.875 0Z" fill="#1877F2"/>
<path d="M39 26C39 18.85 33.15 13 26 13C18.85 13 13 18.85 13 26C13 32.5 17.7125 37.8625 23.8875 38.8375V29.7375H20.6375V26H23.8875V23.075C23.8875 19.825 25.8375 18.0375 28.7625 18.0375C30.225 18.0375 31.6875 18.3625 31.6875 18.3625V21.6125H30.0625C28.4375 21.6125 27.95 22.5875 27.95 23.5625V26H31.525L30.875 29.7375H27.7875V39C34.2875 38.025 39 32.5 39 26Z" fill="white"/>
</svg>
