<svg width="56" height="56" viewBox="0 0 56 56" fill="none" xmlns="http://www.w3.org/2000/svg">
<g clip-path="url(#clip0_2635_6651)">
<path fill-rule="evenodd" clip-rule="evenodd" d="M11.4844 0H44.5156C47.5589 0.00841846 50.4751 1.22108 52.627 3.373C54.7789 5.52491 55.9916 8.44112 56 11.4844V44.5156C55.9916 47.5589 54.7789 50.4751 52.627 52.627C50.4751 54.7789 47.5589 55.9916 44.5156 56H11.4844C8.44112 55.9916 5.52491 54.7789 3.373 52.627C1.22108 50.4751 0.00841846 47.5589 0 44.5156L0 11.4844C0.00841846 8.44112 1.22108 5.52491 3.373 3.373C5.52491 1.22108 8.44112 0.00841846 11.4844 0Z" fill="white"/>
<g clip-path="url(#clip1_2635_6651)">
<path d="M28 56C43.464 56 56 43.464 56 28C56 12.536 43.464 0 28 0C12.536 0 0 12.536 0 28C0 43.464 12.536 56 28 56Z" fill="white"/>
<g clip-path="url(#clip2_2635_6651)">
<path d="M21.6667 48.0001C25.3451 48.0001 28.3333 45.0151 28.3333 41.3334V34.6667H21.6667C17.9883 34.6667 15 37.6518 15 41.3334C15 45.0151 17.9883 48.0001 21.6667 48.0001Z" fill="#0ACF83"/>
<path d="M15 27.9999C15 24.3215 17.9883 21.3333 21.6667 21.3333H28.3333V34.6666H21.6667C17.9883 34.6666 15 31.6816 15 27.9999Z" fill="#A259FF"/>
<path d="M15 14.6667C15 10.9883 17.9883 8 21.6667 8H28.3333V21.3333H21.6667C17.9883 21.3333 15 18.3483 15 14.6667Z" fill="#F24E1E"/>
<path d="M28.3359 8H35.0026C38.681 8 41.6693 10.9883 41.6693 14.6667C41.6693 18.3483 38.6842 21.3333 35.0026 21.3333H28.3359V8Z" fill="#FF7262"/>
<path d="M41.6693 27.9999C41.6693 31.6816 38.6842 34.6666 35.0026 34.6666C31.321 34.6666 28.3359 31.6816 28.3359 27.9999C28.3359 24.3215 31.321 21.3333 35.0026 21.3333C38.6842 21.3333 41.6693 24.3215 41.6693 27.9999Z" fill="#1ABCFE"/>
</g>
</g>
</g>
<defs>
<clipPath id="clip0_2635_6651">
<rect width="56" height="56" fill="white"/>
</clipPath>
<clipPath id="clip1_2635_6651">
<rect width="56" height="56" fill="white"/>
</clipPath>
<clipPath id="clip2_2635_6651">
<rect width="26.6667" height="40" fill="white" transform="translate(15 8)"/>
</clipPath>
</defs>
</svg>
