<svg width="56" height="56" viewBox="0 0 56 56" fill="none" xmlns="http://www.w3.org/2000/svg">
<g clip-path="url(#clip0_2635_8095)">
<path fill-rule="evenodd" clip-rule="evenodd" d="M11.4844 0H44.5156C47.5589 0.00841846 50.4751 1.22108 52.627 3.373C54.7789 5.52491 55.9916 8.44112 56 11.4844V44.5156C55.9916 47.5589 54.7789 50.4751 52.627 52.627C50.4751 54.7789 47.5589 55.9916 44.5156 56H11.4844C8.44112 55.9916 5.52491 54.7789 3.373 52.627C1.22108 50.4751 0.00841846 47.5589 0 44.5156L0 11.4844C0.00841846 8.44112 1.22108 5.52491 3.373 3.373C5.52491 1.22108 8.44112 0.00841846 11.4844 0Z" fill="white"/>
<g clip-path="url(#clip1_2635_8095)">
<path d="M28 56C43.464 56 56 43.464 56 28C56 12.536 43.464 0 28 0C12.536 0 0 12.536 0 28C0 43.464 12.536 56 28 56Z" fill="white"/>
</g>
<g clip-path="url(#clip2_2635_8095)">
<path d="M34.6743 15L37.5352 19.0127L52 15H34.6743ZM19.6353 46.2334L27.459 38.584L22.749 33.522L19.6318 46.2334H19.6353ZM33.4814 15L29.2979 18.7598L36.3355 19.0229L33.4814 15ZM17.2153 15L18.7261 18.0762L27.0078 18.5923L17.2153 15ZM21.6587 30.9722L27.7734 19.5562L10 18.5957L21.6519 30.9722H21.6587ZM22.3696 31.6934L28.1426 37.9004L34.5171 31.6523L36.4961 20.0312L28.7271 19.6177L22.3628 31.6934H22.3696Z" fill="#29B2FE"/>
</g>
</g>
<defs>
<clipPath id="clip0_2635_8095">
<rect width="56" height="56" fill="white"/>
</clipPath>
<clipPath id="clip1_2635_8095">
<rect width="56" height="56" fill="white"/>
</clipPath>
<clipPath id="clip2_2635_8095">
<rect width="42" height="31.2334" fill="white" transform="translate(10 15)"/>
</clipPath>
</defs>
</svg>
