<svg width="56" height="56" viewBox="0 0 56 56" fill="none" xmlns="http://www.w3.org/2000/svg">
<rect x="0.2" y="0.2" width="55.6" height="55.6" rx="7.8" fill="black"/>
<rect x="0.2" y="0.2" width="55.6" height="55.6" rx="7.8" stroke="#E9E9E9" stroke-width="0.4"/>
<g clip-path="url(#clip0_2635_6594)">
<path d="M28.1252 3C14.2508 3 3 14.2487 3 28.1252C3 39.2262 10.1991 48.6442 20.1821 51.9664C21.4378 52.199 21.8988 51.4214 21.8988 50.7578C21.8988 50.1587 21.8755 48.1794 21.8647 46.08C14.8749 47.5999 13.3999 43.1155 13.3999 43.1155C12.257 40.2114 10.6102 39.4392 10.6102 39.4392C8.3306 37.8798 10.782 37.9118 10.782 37.9118C13.305 38.0891 14.6335 40.501 14.6335 40.501C16.8745 44.3421 20.5113 43.2316 21.945 42.5896C22.1705 40.9657 22.8217 39.8573 23.5402 39.2299C17.9595 38.5946 12.0931 36.4402 12.0931 26.8129C12.0931 24.0698 13.0745 21.8285 14.6818 20.069C14.4209 19.4361 13.5609 16.8807 14.9252 13.4199C14.9252 13.4199 17.0351 12.7446 21.8364 15.9953C23.8406 15.4386 25.99 15.1594 28.1252 15.1499C30.2604 15.1594 32.4115 15.4386 34.4194 15.9953C39.215 12.7446 41.3219 13.4199 41.3219 13.4199C42.6895 16.8807 41.8291 19.4361 41.5682 20.069C43.1792 21.8285 44.154 24.0698 44.154 26.8129C44.154 36.4631 38.2763 38.5879 32.6815 39.21C33.5827 39.9897 34.3857 41.5187 34.3857 43.8628C34.3857 47.2246 34.3566 49.9302 34.3566 50.7578C34.3566 51.4264 34.8088 52.2098 36.0824 51.9631C46.06 48.6371 53.25 39.2224 53.25 28.1252C53.25 14.2487 42.0009 3 28.1252 3ZM12.4102 38.7914C12.3549 38.9162 12.1585 38.9537 11.9796 38.8679C11.7973 38.786 11.695 38.6158 11.7541 38.4906C11.8082 38.362 12.005 38.3262 12.1868 38.4124C12.3694 38.4943 12.4734 38.6662 12.4102 38.7914ZM13.6461 39.8941C13.5263 40.0052 13.292 39.9536 13.1331 39.7781C12.9687 39.6029 12.938 39.3687 13.0594 39.2559C13.183 39.1448 13.4102 39.1968 13.5749 39.372C13.7393 39.5492 13.7713 39.7818 13.6461 39.8941ZM14.4939 41.3051C14.34 41.412 14.0883 41.3117 13.9327 41.0883C13.7787 40.8649 13.7787 40.597 13.936 40.4896C14.092 40.3823 14.34 40.4788 14.4977 40.7006C14.6512 40.9277 14.6512 41.1957 14.4939 41.3051ZM15.9279 42.9392C15.7901 43.091 15.4968 43.0503 15.2821 42.8431C15.0625 42.6404 15.0013 42.3529 15.1394 42.2011C15.2788 42.0488 15.5738 42.0916 15.7901 42.2972C16.0082 42.4994 16.0747 42.789 15.9279 42.9392ZM17.7811 43.4908C17.7203 43.6876 17.4378 43.7771 17.1532 43.6934C16.8691 43.6073 16.6831 43.3768 16.7405 43.1779C16.7996 42.9799 17.0833 42.8867 17.37 42.9761C17.6537 43.0619 17.8401 43.2907 17.7811 43.4908ZM19.8901 43.7248C19.8971 43.932 19.6558 44.1038 19.3571 44.1076C19.0567 44.1142 18.8137 43.9466 18.8104 43.7427C18.8104 43.5334 19.0463 43.3632 19.3467 43.3582C19.6454 43.3524 19.8901 43.5189 19.8901 43.7248ZM21.9619 43.6454C21.9977 43.8476 21.7901 44.0552 21.4935 44.1105C21.2018 44.1638 20.9318 44.039 20.8947 43.8384C20.8585 43.6312 21.0699 43.4236 21.3612 43.3699C21.6582 43.3184 21.9241 43.4398 21.9619 43.6454Z" fill="white"/>
</g>
<defs>
<clipPath id="clip0_2635_6594">
<rect width="50.25" height="49.0723" fill="white" transform="translate(3 3)"/>
</clipPath>
</defs>
</svg>
