<svg width="52" height="52" viewBox="0 0 52 52" fill="none" xmlns="http://www.w3.org/2000/svg">
<path d="M44.2 0H7.8C3.49218 0 0 3.49218 0 7.8V44.2C0 48.5078 3.49218 52 7.8 52H44.2C48.5078 52 52 48.5078 52 44.2V7.8C52 3.49218 48.5078 0 44.2 0Z" fill="white"/>
<path d="M16.0469 39.7109V25.2891L7.71875 18.8906V36.6641C7.71875 38.6953 8.73438 39.7109 10.7656 39.7109" fill="#4285F4"/>
<path d="M15.6406 25.1875L26 33.0078L36.3594 25.1875V15.2344L26 23.0547L15.6406 15.2344" fill="#EA4335"/>
<path d="M35.9531 39.7109V25.2891L44.2812 18.8906V36.6641C44.2812 38.6953 43.2656 39.7109 41.2344 39.7109" fill="#34A853"/>
<path d="M7.71875 19.0938L16.0469 25.4922V15.5391L13 13.2032C10.2578 11.0703 7.71875 13.2032 7.71875 15.8438" fill="#C5221F"/>
<path d="M44.2812 19.0938L35.9531 25.4922V15.5391L39 13.2032C41.7422 11.0703 44.2812 13.2032 44.2812 15.8438" fill="#FBBC04"/>
</svg>
