<svg width="56" height="56" viewBox="0 0 56 56" fill="none" xmlns="http://www.w3.org/2000/svg">
<g clip-path="url(#clip0_2635_7799)">
<path fill-rule="evenodd" clip-rule="evenodd" d="M11.4844 0H44.5156C47.5589 0.00841846 50.4751 1.22108 52.627 3.373C54.7789 5.52491 55.9916 8.44112 56 11.4844V44.5156C55.9916 47.5589 54.7789 50.4751 52.627 52.627C50.4751 54.7789 47.5589 55.9916 44.5156 56H11.4844C8.44112 55.9916 5.52491 54.7789 3.373 52.627C1.22108 50.4751 0.00841846 47.5589 0 44.5156L0 11.4844C0.00841846 8.44112 1.22108 5.52491 3.373 3.373C5.52491 1.22108 8.44112 0.00841846 11.4844 0Z" fill="white"/>
<g clip-path="url(#clip1_2635_7799)">
<path d="M28 56C43.464 56 56 43.464 56 28C56 12.536 43.464 0 28 0C12.536 0 0 12.536 0 28C0 43.464 12.536 56 28 56Z" fill="white"/>
</g>
<g clip-path="url(#clip2_2635_7799)">
<path d="M30.3672 27.8125L33.877 31.8232L38.5967 34.8379L39.4199 27.8389L38.5967 20.9922L33.7861 23.6406L30.3672 27.8125Z" fill="#188038"/>
<path d="M10 34.1875V40.1523C10 41.5176 11.1045 42.6221 12.4697 42.6221H18.4346L19.668 38.1133L18.4346 34.1875L14.3418 32.9541L10 34.1875Z" fill="#1967D2"/>
<path d="M18.4346 13L10 21.4346L14.3418 22.668L18.4346 21.4346L19.6475 17.5615L18.4346 13Z" fill="#EA4335"/>
<path d="M10 34.1875H18.4346V21.4346H10V34.1875Z" fill="#4285F4"/>
<path d="M43.9844 16.5714L38.5967 20.9923V34.838L44.0078 39.2765C44.8193 39.9093 46.0029 39.3322 46.0029 38.3038V17.5265C46.0029 16.4835 44.79 15.9122 43.9844 16.5714ZM30.3672 27.8126V34.1906H18.4375V42.6251H36.1299C37.4951 42.6251 38.5996 41.5206 38.5996 40.1554V34.838L30.3672 27.8126Z" fill="#34A853"/>
<path d="M36.1299 13H18.4375V21.4346H30.3701V27.8125L38.5967 20.9922V15.4697C38.5967 14.1045 37.4922 13 36.1299 13Z" fill="#FBBC04"/>
</g>
</g>
<defs>
<clipPath id="clip0_2635_7799">
<rect width="56" height="56" fill="white"/>
</clipPath>
<clipPath id="clip1_2635_7799">
<rect width="56" height="56" fill="white"/>
</clipPath>
<clipPath id="clip2_2635_7799">
<rect width="36" height="29.6221" fill="white" transform="translate(10 13)"/>
</clipPath>
</defs>
</svg>
