<svg width="56" height="56" viewBox="0 0 56 56" fill="none" xmlns="http://www.w3.org/2000/svg">
<g clip-path="url(#clip0_2730_9086)">
<path fill-rule="evenodd" clip-rule="evenodd" d="M11.4844 0H44.5156C47.5589 0.00841846 50.4751 1.22108 52.627 3.373C54.7789 5.52491 55.9916 8.44112 56 11.4844V44.5156C55.9916 47.5589 54.7789 50.4751 52.627 52.627C50.4751 54.7789 47.5589 55.9916 44.5156 56H11.4844C8.44112 55.9916 5.52491 54.7789 3.373 52.627C1.22108 50.4751 0.00841846 47.5589 0 44.5156L0 11.4844C0.00841846 8.44112 1.22108 5.52491 3.373 3.373C5.52491 1.22108 8.44112 0.00841846 11.4844 0Z" fill="white"/>
<g clip-path="url(#clip1_2730_9086)">
<path d="M28 56C43.464 56 56 43.464 56 28C56 12.536 43.464 0 28 0C12.536 0 0 12.536 0 28C0 43.464 12.536 56 28 56Z" fill="white"/>
</g>
<mask id="mask0_2730_9086" style="mask-type:alpha" maskUnits="userSpaceOnUse" x="13" y="8" width="29" height="40">
<path d="M31.1617 8.57227H16.1493C14.6922 8.57227 13.5 9.76443 13.5 11.2215V44.7787C13.5 46.2358 14.6922 47.428 16.1493 47.428H39.1095C40.5665 47.428 41.7587 46.2358 41.7587 44.7787V19.1693L31.1617 8.57227Z" fill="white"/>
</mask>
<g mask="url(#mask0_2730_9086)">
<path d="M31.1617 8.57227H16.1493C14.6922 8.57227 13.5 9.76443 13.5 11.2215V44.7787C13.5 46.2358 14.6922 47.428 16.1493 47.428H39.1095C40.5665 47.428 41.7587 46.2358 41.7587 44.7787V19.1693L35.5771 14.7538L31.1617 8.57227Z" fill="#0F9D58"/>
</g>
<mask id="mask1_2730_9086" style="mask-type:alpha" maskUnits="userSpaceOnUse" x="13" y="8" width="29" height="40">
<path d="M31.1617 8.57227H16.1493C14.6922 8.57227 13.5 9.76443 13.5 11.2215V44.7787C13.5 46.2358 14.6922 47.428 16.1493 47.428H39.1095C40.5665 47.428 41.7587 46.2358 41.7587 44.7787V19.1693L31.1617 8.57227Z" fill="white"/>
</mask>
<g mask="url(#mask1_2730_9086)">
<path d="M20.5625 27.5586V40.3633H34.6919V27.5586H20.5625ZM26.7441 38.5972H22.3287V36.3894H26.7441V38.5972ZM26.7441 35.0648H22.3287V32.8571H26.7441V35.0648ZM26.7441 31.5325H22.3287V29.3248H26.7441V31.5325ZM32.9257 38.5972H28.5103V36.3894H32.9257V38.5972ZM32.9257 35.0648H28.5103V32.8571H32.9257V35.0648ZM32.9257 31.5325H28.5103V29.3248H32.9257V31.5325Z" fill="#F1F1F1"/>
</g>
<mask id="mask2_2730_9086" style="mask-type:alpha" maskUnits="userSpaceOnUse" x="13" y="8" width="29" height="40">
<path d="M31.1617 8.57227H16.1493C14.6922 8.57227 13.5 9.76443 13.5 11.2215V44.7787C13.5 46.2358 14.6922 47.428 16.1493 47.428H39.1095C40.5665 47.428 41.7587 46.2358 41.7587 44.7787V19.1693L31.1617 8.57227Z" fill="white"/>
</mask>
<g mask="url(#mask2_2730_9086)">
<path d="M31.9375 18.3943L41.7596 28.2142V19.1692L31.9375 18.3943Z" fill="url(#paint0_linear_2730_9086)"/>
</g>
<mask id="mask3_2730_9086" style="mask-type:alpha" maskUnits="userSpaceOnUse" x="13" y="8" width="29" height="40">
<path d="M31.1617 8.57227H16.1493C14.6922 8.57227 13.5 9.76443 13.5 11.2215V44.7787C13.5 46.2358 14.6922 47.428 16.1493 47.428H39.1095C40.5665 47.428 41.7587 46.2358 41.7587 44.7787V19.1693L31.1617 8.57227Z" fill="white"/>
</mask>
<g mask="url(#mask3_2730_9086)">
<path d="M31.1641 8.57227V16.52C31.1641 17.9837 32.3496 19.1693 33.8133 19.1693H41.7611L31.1641 8.57227Z" fill="#87CEAC"/>
</g>
<mask id="mask4_2730_9086" style="mask-type:alpha" maskUnits="userSpaceOnUse" x="13" y="8" width="29" height="40">
<path d="M31.1617 8.57227H16.1493C14.6922 8.57227 13.5 9.76443 13.5 11.2215V44.7787C13.5 46.2358 14.6922 47.428 16.1493 47.428H39.1095C40.5665 47.428 41.7587 46.2358 41.7587 44.7787V19.1693L31.1617 8.57227Z" fill="white"/>
</mask>
<g mask="url(#mask4_2730_9086)">
<path d="M16.1493 8.57227C14.6922 8.57227 13.5 9.76443 13.5 11.2215V11.4423C13.5 9.9852 14.6922 8.79304 16.1493 8.79304H31.1617V8.57227H16.1493Z" fill="white" fill-opacity="0.2"/>
</g>
<mask id="mask5_2730_9086" style="mask-type:alpha" maskUnits="userSpaceOnUse" x="13" y="8" width="29" height="40">
<path d="M31.1617 8.57227H16.1493C14.6922 8.57227 13.5 9.76443 13.5 11.2215V44.7787C13.5 46.2358 14.6922 47.428 16.1493 47.428H39.1095C40.5665 47.428 41.7587 46.2358 41.7587 44.7787V19.1693L31.1617 8.57227Z" fill="white"/>
</mask>
<g mask="url(#mask5_2730_9086)">
<path d="M39.1095 47.2071H16.1493C14.6922 47.2071 13.5 46.0149 13.5 44.5579V44.7786C13.5 46.2357 14.6922 47.4279 16.1493 47.4279H39.1095C40.5665 47.4279 41.7587 46.2357 41.7587 44.7786V44.5579C41.7587 46.0149 40.5665 47.2071 39.1095 47.2071Z" fill="#263238" fill-opacity="0.2"/>
</g>
<mask id="mask6_2730_9086" style="mask-type:alpha" maskUnits="userSpaceOnUse" x="13" y="8" width="29" height="40">
<path d="M31.1617 8.57227H16.1493C14.6922 8.57227 13.5 9.76443 13.5 11.2215V44.7787C13.5 46.2358 14.6922 47.428 16.1493 47.428H39.1095C40.5665 47.428 41.7587 46.2358 41.7587 44.7787V19.1693L31.1617 8.57227Z" fill="white"/>
</mask>
<g mask="url(#mask6_2730_9086)">
<path d="M33.8133 19.1693C32.3496 19.1693 31.1641 17.9837 31.1641 16.52V16.7408C31.1641 18.2045 32.3496 19.39 33.8133 19.39H41.7611V19.1693H33.8133Z" fill="#263238" fill-opacity="0.1"/>
</g>
<path d="M31.1617 8.57227H16.1493C14.6922 8.57227 13.5 9.76443 13.5 11.2215V44.7787C13.5 46.2358 14.6922 47.428 16.1493 47.428H39.1095C40.5665 47.428 41.7587 46.2358 41.7587 44.7787V19.1693L31.1617 8.57227Z" fill="url(#paint1_radial_2730_9086)"/>
</g>
<defs>
<linearGradient id="paint0_linear_2730_9086" x1="36.8491" y1="19.2374" x2="36.8491" y2="28.2156" gradientUnits="userSpaceOnUse">
<stop stop-color="#263238" stop-opacity="0.2"/>
<stop offset="1" stop-color="#263238" stop-opacity="0.02"/>
</linearGradient>
<radialGradient id="paint1_radial_2730_9086" cx="0" cy="0" r="1" gradientUnits="userSpaceOnUse" gradientTransform="translate(14.3953 9.3446) scale(45.5668 45.5668)">
<stop stop-color="white" stop-opacity="0.1"/>
<stop offset="1" stop-color="white" stop-opacity="0"/>
</radialGradient>
<clipPath id="clip0_2730_9086">
<rect width="56" height="56" fill="white"/>
</clipPath>
<clipPath id="clip1_2730_9086">
<rect width="56" height="56" fill="white"/>
</clipPath>
</defs>
</svg>
