<svg width="56" height="56" viewBox="0 0 56 56" fill="none" xmlns="http://www.w3.org/2000/svg">
<g clip-path="url(#clip0_2730_15929)">
<path fill-rule="evenodd" clip-rule="evenodd" d="M11.4844 0H44.5156C47.5589 0.00841846 50.4751 1.22108 52.627 3.373C54.7789 5.52491 55.9916 8.44112 56 11.4844V44.5156C55.9916 47.5589 54.7789 50.4751 52.627 52.627C50.4751 54.7789 47.5589 55.9916 44.5156 56H11.4844C8.44112 55.9916 5.52491 54.7789 3.373 52.627C1.22108 50.4751 0.00841846 47.5589 0 44.5156L0 11.4844C0.00841846 8.44112 1.22108 5.52491 3.373 3.373C5.52491 1.22108 8.44112 0.00841846 11.4844 0Z" fill="white"/>
<g clip-path="url(#clip1_2730_15929)">
<path d="M28 56C43.464 56 56 43.464 56 28C56 12.536 43.464 0 28 0C12.536 0 0 12.536 0 28C0 43.464 12.536 56 28 56Z" fill="white"/>
</g>
<g clip-path="url(#clip2_2730_15929)">
<path fill-rule="evenodd" clip-rule="evenodd" d="M39.9895 22.5171C39.9895 21.5102 39.9078 20.7755 39.731 20.0137H28.2344V24.5578H34.9826C34.8466 25.6871 34.1119 27.3878 32.4792 28.5306L32.4564 28.6828L36.0913 31.4988L36.3432 31.5239C38.6561 29.3878 39.9895 26.245 39.9895 22.5171Z" fill="#4285F4"/>
<path fill-rule="evenodd" clip-rule="evenodd" d="M28.2357 34.4898C31.5418 34.4898 34.3172 33.4014 36.3445 31.5239L32.4806 28.5306C31.4466 29.2517 30.0588 29.7551 28.2357 29.7551C24.9976 29.7551 22.2494 27.6191 21.2697 24.6667L21.1261 24.6789L17.3463 27.6041L17.2969 27.7415C19.3104 31.7415 23.4466 34.4898 28.2357 34.4898Z" fill="#34A853"/>
<path fill-rule="evenodd" clip-rule="evenodd" d="M21.271 24.6668C21.0125 23.9049 20.8628 23.0885 20.8628 22.245C20.8628 21.4014 21.0124 20.5851 21.2574 19.8232L21.2505 19.6609L17.4234 16.6887L17.2983 16.7483C16.4683 18.4082 15.9922 20.2721 15.9922 22.2449C15.9922 24.2177 16.4684 26.0816 17.2983 27.7414L21.271 24.6667" fill="#FBBC04"/>
<path fill-rule="evenodd" clip-rule="evenodd" d="M28.2357 14.7346C30.535 14.7346 32.086 15.7278 32.9704 16.5578L36.4262 13.1836C34.3038 11.2108 31.5418 10 28.2357 10C23.4466 10 19.3105 12.7483 17.2969 16.7482L21.2561 19.8231C22.2494 16.8708 24.9976 14.7347 28.2357 14.7347" fill="#EA4335"/>
</g>
<g clip-path="url(#clip3_2730_15929)">
<path d="M12 39.4919H17.9968V45.4887H12V39.4919ZM18.4965 39.4919H24.4933V45.4887H18.4965V39.4919ZM24.9931 39.4919H30.9899V45.4887H24.9931V39.4919ZM31.4896 39.4919H37.4864V45.4887H31.4896V39.4919ZM37.9861 39.4919H43.9829V45.4887H37.9861V39.4919Z" fill="#FBBC04"/>
<path d="M14.9973 43.5328L15.9093 43.3017L16.2904 44.4761L14.9973 43.5328ZM17.0962 42.0149H15.4908L14.9973 40.5032L14.5038 42.0149H12.8984L14.1977 42.9519L13.7043 44.4636L15.0036 43.5266L15.8031 42.9519L17.0962 42.0149ZM21.4939 43.5328L22.4059 43.3017L22.7869 44.4761L21.4939 43.5328ZM23.5927 42.0149H21.9873L21.4939 40.5032L21.0004 42.0149H19.395L20.6943 42.9519L20.2008 44.4636L21.5001 43.5266L22.2997 42.9519L23.5927 42.0149ZM27.9904 43.5328L28.9024 43.3017L29.2835 44.4761L27.9904 43.5328ZM30.0893 42.0149H28.4839L27.9904 40.5032L27.4969 42.0149H25.8915L27.1908 42.9519L26.6973 44.4636L27.9966 43.5266L28.7962 42.9519L30.0893 42.0149ZM34.4869 43.5328L35.3989 43.3017L35.78 44.4761L34.4869 43.5328ZM36.5858 42.0149H34.9804L34.4869 40.5032L33.9934 42.0149H32.388L33.6874 42.9519L33.1939 44.4636L34.4932 43.5266L35.2927 42.9519L36.5858 42.0149ZM40.9835 43.5328L41.8955 43.3017L42.2765 44.4761L40.9835 43.5328ZM43.0823 42.0149H41.477L40.9835 40.5032L40.49 42.0149H38.8846L40.1839 42.9519L39.6904 44.4636L40.9897 43.5266L41.7893 42.9519L43.0823 42.0149Z" fill="white"/>
</g>
</g>
<defs>
<clipPath id="clip0_2730_15929">
<rect width="56" height="56" fill="white"/>
</clipPath>
<clipPath id="clip1_2730_15929">
<rect width="56" height="56" fill="white"/>
</clipPath>
<clipPath id="clip2_2730_15929">
<rect width="24" height="24.4897" fill="white" transform="translate(15.9922 10)"/>
</clipPath>
<clipPath id="clip3_2730_15929">
<rect x="12" y="39.4897" width="31.9829" height="6" rx="1" fill="white"/>
</clipPath>
</defs>
</svg>
