<svg width="56" height="56" viewBox="0 0 56 56" fill="none" xmlns="http://www.w3.org/2000/svg">
<g clip-path="url(#clip0_2635_8044)">
<path fill-rule="evenodd" clip-rule="evenodd" d="M11.4844 0H44.5156C47.5589 0.00841846 50.4751 1.22108 52.627 3.373C54.7789 5.52491 55.9916 8.44112 56 11.4844V44.5156C55.9916 47.5589 54.7789 50.4751 52.627 52.627C50.4751 54.7789 47.5589 55.9916 44.5156 56H11.4844C8.44112 55.9916 5.52491 54.7789 3.373 52.627C1.22108 50.4751 0.00841846 47.5589 0 44.5156L0 11.4844C0.00841846 8.44112 1.22108 5.52491 3.373 3.373C5.52491 1.22108 8.44112 0.00841846 11.4844 0Z" fill="white"/>
<g clip-path="url(#clip1_2635_8044)">
<path d="M28 56C43.464 56 56 43.464 56 28C56 12.536 43.464 0 28 0C12.536 0 0 12.536 0 28C0 43.464 12.536 56 28 56Z" fill="white"/>
</g>
<g clip-path="url(#clip2_2635_8044)">
<path fill-rule="evenodd" clip-rule="evenodd" d="M45.9998 28.7754C45.9998 27.2651 45.8773 26.1631 45.6121 25.0203H28.3672V31.8365H38.4895C38.2855 33.5304 37.1835 36.0814 34.7344 37.7957L34.7002 38.0239L40.1526 42.2479L40.5304 42.2856C43.9997 39.0815 45.9998 34.3672 45.9998 28.7754Z" fill="#4285F4"/>
<path fill-rule="evenodd" clip-rule="evenodd" d="M28.3692 46.7346C33.3283 46.7346 37.4915 45.1019 40.5324 42.2857L34.7365 37.7957C33.1855 38.8774 31.1038 39.6325 28.3692 39.6325C23.5121 39.6325 19.3897 36.4285 17.9201 32L17.7048 32.0183L12.0351 36.4061L11.9609 36.6121C14.9813 42.6121 21.1855 46.7346 28.3692 46.7346Z" fill="#34A853"/>
<path fill-rule="evenodd" clip-rule="evenodd" d="M17.9182 32C17.5305 30.8572 17.306 29.6326 17.306 28.3674C17.306 27.102 17.5303 25.8775 17.8978 24.7347L17.8875 24.4913L12.1469 20.033L11.9591 20.1223C10.7142 22.6122 10 25.408 10 28.3672C10 31.3264 10.7143 34.1222 11.9591 36.612L17.9183 31.9999" fill="#FBBC04"/>
<path fill-rule="evenodd" clip-rule="evenodd" d="M28.3692 17.1019C31.8181 17.1019 34.1446 18.5917 35.4712 19.8367L40.6549 14.7755C37.4713 11.8163 33.3283 10 28.3692 10C21.1855 10 14.9814 14.1224 11.9609 20.1223L17.8997 24.7347C19.3897 20.3062 23.5121 17.102 28.3692 17.102" fill="#EA4335"/>
</g>
</g>
<defs>
<clipPath id="clip0_2635_8044">
<rect width="56" height="56" fill="white"/>
</clipPath>
<clipPath id="clip1_2635_8044">
<rect width="56" height="56" fill="white"/>
</clipPath>
<clipPath id="clip2_2635_8044">
<rect width="36" height="36.7346" fill="white" transform="translate(10 10)"/>
</clipPath>
</defs>
</svg>
