<svg width="56" height="56" viewBox="0 0 56 56" fill="none" xmlns="http://www.w3.org/2000/svg">
<g clip-path="url(#clip0_2635_7515)">
<path fill-rule="evenodd" clip-rule="evenodd" d="M11.4844 0H44.5156C47.5589 0.00841846 50.4751 1.22108 52.627 3.373C54.7789 5.52491 55.9916 8.44112 56 11.4844V44.5156C55.9916 47.5589 54.7789 50.4751 52.627 52.627C50.4751 54.7789 47.5589 55.9916 44.5156 56H11.4844C8.44112 55.9916 5.52491 54.7789 3.373 52.627C1.22108 50.4751 0.00841846 47.5589 0 44.5156L0 11.4844C0.00841846 8.44112 1.22108 5.52491 3.373 3.373C5.52491 1.22108 8.44112 0.00841846 11.4844 0Z" fill="white"/>
<g clip-path="url(#clip1_2635_7515)">
<path d="M28 56C43.464 56 56 43.464 56 28C56 12.536 43.464 0 28 0C12.536 0 0 12.536 0 28C0 43.464 12.536 56 28 56Z" fill="white"/>
</g>
<g clip-path="url(#clip2_2635_7515)">
<path d="M27.84 27.1777L12.5156 43.2865C12.5165 43.2898 12.5171 43.2931 12.5179 43.2963C12.9881 45.0452 14.6008 46.3334 16.5156 46.3334C17.2806 46.3334 17.9992 46.1284 18.6156 45.7688L18.6644 45.7398L35.9115 35.8804L27.84 27.1777Z" fill="#EA4335"/>
<path d="M43.3434 24.4348L43.3289 24.4252L35.882 20.1489L27.4922 27.5435L35.9116 35.8806L43.3191 31.6475C44.6176 30.9527 45.4993 29.5971 45.4993 28.0339C45.4995 26.4804 44.6299 25.1321 43.3434 24.4348Z" fill="#FBBC04"/>
<path d="M12.5154 12.7126C12.4235 13.0493 12.375 13.4024 12.375 13.7676V42.2326C12.39 42.6412 12.4231 42.9518 12.5162 43.2866L28.3677 27.5904L12.5154 12.7126Z" fill="#4285F4"/>
<path d="M27.954 28.0001L35.8827 20.1488L18.6556 10.253C18.0294 9.88154 17.2985 9.66675 16.5167 9.66675C14.6019 9.66675 12.9867 10.9574 12.5167 12.7086C12.5163 12.7099 12.516 12.7113 12.5156 12.7128L27.954 28.0001Z" fill="#34A853"/>
</g>
</g>
<defs>
<clipPath id="clip0_2635_7515">
<rect width="56" height="56" fill="white"/>
</clipPath>
<clipPath id="clip1_2635_7515">
<rect width="56" height="56" fill="white"/>
</clipPath>
<clipPath id="clip2_2635_7515">
<rect width="40" height="40" fill="white" transform="translate(8 8)"/>
</clipPath>
</defs>
</svg>
