<svg width="56" height="56" viewBox="0 0 56 56" fill="none" xmlns="http://www.w3.org/2000/svg">
<g clip-path="url(#clip0_2635_6816)">
<path fill-rule="evenodd" clip-rule="evenodd" d="M11.4844 0H44.5156C47.5589 0.00841846 50.4751 1.22108 52.627 3.373C54.7789 5.52491 55.9916 8.44112 56 11.4844V44.5156C55.9916 47.5589 54.7789 50.4751 52.627 52.627C50.4751 54.7789 47.5589 55.9916 44.5156 56H11.4844C8.44112 55.9916 5.52491 54.7789 3.373 52.627C1.22108 50.4751 0.00841846 47.5589 0 44.5156L0 11.4844C0.00841846 8.44112 1.22108 5.52491 3.373 3.373C5.52491 1.22108 8.44112 0.00841846 11.4844 0Z" fill="white"/>
<g clip-path="url(#clip1_2635_6816)">
<path d="M28 56C43.464 56 56 43.464 56 28C56 12.536 43.464 0 28 0C12.536 0 0 12.536 0 28C0 43.464 12.536 56 28 56Z" fill="white"/>
</g>
<g clip-path="url(#clip2_2635_6816)">
<mask id="mask0_2635_6816" style="mask-type:alpha" maskUnits="userSpaceOnUse" x="13" y="7" width="31" height="42">
<path d="M31.8257 7H15.8239C14.2707 7 13 8.27074 13 9.82386V45.5928C13 47.1459 14.2707 48.4167 15.8239 48.4167H40.2974C41.8505 48.4167 43.1212 47.1459 43.1212 45.5928V18.2954L31.8257 7Z" fill="white"/>
</mask>
<g mask="url(#mask0_2635_6816)">
<path d="M31.8257 7H15.8239C14.2707 7 13 8.27074 13 9.82386V45.5928C13 47.1459 14.2707 48.4167 15.8239 48.4167H40.2974C41.8505 48.4167 43.1212 47.1459 43.1212 45.5928V18.2954L36.5322 13.589L31.8257 7Z" fill="#673AB7"/>
</g>
<mask id="mask1_2635_6816" style="mask-type:alpha" maskUnits="userSpaceOnUse" x="13" y="7" width="31" height="42">
<path d="M31.8257 7H15.8239C14.2707 7 13 8.27074 13 9.82386V45.5928C13 47.1459 14.2707 48.4167 15.8239 48.4167H40.2974C41.8505 48.4167 43.1212 47.1459 43.1212 45.5928V18.2954L31.8257 7Z" fill="white"/>
</mask>
<g mask="url(#mask1_2635_6816)">
<path d="M25.2396 39.0039H35.5938V37.1213H25.2396V39.0039ZM25.2396 27.7084V29.591H35.5938V27.7084H25.2396ZM22.8864 28.6497C22.8864 29.4286 22.2533 30.0617 21.4745 30.0617C20.6955 30.0617 20.0625 29.4286 20.0625 28.6497C20.0625 27.8708 20.6955 27.2378 21.4745 27.2378C22.2533 27.2378 22.8864 27.8708 22.8864 28.6497ZM22.8864 33.3561C22.8864 34.1351 22.2533 34.7681 21.4745 34.7681C20.6955 34.7681 20.0625 34.1351 20.0625 33.3561C20.0625 32.5773 20.6955 31.9442 21.4745 31.9442C22.2533 31.9442 22.8864 32.5773 22.8864 33.3561ZM22.8864 38.0626C22.8864 38.8415 22.2533 39.4745 21.4745 39.4745C20.6955 39.4745 20.0625 38.8415 20.0625 38.0626C20.0625 37.2837 20.6955 36.6507 21.4745 36.6507C22.2533 36.6507 22.8864 37.2837 22.8864 38.0626ZM25.2396 34.2974H35.5938V32.4149H25.2396V34.2974Z" fill="#F1F1F1"/>
</g>
<mask id="mask2_2635_6816" style="mask-type:alpha" maskUnits="userSpaceOnUse" x="13" y="7" width="31" height="42">
<path d="M31.8257 7H15.8239C14.2707 7 13 8.27074 13 9.82386V45.5928C13 47.1459 14.2707 48.4167 15.8239 48.4167H40.2974C41.8505 48.4167 43.1212 47.1459 43.1212 45.5928V18.2954L31.8257 7Z" fill="white"/>
</mask>
<g mask="url(#mask2_2635_6816)">
<path d="M32.6484 17.4695L43.1179 27.9366V18.2955L32.6484 17.4695Z" fill="url(#paint0_linear_2635_6816)"/>
</g>
<mask id="mask3_2635_6816" style="mask-type:alpha" maskUnits="userSpaceOnUse" x="13" y="7" width="31" height="42">
<path d="M31.8257 7H15.8239C14.2707 7 13 8.27074 13 9.82386V45.5928C13 47.1459 14.2707 48.4167 15.8239 48.4167H40.2974C41.8505 48.4167 43.1212 47.1459 43.1212 45.5928V18.2954L31.8257 7Z" fill="white"/>
</mask>
<g mask="url(#mask3_2635_6816)">
<path d="M31.8281 7V15.4716C31.8281 17.0318 33.0918 18.2954 34.652 18.2954H43.1236L31.8281 7Z" fill="#B39DDB"/>
</g>
<mask id="mask4_2635_6816" style="mask-type:alpha" maskUnits="userSpaceOnUse" x="13" y="7" width="31" height="42">
<path d="M31.8257 7H15.8239C14.2707 7 13 8.27074 13 9.82386V45.5928C13 47.1459 14.2707 48.4167 15.8239 48.4167H40.2974C41.8505 48.4167 43.1212 47.1459 43.1212 45.5928V18.2954L31.8257 7Z" fill="white"/>
</mask>
<g mask="url(#mask4_2635_6816)">
<path d="M15.8239 7C14.2707 7 13 8.27074 13 9.82386V10.0592C13 8.50606 14.2707 7.23532 15.8239 7.23532H31.8257V7H15.8239Z" fill="white" fill-opacity="0.2"/>
</g>
<mask id="mask5_2635_6816" style="mask-type:alpha" maskUnits="userSpaceOnUse" x="13" y="7" width="31" height="42">
<path d="M31.8257 7H15.8239C14.2707 7 13 8.27074 13 9.82386V45.5928C13 47.1459 14.2707 48.4167 15.8239 48.4167H40.2974C41.8505 48.4167 43.1212 47.1459 43.1212 45.5928V18.2954L31.8257 7Z" fill="white"/>
</mask>
<g mask="url(#mask5_2635_6816)">
<path d="M40.2974 48.1813H15.8239C14.2707 48.1813 13 46.9106 13 45.3574V45.5927C13 47.1459 14.2707 48.4166 15.8239 48.4166H40.2974C41.8505 48.4166 43.1212 47.1459 43.1212 45.5927V45.3574C43.1212 46.9106 41.8505 48.1813 40.2974 48.1813Z" fill="#311B92" fill-opacity="0.2"/>
</g>
<mask id="mask6_2635_6816" style="mask-type:alpha" maskUnits="userSpaceOnUse" x="13" y="7" width="31" height="42">
<path d="M31.8257 7H15.8239C14.2707 7 13 8.27074 13 9.82386V45.5928C13 47.1459 14.2707 48.4167 15.8239 48.4167H40.2974C41.8505 48.4167 43.1212 47.1459 43.1212 45.5928V18.2954L31.8257 7Z" fill="white"/>
</mask>
<g mask="url(#mask6_2635_6816)">
<path d="M34.652 18.2955C33.0918 18.2955 31.8281 17.0319 31.8281 15.4717V15.707C31.8281 17.2672 33.0918 18.5308 34.652 18.5308H43.1236V18.2955H34.652Z" fill="#311B92" fill-opacity="0.1"/>
</g>
<path d="M31.8257 7H15.8239C14.2707 7 13 8.27074 13 9.82386V45.5928C13 47.1459 14.2707 48.4167 15.8239 48.4167H40.2974C41.8505 48.4167 43.1212 47.1459 43.1212 45.5928V18.2954L31.8257 7Z" fill="url(#paint1_radial_2635_6816)"/>
</g>
</g>
<defs>
<linearGradient id="paint0_linear_2635_6816" x1="37.8838" y1="18.3682" x2="37.8838" y2="27.9381" gradientUnits="userSpaceOnUse">
<stop stop-color="#311B92" stop-opacity="0.2"/>
<stop offset="1" stop-color="#311B92" stop-opacity="0.02"/>
</linearGradient>
<radialGradient id="paint1_radial_2635_6816" cx="0" cy="0" r="1" gradientUnits="userSpaceOnUse" gradientTransform="translate(13.9543 7.82324) scale(48.5701 48.5701)">
<stop stop-color="white" stop-opacity="0.1"/>
<stop offset="1" stop-color="white" stop-opacity="0"/>
</radialGradient>
<clipPath id="clip0_2635_6816">
<rect width="56" height="56" fill="white"/>
</clipPath>
<clipPath id="clip1_2635_6816">
<rect width="56" height="56" fill="white"/>
</clipPath>
<clipPath id="clip2_2635_6816">
<rect width="30.66" height="42" fill="white" transform="translate(13 7)"/>
</clipPath>
</defs>
</svg>
