<svg width="56" height="56" viewBox="0 0 56 56" fill="none" xmlns="http://www.w3.org/2000/svg">
<g clip-path="url(#clip0_2635_7291)">
<path fill-rule="evenodd" clip-rule="evenodd" d="M11.4844 0H44.5156C47.5589 0.00841846 50.4751 1.22108 52.627 3.373C54.7789 5.52491 55.9916 8.44112 56 11.4844V44.5156C55.9916 47.5589 54.7789 50.4751 52.627 52.627C50.4751 54.7789 47.5589 55.9916 44.5156 56H11.4844C8.44112 55.9916 5.52491 54.7789 3.373 52.627C1.22108 50.4751 0.00841846 47.5589 0 44.5156L0 11.4844C0.00841846 8.44112 1.22108 5.52491 3.373 3.373C5.52491 1.22108 8.44112 0.00841846 11.4844 0Z" fill="white"/>
<g clip-path="url(#clip1_2635_7291)">
<path d="M28 56C43.464 56 56 43.464 56 28C56 12.536 43.464 0 28 0C12.536 0 0 12.536 0 28C0 43.464 12.536 56 28 56Z" fill="white"/>
</g>
<g clip-path="url(#clip2_2635_7291)">
<mask id="mask0_2635_7291" style="mask-type:luminance" maskUnits="userSpaceOnUse" x="8" y="10" width="41" height="36">
<path d="M48.2923 10H8V46H48.2923V10Z" fill="white"/>
</mask>
<g mask="url(#mask0_2635_7291)">
<path d="M11.0462 40.8537L12.8231 43.923C13.1923 44.5691 13.7231 45.0768 14.3462 45.446L20.6923 34.4614H8C8 35.1768 8.18462 35.8922 8.55385 36.5383L11.0462 40.8537Z" fill="#0066DA"/>
<path d="M28.1461 21.5386L21.8 10.554C21.1769 10.9232 20.6462 11.4309 20.2769 12.077L8.55385 32.3847C8.19141 33.017 8.00048 33.7329 8 34.4616H20.6923L28.1461 21.5386Z" fill="#00AC47"/>
<path d="M41.9487 45.446C42.5717 45.0768 43.1025 44.5691 43.4717 43.923L44.2102 42.6537L47.7411 36.5383C48.1101 35.8922 48.2948 35.1768 48.2948 34.4614H35.6016L38.3025 39.7691L41.9487 45.446Z" fill="#EA4335"/>
<path d="M28.143 21.5385L34.4892 10.5538C33.8661 10.1846 33.1507 10 32.4123 10H23.8738C23.1354 10 22.42 10.2077 21.7969 10.5538L28.143 21.5385Z" fill="#00832D"/>
<path d="M35.5976 34.4614H20.6899L14.3438 45.446C14.9668 45.8153 15.6822 45.9999 16.4207 45.9999H39.8668C40.6053 45.9999 41.3207 45.7922 41.9438 45.446L35.5976 34.4614Z" fill="#2684FC"/>
<path d="M41.8792 22.2309L36.0177 12.077C35.6485 11.4309 35.1177 10.9232 34.4946 10.554L28.1484 21.5386L35.6023 34.4616H48.2715C48.2715 33.7462 48.0869 33.0309 47.7179 32.3847L41.8792 22.2309Z" fill="#FFBA00"/>
</g>
</g>
</g>
<defs>
<clipPath id="clip0_2635_7291">
<rect width="56" height="56" fill="white"/>
</clipPath>
<clipPath id="clip1_2635_7291">
<rect width="56" height="56" fill="white"/>
</clipPath>
<clipPath id="clip2_2635_7291">
<rect width="40.32" height="36" fill="white" transform="translate(8 10)"/>
</clipPath>
</defs>
</svg>
