<svg width="56" height="56" viewBox="0 0 56 56" fill="none" xmlns="http://www.w3.org/2000/svg">
<g clip-path="url(#clip0_2635_7280)">
<path fill-rule="evenodd" clip-rule="evenodd" d="M11.4844 0H44.5156C47.5589 0.00841846 50.4751 1.22108 52.627 3.373C54.7789 5.52491 55.9916 8.44112 56 11.4844V44.5156C55.9916 47.5589 54.7789 50.4751 52.627 52.627C50.4751 54.7789 47.5589 55.9916 44.5156 56H11.4844C8.44112 55.9916 5.52491 54.7789 3.373 52.627C1.22108 50.4751 0.00841846 47.5589 0 44.5156L0 11.4844C0.00841846 8.44112 1.22108 5.52491 3.373 3.373C5.52491 1.22108 8.44112 0.00841846 11.4844 0Z" fill="white"/>
<g clip-path="url(#clip1_2635_7280)">
<path d="M28 56C43.464 56 56 43.464 56 28C56 12.536 43.464 0 28 0C12.536 0 0 12.536 0 28C0 43.464 12.536 56 28 56Z" fill="white"/>
</g>
<path d="M31.2558 47.0365C40.4148 47.0365 47.8396 39.8691 47.8396 31.0276C47.8396 22.1861 40.4148 15.0186 31.2558 15.0186C22.0968 15.0186 14.6719 22.1861 14.6719 31.0276C14.6719 39.8691 22.0968 47.0365 31.2558 47.0365Z" fill="black"/>
<path d="M26.9747 43.6817C36.6078 43.6817 44.4728 36.1353 44.4728 26.7583C44.4728 17.3815 36.6078 9.83496 26.9747 9.83496C17.3417 9.83496 9.47656 17.3815 9.47656 26.7583C9.47656 36.1353 17.3417 43.6817 26.9747 43.6817Z" fill="#FF90E8" stroke="black" stroke-width="1.5625"/>
<path d="M25.6528 35.2963C20.7556 35.2963 17.875 31.3395 17.875 26.4176C17.875 21.3026 21.0437 17.1528 27.0929 17.1528C33.3344 17.1528 35.4468 21.3992 35.5428 23.8118H31.0299C30.9339 22.4608 29.7816 20.4341 26.997 20.4341C24.0204 20.4341 22.1 23.0398 22.1 26.2246C22.1 29.4094 24.0204 32.015 26.997 32.015C29.6857 32.015 30.8379 29.8918 31.318 27.7688H26.997V26.0316H36.0638V34.9102H32.0862V29.3128C31.798 31.3395 30.5497 35.2963 25.6528 35.2963Z" fill="black"/>
</g>
<defs>
<clipPath id="clip0_2635_7280">
<rect width="56" height="56" fill="white"/>
</clipPath>
<clipPath id="clip1_2635_7280">
<rect width="56" height="56" fill="white"/>
</clipPath>
</defs>
</svg>
