<svg width="56" height="56" viewBox="0 0 56 56" fill="none" xmlns="http://www.w3.org/2000/svg">
<g clip-path="url(#clip0_2635_6902)">
<path d="M0 0H56V56H0V0Z" fill="white"/>
<g clip-path="url(#clip1_2635_6902)">
<path d="M46.8597 17.2338C45.6071 15.0768 30.2299 6.16846 27.7255 6.16846C25.222 6.16846 9.83874 15.0545 8.59317 17.2338C7.34741 19.413 7.34048 37.1857 8.59317 39.3652C9.84576 41.5435 25.2237 50.4294 27.7255 50.4294C30.2273 50.4294 45.6071 41.5324 46.859 39.3642C48.1105 37.1961 48.1114 19.3906 46.8597 17.2338ZM32.9097 41.9766C32.5672 41.9766 29.373 38.8844 29.6246 38.6318C29.6998 38.5568 30.1659 38.504 31.1418 38.4736C31.1418 36.2063 31.1928 32.5444 31.223 31.0115C31.2267 30.8369 31.185 30.715 31.185 30.5057H24.2753C24.2753 31.1195 24.2356 33.6351 24.3938 36.8061C24.4136 37.1985 24.2572 37.3212 23.8975 37.3195C23.0217 37.3171 22.1453 37.3099 21.2687 37.3126C20.9143 37.3135 20.7612 37.1804 20.7725 36.7846C20.852 33.8938 21.0284 29.5211 20.7596 18.3998V18.1257C19.9236 18.0955 19.3435 18.0428 19.2674 17.9668C19.0149 17.7143 22.2533 14.6221 22.5948 14.6221C22.9372 14.6221 26.1539 17.7151 25.9031 17.9668C25.8279 18.0419 25.2202 18.0955 24.4534 18.1257V18.399C24.2442 20.625 24.278 25.2793 24.2261 27.5097H31.1642C31.1642 27.1162 31.198 24.5064 31.0606 20.2792C31.0519 19.986 31.1427 19.8322 31.4244 19.8297C32.3813 19.8227 33.3392 19.8184 34.2971 19.8244C34.5961 19.8262 34.6921 19.9731 34.6861 20.2895C34.3705 36.826 34.6289 35.6719 34.6289 38.4727C35.3958 38.503 36.083 38.5558 36.1584 38.6319C36.4074 38.8835 33.252 41.9766 32.9097 41.9766Z" fill="#2EC866"/>
</g>
</g>
<defs>
<clipPath id="clip0_2635_6902">
<rect width="56" height="56" rx="12" fill="white"/>
</clipPath>
<clipPath id="clip1_2635_6902">
<rect width="56" height="56" fill="white" transform="translate(3 -1)"/>
</clipPath>
</defs>
</svg>
