<svg width="52" height="52" viewBox="0 0 52 52" fill="none" xmlns="http://www.w3.org/2000/svg">
<path d="M40.8571 0H11.1429C4.98883 0 0 4.98883 0 11.1429V40.8571C0 47.0112 4.98883 52 11.1429 52H40.8571C47.0112 52 52 47.0112 52 40.8571V11.1429C52 4.98883 47.0112 0 40.8571 0Z" fill="url(#paint0_radial_1724_4919)"/>
<path d="M40.8571 0H11.1429C4.98883 0 0 4.98883 0 11.1429V40.8571C0 47.0112 4.98883 52 11.1429 52H40.8571C47.0112 52 52 47.0112 52 40.8571V11.1429C52 4.98883 47.0112 0 40.8571 0Z" fill="url(#paint1_radial_1724_4919)"/>
<path d="M40.8571 0H11.1429C4.98883 0 0 4.98883 0 11.1429V40.8571C0 47.0112 4.98883 52 11.1429 52H40.8571C47.0112 52 52 47.0112 52 40.8571V11.1429C52 4.98883 47.0112 0 40.8571 0Z" fill="url(#paint2_radial_1724_4919)"/>
<path d="M39.0001 15.7857C39.0001 17.3242 37.7529 18.5714 36.2144 18.5714C34.676 18.5714 33.4287 17.3242 33.4287 15.7857C33.4287 14.2472 34.676 13 36.2144 13C37.7529 13 39.0001 14.2472 39.0001 15.7857Z" fill="white"/>
<path fill-rule="evenodd" clip-rule="evenodd" d="M25.9996 35.2853C31.1279 35.2853 35.2853 31.1279 35.2853 25.9996C35.2853 20.8713 31.1279 16.7139 25.9996 16.7139C20.8713 16.7139 16.7139 20.8713 16.7139 25.9996C16.7139 31.1279 20.8713 35.2853 25.9996 35.2853ZM25.9996 31.571C29.0767 31.571 31.571 29.0767 31.571 25.9996C31.571 22.9225 29.0767 20.4282 25.9996 20.4282C22.9225 20.4282 20.4282 22.9225 20.4282 25.9996C20.4282 29.0767 22.9225 31.571 25.9996 31.571Z" fill="white"/>
<path fill-rule="evenodd" clip-rule="evenodd" d="M7.42871 25.2573C7.42871 19.0167 7.42871 15.8964 8.64321 13.5128C9.71151 11.4161 11.4161 9.71151 13.5128 8.64321C15.8964 7.42871 19.0167 7.42871 25.2573 7.42871H26.743C32.9836 7.42871 36.1039 7.42871 38.4874 8.64321C40.5841 9.71151 42.2888 11.4161 43.357 13.5128C44.5716 15.8964 44.5716 19.0167 44.5716 25.2573V26.743C44.5716 32.9836 44.5716 36.1039 43.357 38.4874C42.2888 40.5841 40.5841 42.2888 38.4874 43.357C36.1039 44.5716 32.9836 44.5716 26.743 44.5716H25.2573C19.0167 44.5716 15.8964 44.5716 13.5128 43.357C11.4161 42.2888 9.71151 40.5841 8.64321 38.4874C7.42871 36.1039 7.42871 32.9836 7.42871 26.743V25.2573ZM25.2573 11.143H26.743C29.9247 11.143 32.0873 11.1459 33.7591 11.2825C35.3876 11.4155 36.2204 11.6567 36.8013 11.9527C38.199 12.6649 39.3354 13.8013 40.0476 15.199C40.3436 15.7799 40.5848 16.6127 40.7178 18.2412C40.8543 19.913 40.8573 22.0756 40.8573 25.2573V26.743C40.8573 29.9247 40.8543 32.0873 40.7178 33.7591C40.5848 35.3876 40.3436 36.2204 40.0476 36.8013C39.3354 38.199 38.199 39.3354 36.8013 40.0476C36.2204 40.3436 35.3876 40.5848 33.7591 40.7178C32.0873 40.8543 29.9247 40.8573 26.743 40.8573H25.2573C22.0756 40.8573 19.913 40.8543 18.2412 40.7178C16.6127 40.5848 15.7799 40.3436 15.199 40.0476C13.8013 39.3354 12.6649 38.199 11.9527 36.8013C11.6567 36.2204 11.4155 35.3876 11.2825 33.7591C11.1459 32.0873 11.143 29.9247 11.143 26.743V25.2573C11.143 22.0756 11.1459 19.913 11.2825 18.2412C11.4155 16.6127 11.6567 15.7799 11.9527 15.199C12.6649 13.8013 13.8013 12.6649 15.199 11.9527C15.7799 11.6567 16.6127 11.4155 18.2412 11.2825C19.913 11.1459 22.0756 11.143 25.2573 11.143Z" fill="white"/>
<defs>
<radialGradient id="paint0_radial_1724_4919" cx="0" cy="0" r="1" gradientUnits="userSpaceOnUse" gradientTransform="translate(18.5714 39) rotate(-55.3758) scale(47.3935)">
<stop stop-color="#B13589"/>
<stop offset="0.79309" stop-color="#C62F94"/>
<stop offset="1" stop-color="#8A3AC8"/>
</radialGradient>
<radialGradient id="paint1_radial_1724_4919" cx="0" cy="0" r="1" gradientUnits="userSpaceOnUse" gradientTransform="translate(16.7143 53.8571) rotate(-65.1363) scale(41.9607)">
<stop stop-color="#E0E8B7"/>
<stop offset="0.444662" stop-color="#FB8A2E"/>
<stop offset="0.71474" stop-color="#E2425C"/>
<stop offset="1" stop-color="#E2425C" stop-opacity="0"/>
</radialGradient>
<radialGradient id="paint2_radial_1724_4919" cx="0" cy="0" r="1" gradientUnits="userSpaceOnUse" gradientTransform="translate(-2.78571 1.85714) rotate(-8.1301) scale(72.226 15.4484)">
<stop offset="0.156701" stop-color="#406ADC"/>
<stop offset="0.467799" stop-color="#6A45BE"/>
<stop offset="1" stop-color="#6A45BE" stop-opacity="0"/>
</radialGradient>
</defs>
</svg>
