<svg width="56" height="56" viewBox="0 0 56 56" fill="none" xmlns="http://www.w3.org/2000/svg">
<g clip-path="url(#clip0_2730_9318)">
<path fill-rule="evenodd" clip-rule="evenodd" d="M11.4844 0H44.5156C47.5589 0.00841846 50.4751 1.22108 52.627 3.373C54.7789 5.52491 55.9916 8.44112 56 11.4844V44.5156C55.9916 47.5589 54.7789 50.4751 52.627 52.627C50.4751 54.7789 47.5589 55.9916 44.5156 56H11.4844C8.44112 55.9916 5.52491 54.7789 3.373 52.627C1.22108 50.4751 0.00841846 47.5589 0 44.5156L0 11.4844C0.00841846 8.44112 1.22108 5.52491 3.373 3.373C5.52491 1.22108 8.44112 0.00841846 11.4844 0Z" fill="white"/>
<g clip-path="url(#clip1_2730_9318)">
<path d="M28 56C43.464 56 56 43.464 56 28C56 12.536 43.464 0 28 0C12.536 0 0 12.536 0 28C0 43.464 12.536 56 28 56Z" fill="white"/>
</g>
<path d="M25.9188 32.6393C25.9188 33.3512 26.3725 33.8284 27.014 33.8284C27.6555 33.8284 28.1092 33.3512 28.1092 32.6393V26.6233H28.7351C29.2983 26.6233 29.7834 26.3573 29.7834 25.6846C29.7834 25.0039 29.2983 24.7458 28.7351 24.7458H28.1092V23.4706C28.1092 22.7587 27.6555 22.2815 27.014 22.2815C26.3725 22.2815 25.9188 22.7587 25.9188 23.4706V24.7458H25.4337C24.8861 24.7458 24.4715 25.1448 24.4715 25.6846C24.4715 26.2635 24.8392 26.6233 25.4337 26.6233H25.9188V32.6393ZM11.0313 23.4471C11.0313 22.7039 10.5463 22.2893 9.88917 22.2893C9.23203 22.2893 8.74699 22.7039 8.74699 23.4471V30.6209C8.74699 31.0982 8.74699 31.8727 7.89427 31.8727C7.20584 31.8727 6.67386 31.325 6.06366 31.325C5.56298 31.325 5.21094 31.8335 5.21094 32.2325C5.21094 33.5233 6.96332 33.9301 8.01944 33.9301C9.40413 33.9301 11.0392 33.273 11.0392 30.7774V23.4471H11.0313ZM11.6416 30.7931C11.6416 32.6941 12.9402 33.9145 15.2558 33.9145C17.5715 33.9145 18.8701 32.6941 18.8701 30.7931V26.9284C18.8701 26.2165 18.4164 25.7393 17.7749 25.7393C17.1334 25.7393 16.6796 26.2165 16.6796 26.9284V30.7461C16.6796 31.638 15.9912 32.1308 15.2637 32.1308C14.5283 32.1308 13.8477 31.638 13.8477 30.7461V26.9284C13.8477 26.2165 13.3939 25.7393 12.7524 25.7393C12.1109 25.7393 11.6572 26.2165 11.6572 26.9284V30.7931H11.6416ZM25.0191 27.2022C25.0191 27.6951 24.6358 28.1567 24.1194 28.1567C23.7048 28.1567 22.8677 27.5308 22.1558 27.5308C21.7569 27.5308 21.4126 27.7107 21.4126 28.1254C21.4126 29.1189 25.2225 28.9703 25.2225 31.4111C25.2225 32.8349 23.9864 33.9301 22.1011 33.9301C20.865 33.9301 19.0344 33.2417 19.0344 32.2795C19.0344 31.9509 19.3708 31.325 19.981 31.325C20.8337 31.325 21.2171 32.0526 22.2497 32.0526C22.9225 32.0526 23.1181 31.8414 23.1181 31.4424C23.1181 30.4645 19.3082 30.6131 19.3082 28.1567C19.3082 26.6703 20.5443 25.6611 22.281 25.6611C23.3606 25.6533 25.0191 26.1461 25.0191 27.2022Z" fill="#1274C0"/>
<path d="M48.7063 32.5534C48.7063 33.2653 49.1678 33.7425 49.8171 33.7425C50.4665 33.7425 50.928 33.2653 50.928 32.5534V23.3925C50.928 22.6806 50.4665 22.2034 49.8171 22.2034C49.1678 22.2034 48.7063 22.6806 48.7063 23.3925V32.5534ZM37.0654 23.3925C37.0654 22.6806 36.6039 22.2034 35.9546 22.2034C35.3052 22.2034 34.8437 22.6806 34.8437 23.3925V26.3027C34.2569 25.8098 33.5059 25.5595 32.7314 25.5595C30.3454 25.5595 29.1562 27.7187 29.1562 29.7996C29.1562 31.818 30.5722 33.8285 32.8097 33.8285C33.5685 33.8285 34.429 33.5 34.8437 32.8428C34.9845 33.4061 35.3365 33.7347 35.9546 33.7347C36.6039 33.7347 37.0654 33.2575 37.0654 32.5455V23.3925ZM34.8437 29.6353C34.8437 30.6758 34.3195 31.8649 33.0991 31.8649C31.9413 31.8649 31.3702 30.7071 31.3702 29.7057C31.3702 28.6966 31.9413 27.5231 33.0991 27.5231C34.2882 27.5231 34.8437 28.5949 34.8437 29.6353ZM37.6756 32.5534C37.6756 33.2653 38.1372 33.7425 38.7865 33.7425C39.4358 33.7425 39.8974 33.2653 39.8974 32.5534V26.8425C39.8974 26.1306 39.4358 25.6534 38.7865 25.6534C38.1372 25.6534 37.6756 26.1306 37.6756 26.8425V32.5534ZM38.7865 22.4381C38.1216 22.4381 37.5348 23.0013 37.5348 23.6115C37.5348 24.2687 38.1216 24.8476 38.7865 24.8476C39.4828 24.8476 40.0382 24.2843 40.0382 23.6115C40.0382 22.9935 39.4515 22.4381 38.7865 22.4381ZM48.0961 27.0459C48.0961 26.4983 48.096 25.6455 47.0321 25.6455C46.4923 25.6455 46.0307 26.0211 45.9682 26.5374C45.4753 25.8646 44.6695 25.5595 43.8559 25.5595C41.8219 25.5595 40.1869 27.3588 40.1869 29.7057C40.1869 32.1153 41.775 33.8285 43.8559 33.8285C44.7008 33.8285 45.3971 33.4843 45.9682 32.8272C46.1246 33.3904 46.3828 33.7347 47.0321 33.7347C48.096 33.7347 48.0961 32.8819 48.0961 32.3343V27.0459ZM42.4086 29.7136C42.4086 28.6887 42.9484 27.5309 44.1688 27.5309C45.3423 27.5309 45.8821 28.6887 45.8821 29.7136C45.8821 30.7384 45.3267 31.8728 44.1688 31.8728C42.9641 31.8649 42.4086 30.7384 42.4086 29.7136Z" fill="#FF6C00"/>
</g>
<defs>
<clipPath id="clip0_2730_9318">
<rect width="56" height="56" fill="white"/>
</clipPath>
<clipPath id="clip1_2730_9318">
<rect width="56" height="56" fill="white"/>
</clipPath>
</defs>
</svg>
