<svg width="56" height="56" viewBox="0 0 56 56" fill="none" xmlns="http://www.w3.org/2000/svg">
<g clip-path="url(#clip0_2635_7138)">
<path fill-rule="evenodd" clip-rule="evenodd" d="M11.4844 0H44.5156C47.5589 0.00841846 50.4751 1.22108 52.627 3.373C54.7789 5.52491 55.9916 8.44112 56 11.4844V44.5156C55.9916 47.5589 54.7789 50.4751 52.627 52.627C50.4751 54.7789 47.5589 55.9916 44.5156 56H11.4844C8.44112 55.9916 5.52491 54.7789 3.373 52.627C1.22108 50.4751 0.00841846 47.5589 0 44.5156L0 11.4844C0.00841846 8.44112 1.22108 5.52491 3.373 3.373C5.52491 1.22108 8.44112 0.00841846 11.4844 0Z" fill="white"/>
<g clip-path="url(#clip1_2635_7138)">
<path d="M28 56C43.464 56 56 43.464 56 28C56 12.536 43.464 0 28 0C12.536 0 0 12.536 0 28C0 43.464 12.536 56 28 56Z" fill="white"/>
</g>
<g clip-path="url(#clip2_2635_7138)">
<path d="M21.8204 16.0284L22.4503 15.3281L23.9897 13.5094L26.3698 12.1792L26.7889 11.479L27.2089 10.2894V9.30971L27.9091 8.53922L28.329 7.55957H29.169L30.7083 8.32923L31.6855 10.0091L31.826 11.9692L34.135 13.2291L35.4677 14.2088L36.6573 15.7481L38.0569 19.0376L38.6174 21.1374L38.9671 23.6572L39.3168 26.0365L40.5064 27.0889L41.1364 28.9076L41.7663 30.6569L41.9763 32.5451L41.1364 34.225L39.9468 35.3443L38.4074 35.6246L38.1272 36.8845L37.427 38.6338L35.9579 40.384L34.3475 41.7836L32.1815 42.6235L29.732 43.2535H25.7398L22.8 42.9029L19.4403 41.7836L17.481 40.8039L16.0814 39.8201L15.1017 39.0538L14.1213 37.8642L13.4219 36.8845L13.7021 35.4146L14.8918 34.7144V33.6653L15.3812 31.9854L16.3616 30.0253L17.271 28.4157L18.1804 27.0864L19.0898 26.2464L19.79 25.7562V24.5666L20 23.167L20.21 20.9274L20.6299 19.0376L21.1896 17.2883L21.8204 16.0284Z" fill="#FACD00" stroke="black"/>
<path d="M42.2431 31.1653V31.1232C42.099 29.7138 41.6571 28.351 40.9468 27.1252C40.7492 26.7869 40.5226 26.4663 40.2697 26.1671C40.1788 26.0602 40.0668 25.9731 39.9408 25.9112C39.8148 25.8494 39.6775 25.8141 39.5373 25.8075C39.5298 25.7248 39.5216 25.6363 39.5133 25.5512C39.4629 25.0204 39.4067 24.5013 39.348 23.997C39.3323 23.8713 39.3182 23.749 39.3033 23.6225L39.2694 23.353C39.2709 23.3249 39.267 23.2969 39.2579 23.2703C39.2512 23.2099 39.243 23.1504 39.2347 23.0901C39.2325 23.0561 39.2278 23.0224 39.2207 22.9892C39.2132 22.9346 39.2049 22.8809 39.1983 22.8239C39.1917 22.7668 39.1884 22.7553 39.1826 22.7205C39.1768 22.6858 39.1669 22.6155 39.1586 22.5626C39.1504 22.5097 39.1487 22.4957 39.1438 22.4618C39.1347 22.4072 39.1264 22.3526 39.1165 22.2964C39.1146 22.266 39.1099 22.2358 39.1024 22.2063C39.0917 22.141 39.0818 22.0765 39.071 22.0137C39.0691 21.9947 39.0657 21.976 39.0611 21.9575C39.047 21.8748 39.033 21.7921 39.0173 21.7095L39.0049 21.6417C38.9933 21.583 38.9842 21.5243 38.9726 21.4672L38.9586 21.3846C38.9487 21.3341 38.9387 21.2837 38.9272 21.2349C38.9156 21.1862 38.9148 21.1721 38.909 21.1399L38.88 21.0002C38.8726 20.9687 38.866 20.9382 38.8602 20.9076C38.8544 20.877 38.8395 20.8108 38.828 20.7678C38.8164 20.7249 38.8156 20.71 38.8098 20.681L38.7734 20.5223C38.7707 20.499 38.7657 20.476 38.7585 20.4537C38.7412 20.3801 38.723 20.3057 38.7048 20.233L38.6965 20.1974C38.6808 20.1362 38.6676 20.0742 38.6519 20.0147L38.6304 19.9378C38.6196 19.8915 38.6072 19.8452 38.5957 19.7973L38.5733 19.7146C38.5609 19.6708 38.5494 19.632 38.5386 19.5857C38.5279 19.5394 38.5229 19.5294 38.5146 19.503C38.5064 19.4765 38.4907 19.4203 38.4799 19.3765C38.4692 19.3327 38.4626 19.3219 38.4559 19.2938L38.4163 19.1616L38.3956 19.0888C38.3791 19.0334 38.3609 18.9772 38.3435 18.9235C38.3449 18.9114 38.3416 18.8993 38.3344 18.8896C38.3129 18.8243 38.2931 18.7598 38.2724 18.6953L38.2518 18.6308C38.236 18.5878 38.222 18.544 38.2079 18.501L38.1831 18.425C38.1691 18.3869 38.1567 18.3481 38.1426 18.3092L38.1153 18.2323C38.1071 18.2051 38.0889 18.1579 38.0748 18.1199L38.0484 18.0447L38.0062 17.9306C37.998 17.9083 37.988 17.8851 37.9798 17.8611C37.9715 17.8372 37.9475 17.7785 37.931 17.7338C37.9278 17.7153 37.9211 17.6977 37.9111 17.6818C37.8888 17.6231 37.8649 17.566 37.8425 17.5081L37.8219 17.4577L37.7714 17.3345L37.7433 17.2692L37.6987 17.1642C37.6888 17.1403 37.6772 17.1179 37.6681 17.094L37.6243 16.9956C37.6144 16.9724 37.6036 16.9501 37.5937 16.9261L37.5491 16.8294C37.5391 16.8071 37.5292 16.7848 37.5176 16.7625C37.5061 16.7401 37.4854 16.6947 37.4705 16.6599C37.4556 16.6252 37.4523 16.6219 37.4424 16.6029L37.3713 16.4624C37.3663 16.4508 37.3614 16.44 37.3556 16.4293L37.2895 16.2987L37.2605 16.2433L37.2118 16.149L37.1779 16.0862L37.1299 16.0035L37.0968 15.9415C37.0811 15.9143 37.0663 15.8861 37.0489 15.8589L37.0158 15.7969C36.9985 15.7688 36.9819 15.7415 36.9662 15.7142L36.9332 15.6563L36.8753 15.5513C36.8753 15.5373 36.8604 15.5249 36.853 15.5125C36.8249 15.4678 36.7984 15.4232 36.7703 15.3728L36.7414 15.3265L36.6868 15.2438L36.6512 15.1901L36.6008 15.1132L36.5644 15.0586L36.5157 14.9859L36.4776 14.9313L36.4272 14.8602L36.3908 14.8081C36.3726 14.7817 36.3536 14.7569 36.3354 14.7312C36.3173 14.7056 36.314 14.7023 36.3032 14.6866L36.2205 14.5717L36.1957 14.5378L36.1329 14.4551L36.0949 14.408L36.0428 14.3419L36.0023 14.2931L35.9519 14.2311L35.9113 14.1823L35.8609 14.122L35.8204 14.0757L35.7592 14.0145L35.7229 13.9723L35.6542 13.8971L35.6245 13.8648L35.5418 13.7739L35.5038 13.7359L35.4476 13.6772L35.4071 13.6367L35.3541 13.5821L35.312 13.54L35.2591 13.4895L35.2169 13.449L35.1632 13.3969L35.1227 13.3589L35.0615 13.3035L35.0276 13.2729L34.9342 13.1903L34.9003 13.1621L34.7986 13.0737L34.7424 13.0274L34.6986 12.9927L34.6457 12.9489L34.6027 12.9158L34.5473 12.8736L34.5043 12.8397L34.4456 12.7967L34.4059 12.767L34.3232 12.7066L34.2885 12.6802L34.2158 12.6298L34.1744 12.6025L34.1174 12.5644L34.0744 12.5347L34.0182 12.4983L33.9744 12.4702L33.919 12.4355L33.8752 12.409L33.8181 12.3743L33.776 12.3487L33.709 12.3082L33.6776 12.29L33.5817 12.2354L33.5437 12.2156L33.4817 12.1825L33.4403 12.1594L33.3825 12.1288L33.3378 12.1064L33.2832 12.0783L33.2411 12.0544L33.184 12.0271L33.0724 11.9601L33.0361 11.9436L32.9393 11.9006L32.9087 11.8865L32.8401 11.8568L32.7996 11.8402L32.7401 11.8146L32.6971 11.7981L32.6409 11.7758L32.5979 11.7592L32.54 11.7361L32.4987 11.7212L32.4384 11.6989L32.3987 11.6848L32.2937 11.6493L32.2027 11.6187L32.1788 11.6121C32.283 11.0483 32.2678 10.4689 32.1341 9.91142C32.0004 9.3539 31.7511 8.83066 31.4025 8.37552C30.7692 7.53889 29.8739 6.99988 29.1208 6.99988C28.9369 6.99548 28.7543 7.0307 28.5852 7.10317C28.4162 7.17564 28.2647 7.28364 28.1411 7.41985C27.917 7.665 27.787 7.98161 27.7741 8.31352C27.527 8.34641 27.2953 8.45188 27.1083 8.61656C26.9212 8.78124 26.7873 8.99773 26.7233 9.2386C26.6727 9.4233 26.6631 9.61686 26.6952 9.80567C26.7274 9.99447 26.8004 10.174 26.9093 10.3315C26.6068 10.6118 26.3356 11.0466 26.3058 11.7534C25.8646 11.9069 25.4359 12.0943 25.0236 12.3139C24.9285 12.3644 24.8351 12.4173 24.7442 12.4718L24.5069 12.6116C24.4499 12.6471 24.3928 12.6843 24.335 12.7223C24.163 12.8348 23.9927 12.9555 23.8224 13.0861C23.7649 13.1301 23.7097 13.177 23.6571 13.2266C23.5518 13.3104 23.4476 13.3986 23.3446 13.4912C23.2412 13.5829 23.1098 13.7036 22.9932 13.8169C22.8279 13.9822 22.67 14.1476 22.5129 14.3278C22.4377 14.4105 22.3633 14.5039 22.2889 14.5948C22.2145 14.6858 22.174 14.7354 22.1186 14.8123L22.0227 14.9363C21.9317 15.0592 21.8422 15.1857 21.754 15.3157C21.6655 15.4463 21.5639 15.6084 21.4737 15.7605C21.4068 15.8729 21.3423 15.9862 21.277 16.1027C21.229 16.1854 21.1811 16.2772 21.1364 16.3673C21.0538 16.5326 20.9645 16.7071 20.8818 16.8865C20.7247 17.2238 20.5781 17.582 20.442 17.9612C20.3593 18.1918 20.2767 18.4307 20.2047 18.6796C20.1543 18.8449 20.1047 19.0152 20.0576 19.1888C20.0105 19.3624 19.9708 19.5237 19.9303 19.6956C19.9179 19.7485 19.9047 19.8023 19.8939 19.861C19.8517 20.0437 19.8112 20.233 19.7749 20.4206C19.7429 20.586 19.7126 20.7538 19.6839 20.9241C19.6288 21.2653 19.5784 21.6191 19.5326 21.9856C19.4841 22.4061 19.445 22.8432 19.4152 23.2967C19.3979 23.5514 19.3838 23.801 19.3714 24.0408C19.359 24.2805 19.3475 24.5252 19.3384 24.7608C19.3293 24.9965 19.321 25.2263 19.3144 25.452V25.6008C19.0961 25.6008 18.4323 25.6008 16.6549 28.5066C15.6289 30.1882 14.7692 31.9871 14.4153 33.2015C14.2748 33.662 14.1466 34.2531 14.2847 34.683H14.2706L14.2012 34.697L14.1698 34.7036L14.1061 34.7177L14.0764 34.726L14.0078 34.7442L13.9854 34.7516C13.9557 34.7599 13.9267 34.7698 13.8986 34.7805H13.8846L13.8143 34.8086L13.7879 34.8202L13.7325 34.845L13.7052 34.8591L13.6506 34.8888L13.6275 34.9012L13.5572 34.9459C13.5332 34.9624 13.5093 34.9798 13.4869 34.998L13.4679 35.0128L13.4216 35.0533L13.3993 35.0748L13.3356 35.1377C13.3216 35.1542 13.3067 35.1716 13.2927 35.1897L13.2803 35.2063C13.2621 35.2303 13.2439 35.2542 13.2265 35.279L13.2158 35.2972C13.2034 35.3171 13.1901 35.3377 13.1794 35.3592C13.1747 35.3686 13.1695 35.3777 13.1637 35.3865C13.1529 35.4057 13.1435 35.4255 13.1356 35.446C13.1315 35.4566 13.1265 35.4668 13.1207 35.4766L13.0785 35.5593L13.067 35.589C13.0562 35.6213 13.0446 35.6544 13.0347 35.6899C13.024 35.7304 13.0157 35.7716 13.0099 35.8131C13.0037 35.8583 13.0004 35.9039 13 35.9495C13.0149 36.3785 13.1239 36.799 13.3191 37.1813C13.4406 37.4457 13.5809 37.7009 13.7391 37.9452C13.8093 38.0518 13.8788 38.1601 13.9615 38.2692C14.4721 38.9593 15.0692 39.5811 15.7381 40.1194C15.9425 40.288 16.1588 40.4534 16.387 40.6154C16.7893 40.9028 17.2071 41.1678 17.6387 41.4091C19.1433 42.249 21.0455 42.9633 23.3776 43.3427C23.7513 43.4039 24.1396 43.456 24.5425 43.499C25.4335 43.5937 26.329 43.6406 27.2251 43.6395C28.2749 43.6446 29.3233 43.5617 30.3592 43.3915C30.7279 43.3287 31.0817 43.2518 31.4232 43.1699C33.6362 42.6227 35.288 41.619 36.5115 40.3145C36.5644 40.2591 36.6165 40.2012 36.667 40.1442C36.7496 40.0516 36.8304 39.9582 36.9092 39.8639L37.0324 39.7118C37.1539 39.5564 37.2696 39.3993 37.3821 39.2373C37.4432 39.1488 37.5036 39.0596 37.5615 38.9686C37.811 38.582 38.0352 38.1797 38.2327 37.7641C38.2832 37.6591 38.3328 37.5541 38.3733 37.4467C38.4039 37.378 38.4328 37.3069 38.4626 37.2408C38.5237 37.0928 38.5841 36.944 38.6403 36.7927C38.6808 36.6861 38.723 36.577 38.7577 36.462C38.7932 36.3628 38.8263 36.2636 38.8586 36.1628L38.947 35.8825C38.9932 35.8895 39.04 35.8928 39.0867 35.8924C39.1993 35.8926 39.3112 35.8736 39.4174 35.8362C39.9915 35.6474 40.5212 35.3436 40.9741 34.9434C41.4803 34.4894 41.8537 33.9065 42.0546 33.2569C42.2581 32.5796 42.3222 31.8681 42.2431 31.1653ZM28.6248 10.6035C28.6311 10.6038 28.6372 10.6017 28.6421 10.5977C28.6449 10.5958 28.6472 10.5934 28.6489 10.5905C28.6506 10.5877 28.6517 10.5845 28.652 10.5812C28.6544 10.5753 28.6544 10.5688 28.652 10.563C28.6507 10.5601 28.6487 10.5576 28.6463 10.5556C28.6439 10.5536 28.641 10.5522 28.638 10.5514C28.0064 10.2571 27.3624 9.97272 27.5029 9.4585C27.5699 9.21049 27.7823 9.11129 28.0527 9.11129C28.468 9.14247 28.8717 9.26257 29.2365 9.46346C29.2408 9.46512 29.2455 9.46512 29.2497 9.46346C29.255 9.46377 29.2603 9.46231 29.2646 9.45933C29.2688 9.45598 29.2722 9.45174 29.2745 9.44693C29.2762 9.44182 29.2762 9.43633 29.2745 9.43122C29.2738 9.42606 29.2711 9.42135 29.2671 9.418C28.8091 8.94843 28.3139 8.45323 28.7446 7.96051C28.7933 7.91121 28.8523 7.87315 28.9172 7.84902C28.9822 7.82489 29.0517 7.81525 29.1208 7.8208C29.9963 7.8208 31.7208 9.28324 31.3876 11.4095L31.3471 11.4013L31.2917 11.3897L31.2512 11.3814L31.1933 11.3698L31.0916 11.3517H31.0594L30.9668 11.3368H30.9486L30.8717 11.3252H30.8378L30.7775 11.3169H30.646L30.589 11.3103H30.46L30.3856 11.3029H29.1687L28.9893 11.3112H28.9769L28.8116 11.3227H28.7934L28.6396 11.3351H28.6148L28.4652 11.3508H28.4478L28.2982 11.369H28.2875L28.1345 11.388L27.9245 11.4195L27.7104 11.4567L27.6534 11.4682C27.5128 11.493 27.3855 11.5211 27.2475 11.5509L27.1788 11.5683L27.1491 11.5749C27.3111 10.7126 28.0163 10.6374 28.6248 10.6035ZM15.5892 32.3128C16.1638 30.9745 16.8484 29.6862 17.6362 28.4612C18.5555 27.0318 19.092 26.5449 19.2764 26.444C19.2869 26.4365 19.2986 26.4309 19.3111 26.4275C19.5368 26.4382 19.8294 26.6945 20.084 27.1021C20.0923 27.117 20.1022 27.131 20.1105 27.1451C20.8636 28.3967 21.1522 30.6172 20.3304 32.1657C20.1762 32.46 19.9884 32.7355 19.7707 32.9866C19.2383 33.5823 18.5641 34.0338 17.8106 34.2994C17.6403 34.3622 17.4799 34.4102 17.3452 34.4465C16.2556 34.7334 15.3611 34.6119 15.0461 34.4366C15.0196 34.3639 14.9271 33.9017 15.5892 32.3128ZM38.804 32.2095C38.7106 33.2975 38.5195 34.3749 38.2327 35.4287C38.1501 35.7155 38.0674 35.995 37.9723 36.2686C37.5606 37.4919 36.9148 38.6235 36.0709 39.6002C35.1394 40.6343 33.9757 41.4324 32.6756 41.9291C31.1578 42.5243 29.3291 42.826 27.2359 42.826C26.2327 42.8291 25.2304 42.7684 24.2349 42.6442C23.8406 42.5937 23.4512 42.5342 23.0701 42.4639C21.6621 42.2124 20.2917 41.7829 18.992 41.1858C17.2212 40.3591 15.7133 39.2084 14.7452 37.9385C13.8523 36.7688 13.7936 36.0264 13.8267 35.9048C13.9011 35.642 14.0565 35.4386 15.2908 35.4386H15.9571C16.8739 35.4386 17.5709 35.3138 18.1405 35.0467C19.3885 34.6039 20.4279 33.714 21.0579 32.5492C22.05 30.6751 21.6746 28.1503 20.8173 26.7243C20.6357 26.4086 20.3955 26.1306 20.1097 25.905C20.1295 25.1114 20.1618 24.259 20.2205 23.3488C20.4685 19.4443 21.5432 16.4872 23.4107 14.5502C24.3033 13.6265 25.4032 12.9288 26.6192 12.5148C27.1492 12.3332 27.6954 12.2028 28.2503 12.1255C28.6814 12.0651 29.1162 12.0345 29.5515 12.0337C30.351 12.028 31.1466 12.1459 31.9101 12.3834C32.9304 12.7107 33.8622 13.2672 34.6341 14.0104C36.6496 15.9233 37.9459 19.1888 38.489 23.7175C38.5775 24.4566 38.6668 25.2643 38.737 26.115C38.9049 28.0329 38.99 30.1683 38.804 32.2095ZM41.4569 31.9391C41.4546 32.09 41.4425 32.2405 41.4205 32.3897C41.4005 32.5311 41.3729 32.6712 41.3378 32.8097C41.258 33.1372 41.1251 33.4494 40.9443 33.7339C40.8733 33.8449 40.7948 33.9509 40.7095 34.0514C40.6682 34.1007 40.6237 34.1474 40.5765 34.1911C40.5302 34.2332 40.4814 34.2853 40.4367 34.3316C40.3921 34.3779 40.3417 34.4143 40.2962 34.4548C40.1496 34.5706 39.9939 34.6746 39.8308 34.7656C39.7258 34.8243 39.6175 34.8773 39.51 34.9252C39.4025 34.9731 39.2917 35.0161 39.1793 35.0533C39.2116 34.9219 39.2405 34.7888 39.2703 34.6565C39.3413 34.3225 39.4034 33.9847 39.4563 33.643C39.4678 33.5661 39.4802 33.4892 39.4902 33.4115C39.5191 33.2156 39.5447 33.0172 39.5687 32.8179C39.5836 32.6782 39.5976 32.5385 39.6117 32.3988C39.6257 32.2591 39.6381 32.1185 39.6481 31.9788C39.6646 31.7688 39.6786 31.5589 39.6919 31.3489C39.6985 31.2083 39.7059 31.0686 39.7109 30.9289C39.7158 30.7892 39.7208 30.6486 39.7241 30.5089V29.0374C39.7241 28.8977 39.7241 28.758 39.7125 28.6174C39.701 28.4769 39.7026 28.338 39.6968 28.1975C39.691 28.0569 39.6861 27.918 39.6786 27.7775C39.6596 27.3972 39.634 27.0194 39.6059 26.6457H39.6199C39.6316 26.6541 39.6421 26.6638 39.6514 26.6747C39.7555 26.797 39.8575 26.9287 39.9572 27.0698C40.0325 27.1757 40.1052 27.2864 40.178 27.4005L40.2491 27.5179C40.4094 27.7891 40.5535 28.0696 40.6806 28.3578C40.7451 28.4976 40.8063 28.6513 40.8641 28.8026C40.9507 29.0302 41.0289 29.2636 41.0989 29.5028C41.1675 29.7376 41.2295 29.9774 41.28 30.2179C41.3486 30.5415 41.3999 30.8685 41.4337 31.1976C41.4437 31.2803 41.4503 31.3629 41.4544 31.4456C41.4577 31.6233 41.461 31.7837 41.4569 31.9391Z" fill="#383838"/>
<path d="M26.194 46.3348C26.0131 46.3318 25.8373 46.2741 25.6898 46.1693C25.5422 46.0646 25.4298 45.9177 25.3673 45.7478L24.5406 43.5083C24.1405 43.4642 23.7522 43.4121 23.3758 43.3521C23.7585 44.4152 24.2298 45.723 24.3629 46.0727C24.4075 46.1893 24.3629 46.3348 24.1471 46.3348H22.874C22.874 46.3348 22.4887 47.1838 23.5353 47.1532C26.4288 47.0664 26.1138 49.3854 27.0248 48.9447C27.9012 48.5248 26.2329 47.1508 26.2585 47.1532C29.5893 47.5732 28.5253 46.3315 28.5253 46.3315C28.5253 46.3315 26.8297 46.3348 26.194 46.3348Z" fill="#383838"/>
<path d="M32.4439 45.1938C32.3622 45.1948 32.2822 45.1706 32.2149 45.1243C32.1471 45.0789 32.0947 45.0141 32.0645 44.9383C31.9115 44.5547 31.6238 43.7388 31.4205 43.1758C31.079 43.2585 30.7211 43.3337 30.3565 43.3965C30.5764 44.0041 30.8814 44.8457 30.9071 44.9267C30.9674 45.1128 30.9236 45.183 30.5946 45.183H29.3545C29.3545 45.183 28.9974 45.9808 30.3656 45.9808C33.1565 45.9808 32.5754 48.327 33.6493 47.726C34.3346 47.3424 33.0615 46.2611 32.959 46.1321C32.9003 46.0593 32.9474 45.9568 33.0987 45.9791C35.95 46.4148 35.2481 45.183 35.2481 45.183C35.2481 45.183 33.2805 45.1938 32.4439 45.1938Z" fill="#383838"/>
<path d="M28.1034 21.302C28.2235 21.2736 28.3326 21.2103 28.4168 21.12C28.5009 21.0296 28.5564 20.9164 28.5762 20.7945C28.596 20.6726 28.5792 20.5476 28.5279 20.4353C28.4766 20.323 28.3932 20.2284 28.2882 20.1635C28.1831 20.0986 28.0612 20.0663 27.9378 20.0707C27.8144 20.0751 27.6951 20.116 27.595 20.1882C27.4948 20.2605 27.4184 20.3608 27.3752 20.4765C27.3321 20.5922 27.3243 20.718 27.3527 20.8382C27.3715 20.918 27.4058 20.9933 27.4537 21.0598C27.5016 21.1263 27.5621 21.1827 27.6319 21.2258C27.7016 21.2688 27.7791 21.2977 27.86 21.3108C27.9409 21.3239 28.0236 21.3209 28.1034 21.302Z" fill="#383838"/>
<path d="M34.8826 21.2194C34.9875 21.1544 35.0708 21.0598 35.1219 20.9475C35.1731 20.8351 35.1897 20.7102 35.1699 20.5884C35.15 20.4666 35.0945 20.3534 35.0103 20.2632C34.9261 20.1729 34.8171 20.1096 34.697 20.0813C34.5769 20.053 34.451 20.061 34.3354 20.1042C34.2198 20.1474 34.1196 20.2238 34.0475 20.324C33.9753 20.4241 33.9345 20.5434 33.9301 20.6667C33.9257 20.79 33.958 20.9119 34.0228 21.0169C34.0659 21.0867 34.1224 21.1473 34.189 21.1953C34.2555 21.2432 34.3309 21.2776 34.4107 21.2964C34.4906 21.3152 34.5734 21.3181 34.6543 21.3049C34.7353 21.2917 34.8129 21.2626 34.8826 21.2194Z" fill="#383838"/>
<path d="M33.0841 22.8727L31.5035 22.218C31.4505 22.1984 31.3946 22.1884 31.3381 22.1882C31.2817 22.1885 31.2258 22.1986 31.1728 22.218L29.5888 22.8727C29.5391 22.8875 29.4947 22.9162 29.4607 22.9554C29.427 22.9955 29.406 23.0447 29.4003 23.0968C29.3941 23.149 29.4033 23.2019 29.4268 23.2489C29.4508 23.2954 29.4875 23.3341 29.5326 23.3605L31.1364 24.4005C31.1944 24.4419 31.2646 24.4625 31.3357 24.4592C31.4063 24.4624 31.4759 24.4417 31.5332 24.4005L33.1395 23.3605C33.1736 23.341 33.2029 23.3143 33.2255 23.2822C33.2481 23.2501 33.2634 23.2135 33.2703 23.1749C33.2773 23.1363 33.2757 23.0967 33.2656 23.0587C33.2556 23.0208 33.2374 22.9855 33.2123 22.9554C33.178 22.9165 33.1337 22.8879 33.0841 22.8727Z" fill="#383838"/>
</g>
</g>
<defs>
<clipPath id="clip0_2635_7138">
<rect width="56" height="56" fill="white"/>
</clipPath>
<clipPath id="clip1_2635_7138">
<rect width="56" height="56" fill="white"/>
</clipPath>
<clipPath id="clip2_2635_7138">
<rect width="29.277" height="42" fill="white" transform="translate(13 7)"/>
</clipPath>
</defs>
</svg>
