<svg width="56" height="56" viewBox="0 0 56 56" fill="none" xmlns="http://www.w3.org/2000/svg">
<g clip-path="url(#clip0_2635_7776)">
<path fill-rule="evenodd" clip-rule="evenodd" d="M11.4844 0H44.5156C47.5589 0.00841846 50.4751 1.22108 52.627 3.373C54.7789 5.52491 55.9916 8.44112 56 11.4844V44.5156C55.9916 47.5589 54.7789 50.4751 52.627 52.627C50.4751 54.7789 47.5589 55.9916 44.5156 56H11.4844C8.44112 55.9916 5.52491 54.7789 3.373 52.627C1.22108 50.4751 0.00841846 47.5589 0 44.5156L0 11.4844C0.00841846 8.44112 1.22108 5.52491 3.373 3.373C5.52491 1.22108 8.44112 0.00841846 11.4844 0Z" fill="white"/>
<g clip-path="url(#clip1_2635_7776)">
<path d="M28 56C43.464 56 56 43.464 56 28C56 12.536 43.464 0 28 0C12.536 0 0 12.536 0 28C0 43.464 12.536 56 28 56Z" fill="white"/>
</g>
<g clip-path="url(#clip2_2635_7776)">
<path d="M25.7058 34.5893H31.2021V47H25.7058V34.5893ZM13 21.8686H22.3523L15.7037 15.5303L19.3826 11.748L25.7208 18.2635V9H31.2168V18.2635L37.555 11.7628L41.231 15.5303L34.5855 21.8538H43.9348V27.0839H34.5321L41.2223 33.5846L37.555 37.2784L28.4688 28.1477L19.3826 37.2784L15.7037 33.5996L22.3965 27.0987H13V21.8686Z" fill="#43E660"/>
</g>
</g>
<defs>
<clipPath id="clip0_2635_7776">
<rect width="56" height="56" fill="white"/>
</clipPath>
<clipPath id="clip1_2635_7776">
<rect width="56" height="56" fill="white"/>
</clipPath>
<clipPath id="clip2_2635_7776">
<rect width="30.9348" height="38" fill="white" transform="translate(13 9)"/>
</clipPath>
</defs>
</svg>
