<svg width="56" height="56" viewBox="0 0 56 56" fill="none" xmlns="http://www.w3.org/2000/svg">
<g clip-path="url(#clip0_2635_6215)">
<path d="M47.7147 47.7153H39.4172V34.7209C39.4172 31.6222 39.3619 27.6333 35.1017 27.6333C30.7801 27.6333 30.1189 31.0094 30.1189 34.4953V47.7144H21.8214V20.9926H29.787V24.6444H29.8985C31.5227 21.8673 34.5427 20.2086 37.7577 20.3279C46.1675 20.3279 47.7181 25.8597 47.7181 33.0562L47.7147 47.7153ZM12.4591 17.3399C9.79982 17.3404 7.64364 15.1849 7.64316 12.5256C7.64268 9.8662 9.79809 7.70997 12.4574 7.70949C15.1167 7.70901 17.2729 9.86447 17.2734 12.5238C17.2736 13.8009 16.7665 15.0258 15.8637 15.929C14.9608 16.8322 13.7362 17.3397 12.4591 17.3399ZM16.6079 47.7153H8.30177V20.9926H16.6079V47.7153ZM51.8513 0.00393153H4.1323C1.877 -0.0215201 0.0275247 1.78506 0 4.04038V51.9583C0.0265823 54.2147 1.87591 56.0231 4.1323 55.9994H51.8513C54.1121 56.0275 55.9687 54.2192 56 51.9583V4.03693C55.9678 1.77715 54.111 -0.0293295 51.8513 0.000110645" fill="#0A66C2"/>
</g>
<defs>
<clipPath id="clip0_2635_6215">
<rect width="56" height="56" fill="white"/>
</clipPath>
</defs>
</svg>
