<svg width="56" height="56" viewBox="0 0 56 56" fill="none" xmlns="http://www.w3.org/2000/svg">
<g clip-path="url(#clip0_2635_6691)">
<path fill-rule="evenodd" clip-rule="evenodd" d="M11.4844 0H44.5156C47.5589 0.00841846 50.4751 1.22108 52.627 3.373C54.7789 5.52491 55.9916 8.44112 56 11.4844V44.5156C55.9916 47.5589 54.7789 50.4751 52.627 52.627C50.4751 54.7789 47.5589 55.9916 44.5156 56H11.4844C8.44112 55.9916 5.52491 54.7789 3.373 52.627C1.22108 50.4751 0.00841846 47.5589 0 44.5156L0 11.4844C0.00841846 8.44112 1.22108 5.52491 3.373 3.373C5.52491 1.22108 8.44112 0.00841846 11.4844 0Z" fill="white"/>
<g clip-path="url(#clip1_2635_6691)">
<path d="M28 56C43.464 56 56 43.464 56 28C56 12.536 43.464 0 28 0C12.536 0 0 12.536 0 28C0 43.464 12.536 56 28 56Z" fill="white"/>
</g>
<g clip-path="url(#clip2_2635_6691)">
<path d="M5.62898 36.7716H3.03125V20.8995H5.62898V36.7716ZM11.524 36.9604C8.64329 36.9604 6.99125 35.395 6.99125 32.665V25.0906H9.58898V32.4734C9.58898 34.0831 10.1822 34.6818 11.779 34.6818C13.8483 34.6818 14.6924 33.6904 14.6924 31.2611V25.0906H17.2901V36.7722H14.7987V34.7329C14.4585 36.2997 12.9497 36.9604 11.524 36.9604ZM35.1967 36.7716H32.6201V29.2184C32.6201 27.6843 32.1422 27.1136 30.8556 27.1136C29.2001 27.1136 28.3253 28.0988 28.3253 29.9629V36.7716H25.7487V29.2184C25.7487 27.7231 25.2558 27.1136 24.0483 27.1136C21.8944 27.1136 21.454 29.3609 21.454 29.9629V36.7716H18.8562V25.0906H21.3476V27.1334C21.7901 25.7002 23.1899 24.835 24.6012 24.835C26.0119 24.835 27.1983 25.3736 27.7131 27.1334C28.4037 25.3088 29.646 24.835 31.1324 24.835C33.7151 24.835 35.1967 26.1222 35.1967 28.3675V36.7716ZM40.4228 36.9604C36.8351 36.9604 36.2262 34.6797 36.2262 33.5159C36.2262 32.1454 36.8283 30.9106 38.1306 30.4102C38.704 30.1981 39.2569 30.04 39.8242 29.9261C40.324 29.8259 41.0951 29.7195 41.659 29.6418L41.8451 29.6159C42.8256 29.4795 43.8681 28.9879 43.8681 28.3463C43.8681 27.2554 42.4697 27.0925 41.6358 27.0925C40.6901 27.0925 40.024 27.3359 39.7587 27.7777C39.5208 28.2181 39.5044 28.3211 39.4437 28.705L39.4015 29.007H36.8037L36.8501 28.6245C36.9422 27.865 37.0826 27.327 37.2919 26.9316C38.0106 25.5413 39.4581 24.835 41.5928 24.835C43.3731 24.835 44.6358 25.3961 45.2242 25.9218C45.5862 26.2354 45.8447 26.5927 46.0349 27.0441C46.4331 27.8868 46.4658 28.4506 46.4658 29.0486V34.9416C46.4658 35.4918 46.519 35.9622 46.6233 36.3393L46.7433 36.7722H44.0903L44.0426 36.4866C44.0085 36.2847 43.9969 35.14 43.9826 34.6981C43.3697 36.3079 42.0551 36.9604 40.4228 36.9604ZM43.8681 30.5704C43.3246 30.987 42.4724 31.225 41.2349 31.4725C39.1028 31.8666 38.7435 32.3629 38.7435 33.3284C38.7435 34.1806 39.4683 34.7097 40.6356 34.7097C42.9012 34.7097 43.8681 33.6543 43.8681 31.18V30.5704ZM52.3362 23.3766C49.9424 23.3766 48.0019 21.4361 48.0019 19.0422C48.0019 21.4361 46.0615 23.3766 43.6676 23.3766C46.0615 23.3766 48.0019 25.317 48.0019 27.7109C48.0019 25.317 49.9424 23.3766 52.3362 23.3766Z" fill="black"/>
</g>
</g>
<defs>
<clipPath id="clip0_2635_6691">
<rect width="56" height="56" fill="white"/>
</clipPath>
<clipPath id="clip1_2635_6691">
<rect width="56" height="56" fill="white"/>
</clipPath>
<clipPath id="clip2_2635_6691">
<rect width="49.3636" height="18" fill="white" transform="translate(3 19)"/>
</clipPath>
</defs>
</svg>
