<svg width="56" height="56" viewBox="0 0 56 56" fill="none" xmlns="http://www.w3.org/2000/svg">
<g clip-path="url(#clip0_2730_15598)">
<path fill-rule="evenodd" clip-rule="evenodd" d="M11.4844 0H44.5156C47.5589 0.00841846 50.4751 1.22108 52.627 3.373C54.7789 5.52491 55.9916 8.44112 56 11.4844V44.5156C55.9916 47.5589 54.7789 50.4751 52.627 52.627C50.4751 54.7789 47.5589 55.9916 44.5156 56H11.4844C8.44112 55.9916 5.52491 54.7789 3.373 52.627C1.22108 50.4751 0.00841846 47.5589 0 44.5156L0 11.4844C0.00841846 8.44112 1.22108 5.52491 3.373 3.373C5.52491 1.22108 8.44112 0.00841846 11.4844 0Z" fill="white"/>
<g clip-path="url(#clip1_2730_15598)">
<path d="M28 56C43.464 56 56 43.464 56 28C56 12.536 43.464 0 28 0C12.536 0 0 12.536 0 28C0 43.464 12.536 56 28 56Z" fill="white"/>
</g>
<path d="M31.2553 9.3394C29.9187 8.91774 28.4866 8.68701 27.0068 8.68701C22.6867 8.68701 18.8201 10.6362 16.2344 13.7072L22.8776 19.2924L31.2553 9.3394Z" fill="#1A73E8"/>
<path d="M16.2313 13.7073C14.1014 16.237 12.9347 19.4384 12.9375 22.7453C12.9375 25.3867 13.4626 27.5348 14.3298 29.4522L22.8745 19.2924L16.2313 13.7073Z" fill="#EA4335"/>
<path d="M27.004 17.375C28.0296 17.376 29.0335 17.6699 29.8976 18.2223C30.7617 18.7747 31.45 19.5625 31.8813 20.493C32.3127 21.4234 32.4692 22.4577 32.3324 23.4741C32.1957 24.4906 31.7713 25.4467 31.1093 26.23L39.479 16.2771C37.7611 12.9672 34.7993 10.4747 31.2446 9.34741L22.8828 19.3004C23.3866 18.697 24.017 18.2118 24.7291 17.879C25.4413 17.5463 26.218 17.3743 27.004 17.375Z" fill="#4285F4"/>
<path d="M27.0098 28.1314C24.0423 28.1314 21.6316 25.7208 21.6316 22.7532C21.6281 21.4896 22.0736 20.2659 22.8886 19.3003L14.3359 29.4601C15.7998 32.6982 18.2264 35.2998 20.7246 38.5777L31.1151 26.23C30.6103 26.8264 29.9815 27.3056 29.2724 27.634C28.5634 27.9624 27.7912 28.1322 27.0098 28.1314Z" fill="#FBBC04"/>
<path d="M30.9023 41.9429C35.5963 34.6075 41.0621 31.2739 41.0621 22.7451C41.0621 20.4061 40.4893 18.2022 39.4788 16.261L20.7266 38.5775C21.5222 39.6198 22.3257 40.7257 23.1054 41.9509C25.9537 46.3585 25.166 48.9999 27.0038 48.9999C28.8417 48.9999 28.054 46.3506 30.9023 41.9429Z" fill="#34A853"/>
</g>
<defs>
<clipPath id="clip0_2730_15598">
<rect width="56" height="56" fill="white"/>
</clipPath>
<clipPath id="clip1_2730_15598">
<rect width="56" height="56" fill="white"/>
</clipPath>
</defs>
</svg>
