<svg width="56" height="56" viewBox="0 0 56 56" fill="none" xmlns="http://www.w3.org/2000/svg">
<path d="M0 12.8C0 8.31958 0 6.07937 0.871948 4.36808C1.63893 2.86278 2.86278 1.63893 4.36808 0.871948C6.07937 0 8.31958 0 12.8 0H43.2C47.6804 0 49.9206 0 51.6319 0.871948C53.1372 1.63893 54.3611 2.86278 55.1281 4.36808C56 6.07937 56 8.31958 56 12.8V43.2C56 47.6804 56 49.9206 55.1281 51.6319C54.3611 53.1372 53.1372 54.3611 51.6319 55.1281C49.9206 56 47.6804 56 43.2 56H12.8C8.31958 56 6.07937 56 4.36808 55.1281C2.86278 54.3611 1.63893 53.1372 0.871948 51.6319C0 49.9206 0 47.6804 0 43.2V12.8Z" fill="url(#paint0_linear_2730_9024)"/>
<path d="M47.2266 26.8398C47.2266 35.8684 38.3964 43.1875 27.5039 43.1875C23.8606 43.1875 20.5522 43.8806 17.1029 45.0536C17.0713 45.0643 17.0395 45.0749 17.0076 45.0854C16.0198 45.4099 15.4267 44.2983 15.9875 43.4227C16.9058 41.9888 17.3308 40.8577 16.7988 40.5721C11.3721 37.6597 7.78125 32.5974 7.78125 26.8398C7.78125 17.8113 16.6114 10.4922 27.5039 10.4922C38.3964 10.4922 47.2266 17.8113 47.2266 26.8398Z" fill="white"/>
<defs>
<linearGradient id="paint0_linear_2730_9024" x1="28" y1="0" x2="28" y2="56" gradientUnits="userSpaceOnUse">
<stop stop-color="#5CF777"/>
<stop offset="1" stop-color="#0EBC29"/>
</linearGradient>
</defs>
</svg>
