<svg width="56" height="56" viewBox="0 0 56 56" fill="none" xmlns="http://www.w3.org/2000/svg">
<g clip-path="url(#clip0_2635_7898)">
<path fill-rule="evenodd" clip-rule="evenodd" d="M11.4844 0H44.5156C47.5589 0.00841846 50.4751 1.22108 52.627 3.373C54.7789 5.52491 55.9916 8.44112 56 11.4844V44.5156C55.9916 47.5589 54.7789 50.4751 52.627 52.627C50.4751 54.7789 47.5589 55.9916 44.5156 56H11.4844C8.44112 55.9916 5.52491 54.7789 3.373 52.627C1.22108 50.4751 0.00841846 47.5589 0 44.5156L0 11.4844C0.00841846 8.44112 1.22108 5.52491 3.373 3.373C5.52491 1.22108 8.44112 0.00841846 11.4844 0Z" fill="white"/>
<g clip-path="url(#clip1_2635_7898)">
<path d="M28 56C43.464 56 56 43.464 56 28C56 12.536 43.464 0 28 0C12.536 0 0 12.536 0 28C0 43.464 12.536 56 28 56Z" fill="white"/>
</g>
<path d="M35.2619 25.047H44.7539C45.6517 25.047 46.3788 25.7715 46.3788 26.6666V35.2976C46.3781 36.0808 46.2232 36.8562 45.9228 37.5795C45.6225 38.3028 45.1826 38.9599 44.6283 39.5132C44.074 40.0666 43.4161 40.5053 42.6923 40.8044C41.9684 41.1035 41.1928 41.257 40.4096 41.2563H40.3833C39.6001 41.257 38.8244 41.1035 38.1006 40.8044C37.3767 40.5053 36.7189 40.0666 36.1646 39.5132C35.6103 38.9599 35.1704 38.3028 34.8701 37.5795C34.5697 36.8562 34.4148 36.0808 34.4141 35.2976V25.8975C34.4141 25.4276 34.7947 25.047 35.2619 25.047ZM41.6801 23.3407C43.8011 23.3407 45.5231 21.6213 45.5231 19.503C45.5231 17.382 43.8011 15.6626 41.6774 15.6626C39.5538 15.6626 37.8318 17.382 37.8318 19.503C37.8318 21.6213 39.5538 23.3407 41.6774 23.3407H41.6801Z" fill="#5059C9"/>
<path d="M29.7054 23.3406C30.4344 23.3417 31.1564 23.1991 31.8302 22.921C32.5041 22.6429 33.1165 22.2348 33.6326 21.7199C34.1486 21.2051 34.5582 20.5936 34.8379 19.9204C35.1175 19.2473 35.2618 18.5256 35.2625 17.7966C35.2622 17.0672 35.1181 16.3451 34.8384 15.6714C34.5587 14.9978 34.1489 14.3859 33.6326 13.8707C33.1162 13.3555 32.5033 12.9472 31.829 12.6692C31.1547 12.3911 30.4322 12.2486 29.7028 12.25C28.974 12.2493 28.2523 12.3922 27.5788 12.6704C26.9052 12.9487 26.2931 13.3568 25.7773 13.8716C25.2616 14.3864 24.8522 14.9978 24.5727 15.6708C24.2932 16.3438 24.149 17.0653 24.1483 17.794C24.1483 20.8574 26.6342 23.3406 29.7028 23.3406H29.7054ZM37.1132 25.0469H21.4419C21.017 25.0572 20.6135 25.2358 20.3201 25.5434C20.0268 25.8511 19.8675 26.2625 19.8774 26.6875V36.5313C19.8204 39.0827 20.7783 41.5524 22.5408 43.3981C24.3032 45.2437 26.7262 46.3144 29.2775 46.375C31.8293 46.3151 34.253 45.2447 36.016 43.399C37.7791 41.5532 38.7373 39.0831 38.6803 36.5313V26.6875C38.6852 26.4769 38.6485 26.2673 38.5724 26.0709C38.4963 25.8744 38.3822 25.6949 38.2366 25.5425C38.0911 25.3902 37.917 25.268 37.7242 25.1829C37.5314 25.0979 37.3238 25.0517 37.1132 25.0469Z" fill="#7B83EB"/>
<path opacity="0.1" d="M30.1339 25.0469V38.8413C30.1319 39.2553 29.9663 39.6518 29.6732 39.9443C29.3802 40.2368 28.9835 40.4017 28.5694 40.4031H20.6288C20.132 39.1718 19.8762 37.8564 19.8754 36.5286V26.6875C19.8706 26.477 19.9072 26.2676 19.9834 26.0713C20.0595 25.875 20.1737 25.6956 20.3192 25.5434C20.4648 25.3913 20.6389 25.2694 20.8317 25.1846C21.0245 25.0998 21.232 25.0539 21.4426 25.0495H30.1313L30.1339 25.0469Z" fill="black"/>
<path opacity="0.2" d="M29.2807 25.0468V39.6943C29.2773 40.1079 29.1113 40.5036 28.8186 40.7959C28.5258 41.0881 28.1299 41.2534 27.7162 41.2562H21.0356C20.7404 40.7147 20.5054 40.1426 20.3347 39.5499C20.0362 38.5715 19.884 37.5542 19.8832 36.5312V26.6822C19.8784 26.4719 19.915 26.2627 19.991 26.0666C20.0669 25.8704 20.1808 25.6912 20.3261 25.5391C20.4714 25.3869 20.6452 25.2649 20.8377 25.18C21.0302 25.0951 21.2374 25.049 21.4477 25.0442H29.2834L29.2807 25.0468Z" fill="black"/>
<path opacity="0.2" d="M29.2807 25.0468V37.9881C29.2773 38.4017 29.1113 38.7974 28.8186 39.0896C28.5258 39.3818 28.1299 39.5472 27.7162 39.5499H20.3347C20.0362 38.5715 19.884 37.5542 19.8832 36.5312V26.6822C19.8784 26.4719 19.915 26.2627 19.991 26.0666C20.0669 25.8704 20.1808 25.6912 20.3261 25.5391C20.4714 25.3869 20.6452 25.2649 20.8377 25.18C21.0302 25.0951 21.2374 25.049 21.4477 25.0442H29.2834L29.2807 25.0468Z" fill="black"/>
<path opacity="0.2" d="M28.4302 25.0468V37.9881C28.4268 38.4017 28.2608 38.7974 27.9681 39.0896C27.6753 39.3818 27.2794 39.5472 26.8657 39.5499H20.3347C20.0362 38.5715 19.884 37.5542 19.8832 36.5312V26.6822C19.8784 26.4719 19.915 26.2627 19.991 26.0666C20.0669 25.8704 20.1808 25.6912 20.3261 25.5391C20.4714 25.3869 20.6452 25.2649 20.8377 25.18C21.0302 25.0951 21.2374 25.049 21.4477 25.0442L28.4302 25.0468Z" fill="black"/>
<path opacity="0.1" d="M30.1348 20.6368V23.3248C29.9904 23.3327 29.8539 23.3406 29.7069 23.3406C29.5626 23.3406 29.4261 23.3327 29.2791 23.3248C28.1067 23.2345 26.9933 22.7743 26.0993 22.0105C25.2054 21.2467 24.577 20.2188 24.3047 19.075H28.5703C28.9839 19.0763 29.3803 19.2409 29.6732 19.5328C29.9662 19.8248 30.132 20.2206 30.1348 20.6342V20.6368Z" fill="black"/>
<path opacity="0.2" d="M29.2847 21.4899V23.3248C28.2648 23.2468 27.2863 22.8885 26.4572 22.2896C25.6281 21.6907 24.9805 20.8743 24.5859 19.9307H27.7228C28.136 19.9327 28.5316 20.0976 28.824 20.3895C29.1164 20.6814 29.2819 21.0768 29.2847 21.4899Z" fill="black"/>
<path opacity="0.2" d="M29.2847 21.4899V23.3248C28.2648 23.2468 27.2863 22.8885 26.4572 22.2896C25.6281 21.6907 24.9805 20.8743 24.5859 19.9307H27.7228C28.136 19.9327 28.5316 20.0976 28.824 20.3895C29.1164 20.6814 29.2819 21.0768 29.2847 21.4899Z" fill="black"/>
<path opacity="0.2" d="M28.4316 21.4901V23.1885C27.5788 22.9871 26.7857 22.5867 26.1173 22.02C25.4489 21.4534 24.9242 20.7366 24.5859 19.9282H26.8697C27.2833 19.9303 27.6794 20.0955 27.9718 20.388C28.2643 20.6804 28.4295 21.0765 28.4316 21.4901Z" fill="black"/>
<path d="M11.1921 19.9282H26.8608C27.727 19.9282 28.4279 20.6291 28.4279 21.4927V37.1325C28.4279 37.3381 28.3873 37.5418 28.3085 37.7318C28.2297 37.9218 28.1143 38.0944 27.9687 38.2397C27.8232 38.385 27.6504 38.5002 27.4603 38.5786C27.2701 38.6571 27.0664 38.6973 26.8608 38.697H11.1895C10.984 38.697 10.7806 38.6565 10.5908 38.5779C10.401 38.4993 10.2285 38.384 10.0832 38.2387C9.93795 38.0935 9.82271 37.921 9.74409 37.7312C9.66547 37.5414 9.625 37.3379 9.625 37.1325V21.4927C9.625 20.6265 10.3259 19.9282 11.1921 19.9282Z" fill="url(#paint0_linear_2635_7898)"/>
<path d="M23.1462 25.8815H20.0146V34.3944H18.0196V25.8815H14.8984V24.2278H23.1436L23.1462 25.8815Z" fill="white"/>
</g>
<defs>
<linearGradient id="paint0_linear_2635_7898" x1="12.8905" y1="18.7076" x2="25.1282" y2="39.9386" gradientUnits="userSpaceOnUse">
<stop stop-color="#5A62C3"/>
<stop offset="0.5" stop-color="#4D55BD"/>
<stop offset="1" stop-color="#3940AB"/>
</linearGradient>
<clipPath id="clip0_2635_7898">
<rect width="56" height="56" fill="white"/>
</clipPath>
<clipPath id="clip1_2635_7898">
<rect width="56" height="56" fill="white"/>
</clipPath>
</defs>
</svg>
