<svg width="56" height="56" viewBox="0 0 56 56" fill="none" xmlns="http://www.w3.org/2000/svg">
<g clip-path="url(#clip0_2744_16036)">
<path fill-rule="evenodd" clip-rule="evenodd" d="M11.4844 0H44.5156C47.5589 0.00841846 50.4751 1.22108 52.627 3.373C54.7789 5.52491 55.9916 8.44112 56 11.4844V44.5156C55.9916 47.5589 54.7789 50.4751 52.627 52.627C50.4751 54.7789 47.5589 55.9916 44.5156 56H11.4844C8.44112 55.9916 5.52491 54.7789 3.373 52.627C1.22108 50.4751 0.00841846 47.5589 0 44.5156L0 11.4844C0.00841846 8.44112 1.22108 5.52491 3.373 3.373C5.52491 1.22108 8.44112 0.00841846 11.4844 0Z" fill="white"/>
<g clip-path="url(#clip1_2744_16036)">
<path d="M28 56C43.464 56 56 43.464 56 28C56 12.536 43.464 0 28 0C12.536 0 0 12.536 0 28C0 43.464 12.536 56 28 56Z" fill="white"/>
</g>
<path fill-rule="evenodd" clip-rule="evenodd" d="M4.24219 28.3609C4.24219 25.9215 6.21979 23.9436 8.65945 23.9436C9.83088 23.9439 10.9542 24.4094 11.7826 25.2378C12.6109 26.0661 13.0764 27.1894 13.0767 28.3609C13.0764 29.5323 12.6109 30.6556 11.7826 31.484C10.9542 32.3123 9.83088 32.7778 8.65945 32.7781C6.21979 32.7781 4.24219 30.8005 4.24219 28.3609Z" fill="#FD3753"/>
<mask id="mask0_2744_16036" style="mask-type:luminance" maskUnits="userSpaceOnUse" x="4" y="23" width="10" height="10">
<path d="M4.19531 23.8999H13.1172V32.8216H4.19531V23.8999Z" fill="white"/>
</mask>
<g mask="url(#mask0_2744_16036)">
<path fill-rule="evenodd" clip-rule="evenodd" d="M8.65628 23.9873C6.24466 23.9873 4.28272 25.9493 4.28272 28.3609C4.28272 30.7725 6.24466 32.7344 8.65628 32.7344C11.0679 32.7344 13.0298 30.7725 13.0298 28.3609C13.0298 25.9493 11.0676 23.9873 8.65628 23.9873ZM8.65628 32.8218C6.19641 32.8218 4.19531 30.8207 4.19531 28.3609C4.19531 25.901 6.19641 23.8999 8.65628 23.8999C11.1162 23.8999 13.1172 25.901 13.1172 28.3609C13.1172 30.8207 11.1162 32.8218 8.65628 32.8218Z" fill="#D31831"/>
</g>
<path fill-rule="evenodd" clip-rule="evenodd" d="M8.09134 30.2872C8.22018 30.1515 8.2846 29.9843 8.2846 29.7852C8.2846 29.6902 8.26768 29.601 8.23382 29.5174C8.2004 29.4347 8.15211 29.3588 8.09134 29.2936C8.0302 29.2281 7.96022 29.1761 7.88115 29.1377C7.80208 29.0993 7.71492 29.0798 7.61993 29.0798C7.53404 29.0798 7.45041 29.098 7.36907 29.1342C7.28819 29.1701 7.21547 29.2221 7.15534 29.287C7.09446 29.3527 7.0457 29.4282 7.00957 29.5141C6.97354 29.6 6.95516 29.6923 6.95551 29.7854C6.95551 29.8804 6.97244 29.9709 7.00629 30.0568C7.04014 30.1427 7.08764 30.2174 7.14877 30.2806C7.20991 30.3438 7.27989 30.3948 7.35896 30.4332C7.43804 30.4716 7.52494 30.4908 7.61993 30.4908C7.80536 30.4908 7.9625 30.4231 8.09134 30.2874V30.2872ZM7.22658 30.6873C7.1071 30.6394 6.9978 30.5691 6.90448 30.4804C6.81169 30.3923 6.73778 30.2862 6.68721 30.1687C6.63512 30.0477 6.60863 29.9172 6.6094 29.7854C6.60838 29.6548 6.63489 29.5254 6.68721 29.4057C6.73926 29.288 6.81176 29.1852 6.90448 29.097C6.99787 29.0084 7.10715 28.9382 7.22658 28.8901C7.34886 28.8403 7.47997 28.8156 7.61993 28.8156C7.75465 28.8145 7.88827 28.8399 8.01328 28.8901C8.13555 28.9399 8.24292 29.0088 8.33564 29.097C8.42835 29.1852 8.50086 29.288 8.55265 29.4057C8.60444 29.5235 8.63071 29.6498 8.63071 29.7854C8.63071 29.9211 8.60469 30.0489 8.55265 30.1687C8.50228 30.2863 8.42844 30.3924 8.33564 30.4804C8.24224 30.5692 8.13285 30.6394 8.01328 30.6873C7.89126 30.7371 7.76014 30.7619 7.61993 30.7619C7.47972 30.7619 7.34886 30.7371 7.22658 30.6873ZM10.1531 27.4385C10.2321 27.4024 10.3024 27.3513 10.3633 27.2859C10.425 27.2195 10.4744 27.1426 10.509 27.0588C10.5454 26.9731 10.5633 26.8824 10.5633 26.7875C10.564 26.6956 10.5466 26.6046 10.5123 26.5194C10.4785 26.4358 10.431 26.3613 10.3698 26.2956C10.3087 26.2299 10.2377 26.1781 10.1561 26.1397C10.0756 26.1015 9.98753 26.0818 9.89841 26.0821C9.81189 26.0823 9.72639 26.1008 9.64755 26.1364C9.56667 26.1723 9.4931 26.2229 9.43054 26.2855C9.36738 26.3489 9.31761 26.4234 9.28124 26.5093C9.24486 26.5952 9.22692 26.6879 9.22692 26.7872C9.22692 26.8822 9.24385 26.9716 9.2777 27.055C9.31155 27.1384 9.35905 27.2134 9.42018 27.2791C9.48074 27.3443 9.55331 27.3972 9.63391 27.435C9.71667 27.4737 9.80705 27.4934 9.89841 27.4926C9.98615 27.4931 10.073 27.4746 10.1528 27.4382L10.1531 27.4385ZM10.509 30.7212L8.65774 28.3608L6.7721 26.0548L7.00932 25.8515L8.84721 28.205L10.7462 30.511L10.509 30.7212ZM9.50204 27.6828C9.38196 27.6358 9.27239 27.5655 9.17968 27.4759C9.08924 27.3877 9.01698 27.2849 8.96267 27.1674C8.90811 27.0482 8.88034 26.9185 8.88132 26.7875C8.88132 26.6518 8.9086 26.5252 8.96267 26.4078C9.01673 26.2903 9.08924 26.1875 9.17968 26.099C9.27291 26.0093 9.38228 25.9379 9.50204 25.8888C9.62658 25.8368 9.75871 25.811 9.89867 25.811C10.0386 25.811 10.17 25.8371 10.292 25.8888C10.4112 25.939 10.5204 26.0102 10.6144 26.099C10.7071 26.1875 10.7793 26.2903 10.8314 26.4078C10.8834 26.5252 10.9094 26.652 10.9094 26.7875C10.9094 26.9229 10.8834 27.0497 10.8314 27.1674C10.7793 27.2851 10.7071 27.3877 10.6144 27.4759C10.5209 27.5645 10.4115 27.6347 10.292 27.6828C10.167 27.7331 10.0334 27.7584 9.89867 27.7573C9.76289 27.7582 9.62823 27.7329 9.50204 27.6828Z" fill="white"/>
<path fill-rule="evenodd" clip-rule="evenodd" d="M16.1704 27.6828V30.7687H15.2344V25.9533H15.9602L18.4696 29.1137V25.9601H19.4056V30.7687H18.6462L16.1704 27.6828ZM21.074 28.3611C21.0735 28.5658 21.1043 28.7693 21.1654 28.9646C21.2222 29.1509 21.3118 29.3255 21.4299 29.4803C21.5443 29.6286 21.6888 29.7512 21.8538 29.8398C22.0211 29.9302 22.211 29.9754 22.4235 29.9754C22.6405 29.9754 22.8315 29.9292 22.9965 29.8365C23.1614 29.7438 23.3006 29.6205 23.4136 29.4669C23.5265 29.3133 23.6126 29.1402 23.6713 28.948C23.7296 28.7579 23.7593 28.5602 23.7594 28.3614C23.7599 28.1563 23.7278 27.9525 23.6644 27.7576C23.601 27.5633 23.5118 27.3913 23.3964 27.2422C23.2809 27.0932 23.141 26.9744 22.976 26.886C22.811 26.7976 22.6244 26.7536 22.4164 26.7536C22.1994 26.7536 22.0084 26.8001 21.8435 26.8928C21.6785 26.9855 21.5383 27.1076 21.4228 27.2589C21.3074 27.4102 21.2205 27.5822 21.1619 27.7745C21.1034 27.9645 21.0739 28.1623 21.074 28.3611ZM22.4099 30.8028C22.0708 30.8028 21.7609 30.7341 21.4807 30.5959C21.206 30.4623 20.9605 30.2755 20.7584 30.0464C20.5573 29.8183 20.4022 29.5571 20.2938 29.263C20.1854 28.9689 20.1311 28.6686 20.1311 28.3611C20.1311 28.04 20.1887 27.7326 20.3039 27.4388C20.4191 27.1449 20.5798 26.885 20.7854 26.6589C20.9908 26.4331 21.2385 26.25 21.5145 26.1198C21.795 25.9864 22.0999 25.9197 22.4303 25.9197C22.7694 25.9197 23.0791 25.9909 23.3595 26.1334C23.6335 26.2709 23.8777 26.4611 24.0782 26.693C24.2782 26.9253 24.4345 27.1918 24.5396 27.4797C24.6467 27.766 24.7018 28.0693 24.7022 28.375C24.7035 28.6896 24.6449 29.0015 24.5294 29.2941C24.4184 29.5787 24.2563 29.8407 24.0512 30.0671C23.8468 30.2916 23.6002 30.4737 23.3254 30.603C23.045 30.7364 22.7398 30.8028 22.4099 30.8028Z" fill="#222222"/>
<path fill-rule="evenodd" clip-rule="evenodd" d="M28.5869 29.4192C28.5869 29.3106 28.5677 29.2055 28.5293 29.1039C28.4909 29.0024 28.4388 28.9129 28.3732 28.8359C28.3084 28.7597 28.2288 28.6974 28.1392 28.6527C28.0465 28.607 27.9443 28.5837 27.8409 28.5848H26.1182V30.2398H27.7934C27.9012 30.2409 28.0078 30.2177 28.1054 30.1718C28.2004 30.1268 28.284 30.0667 28.3562 29.9922C28.429 29.9168 28.4865 29.8281 28.5257 29.731C28.5664 29.6317 28.5869 29.5273 28.5869 29.419V29.4192ZM26.1182 26.4824V28.0899H27.6509C27.7595 28.0899 27.8588 28.0684 27.9492 28.0255C28.0397 27.9825 28.1178 27.9249 28.1832 27.8524C28.2486 27.7799 28.3007 27.6953 28.3391 27.598C28.3775 27.5007 28.3967 27.3979 28.3967 27.2893C28.3973 27.1807 28.379 27.0729 28.3423 26.9707C28.3093 26.8769 28.26 26.7897 28.1966 26.713C28.1354 26.6406 28.059 26.5826 27.9727 26.5433C27.8845 26.5026 27.7884 26.4819 27.6913 26.4824H26.1182ZM29.2041 29.5276C29.2062 29.7035 29.1679 29.8776 29.0922 30.0364C29.0194 30.1877 28.9154 30.3217 28.787 30.4297C28.6581 30.5384 28.5088 30.622 28.3393 30.6806C28.1698 30.7392 27.9876 30.7688 27.7934 30.7688H25.5078V25.9534H27.902C28.0692 25.9534 28.2208 25.9895 28.3565 26.062C28.4921 26.1345 28.6074 26.2282 28.7023 26.3434C28.7973 26.4586 28.8708 26.5897 28.9229 26.7368C28.9749 26.8838 29.001 27.0319 29.001 27.1809C29.001 27.4207 28.9411 27.6422 28.8213 27.8456C28.7016 28.0489 28.5308 28.2005 28.3092 28.3001C28.5851 28.3814 28.8031 28.532 28.9638 28.751C29.1245 28.97 29.2046 29.2292 29.2046 29.5276H29.2041Z" fill="#424242"/>
<path d="M30.6729 28.4966H32.131C32.2576 28.4966 32.3718 28.4693 32.4736 28.4153C32.5754 28.3612 32.6623 28.2877 32.7348 28.195C32.8073 28.1023 32.8637 27.9949 32.9046 27.8726C32.9455 27.7503 32.9655 27.624 32.9655 27.4929C32.9663 27.3619 32.9421 27.2319 32.8942 27.1099C32.8468 26.9902 32.7833 26.8838 32.7045 26.7911C32.6257 26.6984 32.5325 26.6261 32.4264 26.5741C32.322 26.5225 32.2071 26.4958 32.0906 26.496H30.6731V28.4969L30.6729 28.4966ZM30.0625 30.7685V25.9534H32.1242C32.3367 25.9534 32.5322 25.9973 32.7108 26.0857C32.8864 26.1716 33.0432 26.2915 33.1721 26.4384C33.3006 26.5848 33.4027 26.7523 33.474 26.9336C33.5453 27.1116 33.5821 27.3015 33.5824 27.4932C33.5829 27.6574 33.5588 27.8208 33.5112 27.978C33.4637 28.1341 33.396 28.2753 33.3078 28.4019C33.2206 28.5276 33.1128 28.6377 32.989 28.7275C32.8644 28.818 32.7255 28.8836 32.5719 28.9241L33.7385 30.7688H33.0468L31.9481 29.0393H30.6731V30.7688H30.0628L30.0625 30.7685Z" fill="#424242"/>
<path fill-rule="evenodd" clip-rule="evenodd" d="M34.8909 28.3611C34.8909 28.6052 34.9303 28.8416 35.0096 29.0697C35.0845 29.2905 35.1982 29.4961 35.3454 29.6768C35.4883 29.8518 35.6663 29.995 35.8678 30.0972C36.0714 30.201 36.2973 30.2533 36.5459 30.2533C36.8035 30.2533 37.0342 30.198 37.2376 30.0871C37.4409 29.9762 37.614 29.8317 37.7565 29.6531C37.9003 29.4717 38.0105 29.2661 38.0819 29.046C38.1564 28.8199 38.1938 28.5915 38.1938 28.3611C38.1942 28.1198 38.1541 27.8802 38.075 27.6522C37.996 27.4236 37.8828 27.2228 37.736 27.0487C37.5913 26.8765 37.4138 26.7347 37.2138 26.6316C37.0127 26.5275 36.7902 26.4755 36.5459 26.4755C36.2882 26.4755 36.0575 26.5298 35.8542 26.6384C35.654 26.7442 35.4775 26.8897 35.3352 27.0659C35.1907 27.246 35.0794 27.4503 35.0063 27.6694C34.93 27.892 34.891 28.1258 34.8909 28.3611ZM36.539 30.8028C36.2 30.8028 35.8913 30.7341 35.6131 30.5959C35.335 30.4577 35.0965 30.2748 34.8977 30.0464C34.6989 29.818 34.545 29.5571 34.4364 29.263C34.3278 28.9689 34.2734 28.6686 34.2734 28.3611C34.2734 28.04 34.331 27.7326 34.4465 27.4388C34.5575 27.152 34.7195 26.8878 34.9247 26.6589C35.1283 26.4328 35.3688 26.2532 35.647 26.1198C35.9251 25.9864 36.2268 25.9197 36.5524 25.9197C36.8915 25.9197 37.1989 25.9909 37.4748 26.1334C37.746 26.2722 37.9879 26.4623 38.187 26.693C38.3864 26.9244 38.5427 27.1897 38.6483 27.4764C38.7556 27.7615 38.8107 28.0636 38.811 28.3682C38.812 28.6838 38.7534 28.9967 38.6382 29.2905C38.5227 29.5844 38.3646 29.8433 38.1635 30.0671C37.9624 30.291 37.7226 30.4696 37.4445 30.603C37.1663 30.7364 36.8647 30.8028 36.539 30.8028ZM39.6656 30.7687V25.9601H40.276V28.6185L42.7583 25.9533H43.4162L41.483 28.0761L43.5246 30.7687H42.8599L41.1102 28.4288L40.276 29.2969V30.7687H39.6656ZM47.3363 30.226V30.7687H44.0672V25.9533H47.2754V26.4959H44.6778V28.0559H46.9363V28.5645H44.6778V30.2263L47.3363 30.226Z" fill="#424242"/>
<path d="M48.8135 28.4966H50.2717C50.3982 28.4966 50.5124 28.4693 50.6142 28.4153C50.7161 28.3612 50.803 28.2877 50.8755 28.195C50.948 28.1023 51.0043 27.9949 51.0452 27.8726C51.0862 27.7503 51.1061 27.624 51.1061 27.4929C51.1069 27.3619 51.0827 27.2319 51.0349 27.1099C50.9874 26.9902 50.924 26.8838 50.8451 26.7911C50.7663 26.6984 50.6731 26.6261 50.567 26.5741C50.4626 26.5225 50.3477 26.4958 50.2313 26.496H48.8137V28.4969L48.8135 28.4966ZM48.2031 30.7685V25.9534H50.2649C50.4773 25.9534 50.6729 25.9973 50.8515 26.0857C51.027 26.1716 51.1838 26.2915 51.3128 26.4384C51.4412 26.5848 51.5434 26.7523 51.6147 26.9336C51.6859 27.1116 51.7227 27.3015 51.723 27.4932C51.7235 27.6574 51.6995 27.8208 51.6518 27.978C51.6043 28.1341 51.5366 28.2753 51.4484 28.4019C51.3612 28.5276 51.2534 28.6377 51.1296 28.7275C51.0051 28.818 50.8661 28.8836 50.7125 28.9241L51.8792 30.7688H51.1875L50.0888 29.0393H48.8137V30.7688H48.2034L48.2031 30.7685Z" fill="#424242"/>
</g>
<defs>
<clipPath id="clip0_2744_16036">
<rect width="56" height="56" fill="white"/>
</clipPath>
<clipPath id="clip1_2744_16036">
<rect width="56" height="56" fill="white"/>
</clipPath>
</defs>
</svg>
