<svg width="56" height="56" viewBox="0 0 56 56" fill="none" xmlns="http://www.w3.org/2000/svg">
<g clip-path="url(#clip0_2730_9187)">
<path fill-rule="evenodd" clip-rule="evenodd" d="M11.4844 0H44.5156C47.5589 0.00841846 50.4751 1.22108 52.627 3.373C54.7789 5.52491 55.9916 8.44112 56 11.4844V44.5156C55.9916 47.5589 54.7789 50.4751 52.627 52.627C50.4751 54.7789 47.5589 55.9916 44.5156 56H11.4844C8.44112 55.9916 5.52491 54.7789 3.373 52.627C1.22108 50.4751 0.00841846 47.5589 0 44.5156L0 11.4844C0.00841846 8.44112 1.22108 5.52491 3.373 3.373C5.52491 1.22108 8.44112 0.00841846 11.4844 0Z" fill="white"/>
<g clip-path="url(#clip1_2730_9187)">
<path d="M28 56C43.464 56 56 43.464 56 28C56 12.536 43.464 0 28 0C12.536 0 0 12.536 0 28C0 43.464 12.536 56 28 56Z" fill="white"/>
</g>
<g clip-path="url(#clip2_2730_9187)">
<path d="M17.5056 16.1348C18.5884 17.0175 18.9986 16.9551 21.0428 16.8184L40.3147 15.6623C40.7248 15.6623 40.3836 15.2521 40.2458 15.1832L37.0444 12.87C36.4352 12.3909 35.6148 11.8506 34.0475 11.9807L15.3914 13.3479C14.7078 13.4103 14.5711 13.7526 14.8445 14.026L17.5056 16.1348ZM18.6617 20.6301V40.9039C18.6617 41.9921 19.2031 42.4023 20.4281 42.3334L41.6086 41.1084C42.8336 41.0395 42.9758 40.2936 42.9758 39.4054V19.2684C42.9758 18.3792 42.6334 17.9067 41.882 17.9756L19.7511 19.2684C18.9308 19.3373 18.6628 19.7409 18.6628 20.6246L18.6617 20.6301ZM39.5688 21.7118C39.7055 22.3276 39.5688 22.9368 38.953 23.0112L37.9336 23.2168V38.1815C37.0444 38.6606 36.2306 38.934 35.5525 38.934C34.4588 38.934 34.1853 38.5917 33.3705 37.5723L26.6942 27.0909V37.2311L28.8073 37.7101C28.8073 37.7101 28.8073 38.9351 27.1044 38.9351L22.4045 39.2086C22.2678 38.9351 22.4045 38.2515 22.8836 38.1203L24.1086 37.7779V24.374L22.4056 24.2373C22.2689 23.6215 22.6113 22.7389 23.5617 22.671L28.6028 22.3287L35.5525 32.9468V23.5526L33.7806 23.347C33.6439 22.601 34.1853 22.0542 34.8689 21.9907L39.5688 21.7118ZM13.8252 11.5093L33.2338 10.0798C35.6148 9.87417 36.2306 10.0109 37.728 11.0992L43.9263 15.4567C44.9456 16.2026 45.288 16.4082 45.288 17.2231V41.1095C45.288 42.6079 44.7411 43.4906 42.838 43.6273L20.2903 44.989C18.8663 45.0579 18.1827 44.8523 17.4302 43.9007L12.867 37.9759C12.0522 36.8876 11.7109 36.0728 11.7109 35.1223V13.8915C11.7109 12.6665 12.2578 11.6471 13.8241 11.5104L13.8252 11.5093Z" fill="black"/>
</g>
</g>
<defs>
<clipPath id="clip0_2730_9187">
<rect width="56" height="56" fill="white"/>
</clipPath>
<clipPath id="clip1_2730_9187">
<rect width="56" height="56" fill="white"/>
</clipPath>
<clipPath id="clip2_2730_9187">
<rect width="35" height="35" fill="white" transform="translate(11 10)"/>
</clipPath>
</defs>
</svg>
