<svg width="56" height="56" viewBox="0 0 56 56" fill="none" xmlns="http://www.w3.org/2000/svg">
<g clip-path="url(#clip0_2730_15719)">
<path fill-rule="evenodd" clip-rule="evenodd" d="M11.4844 0H44.5156C47.5589 0.00841846 50.4751 1.22108 52.627 3.373C54.7789 5.52491 55.9916 8.44112 56 11.4844V44.5156C55.9916 47.5589 54.7789 50.4751 52.627 52.627C50.4751 54.7789 47.5589 55.9916 44.5156 56H11.4844C8.44112 55.9916 5.52491 54.7789 3.373 52.627C1.22108 50.4751 0.00841846 47.5589 0 44.5156L0 11.4844C0.00841846 8.44112 1.22108 5.52491 3.373 3.373C5.52491 1.22108 8.44112 0.00841846 11.4844 0Z" fill="white"/>
<g clip-path="url(#clip1_2730_15719)">
<path d="M28 56C43.464 56 56 43.464 56 28C56 12.536 43.464 0 28 0C12.536 0 0 12.536 0 28C0 43.464 12.536 56 28 56Z" fill="white"/>
</g>
<g clip-path="url(#clip2_2730_15719)">
<path d="M5 19V34.3629H17.7876V36.9382H28V34.3629H51V19H5Z" fill="#CB3837"/>
<path d="M12.6399 21.5752H7.57812V31.7876H12.6399V24.1505H15.2152V31.7876H17.7905V21.5752H12.6399ZM20.3658 21.5752V34.3628H25.5163V31.7876H30.5781V21.5752H20.3658ZM28.0028 29.2123H25.5163V24.1505H28.0028V29.2123ZM38.2152 21.5752H33.1534V31.7876H38.2152V24.1505H40.7905V31.7876H43.3658V24.1505H45.941V31.7876H48.5163V21.5752H38.2152Z" fill="white"/>
</g>
</g>
<defs>
<clipPath id="clip0_2730_15719">
<rect width="56" height="56" fill="white"/>
</clipPath>
<clipPath id="clip1_2730_15719">
<rect width="56" height="56" fill="white"/>
</clipPath>
<clipPath id="clip2_2730_15719">
<rect width="46" height="17.9768" fill="white" transform="translate(5 19)"/>
</clipPath>
</defs>
</svg>
