<svg width="52" height="53" viewBox="0 0 52 53" fill="none" xmlns="http://www.w3.org/2000/svg">
<path d="M32.5322 11.1455V21.4265L36.1288 23.6884C36.2586 23.717 36.3931 23.717 36.523 23.6884L51.9867 13.2629C51.9754 12.7569 51.7903 12.2702 51.4625 11.8847C51.1347 11.4991 50.6841 11.2381 50.1865 11.1455H32.5322Z" fill="#0072C6"/>
<path d="M32.5331 25.2616L35.8125 27.5141C35.966 27.6076 36.1423 27.6571 36.3221 27.6571C36.5019 27.6571 36.6782 27.6076 36.8317 27.5141C36.2686 27.8539 51.9857 17.4189 51.9857 17.4189V36.314C52.0267 36.6969 51.9836 37.0841 51.8592 37.4486C51.7349 37.813 51.5325 38.1459 51.2661 38.4239C50.9997 38.702 50.6757 38.9184 50.3169 39.0582C49.9581 39.1979 49.5731 39.2576 49.1888 39.233H32.5312L32.5331 25.2616Z" fill="#0072C6"/>
<path d="M15.5563 20.5196C15.0115 20.517 14.476 20.6618 14.0068 20.9388C13.5375 21.2157 13.1519 21.6144 12.8908 22.0927C12.1777 23.3604 11.8356 24.8032 11.9035 26.2561C11.8294 27.7061 12.172 29.1469 12.8908 30.4083C13.1508 30.8669 13.5269 31.2489 13.9814 31.5161C14.4358 31.7833 14.9525 31.9261 15.4797 31.9303C16.0068 31.9345 16.5257 31.7998 16.9843 31.5399C17.443 31.28 17.8251 30.904 18.0923 30.4496C18.8033 29.194 19.1389 27.7607 19.0591 26.3199C19.1405 24.834 18.816 23.3539 18.1205 22.0382C17.8719 21.5756 17.5017 21.1896 17.0498 20.922C16.5979 20.6543 16.0815 20.5152 15.5563 20.5196Z" fill="#0072C6"/>
<path d="M0 5.92232V46.1434L30.5971 52.5594V0L0 5.92232ZM20.4756 32.8327C19.9033 33.6396 19.1422 34.2942 18.2588 34.7395C17.3754 35.1848 16.3965 35.4073 15.4074 35.3875C14.4432 35.4046 13.4892 35.1886 12.6264 34.7579C11.7636 34.3271 11.0176 33.6944 10.4518 32.9134C9.11002 31.0401 8.43879 28.7692 8.54653 26.4674C8.43239 24.0528 9.11574 21.6676 10.4912 19.6797C11.0708 18.8574 11.8438 18.1903 12.7421 17.7373C13.6403 17.2842 14.6363 17.0591 15.642 17.0818C16.5993 17.0626 17.5465 17.2786 18.4008 17.711C19.255 18.1433 19.99 18.7788 20.5413 19.5615C21.8697 21.4755 22.5295 23.7742 22.4185 26.1014C22.5355 28.4985 21.852 30.8666 20.4756 32.8327Z" fill="#0072C6"/>
</svg>
