<svg width="56" height="56" viewBox="0 0 56 56" fill="none" xmlns="http://www.w3.org/2000/svg">
<g clip-path="url(#clip0_2635_7323)">
<path fill-rule="evenodd" clip-rule="evenodd" d="M11.4844 0H44.5156C47.5589 0.00841846 50.4751 1.22108 52.627 3.373C54.7789 5.52491 55.9916 8.44112 56 11.4844V44.5156C55.9916 47.5589 54.7789 50.4751 52.627 52.627C50.4751 54.7789 47.5589 55.9916 44.5156 56H11.4844C8.44112 55.9916 5.52491 54.7789 3.373 52.627C1.22108 50.4751 0.00841846 47.5589 0 44.5156L0 11.4844C0.00841846 8.44112 1.22108 5.52491 3.373 3.373C5.52491 1.22108 8.44112 0.00841846 11.4844 0Z" fill="white"/>
<g clip-path="url(#clip1_2635_7323)">
<path d="M28 56C43.464 56 56 43.464 56 28C56 12.536 43.464 0 28 0C12.536 0 0 12.536 0 28C0 43.464 12.536 56 28 56Z" fill="white"/>
</g>
<g clip-path="url(#clip2_2635_7323)">
<path d="M39.8458 11.1221C37.9951 9.01272 34.6498 8.1084 30.3703 8.1084H17.9496C17.074 8.1084 16.33 8.74519 16.1929 9.60861L11.0212 42.4087C10.9184 43.0554 11.4192 43.6413 12.0748 43.6413H19.7428L21.6686 31.4263L21.6089 31.8088C21.746 30.9454 22.4845 30.3086 23.359 30.3086H27.0028C34.1611 30.3086 39.7662 27.4011 41.4035 18.9902C41.4521 18.7414 41.4942 18.4993 41.5306 18.2627C41.3239 18.1533 41.3239 18.1533 41.5306 18.2627C42.0182 15.154 41.5273 13.038 39.8458 11.1221Z" fill="#27346A"/>
<path d="M24.6027 17.1428C24.8072 17.0455 25.035 16.9914 25.2738 16.9914H35.0113C36.1644 16.9914 37.2401 17.0665 38.2229 17.2246C38.5048 17.2699 38.7779 17.3219 39.0432 17.3816C39.3085 17.4402 39.5661 17.5065 39.816 17.5795C39.9409 17.616 40.0636 17.6536 40.1841 17.6934C40.6672 17.8548 41.1172 18.0427 41.5306 18.2627C42.0182 15.1529 41.5273 13.038 39.8458 11.1221C37.994 9.01272 34.6498 8.1084 30.3703 8.1084H17.9485C17.074 8.1084 16.33 8.74519 16.1929 9.60861L11.0212 42.4076C10.9184 43.0554 11.4192 43.6402 12.0737 43.6402H19.7428L23.7382 18.3036C23.82 17.784 24.1539 17.3584 24.6027 17.1428Z" fill="#27346A"/>
<path d="M41.405 18.9901C39.7677 27.3999 34.1627 30.3086 27.0044 30.3086H23.3594C22.4849 30.3086 21.7465 30.9454 21.6105 31.8088L19.2148 46.9966C19.1252 47.5626 19.563 48.0756 20.1357 48.0756H26.5997C27.3648 48.0756 28.0159 47.5184 28.1353 46.7633L28.1983 46.4339L29.4166 38.7128L29.4951 38.2861C29.6145 37.531 30.2657 36.9738 31.0307 36.9738H31.9981C38.2598 36.9738 43.1628 34.43 44.5956 27.0727C45.1937 23.9982 44.8841 21.4312 43.3021 19.628C42.8223 19.0819 42.2264 18.6308 41.5322 18.2627C41.4946 18.5004 41.4537 18.7414 41.405 18.9901Z" fill="#2790C3"/>
<path d="M39.8164 17.5796C39.5666 17.5066 39.309 17.4403 39.0436 17.3817C38.7783 17.3231 38.5041 17.2712 38.2233 17.2258C37.2394 17.0666 36.1648 16.9915 35.0106 16.9915H25.2742C25.0343 16.9915 24.8066 17.0456 24.6032 17.144C24.1532 17.3596 23.8204 17.7841 23.7386 18.3048L21.6691 31.4264L21.6094 31.8089C21.7454 30.9455 22.4839 30.3087 23.3583 30.3087H27.0033C34.1616 30.3087 39.7667 27.4012 41.4039 18.9903C41.4526 18.7415 41.4935 18.5005 41.5311 18.2628C41.1165 18.0439 40.6677 17.8549 40.1845 17.6946C40.064 17.6548 39.9413 17.6161 39.8164 17.5796Z" fill="#1F264F"/>
</g>
</g>
<defs>
<clipPath id="clip0_2635_7323">
<rect width="56" height="56" fill="white"/>
</clipPath>
<clipPath id="clip1_2635_7323">
<rect width="56" height="56" fill="white"/>
</clipPath>
<clipPath id="clip2_2635_7323">
<rect width="34" height="40.1094" fill="white" transform="translate(11 8)"/>
</clipPath>
</defs>
</svg>
