<svg width="52" height="52" viewBox="0 0 52 52" fill="none" xmlns="http://www.w3.org/2000/svg">
<path d="M43.875 0H8.125C3.63769 0 0 3.63769 0 8.125V43.875C0 48.3623 3.63769 52 8.125 52H43.875C48.3623 52 52 48.3623 52 43.875V8.125C52 3.63769 48.3623 0 43.875 0Z" fill="#E60023"/>
<path d="M26 13C18.85 13 13 18.85 13 26C13 31.3625 16.25 35.9125 20.8 37.8625C20.8 36.8875 20.8 35.9125 20.9625 34.9375C21.2875 33.8 22.5875 27.7875 22.5875 27.7875C22.5875 27.7875 22.1 26.975 22.1 25.675C22.1 23.725 23.2375 22.2625 24.5375 22.2625C25.675 22.2625 26.325 23.075 26.325 24.2125C26.325 25.35 25.5125 27.1375 25.1875 28.7625C24.8625 30.0625 25.8375 31.2 27.3 31.2C29.7375 31.2 31.3625 28.1125 31.3625 24.2125C31.3625 21.2875 29.4125 19.175 26 19.175C22.1 19.175 19.6625 22.1 19.6625 25.35C19.6625 26.4875 19.9875 27.3 20.475 27.95C20.6375 28.275 20.8 28.275 20.6375 28.6C20.6375 28.7625 20.475 29.4125 20.3125 29.575C20.15 29.9 19.9875 30.0625 19.6625 29.9C17.875 29.0875 17.0625 27.1375 17.0625 24.8625C17.0625 21.125 20.15 16.7375 26.325 16.7375C31.3625 16.7375 34.6125 20.3125 34.6125 24.2125C34.6125 29.25 31.85 33.15 27.625 33.15C26.1625 33.15 24.8625 32.3375 24.375 31.525C24.375 31.525 23.5625 34.45 23.4 35.1C23.075 36.075 22.5875 37.05 22.1 37.8625C23.2375 38.1875 24.5375 38.35 25.8375 38.35C32.9875 38.35 38.8375 32.5 38.8375 25.35C39 18.85 33.15 13 26 13Z" fill="white"/>
</svg>
