<svg width="56" height="56" viewBox="0 0 56 56" fill="none" xmlns="http://www.w3.org/2000/svg">
<g clip-path="url(#clip0_2730_15795)">
<path fill-rule="evenodd" clip-rule="evenodd" d="M11.4844 0H44.5156C47.5589 0.00841846 50.4751 1.22108 52.627 3.373C54.7789 5.52491 55.9916 8.44112 56 11.4844V44.5156C55.9916 47.5589 54.7789 50.4751 52.627 52.627C50.4751 54.7789 47.5589 55.9916 44.5156 56H11.4844C8.44112 55.9916 5.52491 54.7789 3.373 52.627C1.22108 50.4751 0.00841846 47.5589 0 44.5156L0 11.4844C0.00841846 8.44112 1.22108 5.52491 3.373 3.373C5.52491 1.22108 8.44112 0.00841846 11.4844 0Z" fill="white"/>
<g clip-path="url(#clip1_2730_15795)">
<path d="M28 56C43.464 56 56 43.464 56 28C56 12.536 43.464 0 28 0C12.536 0 0 12.536 0 28C0 43.464 12.536 56 28 56Z" fill="white"/>
</g>
<path fill-rule="evenodd" clip-rule="evenodd" d="M38.3985 13.4097L31.4179 16.0971L38.2082 18.582L45.3886 15.9673L38.3985 13.4097Z" fill="#FFCA1E" stroke="#D7C5B2" stroke-width="0.2" stroke-miterlimit="1.5" stroke-linecap="square" stroke-linejoin="round"/>
<path fill-rule="evenodd" clip-rule="evenodd" d="M17.7969 26.0583L45.3889 15.969V32.2682L17.7969 42.3576V26.0583Z" fill="#FFD241" stroke="#D7C5B2" stroke-width="0.2" stroke-miterlimit="1.5" stroke-linecap="square" stroke-linejoin="round"/>
<path fill-rule="evenodd" clip-rule="evenodd" d="M17.8047 13.0283L31.5558 8.00001L38.36 10.434L24.6088 15.4623L17.8047 13.0283Z" fill="#2F6490" stroke="#D1E3F2" stroke-width="0.2" stroke-miterlimit="1.5" stroke-linecap="square" stroke-linejoin="round"/>
<path fill-rule="evenodd" clip-rule="evenodd" d="M24.625 15.4836L31.7995 12.8602V45.3134L24.625 47.9368V15.4836Z" fill="#3775A8" stroke="#D1E3F2" stroke-width="0.2" stroke-miterlimit="1.5" stroke-linecap="square" stroke-linejoin="round"/>
<path fill-rule="evenodd" clip-rule="evenodd" d="M24.6328 15.4958L17.7938 13.0461V45.4993L24.6328 47.9491V15.4958Z" fill="#2F6490" stroke="white" stroke-width="0.2" stroke-miterlimit="1.5" stroke-linecap="square" stroke-linejoin="round"/>
<path fill-rule="evenodd" clip-rule="evenodd" d="M24.6328 39.7451L17.7938 37.2443V45.4992L24.6328 48V39.7451Z" fill="#EFEEEA" stroke="#D8D8D8" stroke-width="0.2" stroke-miterlimit="1.5" stroke-linecap="square" stroke-linejoin="round"/>
<path fill-rule="evenodd" clip-rule="evenodd" d="M17.7891 26.0605L10.9967 23.5768V39.8739L17.7891 42.3576V26.0605Z" fill="#2F6490" stroke="#D1E3F2" stroke-width="0.2" stroke-miterlimit="1.5" stroke-linecap="square" stroke-linejoin="round"/>
<path fill-rule="evenodd" clip-rule="evenodd" d="M31.7969 12.8367L38.3592 10.437V42.8902L31.7969 45.2899V12.8367Z" fill="#3775A8" stroke="#D1E3F2" stroke-width="0.2" stroke-miterlimit="1.5" stroke-linecap="square" stroke-linejoin="round"/>
<path fill-rule="evenodd" clip-rule="evenodd" d="M17.7969 26.0579L24.6304 23.5591V39.8583L17.7969 42.3571V26.0579Z" fill="#3775A8" stroke="#D1E3F2" stroke-width="0.2" stroke-miterlimit="1.5" stroke-linecap="square" stroke-linejoin="round"/>
<path d="M11.0234 31.7028L17.8027 34.1544L38.3965 26.7009M24.7372 23.5207L38.3492 18.5442" stroke="#D1E3F2" stroke-width="0.2" stroke-miterlimit="1.5" stroke-linecap="square" stroke-linejoin="round"/>
<path d="M38.3906 26.7008L45.3683 24.168" stroke="#D7C5B2" stroke-width="0.2" stroke-miterlimit="1.5" stroke-linecap="square" stroke-linejoin="round"/>
<path fill-rule="evenodd" clip-rule="evenodd" d="M11.0078 23.573L17.797 21.1008L24.5873 23.5857L17.7981 26.0579L11.0078 23.573Z" fill="#2F6490" stroke="#D1E3F2" stroke-width="0.2" stroke-miterlimit="1.5" stroke-linecap="square" stroke-linejoin="round"/>
<path d="M27.5145 19.9967C28.2555 19.6156 28.814 18.6456 28.762 17.8299C28.71 17.0143 28.0671 16.662 27.3261 17.043C26.5851 17.424 26.0265 18.3941 26.0786 19.2097C26.1306 20.0254 26.7735 20.3777 27.5145 19.9967Z" fill="white"/>
<path d="M25.0156 10.4185L31.7485 12.8331" stroke="#D1E3F2" stroke-width="0.2" stroke-miterlimit="1.5" stroke-linecap="square" stroke-linejoin="round"/>
<path fill-rule="evenodd" clip-rule="evenodd" d="M31.7995 29.0883L24.625 31.7117L24.627 47.9966L31.7995 45.3135V29.0883Z" fill="#FFD241" stroke="#D7C5B2" stroke-width="0.2" stroke-miterlimit="1.5" stroke-linecap="square" stroke-linejoin="round"/>
<path fill-rule="evenodd" clip-rule="evenodd" d="M38.3592 26.6958L31.7969 29.0955L31.797 45.313L38.3592 42.8903V26.6958Z" fill="#FFD241" stroke="#D7C5B2" stroke-width="0.2" stroke-miterlimit="1.5" stroke-linecap="square" stroke-linejoin="round"/>
<path d="M36.3497 41.1386C37.0795 40.7633 37.6315 39.8387 37.5827 39.0733C37.5339 38.308 36.9027 37.9917 36.173 38.367C35.4432 38.7422 34.8911 39.6668 34.94 40.4322C34.9888 41.1976 35.62 41.5138 36.3497 41.1386Z" fill="#FEFDFD"/>
<path d="M24.6406 39.8764L38.3941 34.8589" stroke="#D7C5B2" stroke-width="0.2" stroke-miterlimit="1.5" stroke-linecap="square" stroke-linejoin="round"/>
</g>
<defs>
<clipPath id="clip0_2730_15795">
<rect width="56" height="56" fill="white"/>
</clipPath>
<clipPath id="clip1_2730_15795">
<rect width="56" height="56" fill="white"/>
</clipPath>
</defs>
</svg>
