<svg width="56" height="56" viewBox="0 0 56 56" fill="none" xmlns="http://www.w3.org/2000/svg">
<g clip-path="url(#clip0_2635_7243)">
<path fill-rule="evenodd" clip-rule="evenodd" d="M11.4844 0H44.5156C47.5589 0.00841846 50.4751 1.22108 52.627 3.373C54.7789 5.52491 55.9916 8.44112 56 11.4844V44.5156C55.9916 47.5589 54.7789 50.4751 52.627 52.627C50.4751 54.7789 47.5589 55.9916 44.5156 56H11.4844C8.44112 55.9916 5.52491 54.7789 3.373 52.627C1.22108 50.4751 0.00841846 47.5589 0 44.5156L0 11.4844C0.00841846 8.44112 1.22108 5.52491 3.373 3.373C5.52491 1.22108 8.44112 0.00841846 11.4844 0Z" fill="white"/>
<g clip-path="url(#clip1_2635_7243)">
<path d="M28 56C43.464 56 56 43.464 56 28C56 12.536 43.464 0 28 0C12.536 0 0 12.536 0 28C0 43.464 12.536 56 28 56Z" fill="white"/>
</g>
<g clip-path="url(#clip2_2635_7243)">
<path d="M30.6969 41.0448C29.3081 41.4174 27.8767 41.6078 26.4388 41.6111C18.1346 41.6172 10 34.9877 10 25.354C10 15.6234 18.1346 9 26.4388 9C34.8793 9 42.923 15.584 42.923 25.354C42.9449 27.811 42.3948 30.2393 41.3162 32.447C40.2376 34.6546 38.6601 36.581 36.7085 38.0738C37.8442 39.8576 39.1313 41.0448 40.8333 41.0448C42.6959 41.0448 43.4439 39.6032 43.5772 38.4735H46V39.3458C45.8213 41.596 44.4494 46.2266 38.6104 46.2266C34.5007 46.2266 32.3262 43.8431 30.6969 41.0508V41.0448ZM29.1524 38.0162C27.8683 35.4814 26.354 32.9253 23.3951 32.9253C22.8131 32.9092 22.2339 33.0122 21.6931 33.2282L20.6876 31.2293C21.899 30.1784 23.8858 29.3547 26.3661 29.3547C30.3032 29.3547 32.3353 31.2566 33.9374 33.6855C34.8914 31.614 35.3426 28.8156 35.3426 25.3419C35.3426 16.6803 32.6382 12.2859 26.3086 12.2859C20.0759 12.2859 17.3896 16.7379 17.3896 25.354C17.3896 33.9701 20.088 38.3766 26.3207 38.3766C27.2413 38.3896 28.1591 38.2713 29.0464 38.0253H29.1645L29.1524 38.0162Z" fill="#B72C27"/>
</g>
</g>
<defs>
<clipPath id="clip0_2635_7243">
<rect width="56" height="56" fill="white"/>
</clipPath>
<clipPath id="clip1_2635_7243">
<rect width="56" height="56" fill="white"/>
</clipPath>
<clipPath id="clip2_2635_7243">
<rect width="36" height="37.2144" fill="white" transform="translate(10 9)"/>
</clipPath>
</defs>
</svg>
