<svg width="52" height="53" viewBox="0 0 52 53" fill="none" xmlns="http://www.w3.org/2000/svg">
<path d="M44.2 0.55957H7.8C3.49218 0.55957 0 4.05175 0 8.35957V44.7596C0 49.0674 3.49218 52.5596 7.8 52.5596H44.2C48.5078 52.5596 52 49.0674 52 44.7596V8.35957C52 4.05175 48.5078 0.55957 44.2 0.55957Z" fill="#FF4400"/>
<path d="M26 43.623C35.3112 43.623 42.8594 38.3029 42.8594 31.7402C42.8594 25.1775 35.3112 19.8574 26 19.8574C16.6888 19.8574 9.14062 25.1775 9.14062 31.7402C9.14062 38.3029 16.6888 43.623 26 43.623Z" fill="white"/>
<path d="M10.7656 30.8262C13.1215 30.8262 15.0312 28.9164 15.0312 26.5605C15.0312 24.2047 13.1215 22.2949 10.7656 22.2949C8.40979 22.2949 6.5 24.2047 6.5 26.5605C6.5 28.9164 8.40979 30.8262 10.7656 30.8262Z" fill="white"/>
<path d="M41.3359 30.8262C43.6918 30.8262 45.6016 28.9164 45.6016 26.5605C45.6016 24.2047 43.6918 22.2949 41.3359 22.2949C38.9801 22.2949 37.0703 24.2047 37.0703 26.5605C37.0703 28.9164 38.9801 30.8262 41.3359 30.8262Z" fill="white"/>
<path d="M38.0859 15.3887C39.8809 15.3887 41.3359 13.9336 41.3359 12.1387C41.3359 10.3437 39.8809 8.88867 38.0859 8.88867C36.291 8.88867 34.8359 10.3437 34.8359 12.1387C34.8359 13.9336 36.291 15.3887 38.0859 15.3887Z" fill="white"/>
<path d="M26 20.4648L28.3359 10.207L35.75 11.7305" stroke="white" stroke-width="5.15411" stroke-linecap="round" stroke-linejoin="round"/>
<path d="M19.3984 37.0195C22.75 39.5586 29.25 39.6602 32.6016 37.0195" stroke="#FF4400" stroke-width="4.18772" stroke-linecap="round" stroke-linejoin="round"/>
<path d="M19.3984 32.8574C21.1373 32.8574 22.5469 31.4478 22.5469 29.709C22.5469 27.9702 21.1373 26.5605 19.3984 26.5605C17.6596 26.5605 16.25 27.9702 16.25 29.709C16.25 31.4478 17.6596 32.8574 19.3984 32.8574Z" fill="#FF4400"/>
<path d="M32.6016 32.8574C34.3404 32.8574 35.75 31.4478 35.75 29.709C35.75 27.9702 34.3404 26.5605 32.6016 26.5605C30.8627 26.5605 29.4531 27.9702 29.4531 29.709C29.4531 31.4478 30.8627 32.8574 32.6016 32.8574Z" fill="#FF4400"/>
</svg>
