<svg width="56" height="56" viewBox="0 0 56 56" fill="none" xmlns="http://www.w3.org/2000/svg">
<g clip-path="url(#clip0_2730_15649)">
<path d="M12.8505 0H43.1495C50.2688 0 56 5.73132 56 12.8506V43.1495C56 50.2687 50.2688 56 43.1495 56H12.8505C5.73132 56 0 50.2687 0 43.1494V12.8506C0 5.73132 5.73132 0 12.8505 0Z" fill="#E0E2E2"/>
<path d="M13 0H43C50.056 0 56 5.944 56 13V43C56 50.056 50.056 56 43 56H13C5.944 56 0 50.056 0 43V13C0 5.944 5.944 0 13 0Z" fill="#E0E2E2"/>
<path d="M14.5 56C11.5601 55.9125 10.1822 56.02 8.5 55.5C6.09975 54.7581 3.75917 52.6813 2.2957 50.5844C1.84649 49.9407 1.17188 48.6875 1.17188 48.4965C1.17188 48.2476 5.11203 46.5188 7.68159 45.6403C8.61073 45.3227 10.3287 44.8053 10.8117 44.6977C11.1656 44.6188 12.795 44.1475 13.6798 43.868C14.9905 43.4538 15.6992 43.0474 15.9506 42.5654C16.063 42.3496 16.3328 41.0375 16.47 40.038C16.5088 39.7556 16.5773 39.2757 16.6223 38.9715C16.7626 38.0214 16.7385 37.8215 16.446 37.5101C15.4132 36.4106 14.9641 35.354 14.7168 33.4416C14.5937 32.4897 14.2538 30.8112 14.1335 30.5616C14.0803 30.4511 13.8523 30.2626 13.6269 30.1426C13.0246 29.8219 12.7699 29.3812 12.6123 28.3858C12.4966 27.6555 12.3736 27.2247 11.9445 26.045C11.6506 25.2368 11.5107 24.4354 11.5405 23.7306C11.5649 23.152 11.5942 23.0388 11.7677 22.8548C11.9428 22.669 12.0088 22.6491 12.3139 22.6901C12.5976 22.7282 12.6527 22.7157 12.6161 22.6213C12.3666 21.9766 12.0144 18.9834 11.7918 15.6171C11.7158 14.4685 11.9818 13.1956 12.5464 12.0067C13.0073 11.0361 13.5457 10.4612 14.2206 10.2194C14.4258 10.146 14.6307 10.0713 14.835 9.99554C14.9664 9.94635 15.2976 9.68502 15.571 9.41482C16.6185 8.37919 17.5104 7.83945 18.9508 7.36952C19.4477 7.2074 20.2185 6.93747 20.6639 6.76966C21.7675 6.35377 22.4844 6.21097 23.519 6.20061C24.8951 6.18689 25.754 6.38391 27.7812 7.17837C28.4166 7.42738 29.3128 7.7421 29.7729 7.87771C31.5056 8.38862 32.5181 9.05717 33.039 10.0344C33.185 10.3082 33.4438 10.7418 33.614 10.9979C34.1863 11.8591 34.3066 12.1827 34.5127 13.4157C34.8746 15.5816 34.694 18.5094 34.0181 21.4341C33.7416 22.6308 33.7255 22.7376 33.8222 22.7376C33.8684 22.7376 33.9284 22.702 33.9555 22.6586C34.039 22.5246 34.3543 22.5711 34.5428 22.7452C34.8156 22.9972 34.8909 23.2673 34.8929 24.0016C34.8953 24.8014 34.7256 25.6264 34.3162 26.8061C34.1504 27.284 33.9748 27.9716 33.926 28.3342C33.8062 29.2244 33.474 29.8549 33.0107 30.0711C32.8292 30.1558 32.6193 30.2926 32.5444 30.3749C32.2686 30.6778 32.077 31.503 31.6402 34.2699C31.4246 35.6356 31.0385 36.4846 30.2382 37.3523L29.8376 37.7868L29.8772 38.8137C29.9326 40.2518 30.2085 42.0278 30.456 42.5385C30.8848 43.424 31.8125 43.8455 35.2958 44.7373C39.4095 45.7904 41.3032 46.4497 44.9651 48.1031C45.1489 48.1861 45.5254 48.254 45.5716 48.254L45.5803 55.4797C45.3908 55.5959 43.8573 55.9322 41.5 56C38.5631 56.0844 17.3553 56.0848 14.5 56Z" fill="#9A9A9A"/>
<path d="M45.2734 0.446777C47.0169 0.7562 48.6761 1.42775 50.1439 2.41807C51.8428 3.56404 53.24 5.10309 54.2169 6.90451C54.8131 8.00417 55.2428 9.18624 55.4918 10.4121C55.5764 10.8274 55.6409 11.2501 55.6843 11.6794C55.7276 12.1086 55.7497 12.5442 55.7497 12.9852V13.841H45.2736V0.446777H45.2734Z" fill="#C9C8C4"/>
<path d="M49.1328 10.1134L50.2425 7.22754H50.6527L51.8348 10.1134H51.3975L51.0628 9.23887H49.8565L49.5398 10.1134H49.1328ZM49.9652 8.92826H50.9452L50.6437 8.12914C50.5432 7.86174 50.4748 7.66275 50.4386 7.53209C50.4019 7.7191 50.3494 7.90269 50.2817 8.08089L49.9652 8.92826Z" fill="#676362"/>
<path d="M55.7495 13.8176V27.8133H45.2734V13.8176H55.7495Z" fill="#4FC9F8"/>
<path d="M49.4219 22.5267V19.6409H50.5045C50.8382 19.6409 51.081 19.7138 51.2328 19.8595C51.3846 20.0052 51.4605 20.1787 51.4605 20.3797C51.4605 20.6551 51.3258 20.8591 51.0563 20.9919C51.4201 21.0985 51.6022 21.3316 51.6022 21.6915C51.6022 22.2484 51.2423 22.5268 50.5226 22.5268L49.4219 22.5267ZM49.8049 20.8532H50.4291C50.5698 20.8532 50.6849 20.8436 50.7744 20.8245C50.861 20.807 50.9394 20.7615 50.9975 20.6949C51.0569 20.6275 51.0865 20.5375 51.0865 20.425C51.0865 20.3084 51.0599 20.2153 51.0066 20.146C50.9534 20.0766 50.8795 20.0319 50.785 20.0118C50.6905 19.9917 50.5558 19.9816 50.3809 19.9816H49.8049V20.8532ZM49.8049 22.186H50.5226C50.6171 22.186 50.7004 22.1815 50.7729 22.1723C50.8481 22.1624 50.9207 22.1383 50.9871 22.1015C51.0557 22.065 51.1119 22.0088 51.1485 21.9401C51.1856 21.8708 51.2043 21.7878 51.2043 21.6913C51.2043 21.5345 51.154 21.4124 51.0534 21.325C50.9529 21.2375 50.759 21.1937 50.4715 21.1937H49.805L49.8049 22.186Z" fill="#1C627A"/>
<path d="M55.7495 27.7549V41.8897L45.2734 41.8897V27.7549H55.7495Z" fill="#47D86F"/>
<path d="M51.3868 35.4202L51.7698 35.5167C51.605 36.16 51.2059 36.4816 50.5727 36.4816C50.1082 36.4816 49.7665 36.3364 49.5475 36.0459C49.3282 35.7554 49.2188 35.3961 49.2188 34.9678C49.2188 34.4813 49.3494 34.1149 49.6108 33.8687C49.8722 33.6224 50.1948 33.4993 50.5788 33.4993C51.1758 33.4993 51.5558 33.7787 51.7187 34.3376L51.3447 34.428C51.2161 34.0259 50.9587 33.8249 50.5727 33.8249C50.2611 33.8249 50.0228 33.9254 49.858 34.1265C49.6932 34.3275 49.6108 34.6079 49.6108 34.9678C49.6108 35.3839 49.6998 35.686 49.8776 35.874C50.0556 36.062 50.2771 36.156 50.5426 36.156C50.9989 36.156 51.2803 35.9107 51.3868 35.4202Z" fill="#10782D"/>
<path d="M55.7497 41.8896V43.0148C55.7497 43.4559 55.7276 43.8915 55.6843 44.3206C55.6414 44.746 55.5772 45.1689 55.4919 45.5879C55.3251 46.4083 55.0772 47.2102 54.7519 47.9816C54.4326 48.7393 54.0402 49.464 53.5804 50.1455C53.1244 50.8217 52.6043 51.4525 52.0275 52.0291C51.4509 52.6059 50.8202 53.1259 50.1439 53.5819C49.1165 54.2752 47.9928 54.8138 46.8088 55.1805C46.3052 55.3364 45.7924 55.4608 45.2734 55.5531V41.8897L55.7497 41.8896Z" fill="#FF9327"/>
<path d="M49.4297 49.0333V46.1475H50.4248C50.6138 46.1475 50.7822 46.1605 50.9299 46.1867C51.0777 46.2127 51.2194 46.2796 51.3552 46.3871C51.4909 46.4947 51.6015 46.6485 51.6869 46.8485C51.7724 47.0485 51.8151 47.2902 51.8151 47.5738C51.8151 48.008 51.7121 48.3598 51.506 48.6292C51.3 48.8986 50.9547 49.0333 50.4702 49.0333H49.4297ZM49.8127 48.6926H50.4279C50.6813 48.6926 50.8752 48.6554 51.0099 48.581C51.1446 48.5067 51.2471 48.3825 51.3175 48.2086C51.3878 48.0348 51.423 47.8212 51.423 47.5678C51.423 47.3909 51.4055 47.2361 51.3704 47.1035C51.3352 46.9708 51.2824 46.8592 51.212 46.7687C51.1416 46.6782 51.0522 46.6089 50.9436 46.5606C50.8351 46.5124 50.6602 46.4883 50.4189 46.4883H49.8128L49.8127 48.6926Z" fill="#884308"/>
</g>
<defs>
<clipPath id="clip0_2730_15649">
<rect width="56" height="56" fill="white"/>
</clipPath>
</defs>
</svg>
