<svg width="56" height="56" viewBox="0 0 56 56" fill="none" xmlns="http://www.w3.org/2000/svg">
<g clip-path="url(#clip0_2635_7697)">
<path fill-rule="evenodd" clip-rule="evenodd" d="M11.4844 0H44.5156C47.5589 0.00841846 50.4751 1.22108 52.627 3.373C54.7789 5.52491 55.9916 8.44112 56 11.4844V44.5156C55.9916 47.5589 54.7789 50.4751 52.627 52.627C50.4751 54.7789 47.5589 55.9916 44.5156 56H11.4844C8.44112 55.9916 5.52491 54.7789 3.373 52.627C1.22108 50.4751 0.00841846 47.5589 0 44.5156L0 11.4844C0.00841846 8.44112 1.22108 5.52491 3.373 3.373C5.52491 1.22108 8.44112 0.00841846 11.4844 0Z" fill="white"/>
<g clip-path="url(#clip1_2635_7697)">
<path d="M28 56C43.464 56 56 43.464 56 28C56 12.536 43.464 0 28 0C12.536 0 0 12.536 0 28C0 43.464 12.536 56 28 56Z" fill="white"/>
</g>
<g clip-path="url(#clip2_2635_7697)">
<path fill-rule="evenodd" clip-rule="evenodd" d="M39.8262 16.9318C39.7998 16.7501 39.6416 16.6505 39.5098 16.6388C39.3779 16.6271 36.8174 16.589 36.8174 16.589C36.8174 16.589 34.6728 14.5089 34.4619 14.295C34.251 14.0841 33.8379 14.1485 33.6768 14.1954C33.6738 14.1954 33.2754 14.3214 32.5986 14.5294C32.4873 14.1632 32.3203 13.715 32.083 13.2638C31.3213 11.8077 30.2021 11.0372 28.8516 11.0343C28.8486 11.0343 28.8486 11.0343 28.8457 11.0343C28.752 11.0343 28.6582 11.0431 28.5645 11.0519C28.5234 11.005 28.4853 10.9581 28.4414 10.9112C27.8525 10.2814 27.0996 9.97667 26.1943 10.003C24.4512 10.0528 22.7139 11.3126 21.3047 13.5509C20.3145 15.1241 19.5586 17.1017 19.3447 18.6339C17.3437 19.255 15.9434 19.6886 15.9111 19.6974C14.9004 20.0138 14.8682 20.046 14.7363 20.9982C14.6455 21.7159 12 42.1681 12 42.1681L34.1631 46.0001L43.7695 43.6124C43.7695 43.6124 39.8496 17.1134 39.8262 16.9318ZM31.4883 14.8722C30.9785 15.0304 30.3984 15.2091 29.7686 15.4054C29.7568 14.5235 29.6514 13.2931 29.2383 12.2325C30.5625 12.4816 31.2129 13.9786 31.4883 14.8722ZM28.6084 15.7657C27.4482 16.1261 26.1797 16.5187 24.9082 16.9112C25.2656 15.5431 25.9453 14.1778 26.7773 13.2843C27.0879 12.9503 27.5215 12.5812 28.0342 12.3702C28.5176 13.3751 28.6201 14.8019 28.6084 15.7657ZM26.2324 11.1632C26.6426 11.1544 26.9853 11.2452 27.2812 11.4386C26.8096 11.6818 26.3555 12.0333 25.9277 12.4903C24.8203 13.6798 23.9707 15.5226 23.6338 17.3038C22.5791 17.629 21.5449 17.9513 20.5957 18.2443C21.1934 15.4435 23.543 11.2394 26.2324 11.1632Z" fill="#95BF47"/>
<path fill-rule="evenodd" clip-rule="evenodd" d="M39.5107 16.6387C39.3789 16.627 36.8184 16.5889 36.8184 16.5889C36.8184 16.5889 34.6738 14.5088 34.4629 14.2949C34.3838 14.2158 34.2783 14.1748 34.1641 14.1572V45.9971L43.7676 43.6094C43.7676 43.6094 39.8477 17.1133 39.8242 16.9316C39.8037 16.75 39.6426 16.6504 39.5107 16.6387Z" fill="#5E8E3E"/>
<path fill-rule="evenodd" clip-rule="evenodd" d="M28.8428 21.5781L27.7266 25.7529C27.7266 25.7529 26.4814 25.1875 25.0078 25.2783C22.8457 25.416 22.8223 26.7783 22.8428 27.1211C22.96 28.9873 27.8701 29.3945 28.1484 33.7685C28.3652 37.208 26.3232 39.5605 23.3818 39.748C19.8516 39.9707 17.9062 37.8877 17.9062 37.8877L18.6533 34.706C18.6533 34.706 20.6104 36.1826 22.1748 36.083C23.1973 36.0185 23.5635 35.1865 23.5254 34.5976C23.373 32.1631 19.3711 32.3066 19.1191 28.3047C18.9053 24.9385 21.1172 21.5254 25.998 21.2178C27.8818 21.0976 28.8428 21.5781 28.8428 21.5781Z" fill="white"/>
</g>
</g>
<defs>
<clipPath id="clip0_2635_7697">
<rect width="56" height="56" fill="white"/>
</clipPath>
<clipPath id="clip1_2635_7697">
<rect width="56" height="56" fill="white"/>
</clipPath>
<clipPath id="clip2_2635_7697">
<rect width="31.7695" height="36" fill="white" transform="translate(12 10)"/>
</clipPath>
</defs>
</svg>
