<svg width="56" height="56" viewBox="0 0 56 56" fill="none" xmlns="http://www.w3.org/2000/svg">
<g clip-path="url(#clip0_2635_7942)">
<path fill-rule="evenodd" clip-rule="evenodd" d="M11.4844 0H44.5156C47.5589 0.00841846 50.4751 1.22108 52.627 3.373C54.7789 5.52491 55.9916 8.44112 56 11.4844V44.5156C55.9916 47.5589 54.7789 50.4751 52.627 52.627C50.4751 54.7789 47.5589 55.9916 44.5156 56H11.4844C8.44112 55.9916 5.52491 54.7789 3.373 52.627C1.22108 50.4751 0.00841846 47.5589 0 44.5156L0 11.4844C0.00841846 8.44112 1.22108 5.52491 3.373 3.373C5.52491 1.22108 8.44112 0.00841846 11.4844 0Z" fill="white"/>
<g clip-path="url(#clip1_2635_7942)">
<path d="M28 56C43.464 56 56 43.464 56 28C56 12.536 43.464 0 28 0C12.536 0 0 12.536 0 28C0 43.464 12.536 56 28 56Z" fill="white"/>
</g>
<g clip-path="url(#clip2_2635_7942)">
<path fill-rule="evenodd" clip-rule="evenodd" d="M45.9074 32.0339C46.1823 30.7961 46.3253 29.5142 46.3253 28.1971C46.3253 18.3299 38.2127 10.3281 28.2011 10.3281C27.1465 10.3281 26.1121 10.4184 25.1022 10.5902C23.4824 9.58365 21.5654 9 19.5121 9C13.7053 9 9 13.6385 9 19.365C9 21.2768 9.52729 23.0652 10.4433 24.607C10.2043 25.7655 10.0769 26.9681 10.0769 28.1971C10.0769 38.0688 18.1917 46.0684 28.2011 46.0684C29.3361 46.0684 30.4443 45.9648 31.5212 45.7688C33.0025 46.5529 34.6916 47 36.4901 47C42.2947 47 47 42.3593 47 36.6372C47 34.9831 46.6068 33.4215 45.9074 32.0339ZM37.4978 36.7385C36.6599 37.9102 35.4221 38.8353 33.8135 39.4916C32.2249 40.1436 30.3214 40.4761 28.1519 40.4761C25.549 40.4761 23.3662 40.0246 21.6614 39.1326C20.4438 38.4851 19.4406 37.6085 18.6787 36.5204C17.9079 35.428 17.5192 34.3422 17.5192 33.2916C17.5192 32.6396 17.7739 32.0713 18.2743 31.6066C18.7703 31.1441 19.4071 30.9128 20.1668 30.9128C20.7879 30.9128 21.3263 31.0956 21.762 31.459C22.1798 31.8092 22.5373 32.3269 22.8255 32.9898C23.1472 33.7166 23.4958 34.3289 23.8644 34.8069C24.2219 35.2738 24.7335 35.6637 25.3859 35.9698C26.0428 36.2738 26.9298 36.4323 28.0179 36.4323C29.5171 36.4323 30.7459 36.1152 31.6686 35.4941C32.5735 34.8884 33.0114 34.1571 33.0114 33.2629C33.0114 32.5603 32.7813 32.0053 32.3121 31.5692C31.8161 31.1155 31.1659 30.7631 30.3772 30.5164C29.5528 30.2653 28.4357 29.99 27.0527 29.7036C25.1692 29.3072 23.5717 28.8381 22.3027 28.3029C21.0023 27.7588 19.9545 27.0034 19.1881 26.0585C18.4106 25.096 18.0152 23.8912 18.0152 22.475C18.0152 21.1271 18.4285 19.9091 19.2462 18.8607C20.055 17.8189 21.2392 17.0039 22.7652 16.4511C24.2688 15.9027 26.0562 15.6252 28.0827 15.6252C29.7003 15.6252 31.1235 15.8102 32.3121 16.1758C33.5074 16.5414 34.5128 17.0348 35.3037 17.6449C36.1014 18.2616 36.6957 18.9157 37.0666 19.5985C37.4419 20.2879 37.6341 20.9729 37.6341 21.6358C37.6341 22.2746 37.3838 22.856 36.8901 23.3604C36.3941 23.8714 35.7662 24.1291 35.0289 24.1291C34.3586 24.1291 33.8314 23.9661 33.4694 23.6489C33.1298 23.3516 32.7768 22.889 32.3858 22.2283C31.9345 21.3825 31.3871 20.7152 30.7593 20.2439C30.1493 19.7857 29.1328 19.5567 27.7319 19.5567C26.436 19.5567 25.377 19.8121 24.5928 20.3209C23.8376 20.8077 23.469 21.3693 23.469 22.0345C23.469 22.4397 23.5874 22.7812 23.8331 23.0719C24.0878 23.3847 24.452 23.6533 24.9123 23.8824C25.3882 24.1181 25.8797 24.3075 26.3712 24.4396C26.874 24.5784 27.7185 24.7832 28.8781 25.0475C30.346 25.3559 31.6932 25.7061 32.8841 26.0827C34.0928 26.4616 35.1339 26.9285 35.9874 27.4769C36.8543 28.0341 37.5402 28.7477 38.0295 29.6023C38.5188 30.4635 38.7668 31.5207 38.7668 32.7519C38.7668 34.2232 38.3379 35.5645 37.4978 36.7385Z" fill="#00AEF3"/>
</g>
</g>
<defs>
<clipPath id="clip0_2635_7942">
<rect width="56" height="56" fill="white"/>
</clipPath>
<clipPath id="clip1_2635_7942">
<rect width="56" height="56" fill="white"/>
</clipPath>
<clipPath id="clip2_2635_7942">
<rect width="38" height="38" fill="white" transform="translate(9 9)"/>
</clipPath>
</defs>
</svg>
