<svg width="56" height="56" viewBox="0 0 56 56" fill="none" xmlns="http://www.w3.org/2000/svg">
<g clip-path="url(#clip0_2635_7040)">
<path fill-rule="evenodd" clip-rule="evenodd" d="M11.4844 0H44.5156C47.5589 0.00841846 50.4751 1.22108 52.627 3.373C54.7789 5.52491 55.9916 8.44112 56 11.4844V44.5156C55.9916 47.5589 54.7789 50.4751 52.627 52.627C50.4751 54.7789 47.5589 55.9916 44.5156 56H11.4844C8.44112 55.9916 5.52491 54.7789 3.373 52.627C1.22108 50.4751 0.00841846 47.5589 0 44.5156L0 11.4844C0.00841846 8.44112 1.22108 5.52491 3.373 3.373C5.52491 1.22108 8.44112 0.00841846 11.4844 0Z" fill="white"/>
<g clip-path="url(#clip1_2635_7040)">
<path d="M28 56C43.464 56 56 43.464 56 28C56 12.536 43.464 0 28 0C12.536 0 0 12.536 0 28C0 43.464 12.536 56 28 56Z" fill="white"/>
</g>
<g clip-path="url(#clip2_2635_7040)">
<path d="M16.4434 33.2985C16.4434 35.6256 14.5628 37.5029 12.239 37.5029C9.91511 37.5029 8.03125 35.6223 8.03125 33.2985C8.03125 30.9713 9.91185 29.094 12.2357 29.094H16.4402V33.2985H16.4434ZM18.5457 33.2985C18.5457 30.9713 20.4263 29.094 22.7501 29.094C25.074 29.094 26.9546 30.9746 26.9546 33.2985V43.8129C26.9546 46.14 25.074 48.0174 22.7501 48.0174C20.4263 48.0174 18.5457 46.1368 18.5457 43.8129V33.2985Z" fill="#E01E5A"/>
<path d="M22.7515 16.4119C20.4244 16.4119 18.547 14.5313 18.547 12.2074C18.547 9.88027 20.4276 8.00293 22.7515 8.00293C25.0754 8.00293 26.956 9.88353 26.956 12.2074V16.4119H22.7515ZM22.7515 18.5467C25.0786 18.5467 26.956 20.4273 26.956 22.7512C26.956 25.0783 25.0754 26.9556 22.7515 26.9556H12.2045C9.8806 26.9589 8 25.0783 8 22.7512C8 20.424 9.8806 18.5467 12.2045 18.5467H22.7515Z" fill="#36C5F0"/>
<path d="M39.6049 22.7515C39.6049 20.4244 41.4855 18.547 43.8094 18.547C46.1365 18.547 48.0139 20.4276 48.0139 22.7515C48.0139 25.0786 46.1333 26.956 43.8094 26.956H39.6049V22.7515ZM37.5027 22.7515C37.5027 25.0786 35.6221 26.956 33.2982 26.956C30.9711 26.956 29.0938 25.0754 29.0938 22.7515V12.2045C29.0938 9.87734 30.9744 8 33.2982 8C35.6253 8 37.5027 9.8806 37.5027 12.2045V22.7515Z" fill="#2EB67D"/>
<path d="M33.2982 39.6052C35.6253 39.6052 37.5027 41.4858 37.5027 43.8096C37.5027 46.1368 35.6221 48.0141 33.2982 48.0141C30.9711 48.0141 29.0938 46.1335 29.0938 43.8096V39.6052H33.2982ZM33.2982 37.5029C30.9711 37.5029 29.0938 35.6223 29.0938 33.2985C29.0938 30.9713 30.9744 29.094 33.2982 29.094H43.8452C46.1724 29.094 48.0497 30.9746 48.0497 33.2985C48.0497 35.6256 46.1691 37.5029 43.8452 37.5029H33.2982Z" fill="#ECB22E"/>
</g>
</g>
<defs>
<clipPath id="clip0_2635_7040">
<rect width="56" height="56" fill="white"/>
</clipPath>
<clipPath id="clip1_2635_7040">
<rect width="56" height="56" fill="white"/>
</clipPath>
<clipPath id="clip2_2635_7040">
<rect width="40.05" height="40.0174" fill="white" transform="translate(8 8)"/>
</clipPath>
</defs>
</svg>
