<svg width="56" height="56" viewBox="0 0 56 56" fill="none" xmlns="http://www.w3.org/2000/svg">
<path d="M47.6 0H8.4C3.76081 0 0 3.76081 0 8.4V47.6C0 52.2392 3.76081 56 8.4 56H47.6C52.2392 56 56 52.2392 56 47.6V8.4C56 3.76081 52.2392 0 47.6 0Z" fill="white"/>
<g clip-path="url(#clip0_2635_8213)">
<path d="M43.466 4.66626H12.2451C9.61228 4.66626 7.46875 6.80979 7.46875 9.4659V40.9664C7.46875 43.6225 9.61228 45.7661 12.2451 45.7661H38.6664L37.4315 41.4557L40.4138 44.2283L43.233 46.8378L48.2424 51.2647V9.4659C48.2424 6.80979 46.0988 4.66626 43.466 4.66626ZM34.4725 35.095C34.4725 35.095 33.6338 34.0932 32.9348 33.2078C35.987 32.3457 37.1519 30.4352 37.1519 30.4352C36.1967 31.0643 35.288 31.5069 34.4725 31.8098C33.3076 32.2991 32.1892 32.6253 31.0941 32.8117C28.8574 33.2311 26.8071 33.1146 25.0597 32.7884C23.7316 32.5321 22.5899 32.1593 21.6347 31.7865C21.0988 31.5768 20.5163 31.3206 19.9338 30.9944C19.8639 30.9478 19.794 30.9245 19.7241 30.8779C19.6775 30.8546 19.6542 30.8313 19.6309 30.808C19.2115 30.575 18.9786 30.4119 18.9786 30.4119C18.9786 30.4119 20.0969 32.2758 23.0559 33.1612C22.3569 34.0466 21.4949 35.095 21.4949 35.095C16.3457 34.9319 14.3886 31.5535 14.3886 31.5535C14.3886 24.0512 17.7437 17.9701 17.7437 17.9701C21.0988 15.4538 24.2908 15.5237 24.2908 15.5237L24.5238 15.8033C20.3299 17.0148 18.3961 18.8555 18.3961 18.8555C18.3961 18.8555 18.9087 18.5759 19.7707 18.1798C22.2637 17.0847 24.2442 16.7818 25.0597 16.7119C25.1994 16.6887 25.3159 16.6654 25.4557 16.6654C26.877 16.479 28.4846 16.4324 30.1622 16.6188C32.3756 16.875 34.7521 17.5274 37.1752 18.8555C37.1752 18.8555 35.3346 17.108 31.3737 15.8965L31.6999 15.5237C31.6999 15.5237 34.8919 15.4538 38.247 17.9701C38.247 17.9701 41.6021 24.0512 41.6021 31.5535C41.6021 31.5535 39.6217 34.9319 34.4725 35.095ZM23.6384 24.2143C22.3103 24.2143 21.2619 25.3793 21.2619 26.8005C21.2619 28.2218 22.3336 29.3867 23.6384 29.3867C24.9665 29.3867 26.0149 28.2218 26.0149 26.8005C26.0382 25.3793 24.9665 24.2143 23.6384 24.2143ZM32.1426 24.2143C30.8146 24.2143 29.7661 25.3793 29.7661 26.8005C29.7661 28.2218 30.8379 29.3867 32.1426 29.3867C33.4707 29.3867 34.5191 28.2218 34.5191 26.8005C34.5191 25.3793 33.4707 24.2143 32.1426 24.2143Z" fill="#7289DA"/>
</g>
<defs>
<clipPath id="clip0_2635_8213">
<rect width="40.7736" height="46.6667" fill="white" transform="translate(7.46875 4.66626)"/>
</clipPath>
</defs>
</svg>
