<svg width="56" height="56" viewBox="0 0 56 56" fill="none" xmlns="http://www.w3.org/2000/svg">
<g clip-path="url(#clip0_2635_8167)">
<path fill-rule="evenodd" clip-rule="evenodd" d="M11.4844 0H44.5156C47.5589 0.00841846 50.4751 1.22108 52.627 3.373C54.7789 5.52491 55.9916 8.44112 56 11.4844V44.5156C55.9916 47.5589 54.7789 50.4751 52.627 52.627C50.4751 54.7789 47.5589 55.9916 44.5156 56H11.4844C8.44112 55.9916 5.52491 54.7789 3.373 52.627C1.22108 50.4751 0.00841846 47.5589 0 44.5156L0 11.4844C0.00841846 8.44112 1.22108 5.52491 3.373 3.373C5.52491 1.22108 8.44112 0.00841846 11.4844 0Z" fill="white"/>
<g clip-path="url(#clip1_2635_8167)">
<path d="M28 56C43.464 56 56 43.464 56 28C56 12.536 43.464 0 28 0C12.536 0 0 12.536 0 28C0 43.464 12.536 56 28 56Z" fill="white"/>
</g>
<g clip-path="url(#clip2_2635_8167)">
<path fill-rule="evenodd" clip-rule="evenodd" d="M7 35.571C7 36.0996 7.18895 36.4992 7.56677 36.7701C7.94463 37.041 8.34852 37.1367 8.77849 37.0575C9.18239 36.9782 9.46579 36.8329 9.62871 36.6215C9.79155 36.4101 9.87302 36.0599 9.87302 35.571V29.8234C9.87302 29.4137 9.73296 29.0669 9.45282 28.7828C9.17272 28.4987 8.8307 28.3567 8.42676 28.3567C8.03588 28.3567 7.70037 28.4987 7.42022 28.7828C7.14008 29.0669 7 29.4137 7 29.8234V35.571ZM11.4951 38.0287C11.4951 38.4119 11.6287 38.6992 11.8958 38.8908C12.1629 39.0825 12.5049 39.1782 12.9218 39.1782C13.3518 39.1782 13.7003 39.0824 13.9674 38.8908C14.2345 38.6993 14.3681 38.4119 14.3681 38.0287V24.6306C14.3681 24.2342 14.228 23.894 13.9479 23.6099C13.6677 23.3259 13.3257 23.1838 12.9218 23.1838C12.5309 23.1838 12.1954 23.3259 11.9153 23.6099C11.6352 23.894 11.4951 24.2342 11.4951 24.6306V38.0287ZM15.9707 38.6629C15.9707 39.0461 16.1075 39.3335 16.3811 39.5251C16.6547 39.7166 17.0065 39.8124 17.4365 39.8124C17.8534 39.8124 18.1954 39.7166 18.4625 39.5251C18.7297 39.3335 18.8632 39.0461 18.8632 38.6629V26.4342C18.8632 26.0246 18.7231 25.6745 18.443 25.3838C18.1629 25.0931 17.8274 24.9478 17.4365 24.9478C17.0326 24.9478 16.6873 25.0931 16.4007 25.3838C16.1141 25.6745 15.9707 26.0246 15.9707 26.4342L15.9707 38.6629ZM20.4658 38.7224C20.4658 39.4491 20.9479 39.8124 21.9121 39.8124C22.8762 39.8124 23.3583 39.4491 23.3583 38.7224V18.9028C23.3583 17.7929 23.026 17.1653 22.3615 17.0199C21.9316 16.9142 21.5081 17.0397 21.0912 17.3965C20.6742 17.7533 20.4658 18.2553 20.4658 18.9028L20.4658 38.7224ZM25.0391 39.2971V17.7334C25.0391 17.0464 25.2411 16.6368 25.645 16.5046C26.5179 16.2932 27.3844 16.1875 28.2443 16.1875C30.2378 16.1875 32.0945 16.6632 33.8143 17.6145C35.5342 18.5658 36.9251 19.864 37.987 21.5091C39.0489 23.1541 39.6645 24.9676 39.8339 26.9496C40.6287 26.606 41.4755 26.4342 42.3746 26.4342C44.1987 26.4342 45.7589 27.0883 47.0553 28.3964C48.3518 29.7045 49 31.2769 49 33.1135C49 34.9633 48.3518 36.5423 47.0553 37.8504C45.7589 39.1585 44.2052 39.8125 42.3941 39.8125L25.3908 39.7927C25.2735 39.753 25.1856 39.6803 25.127 39.5747C25.0683 39.469 25.0391 39.3764 25.0391 39.2971Z" fill="#FF4300"/>
</g>
</g>
<defs>
<clipPath id="clip0_2635_8167">
<rect width="56" height="56" fill="white"/>
</clipPath>
<clipPath id="clip1_2635_8167">
<rect width="56" height="56" fill="white"/>
</clipPath>
<clipPath id="clip2_2635_8167">
<rect width="42" height="42" fill="white" transform="translate(7 7)"/>
</clipPath>
</defs>
</svg>
