<svg width="56" height="56" viewBox="0 0 56 56" fill="none" xmlns="http://www.w3.org/2000/svg">
<g clip-path="url(#clip0_2635_8131)">
<path fill-rule="evenodd" clip-rule="evenodd" d="M11.4844 0H44.5156C47.5589 0.00841846 50.4751 1.22108 52.627 3.373C54.7789 5.52491 55.9916 8.44112 56 11.4844V44.5156C55.9916 47.5589 54.7789 50.4751 52.627 52.627C50.4751 54.7789 47.5589 55.9916 44.5156 56H11.4844C8.44112 55.9916 5.52491 54.7789 3.373 52.627C1.22108 50.4751 0.00841846 47.5589 0 44.5156L0 11.4844C0.00841846 8.44112 1.22108 5.52491 3.373 3.373C5.52491 1.22108 8.44112 0.00841846 11.4844 0Z" fill="white"/>
<g clip-path="url(#clip1_2635_8131)">
<path d="M28 56C43.464 56 56 43.464 56 28C56 12.536 43.464 0 28 0C12.536 0 0 12.536 0 28C0 43.464 12.536 56 28 56Z" fill="white"/>
</g>
<g clip-path="url(#clip2_2635_8131)">
<path fill-rule="evenodd" clip-rule="evenodd" d="M39.21 25.91C33.13 22.3 22.965 21.92 17.17 23.725C16.22 24.01 15.27 23.44 14.985 22.585C14.7 21.635 15.27 20.685 16.125 20.4C22.87 18.405 33.985 18.785 41.015 22.965C41.87 23.44 42.155 24.58 41.68 25.435C41.205 26.1 40.065 26.385 39.21 25.91ZM39.02 31.23C38.545 31.895 37.69 32.18 37.025 31.705C31.895 28.57 24.105 27.62 18.12 29.52C17.36 29.71 16.505 29.33 16.315 28.57C16.125 27.81 16.505 26.955 17.265 26.765C24.2 24.675 32.75 25.72 38.64 29.33C39.21 29.615 39.495 30.565 39.02 31.23ZM36.74 36.455C36.36 37.025 35.695 37.215 35.125 36.835C30.66 34.08 25.055 33.51 18.405 35.03C17.74 35.22 17.17 34.745 16.98 34.175C16.79 33.51 17.265 32.94 17.835 32.75C25.055 31.135 31.325 31.8 36.265 34.84C36.93 35.125 37.025 35.885 36.74 36.455ZM28 9C17.55 9 9 17.55 9 28C9 38.45 17.55 47 28 47C38.45 47 47 38.45 47 28C47 17.55 38.545 9 28 9Z" fill="#00DA5A"/>
</g>
</g>
<defs>
<clipPath id="clip0_2635_8131">
<rect width="56" height="56" fill="white"/>
</clipPath>
<clipPath id="clip1_2635_8131">
<rect width="56" height="56" fill="white"/>
</clipPath>
<clipPath id="clip2_2635_8131">
<rect width="38" height="38" fill="white" transform="translate(9 9)"/>
</clipPath>
</defs>
</svg>
