<svg width="56" height="56" viewBox="0 0 56 56" fill="none" xmlns="http://www.w3.org/2000/svg">
<g clip-path="url(#clip0_2730_15851)">
<path fill-rule="evenodd" clip-rule="evenodd" d="M11.4844 0H44.5156C47.5589 0.00841846 50.4751 1.22108 52.627 3.373C54.7789 5.52491 55.9916 8.44112 56 11.4844V44.5156C55.9916 47.5589 54.7789 50.4751 52.627 52.627C50.4751 54.7789 47.5589 55.9916 44.5156 56H11.4844C8.44112 55.9916 5.52491 54.7789 3.373 52.627C1.22108 50.4751 0.00841846 47.5589 0 44.5156L0 11.4844C0.00841846 8.44112 1.22108 5.52491 3.373 3.373C5.52491 1.22108 8.44112 0.00841846 11.4844 0Z" fill="white"/>
<g clip-path="url(#clip1_2730_15851)">
<path d="M28 56C43.464 56 56 43.464 56 28C56 12.536 43.464 0 28 0C12.536 0 0 12.536 0 28C0 43.464 12.536 56 28 56Z" fill="white"/>
</g>
<g clip-path="url(#clip2_2730_15851)">
<path d="M39.4907 44.4588V34.2429H44.0285V48.9988H10V34.2429H14.5378V44.4588H39.4907Z" fill="#BCBBBB"/>
<path d="M36.0867 36.5129L36.9939 33.1069L18.7313 29.3628L17.9375 33.1069L36.0867 36.5129ZM20.4343 24.2538L37.4475 32.1997L39.035 28.7937L22.0218 20.8499L20.4343 24.2538ZM25.1968 15.8543L39.4885 27.8866L41.8719 25.0497L27.4667 13.0174L25.0834 15.8543H25.1968ZM34.3858 7.00122L31.3221 9.27119L42.5522 24.3672L45.6139 22.0972L34.3858 7.00122ZM17.9375 41.0528H36.0867V37.6489H17.9375V41.0528Z" fill="#F48024"/>
</g>
</g>
<defs>
<clipPath id="clip0_2730_15851">
<rect width="56" height="56" fill="white"/>
</clipPath>
<clipPath id="clip1_2730_15851">
<rect width="56" height="56" fill="white"/>
</clipPath>
<clipPath id="clip2_2730_15851">
<rect width="35.616" height="42" fill="white" transform="translate(10 7)"/>
</clipPath>
</defs>
</svg>
