<svg width="56" height="56" viewBox="0 0 56 56" fill="none" xmlns="http://www.w3.org/2000/svg">
<g clip-path="url(#clip0_2730_15489)">
<path fill-rule="evenodd" clip-rule="evenodd" d="M11.4844 0H44.5156C47.5589 0.00841846 50.4751 1.22108 52.627 3.373C54.7789 5.52491 55.9916 8.44112 56 11.4844V44.5156C55.9916 47.5589 54.7789 50.4751 52.627 52.627C50.4751 54.7789 47.5589 55.9916 44.5156 56H11.4844C8.44112 55.9916 5.52491 54.7789 3.373 52.627C1.22108 50.4751 0.00841846 47.5589 0 44.5156L0 11.4844C0.00841846 8.44112 1.22108 5.52491 3.373 3.373C5.52491 1.22108 8.44112 0.00841846 11.4844 0Z" fill="white"/>
<g clip-path="url(#clip1_2730_15489)">
<path d="M28 56C43.464 56 56 43.464 56 28C56 12.536 43.464 0 28 0C12.536 0 0 12.536 0 28C0 43.464 12.536 56 28 56Z" fill="white"/>
</g>
<g clip-path="url(#clip2_2730_15489)">
<path d="M28.3774 48.9989C28.3502 48.9796 28.3207 48.9535 28.2889 48.9274C27.7831 48.3002 24.6536 44.3801 21.4651 39.3518C20.5078 37.7502 19.8874 36.5003 20.0076 36.177C20.3195 35.3365 25.8786 34.876 27.5902 35.6382C28.1109 35.8696 28.0972 36.1747 28.0972 36.354C28.0972 37.123 28.0598 39.1874 28.0598 39.1874C28.0598 39.6139 28.4058 39.9598 28.8334 39.9587C29.261 39.9587 29.6058 39.6105 29.6047 39.1828L29.5968 34.0412H29.5956C29.5956 33.5943 29.1079 33.4831 29.0171 33.4649C28.1233 33.4593 26.3096 33.4547 24.3609 33.4547C20.062 33.4547 19.1002 33.6317 18.372 33.153C16.7896 32.1186 14.2024 25.145 14.1422 21.2204C14.0572 15.6852 17.3352 10.8928 21.954 8.5188C23.8823 7.54786 26.0601 7 28.3627 7C35.6719 7 41.6927 12.5171 42.4935 19.6166C42.4935 19.6222 42.4935 19.6302 42.4946 19.6358C42.6421 21.352 33.1833 21.7161 31.3129 21.217C31.026 21.141 30.9534 20.8461 30.9534 20.7202C30.9522 19.4158 30.9431 15.743 30.9431 15.743C30.942 15.3154 30.5949 14.9706 30.1673 14.9706C29.7408 14.9706 29.3949 15.3188 29.3949 15.7464L29.4119 22.5112C29.4255 22.9377 29.7828 23.0523 29.8815 23.0727C30.9454 23.0727 33.4329 23.0716 35.7502 23.0716C38.882 23.0716 40.1977 23.4345 41.0734 24.1004C41.6553 24.5439 41.8798 25.3934 41.6836 26.4982C39.9266 36.3211 28.7994 48.493 28.3808 49L28.3774 48.9989Z" fill="#FC8019"/>
</g>
</g>
<defs>
<clipPath id="clip0_2730_15489">
<rect width="56" height="56" fill="white"/>
</clipPath>
<clipPath id="clip1_2730_15489">
<rect width="56" height="56" fill="white"/>
</clipPath>
<clipPath id="clip2_2730_15489">
<rect width="28.6944" height="42" fill="white" transform="translate(14 7)"/>
</clipPath>
</defs>
</svg>
