<svg width="56" height="56" viewBox="0 0 56 56" fill="none" xmlns="http://www.w3.org/2000/svg">
<g clip-path="url(#clip0_2635_6623)">
<path fill-rule="evenodd" clip-rule="evenodd" d="M11.4844 0H44.5156C47.5589 0.00841846 50.4751 1.22108 52.627 3.373C54.7789 5.52491 55.9916 8.44112 56 11.4844V44.5156C55.9916 47.5589 54.7789 50.4751 52.627 52.627C50.4751 54.7789 47.5589 55.9916 44.5156 56H11.4844C8.44112 55.9916 5.52491 54.7789 3.373 52.627C1.22108 50.4751 0.00841846 47.5589 0 44.5156L0 11.4844C0.00841846 8.44112 1.22108 5.52491 3.373 3.373C5.52491 1.22108 8.44112 0.00841846 11.4844 0Z" fill="#4EA4F6"/>
<g clip-path="url(#clip1_2635_6623)">
<path d="M28 56C43.464 56 56 43.464 56 28C56 12.536 43.464 0 28 0C12.536 0 0 12.536 0 28C0 43.464 12.536 56 28 56Z" fill="#4EA4F6"/>
<path d="M11.6516 27.7573C11.6516 27.7573 25.6516 22.0117 30.5071 19.9886C32.3684 19.1793 38.6805 16.5897 38.6805 16.5897C38.6805 16.5897 41.5938 15.4568 41.351 18.2082C41.2701 19.3412 40.6227 23.3065 39.9753 27.5955C39.0042 33.6649 37.9522 40.3007 37.9522 40.3007C37.9522 40.3007 37.7903 42.162 36.4146 42.4857C35.0389 42.8094 32.773 41.3527 32.3684 41.029C32.0447 40.7862 26.299 37.1446 24.1949 35.3643C23.6285 34.8787 22.9811 33.9076 24.2759 32.7747C27.1892 30.1042 30.6689 26.7862 32.773 24.6822C33.7441 23.7111 34.7152 21.4452 30.6689 24.1966C24.9233 28.162 19.2585 31.8845 19.2585 31.8845C19.2585 31.8845 17.9637 32.6938 15.536 31.9654C13.1082 31.2371 10.2759 30.266 10.2759 30.266C10.2759 30.266 8.33367 29.0521 11.6516 27.7573Z" fill="white"/>
</g>
</g>
<defs>
<clipPath id="clip0_2635_6623">
<rect width="56" height="56" fill="white"/>
</clipPath>
<clipPath id="clip1_2635_6623">
<rect width="56" height="56" fill="white"/>
</clipPath>
</defs>
</svg>
