<svg width="56" height="56" viewBox="0 0 56 56" fill="none" xmlns="http://www.w3.org/2000/svg">
<g clip-path="url(#clip0_2744_16076)">
<path d="M27.979 0.00822119C16.302 0.00822119 12.8894 0.0164434 12.2233 0.0740058C9.83035 0.271362 8.33372 0.649632 6.71378 1.46373C5.46386 2.08869 4.47707 2.80411 3.49851 3.81556C1.7223 5.65756 0.645065 7.92717 0.258574 10.6162C0.0694409 11.9236 0.0118779 12.195 0.00365476 18.8722C-0.00456845 21.1007 0.00365476 24.0282 0.00365476 27.9589C0.00365476 39.6276 0.0201014 43.0402 0.0694406 43.7063C0.266798 46.0417 0.628619 47.5054 1.4016 49.109C2.88177 52.1844 5.71055 54.4869 9.04092 55.3504C10.1922 55.6464 11.4668 55.8109 13.1032 55.8849C13.7939 55.9178 20.8577 55.9342 27.9214 55.9342C34.9851 55.9342 42.0489 55.926 42.7232 55.8931C44.6145 55.8026 45.7164 55.6546 46.9334 55.3421C50.2885 54.4787 53.0597 52.2091 54.5728 49.0925C55.3293 47.5301 55.7158 46.0006 55.8885 43.7885C55.9296 43.3034 55.9461 35.6229 55.9461 27.9507C55.9461 20.2784 55.9296 12.6062 55.8885 12.121C55.7158 9.87606 55.3293 8.36299 54.5399 6.76769C53.8985 5.46021 53.1831 4.48164 52.1469 3.48664C50.2967 1.71865 48.0353 0.641408 45.3381 0.254918C44.0306 0.0657836 43.7675 0.0082232 37.082 0H27.979V0.00822119Z" fill="url(#paint0_radial_2744_16076)"/>
<path d="M27.979 0.00822119C16.302 0.00822119 12.8894 0.0164434 12.2233 0.0740058C9.83035 0.271362 8.33372 0.649632 6.71378 1.46373C5.46386 2.08869 4.47707 2.80411 3.49851 3.81556C1.7223 5.65756 0.645065 7.92717 0.258574 10.6162C0.0694409 11.9236 0.0118779 12.195 0.00365476 18.8722C-0.00456845 21.1007 0.00365476 24.0282 0.00365476 27.9589C0.00365476 39.6276 0.0201014 43.0402 0.0694406 43.7063C0.266798 46.0417 0.628619 47.5054 1.4016 49.109C2.88177 52.1844 5.71055 54.4869 9.04092 55.3504C10.1922 55.6464 11.4668 55.8109 13.1032 55.8849C13.7939 55.9178 20.8577 55.9342 27.9214 55.9342C34.9851 55.9342 42.0489 55.926 42.7232 55.8931C44.6145 55.8026 45.7164 55.6546 46.9334 55.3421C50.2885 54.4787 53.0597 52.2091 54.5728 49.0925C55.3293 47.5301 55.7158 46.0006 55.8885 43.7885C55.9296 43.3034 55.9461 35.6229 55.9461 27.9507C55.9461 20.2784 55.9296 12.6062 55.8885 12.121C55.7158 9.87606 55.3293 8.36299 54.5399 6.76769C53.8985 5.46021 53.1831 4.48164 52.1469 3.48664C50.2967 1.71865 48.0353 0.641408 45.3381 0.254918C44.0306 0.0657836 43.7675 0.0082232 37.082 0H27.979V0.00822119Z" fill="url(#paint1_radial_2744_16076)"/>
<path d="M27.979 0.00822119C16.302 0.00822119 12.8894 0.0164434 12.2233 0.0740058C9.83035 0.271362 8.33372 0.649632 6.71378 1.46373C5.46386 2.08869 4.47707 2.80411 3.49851 3.81556C1.7223 5.65756 0.645065 7.92717 0.258574 10.6162C0.0694409 11.9236 0.0118779 12.195 0.00365476 18.8722C-0.00456845 21.1007 0.00365476 24.0282 0.00365476 27.9589C0.00365476 39.6276 0.0201014 43.0402 0.0694406 43.7063C0.266798 46.0417 0.628619 47.5054 1.4016 49.109C2.88177 52.1844 5.71055 54.4869 9.04092 55.3504C10.1922 55.6464 11.4668 55.8109 13.1032 55.8849C13.7939 55.9178 20.8577 55.9342 27.9214 55.9342C34.9851 55.9342 42.0489 55.926 42.7232 55.8931C44.6145 55.8026 45.7164 55.6546 46.9334 55.3421C50.2885 54.4787 53.0597 52.2091 54.5728 49.0925C55.3293 47.5301 55.7158 46.0006 55.8885 43.7885C55.9296 43.3034 55.9461 35.6229 55.9461 27.9507C55.9461 20.2784 55.9296 12.6062 55.8885 12.121C55.7158 9.87606 55.3293 8.36299 54.5399 6.76769C53.8985 5.46021 53.1831 4.48164 52.1469 3.48664C50.2967 1.71865 48.0353 0.641408 45.3381 0.254918C44.0306 0.0657836 43.7675 0.0082232 37.082 0H27.979V0.00822119Z" fill="url(#paint2_radial_2744_16076)"/>
<path d="M27.979 0.00822119C16.302 0.00822119 12.8894 0.0164434 12.2233 0.0740058C9.83035 0.271362 8.33372 0.649632 6.71378 1.46373C5.46386 2.08869 4.47707 2.80411 3.49851 3.81556C1.7223 5.65756 0.645065 7.92717 0.258574 10.6162C0.0694409 11.9236 0.0118779 12.195 0.00365476 18.8722C-0.00456845 21.1007 0.00365476 24.0282 0.00365476 27.9589C0.00365476 39.6276 0.0201014 43.0402 0.0694406 43.7063C0.266798 46.0417 0.628619 47.5054 1.4016 49.109C2.88177 52.1844 5.71055 54.4869 9.04092 55.3504C10.1922 55.6464 11.4668 55.8109 13.1032 55.8849C13.7939 55.9178 20.8577 55.9342 27.9214 55.9342C34.9851 55.9342 42.0489 55.926 42.7232 55.8931C44.6145 55.8026 45.7164 55.6546 46.9334 55.3421C50.2885 54.4787 53.0597 52.2091 54.5728 49.0925C55.3293 47.5301 55.7158 46.0006 55.8885 43.7885C55.9296 43.3034 55.9461 35.6229 55.9461 27.9507C55.9461 20.2784 55.9296 12.6062 55.8885 12.121C55.7158 9.87606 55.3293 8.36299 54.5399 6.76769C53.8985 5.46021 53.1831 4.48164 52.1469 3.48664C50.2967 1.71865 48.0353 0.641408 45.3381 0.254918C44.0306 0.0657836 43.7675 0.0082232 37.082 0H27.979V0.00822119Z" fill="url(#paint3_radial_2744_16076)"/>
<g clip-path="url(#clip1_2744_16076)">
<path d="M37.8419 26.2763C37.6644 26.1898 37.4821 26.108 37.2975 26.0286C36.9774 20.1125 33.7437 16.7269 28.3183 16.6825H28.2435C24.9981 16.6825 22.2971 18.0681 20.6358 20.5892L23.6219 22.6547C24.8626 20.7714 26.8112 20.3695 28.2459 20.3695H28.2949C30.0824 20.3812 31.4305 20.8999 32.3021 21.914C32.9376 22.65 33.3628 23.671 33.5731 24.9515C31.8745 24.6756 30.1501 24.5925 28.4328 24.7038C23.2831 24.9912 19.9676 28.01 20.1895 32.19C20.2371 33.2224 20.5322 34.2283 21.0498 35.1229C21.5674 36.0175 22.2925 36.7746 23.1639 37.3303C24.8134 38.3661 26.749 38.8521 28.6921 38.7182C31.3908 38.5687 33.5077 37.55 34.9844 35.6574C36.1059 34.2274 36.8139 32.3746 37.127 30.0497C38.3483 30.7427 39.3173 31.8066 39.8934 33.0872C40.7883 35.1737 40.842 38.6037 38.0429 41.4005C35.5919 43.8492 32.6432 44.9053 28.1898 44.9404C23.248 44.9053 19.512 43.3212 17.082 40.2323C14.8156 37.3186 13.6403 33.1409 13.5982 27.795C13.6403 22.449 14.8156 18.2714 17.103 15.3787C19.533 12.2899 23.2691 10.7057 28.2108 10.6707C33.1876 10.7057 36.9891 12.3062 39.5102 15.4021C40.7486 16.9232 41.6808 18.8368 42.2953 21.0682L45.8001 20.1336C45.1421 17.5544 43.9479 15.1429 42.2953 13.0563C39.0336 9.08184 34.2998 7.04206 28.2108 7H28.1874C22.1125 7.04206 17.4278 9.08885 14.2875 13.0749C11.4907 16.6358 10.0491 21.5822 10 27.781V27.809C10.0491 34.0078 11.4907 38.9542 14.2875 42.508C17.4278 46.5012 22.1055 48.5479 28.1874 48.583H28.2108C33.6175 48.5456 37.4284 47.1297 40.5686 43.9941C44.6762 39.8888 44.5407 34.7461 43.1972 31.5872C42.2276 29.3301 40.3747 27.4913 37.8419 26.2763ZM28.5075 35.0522C26.2458 35.1807 23.8976 34.1643 23.7808 31.9914C23.6943 30.3792 24.928 28.5801 28.6477 28.3651C29.073 28.3417 29.4912 28.3301 29.9001 28.3301C31.1648 28.3226 32.4267 28.4503 33.6642 28.7109C33.2343 34.0639 30.7226 34.9307 28.5075 35.0522Z" fill="white"/>
</g>
</g>
<defs>
<radialGradient id="paint0_radial_2744_16076" cx="0" cy="0" r="1" gradientUnits="userSpaceOnUse" gradientTransform="translate(54.1342 26.2258) rotate(164.25) scale(35.7403 25.7493)">
<stop stop-color="#FF005F"/>
<stop offset="1" stop-color="#FC01D8"/>
</radialGradient>
<radialGradient id="paint1_radial_2744_16076" cx="0" cy="0" r="1" gradientUnits="userSpaceOnUse" gradientTransform="translate(14.8601 60.252) rotate(-90) scale(44.6498 47.3724)">
<stop stop-color="#FFCC00"/>
<stop offset="0.1242" stop-color="#FFCC00"/>
<stop offset="0.5672" stop-color="#FE4A05"/>
<stop offset="0.6942" stop-color="#FF0F3F"/>
<stop offset="1" stop-color="#FE0657" stop-opacity="0"/>
</radialGradient>
<radialGradient id="paint2_radial_2744_16076" cx="0" cy="0" r="1" gradientUnits="userSpaceOnUse" gradientTransform="translate(29.3848 55.1591) rotate(-59.8702) scale(18.4628 24.0368)">
<stop stop-color="#FFCC00"/>
<stop offset="1" stop-color="#FFCC00" stop-opacity="0"/>
</radialGradient>
<radialGradient id="paint3_radial_2744_16076" cx="0" cy="0" r="1" gradientUnits="userSpaceOnUse" gradientTransform="translate(7.58681 2.29108) rotate(164.274) scale(35.3442 12.0416)">
<stop stop-color="#780CFF"/>
<stop offset="1" stop-color="#820BFF" stop-opacity="0"/>
</radialGradient>
<clipPath id="clip0_2744_16076">
<rect width="56" height="56" fill="white"/>
</clipPath>
<clipPath id="clip1_2744_16076">
<rect width="35.7814" height="41.59" fill="white" transform="translate(10 7)"/>
</clipPath>
</defs>
</svg>
