<svg width="56" height="56" viewBox="0 0 56 56" fill="none" xmlns="http://www.w3.org/2000/svg">
<g clip-path="url(#clip0_2730_15583)">
<path fill-rule="evenodd" clip-rule="evenodd" d="M11.4844 0H44.5156C47.5589 0.00841846 50.4751 1.22108 52.627 3.373C54.7789 5.52491 55.9916 8.44112 56 11.4844V44.5156C55.9916 47.5589 54.7789 50.4751 52.627 52.627C50.4751 54.7789 47.5589 55.9916 44.5156 56H11.4844C8.44112 55.9916 5.52491 54.7789 3.373 52.627C1.22108 50.4751 0.00841846 47.5589 0 44.5156L0 11.4844C0.00841846 8.44112 1.22108 5.52491 3.373 3.373C5.52491 1.22108 8.44112 0.00841846 11.4844 0Z" fill="white"/>
<g clip-path="url(#clip1_2730_15583)">
<path d="M28 56C43.464 56 56 43.464 56 28C56 12.536 43.464 0 28 0C12.536 0 0 12.536 0 28C0 43.464 12.536 56 28 56Z" fill="white"/>
</g>
<path fill-rule="evenodd" clip-rule="evenodd" d="M11.8404 23.0425H4.19245C3.87647 23.0425 3.57341 23.1679 3.34983 23.3912C3.12625 23.6144 3.00044 23.9173 3.00001 24.2333V31.87C2.99937 32.027 3.02975 32.1826 3.08939 32.3278C3.14903 32.4731 3.23677 32.6051 3.34756 32.7163C3.45835 32.8276 3.59002 32.9158 3.735 32.9761C3.87999 33.0363 4.03545 33.0673 4.19245 33.0673H11.8404C11.9973 33.0671 12.1526 33.0359 12.2974 32.9756C12.4422 32.9153 12.5737 32.827 12.6843 32.7158C12.7949 32.6045 12.8825 32.4726 12.942 32.3275C13.0016 32.1823 13.0319 32.0269 13.0313 31.87V24.2333C13.0308 23.9176 12.9052 23.615 12.682 23.3917C12.4588 23.1685 12.1561 23.0429 11.8404 23.0425ZM7.3262 30.263C7.32599 30.3155 7.31542 30.3674 7.2951 30.4158C7.27478 30.4641 7.2451 30.508 7.20777 30.5449C7.17044 30.5818 7.1262 30.6109 7.07757 30.6307C7.02895 30.6504 6.97691 30.6603 6.92444 30.6599H5.2531C5.14811 30.6595 5.04755 30.6175 4.97346 30.5431C4.89937 30.4687 4.85777 30.368 4.85777 30.263V25.2891C4.85777 25.1841 4.89937 25.0834 4.97346 25.009C5.04755 24.9346 5.14811 24.8926 5.2531 24.8922H6.92444C7.02959 24.8926 7.1303 24.9346 7.20465 25.0089C7.279 25.0833 7.32096 25.184 7.32138 25.2891L7.3262 30.263ZM11.1831 27.9794C11.1831 28.0319 11.1727 28.0839 11.1525 28.1324C11.1322 28.1809 11.1025 28.2248 11.0652 28.2618C11.0278 28.2987 10.9835 28.3278 10.9348 28.3475C10.886 28.3671 10.8339 28.3769 10.7814 28.3763H9.11004C9.00489 28.3759 8.90417 28.3339 8.82982 28.2596C8.75547 28.1852 8.71352 28.0845 8.71309 27.9794V25.2891C8.71352 25.184 8.75547 25.0833 8.82982 25.0089C8.90417 24.9346 9.00489 24.8926 9.11004 24.8922H10.7814C10.8864 24.8926 10.9869 24.9346 11.061 25.009C11.1351 25.0834 11.1767 25.1841 11.1767 25.2891L11.1831 27.9794Z" fill="url(#paint0_linear_2730_15583)"/>
<path d="M23.784 23.7769V25.715H21.4876V33.0673H19.273V25.715H16.9766V23.7769H23.784ZM26.6028 33.0673H24.5554V25.8355H26.6028V27.2208C26.9917 26.2453 27.6137 25.6652 28.7209 25.7359V27.8781C27.2746 27.7656 26.6028 28.1192 26.6028 29.2779V33.0673ZM39.906 33.1235C38.5641 33.1235 37.7204 32.4807 37.7204 30.9604V23.0425H39.7823V30.6776C39.7823 31.1163 40.0716 31.2722 40.4251 31.2722C40.5271 31.2743 40.6291 31.2694 40.7304 31.2577V33.04C40.4608 33.1057 40.1834 33.1338 39.906 33.1235ZM44.2065 33.1235C42.8646 33.1235 42.0193 32.4807 42.0193 30.9604V23.0425H44.0812V30.6776C44.0812 31.1163 44.372 31.2722 44.732 31.2722C44.8335 31.2743 44.935 31.2695 45.0358 31.2577V33.04C44.7646 33.1063 44.4855 33.1344 44.2065 33.1235ZM46.0241 29.4482C46.0241 27.2144 47.3097 25.6861 49.5243 25.6861C51.7388 25.6861 52.9971 27.2096 52.9971 29.4482C52.9971 31.6868 51.7243 33.2376 49.5243 33.2376C47.3242 33.2376 46.0241 31.6675 46.0241 29.4482ZM48.0313 29.4482C48.0313 30.5362 48.4877 31.3992 49.5243 31.3992C50.5608 31.3992 50.9915 30.5362 50.9915 29.4482C50.9915 28.3602 50.5496 27.5197 49.5243 27.5197C48.499 27.5197 48.0313 28.3586 48.0313 29.4482ZM31.4851 30.1023C32.0583 30.1653 32.6344 30.199 33.211 30.2035C34.7795 30.2035 36.1037 29.7825 36.1037 28.2638C36.1037 26.7901 34.7426 25.6829 33.105 25.6829C30.9001 25.6829 29.4875 27.2819 29.4875 29.5157C29.4875 31.8347 30.7056 33.2119 33.4585 33.2119C34.2752 33.2186 35.086 33.0736 35.8498 32.7845V31.052C35.1427 31.2786 34.3472 31.5036 33.5308 31.5036C32.4348 31.5036 31.6715 31.1436 31.4851 30.1023ZM33.0632 27.261C33.6433 27.261 34.1094 27.6547 34.1094 28.1931C34.1094 28.8857 33.3782 29.1027 32.5361 29.1027C32.1777 29.101 31.8199 29.0726 31.4658 29.0175C31.4925 28.6798 31.5894 28.3514 31.7502 28.0533C31.8793 27.817 32.0689 27.6193 32.2997 27.4806C32.5304 27.342 32.794 27.2673 33.0632 27.2642V27.261Z" fill="#293856"/>
</g>
<defs>
<linearGradient id="paint0_linear_2730_15583" x1="1565" y1="659.017" x2="1565" y2="23.0425" gradientUnits="userSpaceOnUse">
<stop stop-color="#0052CC"/>
<stop offset="1" stop-color="#2684FF"/>
</linearGradient>
<clipPath id="clip0_2730_15583">
<rect width="56" height="56" fill="white"/>
</clipPath>
<clipPath id="clip1_2730_15583">
<rect width="56" height="56" fill="white"/>
</clipPath>
</defs>
</svg>
