<svg width="56" height="56" viewBox="0 0 56 56" fill="none" xmlns="http://www.w3.org/2000/svg">
<g clip-path="url(#clip0_2635_8018)">
<path d="M7 0H49C52.8609 0 56 3.13906 56 7V49C56 52.8609 52.8609 56 49 56H7C3.13906 56 0 52.8609 0 49V7C0 3.13906 3.13906 0 7 0Z" fill="#589541"/>
<path d="M28 14.875C22.1703 14.875 17.7953 16.3406 13.4203 20.7156H6.125C6.125 20.7156 6.125 22.9031 9.04531 23.6359C7.73281 25.4188 6.125 28.525 6.125 30.9203C6.125 36.9359 10.3141 41.125 16.3297 41.125C19.7422 41.125 23.0781 39.2109 25.0797 36.75L28 41.125L30.9203 36.75C32.9219 39.2109 36.2578 41.125 39.6703 41.125C45.6859 41.125 49.875 36.9359 49.875 30.9203C49.875 28.525 48.2672 25.4297 46.9547 23.625C49.875 22.8922 49.875 20.7047 49.875 20.7047H42.5797C38.2047 16.3297 33.8297 14.875 28 14.875ZM28 16.3297C35.2953 16.3297 39.6703 20.7047 39.6703 20.7047C33.8297 20.7047 28 28 28 35.2953C28 28 22.1703 20.7156 16.3297 20.7156C16.3297 20.7047 20.7047 16.3297 28 16.3297ZM16.3297 23.625C20.3547 23.625 23.625 26.8844 23.625 30.9203C23.625 34.9453 20.3656 38.2156 16.3297 38.2156C12.2938 38.2156 9.03437 34.9563 9.03437 30.9203C9.04531 26.8953 12.3047 23.625 16.3297 23.625ZM39.6703 23.625C43.6953 23.625 46.9656 26.8844 46.9656 30.9203C46.9656 34.9453 43.7063 38.2156 39.6703 38.2156C35.6344 38.2156 32.375 34.9453 32.375 30.9203C32.375 26.8953 35.6344 23.625 39.6703 23.625ZM16.3297 26.5453C13.9125 26.5453 11.9547 28.5031 11.9547 30.9203C11.9547 33.3375 13.9125 35.2953 16.3297 35.2953C18.7469 35.2953 20.7047 33.3375 20.7047 30.9203C20.7047 28.5031 18.7469 26.5453 16.3297 26.5453ZM39.6703 26.5453C37.2531 26.5453 35.2953 28.5031 35.2953 30.9203C35.2953 33.3375 37.2531 35.2953 39.6703 35.2953C42.0875 35.2953 44.0453 33.3375 44.0453 30.9203C44.0453 28.5031 42.0875 26.5453 39.6703 26.5453ZM16.3297 28C17.9375 28 19.25 29.3125 19.25 30.9203C19.25 32.5281 17.9375 33.8406 16.3297 33.8406C14.7219 33.8406 13.4094 32.5391 13.4094 30.9203C13.4203 29.3125 14.7219 28 16.3297 28ZM39.6703 28C41.2781 28 42.5906 29.3125 42.5906 30.9203C42.5906 32.5281 41.2781 33.8406 39.6703 33.8406C38.0625 33.8406 36.75 32.5281 36.75 30.9203C36.75 29.3125 38.0516 28 39.6703 28ZM16.3297 29.4547C15.5203 29.4547 14.875 30.1109 14.875 30.9094C14.875 31.7188 15.5312 32.3641 16.3297 32.3641C17.1391 32.3641 17.7844 31.7078 17.7844 30.9094C17.7953 30.1109 17.1391 29.4547 16.3297 29.4547ZM39.6703 29.4547C38.8609 29.4547 38.2156 30.1109 38.2156 30.9094C38.2156 31.7188 38.8719 32.3641 39.6703 32.3641C40.4797 32.3641 41.125 31.7078 41.125 30.9094C41.125 30.1109 40.4688 29.4547 39.6703 29.4547Z" fill="white"/>
</g>
<defs>
<clipPath id="clip0_2635_8018">
<rect width="56" height="56" fill="white"/>
</clipPath>
</defs>
</svg>
