<svg width="56" height="56" viewBox="0 0 56 56" fill="none" xmlns="http://www.w3.org/2000/svg">
<g clip-path="url(#clip0_2744_15941)">
<path fill-rule="evenodd" clip-rule="evenodd" d="M11.4844 0H44.5156C47.5589 0.00841846 50.4751 1.22108 52.627 3.373C54.7789 5.52491 55.9916 8.44112 56 11.4844V44.5156C55.9916 47.5589 54.7789 50.4751 52.627 52.627C50.4751 54.7789 47.5589 55.9916 44.5156 56H11.4844C8.44112 55.9916 5.52491 54.7789 3.373 52.627C1.22108 50.4751 0.00841846 47.5589 0 44.5156L0 11.4844C0.00841846 8.44112 1.22108 5.52491 3.373 3.373C5.52491 1.22108 8.44112 0.00841846 11.4844 0Z" fill="white"/>
<g clip-path="url(#clip1_2744_15941)">
<path d="M28 56C43.464 56 56 43.464 56 28C56 12.536 43.464 0 28 0C12.536 0 0 12.536 0 28C0 43.464 12.536 56 28 56Z" fill="white"/>
</g>
<g clip-path="url(#clip2_2744_15941)">
<path d="M49.052 23.2867H32.9968L28.0375 8L23.063 23.2867L7.00781 23.2715L20.0102 32.7285L15.0351 48L28.0375 38.5582L41.0241 48L36.0648 32.7285L49.052 23.2867Z" fill="#00B67A"/>
<path d="M37.1745 36.1861L36.0586 32.7285L28.0312 38.5582L37.1745 36.1861Z" fill="#005128"/>
</g>
</g>
<defs>
<clipPath id="clip0_2744_15941">
<rect width="56" height="56" fill="white"/>
</clipPath>
<clipPath id="clip1_2744_15941">
<rect width="56" height="56" fill="white"/>
</clipPath>
<clipPath id="clip2_2744_15941">
<rect width="42.0521" height="40" fill="white" transform="translate(7 8)"/>
</clipPath>
</defs>
</svg>
