<svg width="56" height="56" viewBox="0 0 56 56" fill="none" xmlns="http://www.w3.org/2000/svg">
<g clip-path="url(#clip0_2635_6227)">
<path d="M0 0.00341797H55.888V55.9964H0V0.00341797Z" fill="#314358"/>
<path d="M36.7123 37.3506C36.0629 37.6603 34.8212 37.9298 33.8949 37.9529C31.099 38.0277 30.5563 35.989 30.5338 34.5111V23.6395H37.5469V18.3517H30.5581V9.45557H25.4437C25.3595 9.45557 25.2125 9.52928 25.1917 9.71628C24.8925 12.4389 23.6189 17.2176 18.3203 19.1284V23.6393H21.8549V35.0494C21.8549 38.9564 24.7368 44.507 32.3446 44.3762C34.9115 44.3322 37.7623 43.2578 38.3918 42.3302L36.7123 37.3506Z" fill="white"/>
</g>
<defs>
<clipPath id="clip0_2635_6227">
<rect width="55.888" height="56" rx="6" fill="white"/>
</clipPath>
</defs>
</svg>
