<svg width="52" height="52" viewBox="0 0 52 52" fill="none" xmlns="http://www.w3.org/2000/svg">
<path d="M52 8.125C52 3.63769 48.3623 0 43.875 0H8.125C3.63769 0 0 3.63769 0 8.125V43.875C0 48.3623 3.63769 52 8.125 52H43.875C48.3623 52 52 48.3623 52 43.875V8.125Z" fill="#9146FF"/>
<path d="M19.5032 15.3203L14.8604 19.9632V36.6775H20.4318V41.3203L25.0746 36.6775H28.7889L37.1461 28.3203V15.3203H19.5032ZM35.2889 27.3917L31.5746 31.106H27.8603L24.6103 34.356V31.106H20.4318V17.1775H35.2889V27.3917Z" fill="white"/>
<path d="M32.5032 20.4275H30.6461V25.9989H32.5032V20.4275Z" fill="white"/>
<path d="M27.3961 20.4275H25.5389V25.9989H27.3961V20.4275Z" fill="white"/>
</svg>
