<svg width="56" height="56" viewBox="0 0 56 56" fill="none" xmlns="http://www.w3.org/2000/svg">
<g clip-path="url(#clip0_2730_15860)">
<path fill-rule="evenodd" clip-rule="evenodd" d="M11.4844 0H44.5156C47.5589 0.00841846 50.4751 1.22108 52.627 3.373C54.7789 5.52491 55.9916 8.44112 56 11.4844V44.5156C55.9916 47.5589 54.7789 50.4751 52.627 52.627C50.4751 54.7789 47.5589 55.9916 44.5156 56H11.4844C8.44112 55.9916 5.52491 54.7789 3.373 52.627C1.22108 50.4751 0.00841846 47.5589 0 44.5156L0 11.4844C0.00841846 8.44112 1.22108 5.52491 3.373 3.373C5.52491 1.22108 8.44112 0.00841846 11.4844 0Z" fill="white"/>
<g clip-path="url(#clip1_2730_15860)">
<path d="M28 56C43.464 56 56 43.464 56 28C56 12.536 43.464 0 28 0C12.536 0 0 12.536 0 28C0 43.464 12.536 56 28 56Z" fill="white"/>
</g>
<path d="M7.61098 17.5321C10.2505 14.8405 13.5765 13.6107 17.6185 13.8801C21.5111 14.1395 25.4774 16.06 28.319 18.8899C30.734 21.295 31.6473 23.651 31.6158 27.172C31.8842 26.5975 32.4086 26.1441 33.2471 26.1441C34.5155 26.1441 35.0748 27.1761 35.0748 28.0665V28.4209H32.2622C32.2622 29.0434 32.6246 29.516 33.2471 29.516C33.6882 29.516 34.0902 29.2638 34.2871 28.8463L34.9881 29.1221C34.5864 29.9019 34.1216 30.2408 33.2471 30.2408C32.2913 30.2408 31.7437 29.6517 31.5181 28.9655C31.1695 32.2766 29.8633 35.1779 27.5876 37.5942C24.8426 40.5086 21.7219 42.0664 18.1269 42.1232L18.0094 42.1246C14.3719 42.1503 11.1762 40.7009 8.40741 37.8747C5.6586 35.0687 4.18159 31.7257 4.01622 27.7908C3.84354 23.6599 5.0503 20.1428 7.61098 17.5321ZM17.6073 14.0474C13.6136 13.7812 10.3356 14.9934 7.73071 17.6496C5.20415 20.2255 4.01296 23.6972 4.18378 27.7838C4.34739 31.6768 5.8071 34.9807 8.52721 37.7573C11.2948 40.5823 14.486 42.0129 18.1242 41.9555L18.2385 41.9532C21.737 41.8662 24.779 40.3315 27.4655 37.4792C29.8469 34.9508 31.1539 31.887 31.4021 28.3705C31.3977 28.3107 31.3956 28.2513 31.3956 28.1925C31.3956 28.0475 31.4084 27.8989 31.4347 27.7511C31.573 23.9458 30.7122 21.5099 28.2006 19.0087C25.3867 16.2064 21.4578 14.3041 17.6073 14.0474ZM22.6723 26.2072L23.9477 29.117L25.3003 26.2072H26.2537L23.6609 31.7849H22.7073L23.4618 30.1621L21.7282 26.2072H22.6723ZM28.9102 26.1441C30.0683 26.1441 30.6827 26.9003 30.6827 28.1925C30.6827 29.453 30.0602 30.2409 28.8943 30.2409C28.4294 30.2409 28.0277 30.0202 27.8309 29.7367V31.7848H27.0114V26.2073H27.8309V26.6641C27.9806 26.404 28.4294 26.1441 28.9102 26.1441ZM40.4446 26.1441C41.0357 26.1441 41.5083 26.341 41.8628 26.7351C42.2173 27.129 42.3985 27.6174 42.3985 28.1925C42.3985 28.7675 42.2173 29.2561 41.8628 29.65C41.5083 30.0438 41.0357 30.2409 40.4446 30.2409C39.8538 30.2409 39.3733 30.0438 39.0186 29.65C38.6641 29.2561 38.4908 28.7675 38.4908 28.1925C38.4908 27.6174 38.6641 27.129 39.0186 26.7351C39.3733 26.341 39.8538 26.1441 40.4446 26.1441ZM21.5977 24.6631V25.4824H19.8577V30.1779H18.991V25.4824H17.251V24.6631H21.5977ZM45.17 26.1441C45.3512 26.1441 45.5165 26.1758 45.6742 26.2386L45.5323 26.9871C45.4063 26.9083 45.2489 26.8691 45.0676 26.8691C44.7761 26.8691 44.5239 27.0265 44.3114 27.3494C44.0985 27.6645 43.9961 28.1136 43.9961 28.7045V30.1778H43.1768V26.2073H43.9961V26.8691C44.2562 26.4042 44.7288 26.1441 45.17 26.1441ZM50.8656 26.1442C51.5824 26.1442 52 26.6168 52 27.3337V30.1777H51.1807V27.515C51.1807 27.0974 50.9522 26.869 50.5976 26.869C50.0856 26.869 49.668 27.5385 49.668 28.5864V30.1777H48.8486V27.515C48.8486 27.0974 48.6202 26.869 48.2658 26.869C47.7379 26.869 47.336 27.5385 47.336 28.6731V30.1777H46.5168V26.2072H47.336V26.8848C47.6592 26.3884 48.053 26.1442 48.5335 26.1442C49.0693 26.1442 49.5105 26.4672 49.6288 26.9634C49.9043 26.4357 50.3534 26.1442 50.8656 26.1442ZM37.5863 24.6001C37.8462 24.6001 38.0592 24.6472 38.2403 24.7418L38.0746 25.4351C37.9331 25.3641 37.7754 25.3247 37.6099 25.3247C37.2555 25.3247 37.0742 25.5297 37.0742 25.9473V26.2072H37.9487V26.9319H37.0742V30.1777H36.255V26.9319H35.7428V26.2072H36.255V26.0024C36.255 25.0648 36.7593 24.6001 37.5863 24.6001ZM28.7997 26.8689C28.5003 26.8689 28.2562 26.9871 28.0672 27.2315C27.878 27.4676 27.7836 27.7906 27.7836 28.1925C27.7836 28.5943 27.878 28.9171 28.0672 29.1615C28.2562 29.3978 28.5003 29.516 28.7997 29.516C29.0992 29.516 29.3434 29.3978 29.5326 29.1615C29.7216 28.9171 29.816 28.5943 29.816 28.1925C29.816 27.7906 29.7216 27.4676 29.5326 27.2315C29.3434 26.9871 29.0992 26.8689 28.7997 26.8689ZM40.4446 26.8689C40.1059 26.8689 39.838 27.0027 39.641 27.2629C39.452 27.5228 39.3576 27.8301 39.3576 28.1925C39.3576 28.5549 39.452 28.87 39.641 29.13C39.838 29.3901 40.1059 29.516 40.4446 29.516C40.7834 29.516 41.0514 29.3901 41.2404 29.13C41.4373 28.87 41.5319 28.5549 41.5319 28.1925C41.5319 27.8301 41.4373 27.5228 41.2404 27.2629C41.0514 27.0027 40.7834 26.8689 40.4446 26.8689ZM33.2471 26.8691C32.7193 26.8691 32.3725 27.2234 32.2781 27.7356H34.2083C34.1373 27.2392 33.8064 26.8691 33.2471 26.8691Z" fill="#262627"/>
</g>
<defs>
<clipPath id="clip0_2730_15860">
<rect width="56" height="56" fill="white"/>
</clipPath>
<clipPath id="clip1_2730_15860">
<rect width="56" height="56" fill="white"/>
</clipPath>
</defs>
</svg>
