<svg width="56" height="56" viewBox="0 0 56 56" fill="none" xmlns="http://www.w3.org/2000/svg">
<g clip-path="url(#clip0_2730_15529)">
<path fill-rule="evenodd" clip-rule="evenodd" d="M11.4844 0H44.5156C47.5589 0.00841846 50.4751 1.22108 52.627 3.373C54.7789 5.52491 55.9916 8.44112 56 11.4844V44.5156C55.9916 47.5589 54.7789 50.4751 52.627 52.627C50.4751 54.7789 47.5589 55.9916 44.5156 56H11.4844C8.44112 55.9916 5.52491 54.7789 3.373 52.627C1.22108 50.4751 0.00841846 47.5589 0 44.5156L0 11.4844C0.00841846 8.44112 1.22108 5.52491 3.373 3.373C5.52491 1.22108 8.44112 0.00841846 11.4844 0Z" fill="white"/>
<g clip-path="url(#clip1_2730_15529)">
<path d="M28 56C43.464 56 56 43.464 56 28C56 12.536 43.464 0 28 0C12.536 0 0 12.536 0 28C0 43.464 12.536 56 28 56Z" fill="white"/>
</g>
<g clip-path="url(#clip2_2730_15529)">
<path d="M37.6066 20.3163L27.8019 14.6586L18 20.3163V14.6586L27.8033 9.00098L37.608 14.6586V20.3163H37.6066Z" fill="#A435F0"/>
<path d="M18 25.0674H23.1356V37.5389C23.1356 40.7611 25.5426 42.332 27.8033 42.332C30.0835 42.332 32.4729 40.7193 32.4729 37.4957V25.0674H37.608V37.8363C37.608 40.8043 36.6746 43.0949 34.8072 44.6654C32.9389 46.2349 30.6055 46.9993 27.7601 46.9993C24.9175 46.9993 22.5827 46.2363 20.759 44.6654C18.9334 43.0964 18 40.8908 18 37.9631V25.0674Z" fill="black"/>
</g>
</g>
<defs>
<clipPath id="clip0_2730_15529">
<rect width="56" height="56" fill="white"/>
</clipPath>
<clipPath id="clip1_2730_15529">
<rect width="56" height="56" fill="white"/>
</clipPath>
<clipPath id="clip2_2730_15529">
<rect width="19.608" height="38" fill="white" transform="translate(18 9)"/>
</clipPath>
</defs>
</svg>
