<svg width="56" height="56" viewBox="0 0 56 56" fill="none" xmlns="http://www.w3.org/2000/svg">
<g clip-path="url(#clip0_2730_15635)">
<path fill-rule="evenodd" clip-rule="evenodd" d="M11.4844 0H44.5156C47.5589 0.00841846 50.4751 1.22108 52.627 3.373C54.7789 5.52491 55.9916 8.44112 56 11.4844V44.5156C55.9916 47.5589 54.7789 50.4751 52.627 52.627C50.4751 54.7789 47.5589 55.9916 44.5156 56H11.4844C8.44112 55.9916 5.52491 54.7789 3.373 52.627C1.22108 50.4751 0.00841846 47.5589 0 44.5156L0 11.4844C0.00841846 8.44112 1.22108 5.52491 3.373 3.373C5.52491 1.22108 8.44112 0.00841846 11.4844 0Z" fill="#6FDA44"/>
<g clip-path="url(#clip1_2730_15635)">
<path d="M28 56C43.464 56 56 43.464 56 28C56 12.536 43.464 0 28 0C12.536 0 0 12.536 0 28C0 43.464 12.536 56 28 56Z" fill="#6FDA44"/>
</g>
<g clip-path="url(#clip2_2730_15635)">
<path d="M49.308 3H6.694C4.654 3 3 4.604 3 6.582V49.416C3 51.396 4.654 53 6.694 53H49.308C51.348 53 53 51.394 53 49.416V6.582C53 4.604 51.348 3 49.308 3Z" fill="#6FDA44"/>
<path d="M39.6952 32.0739C37.7272 32.0739 35.8852 31.2399 34.2092 29.8819L34.6172 27.9659L34.6352 27.8959C34.9992 25.8559 36.1512 22.4299 39.6952 22.4299C42.3532 22.4299 44.5152 24.5959 44.5152 27.2559C44.5072 29.9079 42.3452 32.0739 39.6952 32.0739ZM39.6952 17.5399C35.1672 17.5399 31.6572 20.4859 30.2312 25.3299C28.0512 22.0559 26.4032 18.1259 25.4372 14.8159H20.5652V27.5119C20.5652 30.0139 18.5272 32.0539 16.0272 32.0539C13.5272 32.0539 11.4912 30.0139 11.4912 27.5119V14.8159H6.61724V27.5119C6.59924 32.7119 10.8272 36.9799 16.0192 36.9799C21.2112 36.9799 25.4392 32.7119 25.4392 27.5119V25.3819C26.3872 27.3599 27.5472 29.3559 28.9572 31.1319L25.9712 45.1859H30.9612L33.1232 34.9919C35.0192 36.2079 37.1992 36.9699 39.6992 36.9699C45.0432 36.9699 49.3932 32.5859 49.3932 27.2359C49.3892 21.8959 45.0392 17.5399 39.6952 17.5399Z" fill="white"/>
</g>
</g>
<defs>
<clipPath id="clip0_2730_15635">
<rect width="56" height="56" fill="white"/>
</clipPath>
<clipPath id="clip1_2730_15635">
<rect width="56" height="56" fill="white"/>
</clipPath>
<clipPath id="clip2_2730_15635">
<rect width="50" height="50" fill="white" transform="translate(3 3)"/>
</clipPath>
</defs>
</svg>
