<svg width="56" height="56" viewBox="0 0 56 56" fill="none" xmlns="http://www.w3.org/2000/svg">
<g clip-path="url(#clip0_2635_7429)">
<path d="M6.62006 0H49.3799C53.0356 0 56 2.96437 56 6.62006V49.3799C56 53.0356 53.0356 56 49.3799 56H6.62006C2.96437 56 0 53.0352 0 49.3795V6.62006C0 2.96437 2.96479 0 6.62048 0H6.62006Z" fill="#3396CD"/>
<path d="M41.797 11.3955C43.0016 13.3817 43.5421 15.4296 43.5421 18.0156C43.5421 26.2635 36.5021 36.9753 30.7879 44.4962H17.7398L12.5078 13.2024L23.9369 12.1171L26.716 34.3834C29.299 30.1704 32.4931 23.5503 32.4931 19.0399C32.4931 16.5687 32.0698 14.8887 31.4079 13.5052L41.797 11.3955Z" fill="white"/>
</g>
<defs>
<clipPath id="clip0_2635_7429">
<rect width="56" height="56" fill="white"/>
</clipPath>
</defs>
</svg>
