<svg width="56" height="56" viewBox="0 0 56 56" fill="none" xmlns="http://www.w3.org/2000/svg">
<g clip-path="url(#clip0_2635_6274)">
<g filter="url(#filter0_d_2635_6274)">
<path d="M28 54.6875C42.9807 54.6875 55.125 42.5432 55.125 27.5625C55.125 12.5818 42.9807 0.4375 28 0.4375C13.0193 0.4375 0.875 12.5818 0.875 27.5625C0.875 42.5432 13.0193 54.6875 28 54.6875Z" fill="url(#paint0_linear_2635_6274)"/>
</g>
<path d="M27.9969 52.6532C41.854 52.6532 53.0875 41.4197 53.0875 27.5625C53.0875 13.7054 41.854 2.47192 27.9969 2.47192C14.1397 2.47192 2.90625 13.7054 2.90625 27.5625C2.90625 41.4197 14.1397 52.6532 27.9969 52.6532Z" fill="url(#paint1_radial_2635_6274)"/>
<path d="M28.0366 8.5751C27.8671 8.5751 27.7188 8.44795 27.7188 8.27842V3.84941C27.7188 3.67988 27.8671 3.55273 28.0366 3.55273C28.2062 3.55273 28.3545 3.67988 28.3545 3.84941V8.27842C28.3333 8.44795 28.2062 8.5751 28.0366 8.5751Z" fill="#F3F3F3"/>
<path d="M28.0422 8.59624C27.8515 8.59624 27.7031 8.4479 27.7031 8.27837V3.84937C27.7031 3.67983 27.8515 3.53149 28.0422 3.53149C28.2329 3.53149 28.3812 3.67983 28.3812 3.84937V8.27837C28.3812 8.4479 28.2117 8.59624 28.0422 8.59624ZM28.0422 3.57388C27.8938 3.57388 27.7455 3.70103 27.7455 3.84937V8.27837C27.7455 8.42671 27.8727 8.55386 28.0422 8.55386C28.1905 8.55386 28.3389 8.42671 28.3389 8.27837V3.84937C28.3177 3.70103 28.1905 3.57388 28.0422 3.57388Z" fill="white"/>
<path d="M30.1561 6.20148C29.9865 6.18029 29.8594 6.05314 29.8594 5.88361L30.0077 3.91281C30.0289 3.74328 30.1772 3.61613 30.3468 3.63732C30.5163 3.65851 30.6435 3.78566 30.6435 3.95519L30.4951 5.92599C30.4739 6.09552 30.3256 6.22267 30.1561 6.20148Z" fill="#F3F3F3"/>
<path d="M30.1616 6.22283C29.9709 6.20163 29.8438 6.05329 29.8438 5.88376L29.9921 3.91296C30.0133 3.74343 30.1616 3.59509 30.3523 3.61628C30.5431 3.63747 30.6702 3.78581 30.6702 3.95534L30.5219 5.92615C30.5007 6.11687 30.3523 6.24402 30.1616 6.22283ZM30.3523 3.65867C30.204 3.65867 30.0557 3.76462 30.0557 3.91296L29.9073 5.88376C29.9073 6.0321 30.0133 6.15925 30.1828 6.18044C30.3312 6.18044 30.4795 6.07449 30.4795 5.92615L30.6278 3.95534C30.6278 3.80701 30.5007 3.67986 30.3523 3.65867Z" fill="white"/>
<path d="M31.7492 8.95647C31.5796 8.91408 31.4737 8.76574 31.4949 8.59621L32.3637 4.25197C32.4061 4.08244 32.5544 3.97648 32.724 4.01887C32.8935 4.06125 32.9995 4.20959 32.9783 4.37912L32.1094 8.72336C32.0882 8.8717 31.9187 8.97766 31.7492 8.95647Z" fill="#F3F3F3"/>
<path d="M31.7469 8.9777C31.5562 8.93531 31.4502 8.76578 31.4714 8.59625L32.3403 4.25201C32.3827 4.08248 32.5522 3.95533 32.7429 3.99772C32.9336 4.0401 33.0396 4.20963 33.0184 4.37916L32.1496 8.7234C32.1072 8.89293 31.9376 8.99889 31.7469 8.9777ZM32.7429 4.0401C32.5946 4.01891 32.4462 4.10367 32.4038 4.25201L31.535 8.59625C31.5138 8.74459 31.5986 8.89293 31.7681 8.93531C31.9164 8.95651 32.0648 8.87174 32.1072 8.7234L32.976 4.37916C32.9972 4.20963 32.8912 4.08248 32.7429 4.0401Z" fill="white"/>
<path d="M34.2893 7.04923C34.1198 7.00685 34.0138 6.83731 34.0562 6.66778L34.586 4.76056C34.6284 4.59103 34.7979 4.50626 34.9674 4.54864C35.137 4.59103 35.2429 4.76056 35.2006 4.93009L34.6708 6.83731C34.6284 7.00685 34.4589 7.09161 34.2893 7.04923Z" fill="#F3F3F3"/>
<path d="M34.2888 7.07038C34.1193 7.028 33.9921 6.83728 34.0557 6.66774L34.5855 4.76052C34.6279 4.59099 34.8186 4.48503 34.9881 4.52741C35.1577 4.56979 35.2848 4.76052 35.2212 4.93005L34.6915 6.83728C34.6491 7.00681 34.4795 7.11276 34.2888 7.07038ZM34.9881 4.59099C34.8398 4.5486 34.6703 4.63337 34.6279 4.78171L34.0981 6.68894C34.0557 6.83728 34.1405 6.98561 34.31 7.028C34.4584 7.07038 34.6279 6.98562 34.6703 6.83728L35.2001 4.93005C35.2212 4.78171 35.1365 4.63337 34.9881 4.59099Z" fill="white"/>
<path d="M35.3265 10.0371C35.157 9.97357 35.0934 9.78284 35.157 9.6345L36.8523 5.54456C36.9159 5.39622 37.1066 5.31146 37.2549 5.39622C37.4245 5.4598 37.4881 5.65052 37.4245 5.79886L35.7292 9.8888C35.6656 10.0371 35.4749 10.1219 35.3265 10.0371Z" fill="#F3F3F3"/>
<path d="M35.329 10.0583C35.1595 9.99474 35.0747 9.80402 35.1383 9.63449L36.8336 5.54454C36.8972 5.37501 37.0879 5.31144 37.2786 5.37501C37.4482 5.43859 37.5329 5.62931 37.4693 5.79884L35.774 9.88878C35.6893 10.0583 35.4985 10.1431 35.329 10.0583ZM37.2574 5.4174C37.1091 5.35382 36.9396 5.4174 36.876 5.56574L35.1807 9.65568C35.1171 9.80402 35.2019 9.95236 35.3502 10.0159C35.4985 10.0795 35.6681 10.0159 35.7317 9.86759L37.427 5.77765C37.4693 5.6505 37.4058 5.48097 37.2574 5.4174Z" fill="white"/>
<path d="M38.1885 8.68089C38.0402 8.59612 37.9766 8.42659 38.0402 8.27825L38.9302 6.51936C39.015 6.37102 39.1845 6.30745 39.354 6.39221C39.5024 6.47698 39.566 6.64651 39.5024 6.79485L38.6123 8.55374C38.5276 8.70208 38.358 8.76565 38.1885 8.68089Z" fill="#F3F3F3"/>
<path d="M38.1935 8.70213C38.024 8.61736 37.9604 8.42664 38.0452 8.25711L38.9352 6.49822C39.02 6.32869 39.2107 6.26512 39.3803 6.34988C39.5498 6.43465 39.6134 6.62537 39.5286 6.7949L38.6386 8.55379C38.5538 8.72332 38.3631 8.78689 38.1935 8.70213ZM39.3591 6.39227C39.2107 6.32869 39.0412 6.37107 38.9776 6.51941L38.0876 8.2783C38.024 8.40545 38.0876 8.57498 38.2147 8.65975C38.3631 8.72332 38.5326 8.68094 38.5962 8.5326L39.4862 6.77371C39.5498 6.64656 39.4862 6.47703 39.3591 6.39227Z" fill="white"/>
<path d="M38.6124 11.8173C38.464 11.7113 38.4217 11.5206 38.5276 11.3935L40.9858 7.72736C41.0706 7.57902 41.2613 7.55783 41.4096 7.6426C41.558 7.74855 41.6004 7.93928 41.4944 8.06642L39.0362 11.7325C38.9514 11.8809 38.7607 11.9233 38.6124 11.8173Z" fill="#F3F3F3"/>
<path d="M38.6101 11.8384C38.4618 11.7325 38.4194 11.5206 38.5041 11.3722L40.9623 7.70612C41.0683 7.55778 41.259 7.5154 41.4286 7.62136C41.5769 7.72732 41.6193 7.93923 41.5345 8.08757L39.0763 11.7537C38.9703 11.902 38.7584 11.9444 38.6101 11.8384ZM41.4074 7.66374C41.2802 7.57898 41.0895 7.60017 41.0047 7.72732L38.5465 11.3934C38.4618 11.5206 38.5041 11.6901 38.6313 11.7749C38.7584 11.8596 38.9492 11.8384 39.0339 11.7113L41.4921 8.06638C41.5769 7.93923 41.5345 7.74851 41.4074 7.66374Z" fill="white"/>
<path d="M41.7096 11.0332C41.5824 10.9272 41.54 10.7365 41.646 10.6093L42.8751 9.06237C42.9811 8.93522 43.1718 8.91403 43.2989 9.01999C43.4261 9.12595 43.4685 9.31667 43.3625 9.44382L42.1334 10.9908C42.0274 11.1179 41.8367 11.1391 41.7096 11.0332Z" fill="#F3F3F3"/>
<path d="M41.6845 11.0543C41.5361 10.9484 41.515 10.7365 41.6209 10.5881L42.85 9.04115C42.956 8.89281 43.1679 8.87162 43.3162 8.99877C43.4646 9.10473 43.4858 9.31664 43.3798 9.46498L42.1507 11.012C42.0447 11.1603 41.8328 11.1815 41.6845 11.0543ZM43.2738 9.04115C43.1467 8.9352 42.9772 8.95639 42.8712 9.08354L41.6421 10.6305C41.5573 10.7577 41.5785 10.9272 41.7057 11.0331C41.8328 11.1391 42.0024 11.1179 42.1083 10.9908L43.3374 9.44379C43.4222 9.31664 43.401 9.12592 43.2738 9.04115Z" fill="white"/>
<path d="M41.4938 14.212C41.3667 14.0849 41.3667 13.8941 41.4938 13.7882L44.6301 10.673C44.7573 10.5459 44.948 10.5671 45.054 10.673C45.1599 10.779 45.1811 10.9909 45.054 11.0969L41.9388 14.212C41.8117 14.3392 41.6209 14.3392 41.4938 14.212Z" fill="#F3F3F3"/>
<path d="M41.4782 14.2331C41.351 14.106 41.351 13.894 41.4782 13.7669L44.6145 10.6518C44.7416 10.5246 44.9536 10.5246 45.0807 10.6518C45.2079 10.7789 45.2079 10.9908 45.0807 11.118L41.9444 14.2331C41.8172 14.3603 41.6053 14.3603 41.4782 14.2331ZM45.0595 10.6729C44.9536 10.567 44.7628 10.567 44.6569 10.6729L41.5206 13.7881C41.4146 13.894 41.4146 14.0848 41.5206 14.1907C41.6265 14.2967 41.8172 14.2967 41.9232 14.1907L45.0595 11.0756C45.1655 10.9696 45.1655 10.8001 45.0595 10.6729Z" fill="white"/>
<path d="M44.6708 14.0425C44.5648 13.9153 44.5648 13.7246 44.6919 13.6186L46.1965 12.3471C46.3237 12.2412 46.5144 12.2624 46.6204 12.3895C46.7263 12.5167 46.7263 12.7074 46.5992 12.8134L45.0946 14.0848C44.9674 14.1908 44.7767 14.1696 44.6708 14.0425Z" fill="#F3F3F3"/>
<path d="M44.6557 14.0636C44.5286 13.9153 44.5498 13.7034 44.6769 13.5974L46.1815 12.3259C46.3087 12.1988 46.5206 12.22 46.6477 12.3683C46.7749 12.5166 46.7537 12.7286 46.6265 12.8345L45.1219 14.106C44.9948 14.2331 44.7829 14.212 44.6557 14.0636ZM46.6053 12.3895C46.4994 12.2623 46.3299 12.2623 46.2027 12.3471L44.6981 13.6186C44.5922 13.7246 44.571 13.8941 44.6769 14.0212C44.7829 14.1484 44.9524 14.1484 45.0796 14.0636L46.5842 12.7921C46.7113 12.6862 46.7113 12.5166 46.6053 12.3895Z" fill="white"/>
<path d="M43.8245 17.0939C43.7185 16.9455 43.7609 16.7548 43.9092 16.67L47.5966 14.2118C47.7449 14.1271 47.9356 14.1694 48.0204 14.2966C48.1263 14.4449 48.084 14.6357 47.9356 14.7204L44.2483 17.1786C44.1212 17.2634 43.9304 17.221 43.8245 17.0939Z" fill="#F3F3F3"/>
<path d="M43.8089 17.094C43.7029 16.9457 43.7453 16.7337 43.8936 16.6278L47.5809 14.1696C47.7293 14.0636 47.9412 14.106 48.0471 14.2755C48.1531 14.4239 48.1107 14.6358 47.9624 14.7418L44.2751 17.2C44.1267 17.3059 43.9148 17.2635 43.8089 17.094ZM48.0048 14.3179C47.92 14.1908 47.7505 14.1484 47.6233 14.2332L43.936 16.6914C43.8089 16.7761 43.7665 16.9457 43.8724 17.094C43.9572 17.2211 44.1267 17.2635 44.2539 17.1788L47.9412 14.7206C48.0683 14.6146 48.0895 14.4451 48.0048 14.3179Z" fill="white"/>
<path d="M46.9807 17.5389C46.8959 17.3906 46.9383 17.1998 47.0867 17.1151L48.8032 16.1403C48.9515 16.0555 49.1422 16.1191 49.227 16.2674C49.3118 16.4157 49.2694 16.6065 49.121 16.6912L47.4045 17.666C47.2562 17.7508 47.0655 17.6872 46.9807 17.5389Z" fill="#F3F3F3"/>
<path d="M46.9651 17.5601C46.8803 17.3906 46.9227 17.1998 47.071 17.1151L48.7875 16.1403C48.9359 16.0555 49.1478 16.1191 49.2326 16.2674C49.3173 16.4369 49.2749 16.6277 49.1266 16.7124L47.4101 17.6872C47.2618 17.772 47.0498 17.7084 46.9651 17.5601ZM49.2114 16.2886C49.1266 16.1403 48.9571 16.0979 48.8299 16.1826L47.1134 17.1574C46.9863 17.2422 46.9439 17.4117 47.0075 17.5389C47.0922 17.6872 47.2618 17.7296 47.3889 17.6449L49.1054 16.67C49.2326 16.6065 49.2749 16.4369 49.2114 16.2886Z" fill="white"/>
<path d="M45.5632 20.3573C45.4997 20.1878 45.5632 20.0183 45.7328 19.9547L49.8227 18.2594C49.9711 18.1958 50.1618 18.2806 50.2254 18.4289C50.2889 18.5985 50.2254 18.768 50.0558 18.8316L45.9659 20.5269C45.8175 20.5904 45.6268 20.5269 45.5632 20.3573Z" fill="#F3F3F3"/>
<path d="M45.5398 20.3787C45.4762 20.2092 45.5398 20.0185 45.7093 19.9337L49.7993 18.2384C49.9688 18.1748 50.1595 18.2596 50.2231 18.4291C50.2867 18.5986 50.2231 18.7894 50.0536 18.8741L45.9636 20.5694C45.7941 20.633 45.6034 20.5483 45.5398 20.3787ZM50.1807 18.4503C50.1172 18.302 49.9476 18.2384 49.8205 18.2808L45.7305 19.9761C45.5822 20.0397 45.5186 20.2092 45.5822 20.3575C45.6458 20.5059 45.8153 20.5694 45.9424 20.5271L50.0324 18.8318C50.1807 18.7682 50.2443 18.5986 50.1807 18.4503Z" fill="white"/>
<path d="M48.5524 21.4169C48.4888 21.2473 48.5735 21.0778 48.7431 21.0142L50.6079 20.3997C50.7563 20.3361 50.947 20.4421 50.9894 20.5904C51.0529 20.7599 50.9682 20.9295 50.7986 20.993L48.9338 21.6076C48.7855 21.6712 48.6159 21.5864 48.5524 21.4169Z" fill="#F3F3F3"/>
<path d="M48.5287 21.4381C48.4651 21.2686 48.5499 21.0779 48.7406 21.0143L50.6054 20.3998C50.775 20.3362 50.9657 20.4421 51.0293 20.6117C51.0928 20.7812 51.0081 20.9719 50.8174 21.0355L48.9525 21.65C48.783 21.6924 48.5923 21.6077 48.5287 21.4381ZM50.9869 20.6329C50.9445 20.4845 50.775 20.3998 50.6266 20.4421L48.7618 21.0567C48.6135 21.0991 48.5499 21.2686 48.5923 21.4169C48.6346 21.5653 48.8042 21.65 48.9525 21.6077L50.8174 20.9931C50.9657 20.9295 51.0293 20.7812 50.9869 20.6329Z" fill="white"/>
<path d="M46.6422 23.9388C46.5998 23.7692 46.7057 23.5997 46.8753 23.5785L51.2195 22.7309C51.389 22.6885 51.5374 22.8156 51.5798 22.9852C51.6221 23.1547 51.5162 23.3242 51.3467 23.3454L47.0024 24.1931C46.8329 24.2143 46.6633 24.1083 46.6422 23.9388Z" fill="#F3F3F3"/>
<path d="M46.602 23.9389C46.5596 23.7482 46.6867 23.5786 46.8563 23.5362L51.2005 22.6886C51.37 22.6462 51.5396 22.7734 51.5819 22.9641C51.6243 23.1548 51.4972 23.3243 51.3277 23.3667L46.9834 24.2144C46.8139 24.2568 46.6443 24.1296 46.602 23.9389ZM51.5396 22.9853C51.5184 22.8369 51.37 22.731 51.2217 22.7522L46.8775 23.5998C46.7291 23.621 46.6232 23.7905 46.6655 23.9389C46.6867 24.0872 46.8351 24.1932 46.9834 24.172L51.3277 23.3243C51.476 23.2819 51.5819 23.1336 51.5396 22.9853Z" fill="white"/>
<path d="M49.3542 25.5706C49.3331 25.401 49.439 25.2527 49.6085 25.2315L51.5582 24.9984C51.7277 24.9772 51.876 25.1044 51.8972 25.2739C51.9184 25.4434 51.8125 25.5918 51.6429 25.613L49.6933 25.8461C49.545 25.8673 49.3754 25.7401 49.3542 25.5706Z" fill="#F3F3F3"/>
<path d="M49.3382 25.5705C49.3171 25.3797 49.4442 25.2102 49.6137 25.189L51.5633 24.9559C51.7329 24.9347 51.9024 25.0619 51.9236 25.2526C51.9448 25.4433 51.8176 25.6128 51.6481 25.634L49.6985 25.8671C49.529 25.8883 49.3594 25.7612 49.3382 25.5705ZM51.9024 25.2738C51.8812 25.1254 51.7329 24.9983 51.5845 25.0195L49.6349 25.2526C49.4866 25.2738 49.3806 25.4221 49.4018 25.5705C49.423 25.7188 49.5714 25.846 49.7197 25.8248L51.6693 25.5917C51.8176 25.5705 51.9236 25.4221 51.9024 25.2738Z" fill="white"/>
<path d="M46.9844 27.626C46.9844 27.4564 47.1115 27.3081 47.2811 27.3081H51.7101C51.8796 27.3081 52.0067 27.4564 52.0067 27.626C52.0067 27.7955 51.8796 27.9438 51.7101 27.9438H47.2811C47.1115 27.9438 46.9844 27.7955 46.9844 27.626Z" fill="#F3F3F3"/>
<path d="M46.9609 27.6262C46.9609 27.4354 47.1093 27.2871 47.2788 27.2871H51.7078C51.8773 27.2871 52.0257 27.4354 52.0257 27.6262C52.0257 27.8169 51.8773 27.9652 51.7078 27.9652H47.2788C47.1093 27.9652 46.9609 27.8169 46.9609 27.6262ZM51.9833 27.6474C51.9833 27.499 51.8562 27.3507 51.7078 27.3507H47.2788C47.1305 27.3507 47.0033 27.4778 47.0033 27.6474C47.0033 27.7957 47.1305 27.944 47.2788 27.944H51.7078C51.8562 27.9229 51.9833 27.7957 51.9833 27.6474Z" fill="white"/>
<path d="M49.3359 29.7664C49.3571 29.5969 49.4843 29.4697 49.6538 29.4697L51.6246 29.6181C51.7941 29.6393 51.9213 29.7876 51.9001 29.9571C51.8789 30.1267 51.7518 30.2538 51.5822 30.2538L49.6114 30.1055C49.4631 30.0843 49.3359 29.9359 49.3359 29.7664Z" fill="#F3F3F3"/>
<path d="M49.3125 29.7664C49.3337 29.5756 49.482 29.4485 49.6516 29.4485L51.6224 29.5968C51.7919 29.618 51.9402 29.7664 51.919 29.9571C51.8979 30.1478 51.7495 30.275 51.58 30.275L49.6092 30.1266C49.4396 30.1054 49.3125 29.9359 49.3125 29.7664ZM51.8978 29.9571C51.919 29.8087 51.7919 29.6604 51.6436 29.6604L49.6728 29.5121C49.5244 29.5121 49.3973 29.618 49.3761 29.7875C49.3549 29.9359 49.482 30.0842 49.6304 30.0842L51.6012 30.2326C51.7495 30.2326 51.8767 30.1054 51.8978 29.9571Z" fill="white"/>
<path d="M46.6043 31.3134C46.6466 31.1439 46.795 31.0379 46.9645 31.0591L51.3088 31.9279C51.4783 31.9703 51.5842 32.1187 51.5419 32.2882C51.4995 32.4577 51.3511 32.5637 51.1816 32.5425L46.8374 31.6736C46.689 31.6524 46.5831 31.4829 46.6043 31.3134Z" fill="#F3F3F3"/>
<path d="M46.5808 31.3133C46.6232 31.1226 46.7927 31.0166 46.9623 31.0378L51.3065 31.9067C51.476 31.9491 51.6032 32.1186 51.5608 32.3093C51.5184 32.5 51.3489 32.606 51.1793 32.5848L46.8351 31.716C46.6656 31.6736 46.5596 31.504 46.5808 31.3133ZM51.5184 32.3093C51.5396 32.161 51.4548 32.0126 51.3065 31.9703L46.9623 31.1014C46.8139 31.0802 46.6656 31.165 46.6232 31.3345C46.602 31.4828 46.6868 31.6312 46.8351 31.6736L51.1793 32.5424C51.3489 32.5636 51.476 32.4577 51.5184 32.3093Z" fill="white"/>
<path d="M48.5108 33.8565C48.5532 33.6869 48.7227 33.581 48.8922 33.6234L50.7995 34.1531C50.969 34.1955 51.0538 34.3651 51.0114 34.5346C50.969 34.7041 50.7995 34.8101 50.6299 34.7677L48.7227 34.2379C48.5532 34.1955 48.4684 34.026 48.5108 33.8565Z" fill="#F3F3F3"/>
<path d="M48.4859 33.8565C48.5283 33.6869 48.719 33.5598 48.8885 33.6233L50.7958 34.1531C50.9653 34.1955 51.0713 34.3862 51.0289 34.5558C50.9865 34.7253 50.7958 34.8524 50.6262 34.7889L48.719 34.2591C48.5495 34.2167 48.4435 34.0472 48.4859 33.8565ZM50.9653 34.5558C51.0077 34.4074 50.9229 34.2379 50.7746 34.1955L48.8674 33.6657C48.719 33.6233 48.5707 33.7081 48.5283 33.8776C48.4859 34.026 48.5707 34.1955 48.719 34.2379L50.6262 34.7677C50.7746 34.7889 50.9229 34.7041 50.9653 34.5558Z" fill="white"/>
<path d="M45.5242 34.8736C45.5878 34.7041 45.7785 34.6405 45.9268 34.7041L50.0168 36.3994C50.1651 36.463 50.2499 36.6537 50.1863 36.8021C50.1227 36.9716 49.932 37.0352 49.7837 36.9716L45.6937 35.2763C45.5242 35.2127 45.4606 35.022 45.5242 34.8736Z" fill="#F3F3F3"/>
<path d="M45.5007 34.8525C45.5643 34.6829 45.755 34.5982 45.9246 34.6617L50.0145 36.357C50.184 36.4206 50.2476 36.6113 50.184 36.8021C50.1205 36.9716 49.9297 37.0564 49.7602 36.9928L45.6703 35.2975C45.5007 35.2127 45.4372 35.022 45.5007 34.8525ZM50.1417 36.7809C50.2052 36.6325 50.1417 36.463 49.9933 36.3994L45.9034 34.7041C45.755 34.6405 45.6067 34.7253 45.5431 34.8736C45.4796 35.022 45.5431 35.1915 45.6915 35.2551L49.7814 36.9504C49.9297 36.9928 50.0993 36.9292 50.1417 36.7809Z" fill="white"/>
<path d="M46.8973 37.7344C46.9821 37.5861 47.1516 37.5225 47.3 37.5861L49.0589 38.4761C49.2072 38.5397 49.2708 38.7304 49.186 38.8999C49.1012 39.0483 48.9317 39.1119 48.7834 39.0483L47.0245 38.1582C46.8761 38.0735 46.8126 37.8828 46.8973 37.7344Z" fill="#F3F3F3"/>
<path d="M46.8811 37.7131C46.9659 37.5435 47.1566 37.48 47.3262 37.5647L49.085 38.4548C49.2546 38.5395 49.3181 38.7303 49.2334 38.8998C49.1486 39.0693 48.9579 39.1329 48.7884 39.0481L47.0295 38.1581C46.8599 38.0945 46.7964 37.8826 46.8811 37.7131ZM49.1698 38.8786C49.2334 38.7303 49.191 38.5607 49.0427 38.4971L47.2838 37.6071C47.1566 37.5435 46.9871 37.6071 46.9023 37.7343C46.8388 37.8826 46.8811 38.0521 47.0295 38.1157L48.7884 39.0057C48.9367 39.0693 49.1062 39.0269 49.1698 38.8786Z" fill="white"/>
<path d="M43.7854 38.137C43.8914 37.9887 44.0609 37.9463 44.2092 38.0523L47.8966 40.5105C48.0449 40.5952 48.0661 40.786 47.9813 40.9343C47.8754 41.0826 47.7058 41.125 47.5575 41.0191L43.8702 38.5609C43.7218 38.4549 43.6795 38.2642 43.7854 38.137Z" fill="#F3F3F3"/>
<path d="M43.7601 38.1157C43.866 37.9674 44.078 37.925 44.2263 38.0098L47.9136 40.468C48.0619 40.5739 48.1043 40.7646 47.9984 40.9342C47.8924 41.0825 47.6805 41.1249 47.5322 41.0401L43.8448 38.5819C43.6753 38.476 43.6541 38.2641 43.7601 38.1157ZM47.9348 40.913C48.0196 40.7858 47.9984 40.5951 47.8712 40.5103L44.1839 38.0521C44.0568 37.9674 43.8872 38.0098 43.8025 38.1369C43.7177 38.2641 43.7389 38.4548 43.866 38.5395L47.5533 40.9977C47.6805 41.0825 47.85 41.0401 47.9348 40.913Z" fill="white"/>
<path d="M44.5678 41.2098C44.6738 41.0827 44.8645 41.0403 44.9917 41.1462L46.5386 42.3541C46.6658 42.4601 46.687 42.6508 46.581 42.778C46.4751 42.9051 46.2843 42.9475 46.1572 42.8415L44.6102 41.6336C44.4831 41.5277 44.4619 41.337 44.5678 41.2098Z" fill="#F3F3F3"/>
<path d="M44.5506 41.1886C44.6566 41.0403 44.8685 41.0191 45.0168 41.1251L46.5638 42.333C46.7121 42.4389 46.7333 42.6508 46.6274 42.7992C46.5214 42.9475 46.3095 42.9687 46.1611 42.8628L44.6142 41.6548C44.4658 41.5489 44.4446 41.337 44.5506 41.1886ZM46.585 42.778C46.6909 42.6508 46.6697 42.4813 46.5426 42.3754L44.9956 41.1674C44.8685 41.0827 44.6989 41.1039 44.593 41.231C44.487 41.3582 44.5082 41.5277 44.6354 41.6337L46.1823 42.8416C46.3095 42.9263 46.479 42.9051 46.585 42.778Z" fill="white"/>
<path d="M41.4076 40.9979C41.5347 40.8708 41.7255 40.8708 41.8314 40.9979L44.9678 44.1131C45.0949 44.2402 45.0737 44.431 44.9678 44.5369C44.8406 44.6641 44.6499 44.6641 44.5439 44.5369L41.4076 41.4218C41.3016 41.3158 41.3016 41.1039 41.4076 40.9979Z" fill="#F3F3F3"/>
<path d="M41.4081 40.9767C41.5353 40.8496 41.7472 40.8496 41.8743 40.9767L45.0107 44.0918C45.1378 44.219 45.1378 44.4309 45.0107 44.5581C44.8835 44.6852 44.6716 44.6852 44.5445 44.5581L41.4081 41.4429C41.2598 41.3158 41.2598 41.1039 41.4081 40.9767ZM44.9683 44.5157C45.0742 44.4097 45.0742 44.219 44.9683 44.113L41.832 40.9979C41.726 40.8919 41.5353 40.8919 41.4293 40.9979C41.3234 41.1039 41.3234 41.2946 41.4293 41.4005L44.5657 44.5157C44.6716 44.6428 44.8411 44.6428 44.9683 44.5157Z" fill="white"/>
<path d="M41.6024 44.1554C41.7296 44.0494 41.9203 44.0494 42.0262 44.1766L43.3189 45.66C43.4249 45.7871 43.4037 45.9778 43.2765 46.0838C43.1494 46.1897 42.9587 46.1897 42.8527 46.0626L41.56 44.5792C41.4541 44.4732 41.4753 44.2825 41.6024 44.1554Z" fill="#F3F3F3"/>
<path d="M41.5782 44.1552C41.7265 44.0281 41.9172 44.0493 42.0444 44.1764L43.337 45.6598C43.4642 45.787 43.443 45.9989 43.2947 46.1261C43.1463 46.2532 42.9556 46.232 42.8284 46.1049L41.5358 44.6215C41.4298 44.4731 41.4298 44.2612 41.5782 44.1552ZM43.2735 46.0837C43.4006 45.9777 43.4006 45.8082 43.3158 45.681L42.0232 44.1976C41.9172 44.0917 41.7477 44.0705 41.6205 44.1764C41.4934 44.2824 41.4934 44.4519 41.5782 44.5791L42.8708 46.0625C42.9768 46.1896 43.1463 46.1896 43.2735 46.0837Z" fill="white"/>
<path d="M38.5507 43.3501C38.6991 43.2442 38.8898 43.2865 38.9746 43.4349L41.4328 47.101C41.5175 47.2493 41.4752 47.4401 41.348 47.5248C41.1997 47.6308 41.0089 47.5884 40.9242 47.4401L38.466 43.7739C38.3812 43.6256 38.4236 43.4349 38.5507 43.3501Z" fill="#F3F3F3"/>
<path d="M38.5465 43.3289C38.6949 43.2229 38.9068 43.2653 39.0127 43.4136L41.471 47.0798C41.5769 47.2281 41.5345 47.44 41.365 47.546C41.2167 47.6519 41.0047 47.6095 40.8988 47.4612L38.4406 43.7951C38.3346 43.6256 38.377 43.4348 38.5465 43.3289ZM41.3438 47.5036C41.471 47.4188 41.5133 47.2493 41.4286 47.1221L38.9704 43.456C38.8856 43.3289 38.7161 43.3077 38.5677 43.3925C38.4406 43.4772 38.3982 43.6467 38.483 43.7739L40.9412 47.44C41.0259 47.546 41.2167 47.5884 41.3438 47.5036Z" fill="white"/>
<path d="M38.1089 46.4863C38.2572 46.4016 38.4479 46.4439 38.5327 46.5923L39.5075 48.3088C39.5923 48.4571 39.5287 48.6478 39.3804 48.7326C39.232 48.8174 39.0413 48.775 38.9565 48.6267L37.9817 46.9101C37.9182 46.7618 37.9605 46.5711 38.1089 46.4863Z" fill="#F3F3F3"/>
<path d="M38.107 46.4653C38.2766 46.3806 38.4673 46.4229 38.552 46.5713L39.5269 48.2878C39.6116 48.4361 39.5692 48.648 39.3997 48.7328C39.2302 48.8176 39.0395 48.7752 38.9547 48.6268L37.9799 46.9103C37.8951 46.762 37.9375 46.5713 38.107 46.4653ZM39.3785 48.7116C39.5057 48.6268 39.5692 48.4573 39.4845 48.3302L38.5097 46.6137C38.4249 46.4865 38.2554 46.4441 38.1282 46.5077C38.0011 46.5925 37.9375 46.762 38.0223 46.8891L38.9971 48.6057C39.0606 48.7328 39.2514 48.7964 39.3785 48.7116Z" fill="white"/>
<path d="M35.2846 45.0878C35.4542 45.0242 35.6237 45.0878 35.6873 45.2361L37.4038 49.3261C37.4674 49.4744 37.3826 49.6651 37.2342 49.7287C37.0859 49.7923 36.8952 49.7287 36.8316 49.5804L35.1151 45.4904C35.0515 45.3421 35.1363 45.1514 35.2846 45.0878Z" fill="#F3F3F3"/>
<path d="M35.29 45.0667C35.4595 45.0031 35.6502 45.0667 35.735 45.2362L37.4515 49.3261C37.5151 49.4957 37.4303 49.6864 37.2608 49.75C37.0912 49.8135 36.9005 49.75 36.8157 49.5804L35.0992 45.4905C35.0357 45.3422 35.1204 45.1514 35.29 45.0667ZM37.2184 49.7076C37.3667 49.644 37.4303 49.4745 37.3667 49.3473L35.6502 45.2574C35.5866 45.109 35.4171 45.0455 35.2688 45.109C35.1204 45.1726 35.0569 45.3422 35.1204 45.4693L36.8369 49.5592C36.9217 49.7076 37.07 49.7712 37.2184 49.7076Z" fill="white"/>
<path d="M34.2509 48.097C34.4204 48.0335 34.59 48.1182 34.6535 48.2878L35.2681 50.1526C35.3317 50.3009 35.2257 50.4917 35.0774 50.534C34.9078 50.5976 34.7383 50.5129 34.6747 50.3433L34.0602 48.4785C33.9966 48.3301 34.0814 48.1606 34.2509 48.097Z" fill="#F3F3F3"/>
<path d="M34.2305 48.0758C34.4001 48.0122 34.5908 48.097 34.6544 48.2665L35.2689 50.1314C35.3325 50.3009 35.2265 50.4916 35.057 50.5552C34.8875 50.6188 34.6967 50.534 34.6332 50.3645L34.0186 48.4996C33.9762 48.3301 34.061 48.1394 34.2305 48.0758ZM35.057 50.5128C35.2053 50.4704 35.2901 50.3009 35.2477 50.1526L34.6332 48.2877C34.5908 48.1394 34.4213 48.0758 34.2729 48.1182C34.1246 48.1606 34.0398 48.3301 34.0822 48.4784L34.6967 50.3433C34.7391 50.4916 34.9087 50.5764 35.057 50.5128Z" fill="white"/>
<path d="M31.7492 46.1685C31.9187 46.1261 32.0882 46.2321 32.1094 46.4016L32.9995 50.7459C33.0418 50.9154 32.9147 51.0637 32.7452 51.1061C32.5756 51.1485 32.4061 51.0426 32.3849 50.873L31.4949 46.5288C31.4737 46.3804 31.5796 46.2109 31.7492 46.1685Z" fill="#F3F3F3"/>
<path d="M31.7479 46.1474C31.9387 46.105 32.1082 46.2321 32.1506 46.4017L33.0406 50.7459C33.083 50.9154 32.9559 51.1062 32.7863 51.1274C32.5956 51.1697 32.4261 51.0426 32.3837 50.8731L31.4937 46.5288C31.4513 46.3593 31.5572 46.1898 31.7479 46.1474ZM32.7439 51.085C32.8923 51.0638 32.9982 50.9154 32.977 50.7459L32.087 46.4017C32.0658 46.2533 31.8963 46.1474 31.7479 46.1898C31.5996 46.2109 31.4937 46.3593 31.5148 46.5288L32.4049 50.8731C32.4473 51.0214 32.5956 51.1062 32.7439 51.085Z" fill="white"/>
<path d="M30.1372 48.9233C30.3067 48.9021 30.455 49.0081 30.4974 49.1776L30.7517 51.1273C30.7729 51.2968 30.6458 51.4451 30.4762 51.4663C30.3067 51.4875 30.1584 51.3815 30.116 51.212L29.8617 49.2624C29.8405 49.0929 29.9676 48.9445 30.1372 48.9233Z" fill="#F3F3F3"/>
<path d="M30.1349 48.9022C30.3256 48.881 30.4952 49.0082 30.5164 49.1777L30.7707 51.1273C30.7919 51.2968 30.6647 51.4664 30.474 51.4876C30.2833 51.5088 30.1137 51.3816 30.0925 51.2121L29.8382 49.2625C29.817 49.0929 29.9442 48.9234 30.1349 48.9022ZM30.4528 51.4452C30.6011 51.424 30.7283 51.2757 30.7071 51.1273L30.4528 49.1777C30.4316 49.0294 30.2833 48.9234 30.1349 48.9446C29.9866 48.9658 29.8594 49.1141 29.8806 49.2625L30.1349 51.2121C30.1561 51.3604 30.3045 51.4664 30.4528 51.4452Z" fill="white"/>
<path d="M27.9585 46.55C28.128 46.55 28.2764 46.6772 28.2764 46.8467V51.2757C28.2764 51.4453 28.128 51.5724 27.9585 51.5724C27.789 51.5724 27.6406 51.4453 27.6406 51.2757V46.8467C27.6618 46.6772 27.789 46.55 27.9585 46.55Z" fill="#F3F3F3"/>
<path d="M27.9563 46.5288C28.147 46.5288 28.2953 46.6771 28.2953 46.8467V51.2757C28.2953 51.4452 28.147 51.5936 27.9563 51.5936C27.7655 51.5936 27.6172 51.4452 27.6172 51.2757V46.8467C27.6172 46.6771 27.7867 46.5288 27.9563 46.5288ZM27.9563 51.5512C28.1046 51.5512 28.2529 51.424 28.2529 51.2757V46.8467C28.2529 46.6983 28.1258 46.5712 27.9563 46.5712C27.8079 46.5712 27.6596 46.6983 27.6596 46.8467V51.2757C27.6808 51.424 27.8079 51.5512 27.9563 51.5512Z" fill="white"/>
<path d="M25.839 48.9235C26.0085 48.9446 26.1356 49.0718 26.1356 49.2413L25.9873 51.2121C25.9661 51.3817 25.8178 51.5088 25.6482 51.4876C25.4787 51.4664 25.3516 51.3393 25.3516 51.1697L25.4999 49.1989C25.5211 49.0294 25.6694 48.9023 25.839 48.9235Z" fill="#F3F3F3"/>
<path d="M25.8367 48.9022C26.0274 48.9234 26.1546 49.0717 26.1546 49.2413L26.0063 51.2121C25.9851 51.3816 25.8367 51.5299 25.646 51.5087C25.4553 51.4876 25.3281 51.3392 25.3281 51.1697L25.4765 49.1989C25.4977 49.0082 25.646 48.881 25.8367 48.9022ZM25.646 51.4664C25.7943 51.4664 25.9427 51.3604 25.9427 51.2121L26.091 49.2413C26.091 49.0929 25.9851 48.9658 25.8155 48.9446C25.6672 48.9446 25.5188 49.0505 25.5188 49.1989L25.3705 51.1697C25.3705 51.318 25.4977 51.4452 25.646 51.4664Z" fill="white"/>
<path d="M24.2474 46.1685C24.4169 46.2109 24.5229 46.3592 24.5017 46.5287L23.6329 50.873C23.5905 51.0425 23.4421 51.1485 23.2726 51.1061C23.1031 51.0637 22.9971 50.9153 23.0183 50.7458L23.8872 46.4016C23.9084 46.2532 24.0779 46.1473 24.2474 46.1685Z" fill="#F3F3F3"/>
<path d="M24.2429 46.1475C24.4336 46.1898 24.5396 46.3594 24.5184 46.5289L23.6495 50.8731C23.6072 51.0427 23.4376 51.1698 23.2469 51.1274C23.0562 51.0851 22.9502 50.9155 22.9714 50.746L23.8403 46.4018C23.8827 46.2322 24.0522 46.1263 24.2429 46.1475ZM23.2469 51.0851C23.3953 51.1063 23.5436 51.0215 23.586 50.8731L24.4548 46.5289C24.476 46.3806 24.3912 46.2322 24.2217 46.1898C24.0734 46.1687 23.925 46.2534 23.8827 46.4018L23.0138 50.746C22.9926 50.9155 23.0986 51.0427 23.2469 51.0851Z" fill="white"/>
<path d="M21.7018 48.0757C21.8714 48.1181 21.9773 48.2877 21.9349 48.4572L21.4051 50.3644C21.3628 50.5339 21.1932 50.6187 21.0237 50.5763C20.8542 50.5339 20.7482 50.3644 20.7906 50.1949L21.3204 48.2877C21.3628 48.1181 21.5323 48.0334 21.7018 48.0757Z" fill="#F3F3F3"/>
<path d="M21.7069 48.0545C21.8764 48.0969 22.0036 48.2876 21.94 48.4571L21.4102 50.3644C21.3678 50.5339 21.1771 50.6399 21.0076 50.5975C20.838 50.5551 20.7109 50.3644 20.7745 50.1948L21.3043 48.2876C21.3466 48.1181 21.5162 48.0121 21.7069 48.0545ZM21.0076 50.5339C21.1559 50.5763 21.3254 50.4915 21.3678 50.3432L21.8976 48.436C21.94 48.2876 21.8552 48.1393 21.6857 48.0969C21.5374 48.0545 21.3678 48.1393 21.3254 48.2876L20.7957 50.1948C20.7745 50.3432 20.8592 50.4915 21.0076 50.5339Z" fill="white"/>
<path d="M20.6662 45.0879C20.8357 45.1514 20.8993 45.3422 20.8357 45.4905L19.1404 49.5804C19.0768 49.7288 18.8861 49.8136 18.7378 49.7288C18.5894 49.644 18.5047 49.4745 18.5682 49.3262L20.2635 45.2362C20.3271 45.0879 20.5178 45.0031 20.6662 45.0879Z" fill="#F3F3F3"/>
<path d="M20.6614 45.0667C20.831 45.1303 20.9157 45.321 20.8522 45.4905L19.1568 49.5805C19.0933 49.75 18.9026 49.8136 18.7118 49.75C18.5423 49.6864 18.4575 49.4957 18.5211 49.3262L20.2164 45.2362C20.3012 45.0667 20.4919 44.9819 20.6614 45.0667ZM18.733 49.7076C18.8814 49.7712 19.0509 49.7076 19.1145 49.5593L20.8098 45.4693C20.8734 45.321 20.7886 45.1727 20.6402 45.1091C20.4919 45.0455 20.3224 45.1091 20.2588 45.2574L18.5635 49.3474C18.5211 49.4745 18.5847 49.644 18.733 49.7076Z" fill="white"/>
<path d="M17.8072 46.444C17.9555 46.5287 18.0191 46.6983 17.9555 46.8466L17.0655 48.6055C16.9807 48.7538 16.8112 48.8174 16.6416 48.7326C16.4933 48.6479 16.4297 48.4783 16.4933 48.33L17.3833 46.5711C17.4681 46.4228 17.6376 46.3592 17.8072 46.444Z" fill="#F3F3F3"/>
<path d="M17.8021 46.4229C17.9717 46.5076 18.0352 46.6984 17.9505 46.8679L17.0604 48.6268C16.9757 48.7963 16.7849 48.8599 16.6154 48.7751C16.4459 48.6904 16.3823 48.4996 16.4671 48.3301L17.3571 46.5712C17.4419 46.4017 17.6326 46.3381 17.8021 46.4229ZM16.6366 48.7327C16.7849 48.7963 16.9545 48.7539 17.018 48.6056L17.9081 46.8467C17.9717 46.7196 17.9081 46.55 17.7809 46.4653C17.6326 46.4017 17.4631 46.4441 17.3995 46.5924L16.5095 48.3513C16.4459 48.4784 16.5095 48.648 16.6366 48.7327Z" fill="white"/>
<path d="M17.3784 43.3076C17.5267 43.4136 17.5691 43.6043 17.4632 43.7315L15.005 47.3976C14.9202 47.5459 14.7295 47.5671 14.5811 47.4823C14.4328 47.3764 14.3904 47.1857 14.4964 47.0585L16.9546 43.3924C17.0393 43.2441 17.23 43.2017 17.3784 43.3076Z" fill="#F3F3F3"/>
<path d="M17.3817 43.2866C17.53 43.3926 17.5724 43.6045 17.4876 43.7529L15.0294 47.419C14.9235 47.5673 14.7328 47.6097 14.5632 47.5037C14.4149 47.3978 14.3725 47.1859 14.4573 47.0375L16.9155 43.3714C17.0214 43.2231 17.2333 43.1807 17.3817 43.2866ZM14.5844 47.4613C14.7116 47.5461 14.9023 47.5249 14.987 47.3978L17.4453 43.7317C17.53 43.6045 17.4876 43.435 17.3605 43.3502C17.2333 43.2654 17.0426 43.2866 16.9579 43.4138L14.4996 47.0587C14.4149 47.1859 14.4573 47.3766 14.5844 47.4613Z" fill="white"/>
<path d="M14.2833 44.0918C14.4104 44.1977 14.4528 44.3884 14.3469 44.5156L13.1178 46.0626C13.0118 46.1897 12.8211 46.2109 12.6939 46.105C12.5668 45.999 12.5244 45.8083 12.6304 45.6811L13.8595 44.1342C13.9654 44.007 14.1561 43.9858 14.2833 44.0918Z" fill="#F3F3F3"/>
<path d="M14.3084 44.0705C14.4568 44.1765 14.4779 44.3884 14.372 44.5368L13.1429 46.0837C13.0369 46.2321 12.825 46.2533 12.6767 46.1261C12.5283 46.0202 12.5071 45.8082 12.6131 45.6599L13.8422 44.1129C13.9482 43.9646 14.1601 43.9434 14.3084 44.0705ZM12.7191 46.0837C12.8462 46.1897 13.0157 46.1685 13.1217 46.0414L14.3508 44.4944C14.4356 44.3672 14.4144 44.1977 14.2872 44.0917C14.1601 43.9858 13.9905 44.007 13.8846 44.1341L12.6555 45.6811C12.5707 45.8082 12.5919 45.999 12.7191 46.0837Z" fill="white"/>
<path d="M14.4993 40.913C14.6265 41.0401 14.6265 41.2309 14.4993 41.3368L11.363 44.452C11.2358 44.5791 11.0451 44.5579 10.9392 44.452C10.8332 44.346 10.812 44.1341 10.9392 44.0281L14.0543 40.913C14.1814 40.7858 14.3722 40.7858 14.4993 40.913Z" fill="#F3F3F3"/>
<path d="M14.5182 40.892C14.6454 41.0191 14.6454 41.2311 14.5182 41.3582L11.3819 44.4733C11.2547 44.6005 11.0428 44.6005 10.9157 44.4733C10.7885 44.3462 10.7885 44.1343 10.9157 44.0071L14.052 40.892C14.1791 40.7648 14.3911 40.7648 14.5182 40.892ZM10.9369 44.4522C11.0428 44.5581 11.2335 44.5581 11.3395 44.4522L14.4758 41.337C14.5818 41.2311 14.5818 41.0403 14.4758 40.9344C14.3699 40.8284 14.1792 40.8284 14.0732 40.9344L10.9369 44.0495C10.8309 44.1555 10.8309 44.325 10.9369 44.4522Z" fill="white"/>
<path d="M11.3157 41.0826C11.4216 41.2098 11.4216 41.4005 11.2945 41.5065L9.78989 42.7779C9.66274 42.8839 9.47202 42.8627 9.36606 42.7356C9.26011 42.6084 9.26011 42.4177 9.38725 42.3117L10.8918 41.0403C11.019 40.9343 11.2097 40.9555 11.3157 41.0826Z" fill="#F3F3F3"/>
<path d="M11.343 41.0614C11.4702 41.2098 11.449 41.4217 11.3219 41.5276L9.81726 42.7991C9.69011 42.9263 9.4782 42.9051 9.35105 42.7567C9.2239 42.6084 9.24509 42.3965 9.37224 42.2905L10.8768 41.019C11.004 40.8919 11.2159 40.9131 11.343 41.0614ZM9.39343 42.7355C9.49939 42.8627 9.66892 42.8627 9.79607 42.7779L11.3007 41.5064C11.4066 41.4005 11.4278 41.2309 11.3219 41.1038C11.2159 40.9767 11.0464 40.9767 10.9192 41.0614L9.41462 42.3329C9.28748 42.4389 9.28748 42.6084 9.39343 42.7355Z" fill="white"/>
<path d="M12.1688 38.031C12.2748 38.1793 12.2324 38.37 12.0841 38.4548L8.39675 40.913C8.24841 40.9978 8.05769 40.9554 7.97292 40.8282C7.86696 40.6799 7.90935 40.4892 8.05769 40.4044L11.745 37.9462C11.8721 37.8614 12.0629 37.9038 12.1688 38.031Z" fill="#F3F3F3"/>
<path d="M12.1878 38.0312C12.2937 38.1795 12.2513 38.3914 12.103 38.4974L8.41569 40.9556C8.26735 41.0615 8.05544 41.0191 7.94948 40.8496C7.84353 40.7013 7.88591 40.4894 8.03425 40.3834L11.7216 37.9252C11.8699 37.8192 12.0818 37.8616 12.1878 38.0312ZM7.99187 40.8072C8.07663 40.9344 8.24616 40.9768 8.37331 40.892L12.0606 38.4338C12.1878 38.349 12.2301 38.1795 12.1242 38.0312C12.0394 37.904 11.8699 37.8616 11.7427 37.9464L8.05544 40.4046C7.92829 40.5106 7.9071 40.6801 7.99187 40.8072Z" fill="white"/>
<path d="M9.00824 37.586C9.09301 37.7344 9.05062 37.9251 8.90228 38.0098L7.18578 38.9846C7.03744 39.0694 6.84672 39.0058 6.76195 38.8575C6.67719 38.7092 6.71957 38.5184 6.86791 38.4337L8.58441 37.4589C8.73275 37.3741 8.92348 37.4377 9.00824 37.586Z" fill="#F3F3F3"/>
<path d="M9.02943 37.5648C9.1142 37.7343 9.07182 37.925 8.92348 38.0098L7.20697 38.9846C7.05863 39.0694 6.84672 39.0058 6.76195 38.8574C6.67719 38.6879 6.71957 38.4972 6.86791 38.4124L8.58441 37.4376C8.73275 37.3529 8.94467 37.4164 9.02943 37.5648ZM6.78314 38.8363C6.86791 38.9846 7.03744 39.027 7.16459 38.9422L8.88109 37.9674C9.00824 37.8826 9.05062 37.7131 8.98705 37.586C8.90228 37.4376 8.73275 37.3952 8.6056 37.48L6.8891 38.4548C6.76195 38.5184 6.71957 38.6879 6.78314 38.8363Z" fill="white"/>
<path d="M10.4285 34.7677C10.4921 34.9372 10.4285 35.1067 10.2589 35.1703L6.16901 36.8656C6.02067 36.9292 5.82994 36.8444 5.76637 36.6961C5.7028 36.5266 5.76637 36.357 5.9359 36.2935L10.0258 34.5982C10.1742 34.5346 10.3649 34.5982 10.4285 34.7677Z" fill="#F3F3F3"/>
<path d="M10.4497 34.7465C10.5132 34.916 10.4497 35.1068 10.2801 35.1915L6.1902 36.8868C6.02067 36.9504 5.82994 36.8656 5.76637 36.6961C5.7028 36.5266 5.76637 36.3359 5.9359 36.2511L10.0258 34.5558C10.1954 34.4922 10.3861 34.577 10.4497 34.7465ZM5.80875 36.6749C5.87233 36.8233 6.04186 36.8868 6.16901 36.8444L10.2589 35.1491C10.4073 35.0856 10.4709 34.916 10.4073 34.7677C10.3437 34.6193 10.1742 34.5558 10.047 34.5982L5.95709 36.2935C5.80875 36.357 5.74518 36.5266 5.80875 36.6749Z" fill="white"/>
<path d="M7.44249 33.7079C7.50607 33.8775 7.4213 34.047 7.25177 34.1106L5.38693 34.7251C5.23859 34.7887 5.04787 34.6827 5.00548 34.5344C4.94191 34.3649 5.02667 34.1953 5.19621 34.1318L7.06105 33.5172C7.20939 33.4536 7.37892 33.5384 7.44249 33.7079Z" fill="#F3F3F3"/>
<path d="M7.45896 33.6868C7.52253 33.8564 7.43777 34.0471 7.24704 34.1107L5.3822 34.7252C5.21267 34.7888 5.02195 34.6828 4.95837 34.5133C4.8948 34.3438 4.97956 34.153 5.17029 34.0895L7.03513 33.4749C7.20466 33.4325 7.39538 33.5173 7.45896 33.6868ZM5.00075 34.4921C5.04314 34.6404 5.21267 34.7252 5.36101 34.6828L7.22585 34.0683C7.37419 34.0259 7.43777 33.8564 7.39538 33.708C7.353 33.5597 7.18347 33.4749 7.03513 33.5173L5.17029 34.1318C5.02195 34.1954 4.95837 34.3438 5.00075 34.4921Z" fill="white"/>
<path d="M9.34538 31.1862C9.38776 31.3557 9.28181 31.5252 9.11228 31.5464L4.76804 32.3941C4.59851 32.4365 4.45017 32.3093 4.40778 32.1398C4.3654 31.9703 4.47136 31.8007 4.64089 31.7795L8.98513 30.9319C9.15466 30.9107 9.32419 31.0167 9.34538 31.1862Z" fill="#F3F3F3"/>
<path d="M9.39444 31.1862C9.43683 31.377 9.30968 31.5465 9.14015 31.5889L4.79591 32.4365C4.62638 32.4789 4.45685 32.3518 4.41446 32.1611C4.37208 31.9703 4.49923 31.8008 4.66876 31.7584L9.013 30.9108C9.18253 30.8684 9.35206 30.9955 9.39444 31.1862ZM4.45685 32.1399C4.47804 32.2882 4.62638 32.3942 4.77472 32.373L9.11896 31.5253C9.2673 31.5041 9.37325 31.3346 9.33087 31.1862C9.30968 31.0379 9.16134 30.9319 9.013 30.9531L4.66876 31.8008C4.52042 31.8432 4.41446 31.9915 4.45685 32.1399Z" fill="white"/>
<path d="M6.63941 29.5544C6.6606 29.7239 6.55464 29.8723 6.38511 29.8935L4.4355 30.1266C4.26597 30.1478 4.11763 30.0206 4.09644 29.8511C4.07525 29.6816 4.1812 29.5332 4.35073 29.512L6.30034 29.2789C6.44868 29.2577 6.61821 29.3849 6.63941 29.5544Z" fill="#F3F3F3"/>
<path d="M6.65797 29.5546C6.67917 29.7453 6.55202 29.9149 6.38249 29.936L4.43288 30.1691C4.26335 30.1903 4.09381 30.0632 4.07262 29.8725C4.05143 29.6817 4.17858 29.5122 4.34811 29.491L6.29772 29.2579C6.46725 29.2367 6.63678 29.3639 6.65797 29.5546ZM4.09381 29.8513C4.11501 29.9996 4.26335 30.1268 4.41169 30.1056L6.36129 29.8725C6.50963 29.8513 6.61559 29.7029 6.5944 29.5546C6.57321 29.4063 6.42487 29.2791 6.27653 29.3003L4.32692 29.5334C4.17858 29.5546 4.07262 29.7029 4.09381 29.8513Z" fill="white"/>
<path d="M9.00674 27.499C9.00674 27.6686 8.87959 27.8169 8.71006 27.8169H4.28105C4.11152 27.8169 3.98438 27.6686 3.98438 27.499C3.98438 27.3295 4.11152 27.1812 4.28105 27.1812H8.71006C8.87959 27.1812 9.00674 27.3295 9.00674 27.499Z" fill="#F3F3F3"/>
<path d="M9.0335 27.499C9.0335 27.6897 8.88516 27.838 8.71563 27.838H4.28662C4.11709 27.838 3.96875 27.6897 3.96875 27.499C3.96875 27.3083 4.11709 27.1599 4.28662 27.1599H8.71563C8.88516 27.1599 9.0335 27.3083 9.0335 27.499ZM4.01113 27.4778C4.01113 27.6261 4.13828 27.7745 4.28662 27.7745H8.71563C8.86397 27.7745 8.99111 27.6473 8.99111 27.4778C8.99111 27.3294 8.86397 27.1811 8.71563 27.1811H4.28662C4.13828 27.2023 4.01113 27.3294 4.01113 27.4778Z" fill="white"/>
<path d="M6.66022 25.3585C6.63903 25.528 6.51188 25.6552 6.34235 25.6552L4.37155 25.5068C4.20202 25.4856 4.07487 25.3373 4.09606 25.1678C4.11725 24.9982 4.2444 24.8711 4.41393 24.8711L6.38473 25.0194C6.53307 25.0406 6.66022 25.189 6.66022 25.3585Z" fill="#E2E2E2"/>
<path d="M6.67888 25.3587C6.65769 25.5494 6.50935 25.6766 6.33982 25.6766L4.36902 25.5282C4.19949 25.507 4.05115 25.3587 4.07234 25.168C4.09353 24.9772 4.24187 24.8501 4.4114 24.8501L6.3822 24.9984C6.55173 25.0196 6.67888 25.1892 6.67888 25.3587ZM4.09353 25.168C4.07234 25.3163 4.19949 25.4646 4.34783 25.4646L6.31863 25.613C6.46697 25.613 6.59411 25.507 6.61531 25.3375C6.6365 25.1892 6.50935 25.0408 6.36101 25.0408L4.39021 24.8925C4.24187 24.8925 4.11472 25.0196 4.09353 25.168Z" fill="white"/>
<path d="M9.39226 23.8116C9.34987 23.9811 9.20153 24.0871 9.032 24.0659L4.68776 23.1758C4.51823 23.1334 4.41228 22.9851 4.45466 22.8156C4.49704 22.646 4.64538 22.5401 4.81491 22.5613L9.15915 23.4301C9.30749 23.4725 9.41345 23.642 9.39226 23.8116Z" fill="#F3F3F3"/>
<path d="M9.41007 23.8115C9.36769 24.0022 9.19816 24.1082 9.02862 24.087L4.68439 23.2182C4.51486 23.1758 4.38771 23.0062 4.43009 22.8155C4.47247 22.6248 4.642 22.5188 4.81153 22.54L9.15577 23.4089C9.3253 23.4513 9.43126 23.6208 9.41007 23.8115ZM4.47247 22.8155C4.45128 22.9639 4.53605 23.1122 4.68439 23.1546L9.02862 24.0234C9.17696 24.0446 9.3253 23.9599 9.36769 23.7903C9.38888 23.642 9.30411 23.4936 9.15577 23.4513L4.81153 22.5824C4.642 22.5612 4.51486 22.6672 4.47247 22.8155Z" fill="white"/>
<path d="M7.48014 21.2687C7.43775 21.4383 7.26822 21.5442 7.09869 21.5018L5.19146 20.972C5.02193 20.9297 4.93717 20.7601 4.97955 20.5906C5.02193 20.4211 5.19146 20.3151 5.361 20.3575L7.26822 20.8873C7.43775 20.9297 7.52252 21.0992 7.48014 21.2687Z" fill="#F3F3F3"/>
<path d="M7.50544 21.2687C7.46306 21.4382 7.27233 21.5653 7.1028 21.5018L5.19558 20.972C5.02604 20.9296 4.92009 20.7389 4.96247 20.5693C5.00485 20.3998 5.19558 20.2727 5.36511 20.3362L7.27233 20.866C7.44187 20.9084 7.54782 21.0779 7.50544 21.2687ZM5.02604 20.5693C4.98366 20.7177 5.06843 20.8872 5.21677 20.9296L7.12399 21.4594C7.27233 21.5018 7.42067 21.417 7.46306 21.2475C7.50544 21.0991 7.42067 20.9296 7.27233 20.8872L5.36511 20.3574C5.21677 20.3362 5.06843 20.421 5.02604 20.5693Z" fill="white"/>
<path d="M10.4725 20.2515C10.409 20.4211 10.2182 20.4846 10.0699 20.4211L5.97995 18.7257C5.83161 18.6622 5.74684 18.4714 5.81042 18.3231C5.87399 18.1536 6.06472 18.09 6.21306 18.1536L10.303 19.8489C10.4725 19.9125 10.5361 20.1032 10.4725 20.2515Z" fill="#F3F3F3"/>
<path d="M10.4965 20.2728C10.433 20.4423 10.2422 20.5271 10.0727 20.4635L5.98278 18.7682C5.81324 18.7046 5.74967 18.5139 5.81324 18.3232C5.87682 18.1536 6.06754 18.0689 6.23707 18.1324L10.327 19.8277C10.4965 19.9125 10.5601 20.1032 10.4965 20.2728ZM5.85563 18.3443C5.79205 18.4927 5.85563 18.6622 6.00397 18.7258L10.0939 20.4211C10.2422 20.4847 10.3906 20.3999 10.4542 20.2516C10.5177 20.1032 10.4542 19.9337 10.3058 19.8701L6.21588 18.1748C6.06754 18.1324 5.89801 18.196 5.85563 18.3443Z" fill="white"/>
<path d="M9.09226 17.3907C9.0075 17.539 8.83797 17.6026 8.68963 17.539L6.93074 16.649C6.7824 16.5854 6.71883 16.3947 6.80359 16.2251C6.88836 16.0768 7.05789 16.0132 7.20623 16.0768L8.96512 16.9668C9.11346 17.0516 9.17703 17.2423 9.09226 17.3907Z" fill="#F3F3F3"/>
<path d="M9.11619 17.4117C9.03143 17.5813 8.8407 17.6449 8.67117 17.5601L6.91229 16.67C6.74275 16.5853 6.67918 16.3946 6.76395 16.225C6.84871 16.0555 7.03943 15.9919 7.20896 16.0767L8.96785 16.9667C9.13738 17.0303 9.20096 17.2422 9.11619 17.4117ZM6.82752 16.2462C6.76395 16.3946 6.80633 16.5641 6.95467 16.6277L8.71355 17.5177C8.8407 17.5813 9.01023 17.5177 9.095 17.3906C9.15857 17.2422 9.11619 17.0727 8.96785 17.0091L7.18777 16.1191C7.06062 16.0555 6.89109 16.0979 6.82752 16.2462Z" fill="white"/>
<path d="M12.2087 16.9881C12.1027 17.1364 11.9332 17.1788 11.7848 17.0728L8.11872 14.6358C7.97038 14.551 7.94919 14.3603 8.03395 14.212C8.11872 14.0636 8.30944 14.0213 8.45778 14.1272L12.1451 16.5854C12.2722 16.6702 12.3146 16.8609 12.2087 16.9881Z" fill="#F3F3F3"/>
<path d="M12.2291 17.0091C12.1231 17.1575 11.9112 17.1998 11.7629 17.1151L8.09675 14.6569C7.94841 14.5509 7.90603 14.3602 8.01198 14.1907C8.11794 14.0423 8.32985 13.9999 8.47819 14.0847L12.1443 16.5429C12.3138 16.6489 12.335 16.8608 12.2291 17.0091ZM8.05437 14.2119C7.9696 14.339 7.99079 14.5297 8.11794 14.6145L11.8052 17.0727C11.9324 17.1575 12.1019 17.1151 12.1867 16.9879C12.2715 16.8608 12.2503 16.6701 12.1231 16.5853L8.43581 14.1271C8.30866 14.0423 8.13913 14.0847 8.05437 14.2119Z" fill="white"/>
<path d="M11.4248 13.9152C11.3188 14.0423 11.1281 14.0847 11.0009 13.9788L9.45397 12.7708C9.32683 12.6649 9.30563 12.4742 9.41159 12.347C9.51755 12.2199 9.70827 12.1775 9.83542 12.2834L11.3824 13.4914C11.5095 13.5973 11.5307 13.788 11.4248 13.9152Z" fill="#F3F3F3"/>
<path d="M11.4477 13.9364C11.3417 14.0847 11.1298 14.1059 10.9815 14L9.43449 12.7921C9.28615 12.6861 9.26495 12.4742 9.37091 12.3258C9.47687 12.1775 9.68878 12.1563 9.83712 12.2623L11.3841 13.4702C11.5324 13.5761 11.5536 13.788 11.4477 13.9364ZM9.41329 12.347C9.30734 12.4742 9.32853 12.6437 9.45568 12.7497L11.0026 13.9576C11.1298 14.0423 11.2993 14.0212 11.4053 13.894C11.5112 13.7669 11.4901 13.5973 11.3629 13.4914L9.81593 12.2835C9.68878 12.1987 9.51925 12.2199 9.41329 12.347Z" fill="white"/>
<path d="M14.583 14.1272C14.4559 14.2544 14.2651 14.2544 14.1592 14.1272L11.0017 11.0121C10.8745 10.885 10.8957 10.6942 11.0017 10.5883C11.1288 10.4611 11.3195 10.4611 11.4255 10.5883L14.5618 13.7034C14.689 13.8094 14.689 14.0213 14.583 14.1272Z" fill="#F3F3F3"/>
<path d="M14.5807 14.1484C14.4536 14.2755 14.2417 14.2755 14.1145 14.1484L10.9782 11.0333C10.851 10.9061 10.851 10.6942 10.9782 10.567C11.1053 10.4399 11.3172 10.4399 11.4444 10.567L14.5807 13.6822C14.7291 13.8093 14.7291 14.0212 14.5807 14.1484ZM11.0206 10.6094C10.9146 10.7154 10.9146 10.9061 11.0206 11.0121L14.1569 14.1272C14.2628 14.2332 14.4536 14.2332 14.5595 14.1272C14.6655 14.0212 14.6655 13.8305 14.5595 13.7246L11.4232 10.5882C11.3172 10.4823 11.1477 10.4823 11.0206 10.6094Z" fill="white"/>
<path d="M14.3937 10.9695C14.2666 11.0755 14.0759 11.0755 13.9699 10.9483L12.6772 9.46494C12.5713 9.33779 12.5925 9.14707 12.7196 9.04111C12.8467 8.93515 13.0375 8.93515 13.1434 9.0623L14.4361 10.5457C14.5421 10.6517 14.5209 10.8424 14.3937 10.9695Z" fill="#F3F3F3"/>
<path d="M14.4127 10.9696C14.2643 11.0967 14.0736 11.0755 13.9465 10.9484L12.6538 9.46497C12.5267 9.33782 12.5478 9.1259 12.6962 8.99875C12.8445 8.87161 13.0352 8.8928 13.1624 9.01995L14.4551 10.5033C14.561 10.6517 14.561 10.8636 14.4127 10.9696ZM12.7174 9.04114C12.5902 9.14709 12.5902 9.31663 12.675 9.44377L13.9677 10.9272C14.0736 11.0331 14.2432 11.0543 14.3703 10.9484C14.4975 10.8424 14.4975 10.6729 14.4127 10.5457L13.12 9.06233C13.0141 8.93518 12.8445 8.93518 12.7174 9.04114Z" fill="white"/>
<path d="M17.4473 11.7748C17.299 11.8808 17.1083 11.8384 17.0235 11.6901L14.5441 8.02395C14.4593 7.87561 14.5017 7.68488 14.6289 7.60012C14.7772 7.49416 14.9679 7.53654 15.0527 7.68488L17.5109 11.351C17.6169 11.4993 17.5745 11.6901 17.4473 11.7748Z" fill="#F3F3F3"/>
<path d="M17.4431 11.7962C17.2948 11.9022 17.0829 11.8598 16.9769 11.7114L14.5187 8.04533C14.4127 7.89699 14.4551 7.68508 14.6247 7.57912C14.773 7.47317 14.9849 7.51555 15.0909 7.66389L17.5491 11.33C17.655 11.4995 17.6126 11.6903 17.4431 11.7962ZM14.6459 7.6215C14.5187 7.70627 14.4763 7.8758 14.5611 8.00295L17.0193 11.6691C17.1041 11.7962 17.2736 11.8174 17.4219 11.7326C17.5491 11.6479 17.5915 11.4783 17.5067 11.3512L15.0485 7.70627C14.9637 7.57912 14.773 7.53674 14.6459 7.6215Z" fill="white"/>
<path d="M17.8897 8.63861C17.7414 8.72338 17.5507 8.681 17.4659 8.53266L16.4911 6.81615C16.4063 6.66781 16.4699 6.47709 16.6182 6.39232C16.7666 6.30756 16.9573 6.34994 17.0421 6.49828L18.0169 8.21478C18.0804 8.36312 18.0381 8.55385 17.8897 8.63861Z" fill="#F3F3F3"/>
<path d="M17.8919 8.6598C17.7224 8.74457 17.5316 8.70219 17.4469 8.55385L16.4721 6.83734C16.3873 6.689 16.4297 6.47709 16.5992 6.39232C16.7687 6.30756 16.9595 6.34994 17.0442 6.49828L18.019 8.21478C18.1038 8.36312 18.0614 8.55385 17.8919 8.6598ZM16.6204 6.41352C16.4933 6.49828 16.4297 6.66781 16.5145 6.79496L17.4893 8.51146C17.574 8.63861 17.7436 8.681 17.8707 8.61742C17.9979 8.53266 18.0614 8.36312 17.9767 8.23598L17.0019 6.51947C16.9383 6.39232 16.7476 6.32875 16.6204 6.41352Z" fill="white"/>
<path d="M20.7108 10.0373C20.5413 10.1009 20.3717 10.0373 20.3082 9.88895L18.5917 5.79901C18.5281 5.65067 18.6129 5.45995 18.7612 5.39637C18.9307 5.3328 19.1003 5.39637 19.1638 5.54471L20.8803 9.63466C20.9439 9.783 20.8591 9.97372 20.7108 10.0373Z" fill="#F3F3F3"/>
<path d="M20.7061 10.0583C20.5365 10.1219 20.3458 10.0583 20.261 9.88878L18.5445 5.79884C18.481 5.62931 18.5657 5.43859 18.7353 5.37501C18.9048 5.31144 19.0955 5.37501 19.1803 5.54454L20.8968 9.63449C20.9604 9.78283 20.8756 9.97355 20.7061 10.0583ZM18.7777 5.4174C18.6293 5.48097 18.5657 5.6505 18.6293 5.77765L20.3458 9.86759C20.4094 10.0159 20.5789 10.0795 20.7273 10.0159C20.8756 9.95236 20.9392 9.78283 20.8756 9.65568L19.1591 5.56574C19.0743 5.4174 18.926 5.35382 18.7777 5.4174Z" fill="white"/>
<path d="M21.7469 7.0281C21.5774 7.09167 21.4079 7.0069 21.3443 6.83737L20.7298 4.97253C20.6662 4.82419 20.7721 4.63347 20.9205 4.59108C21.0688 4.5487 21.2595 4.61228 21.3231 4.78181L21.9377 6.64665C22.0012 6.79499 21.9165 6.96452 21.7469 7.0281Z" fill="#F3F3F3"/>
<path d="M21.768 7.04933C21.5984 7.1129 21.4077 7.02814 21.3441 6.85861L20.7296 4.99376C20.666 4.82423 20.772 4.63351 20.9415 4.56994C21.111 4.50636 21.3018 4.59113 21.3653 4.76066L21.9799 6.6255C22.0223 6.79503 21.9375 6.98576 21.768 7.04933ZM20.9415 4.61232C20.7932 4.6547 20.7084 4.82423 20.7508 4.97257L21.3653 6.83742C21.4077 6.98576 21.5772 7.04933 21.7256 7.00695C21.8739 6.96456 21.9587 6.79503 21.9163 6.64669L21.3018 4.78185C21.2594 4.63351 21.0898 4.54874 20.9415 4.61232Z" fill="white"/>
<path d="M24.2429 8.95647C24.0734 8.99885 23.9038 8.89289 23.8826 8.72336L22.9926 4.37912C22.9502 4.20959 23.0774 4.06125 23.2469 4.01887C23.4164 3.97648 23.5859 4.08244 23.6071 4.25197L24.4972 8.59621C24.5184 8.74455 24.4124 8.91408 24.2429 8.95647Z" fill="#F3F3F3"/>
<path d="M24.2462 8.9777C24.0555 9.02008 23.8859 8.89293 23.8436 8.7234L22.9535 4.37916C22.9111 4.20963 23.0383 4.01891 23.2078 3.99772C23.3985 3.95533 23.5681 4.08248 23.6105 4.25201L24.5005 8.59625C24.5429 8.76578 24.4369 8.93531 24.2462 8.9777ZM23.2502 4.0401C23.1019 4.06129 22.9959 4.20963 23.0171 4.37916L23.9071 8.7234C23.9283 8.87174 24.0979 8.9777 24.2462 8.93531C24.3945 8.91412 24.5005 8.76578 24.4793 8.59625L23.5893 4.25201C23.5469 4.10367 23.3985 4.01891 23.2502 4.0401Z" fill="white"/>
<path d="M25.859 6.20166C25.6895 6.22285 25.5412 6.1169 25.4988 5.94736L25.2445 3.99776C25.2233 3.82822 25.3505 3.67988 25.52 3.65869C25.6895 3.6375 25.8379 3.74346 25.8802 3.91299L26.1345 5.8626C26.1557 6.03213 26.0286 6.18047 25.859 6.20166Z" fill="#F3F3F3"/>
<path d="M25.8568 6.22267C25.6661 6.24386 25.4965 6.11671 25.4754 5.94718L25.2211 3.99757C25.1999 3.82804 25.327 3.65851 25.5177 3.63732C25.7085 3.61613 25.878 3.74328 25.8992 3.91281L26.1535 5.86242C26.1747 6.03195 26.0475 6.20148 25.8568 6.22267ZM25.5389 3.6797C25.3906 3.70089 25.2634 3.84923 25.2846 3.99757L25.5389 5.94718C25.5601 6.09552 25.7085 6.20148 25.8568 6.18029C26.0051 6.1591 26.1323 6.01076 26.1111 5.86242L25.8568 3.91281C25.8356 3.76447 25.6873 3.65851 25.5389 3.6797Z" fill="white"/>
<path d="M28.1453 52.6319C42.0025 52.6319 53.2359 41.3985 53.2359 27.5413C53.2359 13.6841 42.0025 2.45068 28.1453 2.45068C14.2881 2.45068 3.05469 13.6841 3.05469 27.5413C3.05469 41.3985 14.2881 52.6319 28.1453 52.6319Z" fill="url(#paint2_linear_2635_6274)" fill-opacity="0.2"/>
<g filter="url(#filter1_d_2635_6274)">
<path d="M45.5274 11.6265L25.2896 24.5956H25.2685V24.6168L25.2473 24.638L12.6172 45.4691L31.1809 30.5292L31.2021 30.508V30.4868L45.5274 11.6265Z" fill="black" fill-opacity="0.05"/>
</g>
<path d="M45.1453 10.4187L25.1406 24.6381L31.0742 30.5293L45.1453 10.4187Z" fill="#CD151E"/>
<path d="M25.1641 24.5957L28.152 27.5414L45.1476 10.4187L25.1641 24.5957Z" fill="#FA5153"/>
<path d="M25.157 24.5957L31.0906 30.4869L11.0859 44.7063L25.157 24.5957Z" fill="#ACACAC"/>
<path d="M11.0859 44.7063L28.145 27.5413L25.157 24.5957L11.0859 44.7063Z" fill="#EEEEEE"/>
</g>
<defs>
<filter id="filter0_d_2635_6274" x="-3.125" y="-1.5625" width="62.25" height="62.25" filterUnits="userSpaceOnUse" color-interpolation-filters="sRGB">
<feFlood flood-opacity="0" result="BackgroundImageFix"/>
<feColorMatrix in="SourceAlpha" type="matrix" values="0 0 0 0 0 0 0 0 0 0 0 0 0 0 0 0 0 0 127 0" result="hardAlpha"/>
<feOffset dy="2"/>
<feGaussianBlur stdDeviation="2"/>
<feColorMatrix type="matrix" values="0 0 0 0 0 0 0 0 0 0 0 0 0 0 0 0 0 0 0.266007 0"/>
<feBlend mode="normal" in2="BackgroundImageFix" result="effect1_dropShadow_2635_6274"/>
<feBlend mode="normal" in="SourceGraphic" in2="effect1_dropShadow_2635_6274" result="shape"/>
</filter>
<filter id="filter1_d_2635_6274" x="8.61719" y="8.62646" width="40.9141" height="41.8428" filterUnits="userSpaceOnUse" color-interpolation-filters="sRGB">
<feFlood flood-opacity="0" result="BackgroundImageFix"/>
<feColorMatrix in="SourceAlpha" type="matrix" values="0 0 0 0 0 0 0 0 0 0 0 0 0 0 0 0 0 0 127 0" result="hardAlpha"/>
<feOffset dy="1"/>
<feGaussianBlur stdDeviation="2"/>
<feColorMatrix type="matrix" values="0 0 0 0 0 0 0 0 0 0 0 0 0 0 0 0 0 0 0.0509804 0"/>
<feBlend mode="normal" in2="BackgroundImageFix" result="effect1_dropShadow_2635_6274"/>
<feBlend mode="normal" in="SourceGraphic" in2="effect1_dropShadow_2635_6274" result="shape"/>
</filter>
<linearGradient id="paint0_linear_2635_6274" x1="2713.38" y1="5425.44" x2="2713.38" y2="0.4375" gradientUnits="userSpaceOnUse">
<stop offset="0.25" stop-color="#DBDBDA"/>
<stop offset="1" stop-color="white"/>
</linearGradient>
<radialGradient id="paint1_radial_2635_6274" cx="0" cy="0" r="1" gradientUnits="userSpaceOnUse" gradientTransform="translate(2864.51 1960.38) scale(3062.64)">
<stop stop-color="#2ABCE1"/>
<stop offset="0.113629" stop-color="#2ABBE1"/>
<stop offset="1" stop-color="#3375F8"/>
</radialGradient>
<linearGradient id="paint2_linear_2635_6274" x1="2464.46" y1="1794.09" x2="1293.36" y2="3895.1" gradientUnits="userSpaceOnUse">
<stop stop-opacity="0"/>
<stop offset="1"/>
</linearGradient>
<clipPath id="clip0_2635_6274">
<rect width="56" height="56" fill="white"/>
</clipPath>
</defs>
</svg>
