<svg width="56" height="56" viewBox="0 0 56 56" fill="none" xmlns="http://www.w3.org/2000/svg">
<g clip-path="url(#clip0_2635_6554)">
<path d="M56 47.6C56 52.239 52.239 56 47.6 56H8.4C3.76096 56 0 52.239 0 47.6V8.4C0 3.76096 3.76096 0 8.4 0H47.6C52.239 0 56 3.76096 56 8.4V47.6Z" fill="#2DC100"/>
<path d="M37.4828 20.8836C32.9625 21.1188 29.0335 22.4897 25.8415 25.5853C22.6159 28.7124 21.1443 32.545 21.5475 37.2961C19.7801 37.0765 18.1718 36.8369 16.5545 36.7002C15.9945 36.6532 15.3315 36.7204 14.8588 36.9869C13.2886 37.874 11.7811 38.8753 9.99579 39.9908C10.3228 38.5079 10.5356 37.2109 10.9119 35.9633C11.1875 35.0449 11.0598 34.5364 10.2153 33.9383C4.79003 30.1079 2.50299 24.3757 4.21435 18.4733C5.79579 13.0145 9.68443 9.70149 14.9686 7.97669C22.1814 5.62021 30.2857 8.02373 34.6716 13.7492C36.2531 15.8167 37.2252 18.1396 37.4828 20.8836ZM16.6799 19.0445C16.7225 17.9649 15.7862 16.9927 14.6751 16.9591C13.5372 16.9255 12.6031 17.7946 12.5695 18.9169C12.5359 20.0525 13.4051 20.9642 14.5497 20.9933C15.6854 21.0225 16.6374 20.1511 16.6799 19.0445ZM27.5327 16.9591C26.4172 16.9793 25.4764 17.929 25.4943 19.0132C25.5145 20.1354 26.4396 21.0157 27.5865 21.0023C28.7356 20.9889 29.6092 20.0996 29.598 18.9527C29.5891 17.8282 28.6684 16.9389 27.5327 16.9591Z" fill="white"/>
<path d="M47.633 49.0605C46.2017 48.4243 44.889 47.4678 43.4913 47.3222C42.098 47.1766 40.6353 47.9808 39.1793 48.1286C34.7418 48.5834 30.7658 47.3469 27.4887 44.3139C21.2548 38.5482 22.1463 29.7069 29.3569 24.9805C35.7678 20.7805 45.169 22.1805 49.6871 28.009C53.6318 33.0938 53.1681 39.8429 48.3521 44.1146C46.9588 45.351 46.457 46.368 47.3508 47.9987C47.5188 48.3011 47.5367 48.6819 47.633 49.0605ZM31.3415 33.2886C32.2532 33.2886 33.0036 32.5763 33.0372 31.6758C33.073 30.7238 32.307 29.9242 31.3527 29.9197C30.4074 29.9152 29.6167 30.7261 29.6503 31.6646C29.6817 32.5629 30.4366 33.2864 31.3415 33.2886ZM41.8426 29.9242C40.9578 29.9174 40.2074 30.641 40.1716 31.5347C40.1335 32.489 40.875 33.2752 41.8202 33.2774C42.7342 33.2797 43.4577 32.5898 43.489 31.6803C43.5271 30.7216 42.7834 29.9309 41.8426 29.9242Z" fill="white"/>
</g>
<defs>
<clipPath id="clip0_2635_6554">
<rect width="56" height="56" fill="white"/>
</clipPath>
</defs>
</svg>
