<svg width="56" height="56" viewBox="0 0 56 56" fill="none" xmlns="http://www.w3.org/2000/svg">
<path d="M0 12.8C0 8.31958 0 6.07937 0.871948 4.36808C1.63893 2.86278 2.86278 1.63893 4.36808 0.871948C6.07937 0 8.31958 0 12.8 0H43.2C47.6804 0 49.9206 0 51.6319 0.871948C53.1372 1.63893 54.3611 2.86278 55.1281 4.36808C56 6.07937 56 8.31958 56 12.8V43.2C56 47.6804 56 49.9206 55.1281 51.6319C54.3611 53.1372 53.1372 54.3611 51.6319 55.1281C49.9206 56 47.6804 56 43.2 56H12.8C8.31958 56 6.07937 56 4.36808 55.1281C2.86278 54.3611 1.63893 53.1372 0.871948 51.6319C0 49.9206 0 47.6804 0 43.2V12.8Z" fill="url(#paint0_linear_2730_9033)"/>
<g clip-path="url(#clip0_2730_9033)">
<path d="M11.7217 27.7965C11.7209 30.6532 12.4673 33.4425 13.8866 35.901L11.5859 44.3011L20.1824 42.0471C22.5601 43.3415 25.2241 44.0197 27.9312 44.0199H27.9384C36.8752 44.0199 44.15 36.7477 44.1538 27.8093C44.1556 23.478 42.4703 19.4051 39.4085 16.3409C36.3472 13.2769 32.2757 11.5886 27.9377 11.5867C18.9998 11.5867 11.7255 18.8585 11.7218 27.7965" fill="url(#paint1_linear_2730_9033)"/>
<path d="M11.1488 27.7913C11.1479 30.7507 11.9211 33.6398 13.391 36.1864L11.0078 44.8876L19.9125 42.5528C22.3661 43.8905 25.1285 44.5958 27.9394 44.5969H27.9467C37.2042 44.5969 44.7403 37.0631 44.7442 27.8047C44.7458 23.3178 43 19.0985 39.8287 15.9245C36.6571 12.7509 32.4401 11.0018 27.9467 11C18.6876 11 11.1525 18.5327 11.1488 27.7913ZM16.4518 35.7478L16.1193 35.22C14.7216 32.9976 13.9839 30.4294 13.9849 27.7923C13.988 20.0968 20.2508 13.836 27.9519 13.836C31.6814 13.8376 35.1863 15.2914 37.8225 17.9291C40.4585 20.5672 41.9091 24.0739 41.9081 27.8036C41.9047 35.4991 35.6417 41.7608 27.9467 41.7608H27.9411C25.4355 41.7595 22.9782 41.0866 20.8351 39.815L20.3251 39.5126L15.0409 40.898L16.4518 35.7477V35.7478Z" fill="url(#paint2_linear_2730_9033)"/>
<path d="M23.7432 20.7713C23.4288 20.0725 23.0979 20.0584 22.7989 20.0461C22.554 20.0356 22.2741 20.0364 21.9945 20.0364C21.7146 20.0364 21.2598 20.1417 20.8754 20.5614C20.4906 20.9815 19.4062 21.9968 19.4062 24.0617C19.4062 26.1267 20.9103 28.1223 21.12 28.4026C21.3299 28.6824 24.0235 33.0555 28.2896 34.7378C31.8351 36.1359 32.5566 35.8579 33.3261 35.7877C34.0957 35.7179 35.8094 34.7728 36.159 33.7927C36.5089 32.8127 36.5089 31.9728 36.404 31.7972C36.2991 31.6224 36.0192 31.5173 35.5995 31.3075C35.1796 31.0976 33.1162 30.0822 32.7315 29.9421C32.3467 29.8022 32.0669 29.7323 31.787 30.1526C31.5071 30.5722 30.7033 31.5173 30.4584 31.7972C30.2136 32.0778 29.9686 32.1127 29.5491 31.9028C29.1291 31.6922 27.7774 31.2495 26.1737 29.8198C24.926 28.7073 24.0836 27.3335 23.8388 26.9132C23.5939 26.4936 23.8125 26.2662 24.023 26.057C24.2116 25.869 24.4429 25.5669 24.6529 25.3219C24.8622 25.0768 24.932 24.9019 25.072 24.622C25.2121 24.3419 25.142 24.0968 25.0372 23.8868C24.932 23.6769 24.1164 21.6012 23.7432 20.7713Z" fill="white"/>
</g>
<defs>
<linearGradient id="paint0_linear_2730_9033" x1="28" y1="0" x2="28" y2="56" gradientUnits="userSpaceOnUse">
<stop stop-color="#5CF777"/>
<stop offset="1" stop-color="#0EBC29"/>
</linearGradient>
<linearGradient id="paint1_linear_2730_9033" x1="1639.98" y1="3283.03" x2="1639.98" y2="11.5867" gradientUnits="userSpaceOnUse">
<stop stop-color="#1FAF38"/>
<stop offset="1" stop-color="#60D669"/>
</linearGradient>
<linearGradient id="paint2_linear_2730_9033" x1="1697.83" y1="3399.76" x2="1697.83" y2="11" gradientUnits="userSpaceOnUse">
<stop stop-color="#F9F9F9"/>
<stop offset="1" stop-color="white"/>
</linearGradient>
<clipPath id="clip0_2730_9033">
<rect width="33.745" height="34" fill="white" transform="translate(11 11)"/>
</clipPath>
</defs>
</svg>
