<svg width="52" height="53" viewBox="0 0 52 53" fill="none" xmlns="http://www.w3.org/2000/svg">
<path d="M43.875 0.55957H8.125C3.63769 0.55957 0 4.19726 0 8.68457V44.4346C0 48.9219 3.63769 52.5596 8.125 52.5596H43.875C48.3623 52.5596 52 48.9219 52 44.4346V8.68457C52 4.19726 48.3623 0.55957 43.875 0.55957Z" fill="#25D366"/>
<path fill-rule="evenodd" clip-rule="evenodd" d="M35.1 17.2971C32.6625 14.8596 29.4125 13.5596 26 13.5596C18.85 13.5596 13 19.4096 13 26.5596C13 28.8346 13.65 31.1096 14.7875 33.0596L13 39.5596L19.825 37.7721C21.775 38.7471 23.8875 39.3971 26 39.3971C33.15 39.3971 39 33.5471 39 26.3971C39 22.9846 37.5375 19.7346 35.1 17.2971ZM26 37.2846C24.05 37.2846 22.1 36.7971 20.475 35.8221L20.15 35.6596L16.0875 36.7971L17.225 32.8971L16.9 32.4096C15.7625 30.6221 15.275 28.6721 15.275 26.7221C15.275 20.8721 20.15 15.9971 26 15.9971C28.925 15.9971 31.525 17.1346 33.6375 19.0846C35.75 21.1971 36.725 23.7971 36.725 26.7221C36.725 32.4096 32.0125 37.2846 26 37.2846ZM31.85 29.1596C31.525 28.9971 29.9 28.1846 29.575 28.1846C29.25 28.0221 29.0875 28.0221 28.925 28.3471C28.7625 28.6721 28.1125 29.3221 27.95 29.6471C27.7875 29.8096 27.625 29.8096 27.3 29.8096C26.975 29.6471 26 29.3221 24.7 28.1846C23.725 27.3721 23.075 26.2346 22.9125 25.9096C22.75 25.5846 22.9125 25.4221 23.075 25.2596C23.2375 25.0971 23.4 24.9346 23.5625 24.7721C23.725 24.6096 23.725 24.4471 23.8875 24.2846C24.05 24.1221 23.8875 23.9596 23.8875 23.7971C23.8875 23.6346 23.2375 22.0096 22.9125 21.3596C22.75 20.8721 22.425 20.8721 22.2625 20.8721C22.1 20.8721 21.9375 20.8721 21.6125 20.8721C21.45 20.8721 21.125 20.8721 20.8 21.1971C20.475 21.5221 19.6625 22.3346 19.6625 23.9596C19.6625 25.5846 20.8 27.0471 20.9625 27.3721C21.125 27.5346 23.2375 30.9471 26.4875 32.2471C29.25 33.3846 29.7375 33.0596 30.3875 33.0596C31.0375 33.0596 32.3375 32.2471 32.5 31.5971C32.825 30.7846 32.825 30.1346 32.6625 30.1346C32.5 29.3221 32.175 29.3221 31.85 29.1596Z" fill="white"/>
</svg>
