<svg width="56" height="56" viewBox="0 0 56 56" fill="none" xmlns="http://www.w3.org/2000/svg">
<g clip-path="url(#clip0_2730_8997)">
<path fill-rule="evenodd" clip-rule="evenodd" d="M11.4844 0H44.5156C47.5589 0.00841846 50.4751 1.22108 52.627 3.373C54.7789 5.52491 55.9916 8.44112 56 11.4844V44.5156C55.9916 47.5589 54.7789 50.4751 52.627 52.627C50.4751 54.7789 47.5589 55.9916 44.5156 56H11.4844C8.44112 55.9916 5.52491 54.7789 3.373 52.627C1.22108 50.4751 0.00841846 47.5589 0 44.5156L0 11.4844C0.00841846 8.44112 1.22108 5.52491 3.373 3.373C5.52491 1.22108 8.44112 0.00841846 11.4844 0Z" fill="white"/>
<g clip-path="url(#clip1_2730_8997)">
<path d="M28 56C43.464 56 56 43.464 56 28C56 12.536 43.464 0 28 0C12.536 0 0 12.536 0 28C0 43.464 12.536 56 28 56Z" fill="white"/>
</g>
<path d="M7.14062 25.4053H9.68187L11.1616 29.191L12.6606 25.4053H15.1348L11.4091 34.3674H8.91908L9.93894 31.9925L7.14062 25.4053Z" fill="#5F01D1"/>
<path d="M17.7101 25.2544C15.8008 25.2544 14.5938 26.9668 14.5938 28.672C14.5938 30.5909 15.9171 32.1123 17.6739 32.1123C18.9844 32.1123 19.4785 31.3139 19.4785 31.3139V31.9358H21.6949V25.4052H19.4785V25.9989C19.4785 25.9989 18.9272 25.2544 17.7101 25.2544ZM18.1816 27.3532C19.0625 27.3532 19.5172 28.0502 19.5172 28.6792C19.5172 29.3565 19.0301 30.0213 18.1816 30.0213C17.4783 30.0213 16.8428 29.4465 16.8428 28.708C16.8428 27.9592 17.354 27.3532 18.1816 27.3532Z" fill="#5F01D1"/>
<path d="M22.4609 31.9359V22.5215H24.7792V26.0216C24.7792 26.0216 25.3298 25.2553 26.4831 25.2553C27.8937 25.2553 28.7203 26.3064 28.7203 27.8083V31.9359H26.4189V28.3737C26.4189 27.8654 26.1767 27.3744 25.6284 27.3744C25.0701 27.3744 24.7792 27.8729 24.7792 28.3737V31.9359L22.4609 31.9359Z" fill="#5F01D1"/>
<path d="M32.676 25.2551C30.4894 25.2551 29.1875 26.9178 29.1875 28.6992C29.1875 30.7263 30.7639 32.1122 32.6843 32.1122C34.5456 32.1122 36.1744 30.7892 36.1744 28.7331C36.1744 26.4834 34.4691 25.2551 32.676 25.2551ZM32.6969 27.3723C33.4693 27.3723 34.0037 28.0156 34.0037 28.7016C34.0037 29.2867 33.5057 30.0085 32.6969 30.0085C31.9558 30.0085 31.3997 29.4139 31.3997 28.6952C31.3996 28.0029 31.862 27.3723 32.6969 27.3723Z" fill="#5F01D1"/>
<path d="M40.0353 25.2551C37.8488 25.2551 36.5469 26.9178 36.5469 28.6992C36.5469 30.7263 38.1233 32.1122 40.0437 32.1122C41.905 32.1122 43.5338 30.7892 43.5338 28.7331C43.5338 26.4834 41.8284 25.2551 40.0353 25.2551ZM40.0563 27.3723C40.8286 27.3723 41.3631 28.0156 41.3631 28.7016C41.3631 29.2867 40.8651 30.0085 40.0563 30.0085C39.3151 30.0085 38.7591 29.4139 38.7591 28.6952C38.759 28.0029 39.2213 27.3723 40.0563 27.3723Z" fill="#5F01D1"/>
<path d="M45.3597 28.9958C46.2099 28.9958 46.8991 29.6851 46.8991 30.5353C46.8991 31.3855 46.2099 32.0747 45.3597 32.0747C44.5095 32.0747 43.8203 31.3855 43.8203 30.5353C43.8203 29.6851 44.5095 28.9958 45.3597 28.9958Z" fill="#5F01D1"/>
<path d="M47.4041 28.4302H44.6328L47.0924 22.5215H49.8534L47.4041 28.4302Z" fill="#5F01D1"/>
</g>
<defs>
<clipPath id="clip0_2730_8997">
<rect width="56" height="56" fill="white"/>
</clipPath>
<clipPath id="clip1_2730_8997">
<rect width="56" height="56" fill="white"/>
</clipPath>
</defs>
</svg>
