<svg width="56" height="56" viewBox="0 0 56 56" fill="none" xmlns="http://www.w3.org/2000/svg">
<g clip-path="url(#clip0_2635_7224)">
<path fill-rule="evenodd" clip-rule="evenodd" d="M11.4844 0H44.5156C47.5589 0.00841846 50.4751 1.22108 52.627 3.373C54.7789 5.52491 55.9916 8.44112 56 11.4844V44.5156C55.9916 47.5589 54.7789 50.4751 52.627 52.627C50.4751 54.7789 47.5589 55.9916 44.5156 56H11.4844C8.44112 55.9916 5.52491 54.7789 3.373 52.627C1.22108 50.4751 0.00841846 47.5589 0 44.5156L0 11.4844C0.00841846 8.44112 1.22108 5.52491 3.373 3.373C5.52491 1.22108 8.44112 0.00841846 11.4844 0Z" fill="white"/>
<g clip-path="url(#clip1_2635_7224)">
<path d="M28 56C43.464 56 56 43.464 56 28C56 12.536 43.464 0 28 0C12.536 0 0 12.536 0 28C0 43.464 12.536 56 28 56Z" fill="white"/>
</g>
<g clip-path="url(#clip2_2635_7224)">
<path d="M12.815 27.2215C12.1331 28.3145 11.8448 31.7572 12.0817 34.0419C12.1652 34.796 12.3016 35.425 12.5004 35.7999C12.7731 36.319 13.2318 36.6277 13.7544 36.6466C14.0895 36.6636 14.2981 36.6069 20.6034 34.5796C20.6034 34.5796 23.4057 33.6853 23.4167 33.6796C24.1157 33.5016 24.5857 32.859 24.6314 32.0388C24.6767 31.1977 24.243 30.455 23.5266 30.186C23.5266 30.186 21.5506 29.3808 21.5469 29.3808C14.7718 26.5864 14.4669 26.4765 14.1258 26.4727C13.6032 26.4516 13.1389 26.7153 12.8147 27.2212L12.815 27.2215ZM28.2353 24.1864C28.1121 21.3483 27.2575 8.7114 27.1573 8.12581C27.0134 7.59535 26.5985 7.21641 26.0035 7.06678C24.1752 6.61412 17.1879 8.57122 15.8939 9.90683C15.4771 10.3409 15.3237 10.8751 15.4484 11.3489C15.6532 11.7675 24.3094 25.3879 24.3094 25.3879C25.5883 27.4625 26.6322 27.1402 26.9753 27.0322C27.3142 26.9279 28.3525 26.6056 28.2353 24.1864ZM35.4233 30.0996C42.5848 28.364 42.8614 28.2733 43.1436 28.0874C43.5777 27.7957 43.7954 27.3068 43.7576 26.7118C43.7576 26.6929 43.7613 26.6718 43.7576 26.651C43.5736 24.893 40.4932 20.3192 38.9755 19.5767C38.4375 19.3187 37.8995 19.3361 37.4525 19.6353C37.1759 19.8152 36.9731 20.0883 33.1386 25.3324C33.1386 25.3324 31.407 27.6911 31.3862 27.7138C30.9298 28.2689 30.9222 29.0645 31.3692 29.7468C31.8316 30.4537 32.6122 30.7983 33.3282 30.5995C33.3282 30.5995 33.2995 30.6506 33.292 30.6603C33.6445 30.5277 34.2754 30.3721 35.4233 30.0996ZM38.6801 45.7375C40.2715 45.1028 43.7424 40.6865 43.9869 38.9871C44.0719 38.3958 43.8864 37.8865 43.4791 37.5604C43.212 37.3598 43.0091 37.282 36.7079 35.213C36.7079 35.213 33.9437 34.2999 33.9075 34.2829C33.2387 34.0233 32.4752 34.2636 31.9617 34.8965C31.4275 35.5463 31.3478 36.4047 31.774 37.0527L32.8863 38.8639C36.6263 44.9381 36.9123 45.368 37.1813 45.5785C37.598 45.9061 38.1285 45.9593 38.6798 45.7375H38.6801ZM27.9719 48.0433C28.0819 47.7249 28.0951 47.5072 28.114 40.8834C28.114 40.8834 28.1291 37.9561 28.131 37.9277C28.1764 37.2095 27.7124 36.5562 26.9526 36.2642C26.1701 35.9631 25.3272 36.1486 24.8534 36.738C24.8534 36.738 23.4706 38.3788 23.4665 38.3788C18.7207 43.9546 18.5219 44.2123 18.406 44.5418C18.3357 44.7349 18.3074 44.9434 18.3301 45.1501C18.3587 45.4455 18.4929 45.7372 18.7147 46.01C19.8156 47.3173 25.0938 49.2593 26.78 48.9713C27.3652 48.8652 27.7918 48.5357 27.9716 48.043L27.9719 48.0433Z" fill="#BF2519"/>
</g>
</g>
<defs>
<clipPath id="clip0_2635_7224">
<rect width="56" height="56" fill="white"/>
</clipPath>
<clipPath id="clip1_2635_7224">
<rect width="56" height="56" fill="white"/>
</clipPath>
<clipPath id="clip2_2635_7224">
<rect width="32.0069" height="42" fill="white" transform="translate(12 7)"/>
</clipPath>
</defs>
</svg>
