<svg width="52" height="53" viewBox="0 0 52 53" fill="none" xmlns="http://www.w3.org/2000/svg">
<path d="M44.2 0.55957H7.8C3.49218 0.55957 0 4.05175 0 8.35957V44.7596C0 49.0674 3.49218 52.5596 7.8 52.5596H44.2C48.5078 52.5596 52 49.0674 52 44.7596V8.35957C52 4.05175 48.5078 0.55957 44.2 0.55957Z" fill="#ED1D24"/>
<path d="M43.3667 17.7241C42.9605 16.2007 41.6401 14.9819 40.1167 14.5757C36.6636 13.6616 15.8433 13.5601 11.8823 14.5757C10.3589 14.9819 9.03859 16.2007 8.63234 17.7241C7.71827 21.5835 7.61671 31.4351 8.63234 35.396C9.03859 36.9194 10.3589 38.1382 11.8823 38.5444C15.5386 39.5601 36.3589 39.5601 40.1167 38.5444C41.6401 38.1382 42.9605 36.9194 43.3667 35.396C44.2808 31.7398 44.2808 21.4819 43.3667 17.7241Z" fill="white"/>
<path d="M22.3438 21.1768V31.9424L31.7891 26.5596" fill="#ED1D24"/>
</svg>
