<svg width="56" height="56" viewBox="0 0 56 56" fill="none" xmlns="http://www.w3.org/2000/svg">
<g clip-path="url(#clip0_2635_7450)">
<path fill-rule="evenodd" clip-rule="evenodd" d="M11.4844 0H44.5156C47.5589 0.00841846 50.4751 1.22108 52.627 3.373C54.7789 5.52491 55.9916 8.44112 56 11.4844V44.5156C55.9916 47.5589 54.7789 50.4751 52.627 52.627C50.4751 54.7789 47.5589 55.9916 44.5156 56H11.4844C8.44112 55.9916 5.52491 54.7789 3.373 52.627C1.22108 50.4751 0.00841846 47.5589 0 44.5156L0 11.4844C0.00841846 8.44112 1.22108 5.52491 3.373 3.373C5.52491 1.22108 8.44112 0.00841846 11.4844 0Z" fill="white"/>
<g clip-path="url(#clip1_2635_7450)">
<path d="M28 56C43.464 56 56 43.464 56 28C56 12.536 43.464 0 28 0C12.536 0 0 12.536 0 28C0 43.464 12.536 56 28 56Z" fill="white"/>
</g>
<path d="M18.0019 33.2849C18.2229 33.5189 18.2099 33.7789 18.1709 33.8829H14.1409V36.2879H11.7619V33.8829H7.79688V31.7899L14.2059 23.5869H8.04388V21.1169L11.7619 21.1559V18.7119H14.1409V21.1429H17.9109V23.1059L11.4889 31.3609C11.4889 31.3869 16.0649 31.3869 16.8579 31.4129C16.8969 31.4389 16.9879 31.7119 17.1049 31.9459C17.3649 32.4789 17.6509 32.8949 18.0019 33.2849ZM32.7179 32.0629C32.6529 31.6729 32.5749 31.6079 32.1069 31.6209C31.8859 31.6209 31.6649 31.6079 31.6259 31.5819C31.3919 31.4389 31.3919 31.3999 31.3919 25.6669C31.3919 21.9879 31.3789 20.1289 31.3399 20.0639C31.2879 19.9599 31.2099 19.9599 30.1309 19.9599C29.5069 19.9599 28.9479 19.9729 28.9219 19.9989C28.8699 20.0249 28.8439 21.2729 28.8439 26.0049C28.8439 32.4009 28.8439 32.2969 29.1169 32.8429C29.3769 33.3369 29.9879 33.7789 30.6899 33.9609C31.0799 34.0649 32.2109 34.0779 32.6399 33.9869C33.1989 33.8699 33.3029 33.7009 33.0819 33.2589C32.9519 32.9859 32.7699 32.4009 32.7179 32.0629ZM37.9829 32.0629L37.7619 31.6339H37.3459C36.8259 31.6209 36.7739 31.5949 36.6829 31.3609C36.6049 31.1919 36.5919 30.3599 36.5919 25.6799C36.5919 22.0009 36.5789 20.1419 36.5399 20.0769C36.4879 19.9729 36.4099 19.9729 35.3309 19.9729C34.7069 19.9729 34.1479 19.9989 34.1089 20.0249C34.0309 20.0639 34.0179 20.7919 34.0179 25.9789C34.0179 31.5689 34.0179 31.9069 34.1219 32.2969C34.3169 33.0639 34.7459 33.5319 35.5779 33.8829C35.8899 34.0129 36.0329 34.0389 36.6699 34.0519C37.5279 34.0779 37.9569 34.0129 38.3989 33.7919C38.8279 33.5839 38.8409 33.4409 38.4769 32.8949C38.3339 32.6739 38.1129 32.2969 37.9829 32.0629ZM50.5019 23.1189C50.1379 23.5089 49.4229 23.5999 48.9809 23.3009C48.6299 23.0669 48.4479 22.7419 48.4609 22.3129C48.4609 21.8059 48.7079 21.4419 49.1629 21.2339C49.4749 21.1039 49.9949 21.1429 50.2939 21.3509C50.8659 21.7409 50.9699 22.6119 50.5019 23.1189ZM50.0599 21.4419C49.7739 21.2989 49.4879 21.2859 49.2409 21.4029C48.3179 21.8189 48.5129 23.1969 49.5009 23.2879C49.8519 23.3269 50.0209 23.2749 50.2549 23.0669C50.8009 22.5859 50.6969 21.7669 50.0599 21.4419ZM49.9949 22.6899C50.2029 23.0019 50.2159 23.0149 50.0729 23.0149C50.0079 23.0149 49.9039 22.8979 49.8129 22.7289C49.6829 22.5209 49.6049 22.4429 49.5139 22.4429C49.3969 22.4429 49.3839 22.4689 49.3839 22.7289C49.3839 22.9369 49.3579 23.0149 49.3059 23.0149C49.2669 23.0149 49.2149 22.9759 49.1889 22.9239C49.1499 22.8199 49.1499 21.7669 49.1889 21.7019C49.2019 21.6759 49.3709 21.6629 49.5789 21.6629C49.9819 21.6629 50.1639 21.7799 50.1639 22.0269C50.1639 22.1699 50.0209 22.3519 49.8779 22.4039C49.8389 22.4169 49.8649 22.5079 49.9949 22.6899ZM49.9429 22.0659C49.9559 21.9879 49.9299 21.9099 49.8909 21.8839C49.8519 21.8579 49.7219 21.8319 49.6049 21.8319C49.3969 21.8319 49.3839 21.8319 49.3839 22.0399V22.2349L49.6569 22.2219C49.8909 22.1959 49.9169 22.1829 49.9429 22.0659ZM27.5699 27.6949C27.6999 28.5919 27.6609 29.4109 27.4789 29.5279C27.4399 29.5539 25.8149 29.5799 23.8779 29.5799H20.3549L20.3939 29.7879C20.4459 30.0999 20.7189 30.6589 20.9399 30.8929C21.3689 31.3739 22.0319 31.6209 22.9419 31.6209C23.9429 31.6209 24.7099 31.3609 25.3079 30.8149C25.4769 30.6459 25.6589 30.5289 25.7499 30.5289C25.8409 30.5289 25.9969 30.6589 26.2699 30.9579C26.4909 31.1919 26.8159 31.5039 26.9979 31.6469C27.4399 31.9849 27.4399 32.1019 27.0109 32.5049C26.3219 33.1549 25.4769 33.6099 24.4759 33.8959C24.0729 33.9999 23.8779 34.0259 22.9159 34.0259C21.9409 34.0259 21.7589 34.0129 21.3299 33.8959C20.0819 33.5579 19.1199 32.8819 18.4699 31.8939C17.8849 31.0099 17.6379 30.0869 17.6379 28.8259C17.6379 27.9289 17.7549 27.3179 18.0539 26.5379C18.5999 25.1209 19.8869 24.0029 21.3299 23.6779C21.5639 23.6259 21.7849 23.5739 21.8109 23.5609C21.8499 23.5479 22.2399 23.5349 22.6819 23.5349C23.3189 23.5349 23.6049 23.5609 23.9689 23.6389C25.9709 24.1199 27.2449 25.5629 27.5699 27.6949ZM25.0219 27.5389L24.9829 27.3569C24.9309 27.0709 24.6969 26.6159 24.4759 26.3689C24.2419 26.0959 23.7349 25.8099 23.3189 25.7319C22.9419 25.6539 22.4479 25.6539 22.0969 25.7449C21.2779 25.9529 20.6279 26.5899 20.4589 27.3569L20.4199 27.5389H22.7209H25.0219ZM48.2009 26.7199C48.4999 27.5779 48.5909 29.4369 48.3439 29.6059H41.1809L41.2199 29.7489C41.4929 30.9969 42.3249 31.6079 43.7679 31.6209C44.7949 31.6209 45.5229 31.3739 46.1469 30.8149C46.5629 30.4379 46.6539 30.4509 47.0179 30.8669C47.1739 31.0489 47.5119 31.3739 47.7589 31.5819C48.2919 32.0239 48.2919 32.0499 47.7979 32.5309C47.1479 33.1549 46.3029 33.6229 45.3279 33.8699C45.0159 33.9609 44.6389 33.9999 43.9629 34.0129C43.1569 34.0389 42.9489 34.0259 42.4289 33.9219C40.8039 33.5839 39.6079 32.6609 38.9449 31.2439C38.4639 30.2169 38.3209 28.7739 38.5809 27.5389C39.0099 25.4459 40.3619 24.0419 42.3769 23.5869C42.8189 23.4959 44.2099 23.4959 44.6779 23.5869C46.1469 23.8989 47.2129 24.6789 47.8629 25.9529C47.9929 26.2129 48.1359 26.5509 48.2009 26.7199ZM45.8219 27.4089C45.8219 27.1879 45.4319 26.4989 45.1979 26.2779C44.9119 26.0179 44.5219 25.8229 44.1319 25.7449C42.8059 25.4589 41.5579 26.1869 41.2589 27.3959L41.2199 27.5519H45.8089V27.4089H45.8219Z" fill="#6C1CD3"/>
</g>
<defs>
<clipPath id="clip0_2635_7450">
<rect width="56" height="56" fill="white"/>
</clipPath>
<clipPath id="clip1_2635_7450">
<rect width="56" height="56" fill="white"/>
</clipPath>
</defs>
</svg>
