<svg width="56" height="56" viewBox="0 0 56 56" fill="none" xmlns="http://www.w3.org/2000/svg">
<g clip-path="url(#clip0_2744_15979)">
<path fill-rule="evenodd" clip-rule="evenodd" d="M11.4844 0H44.5156C47.5589 0.00841846 50.4751 1.22108 52.627 3.373C54.7789 5.52491 55.9916 8.44112 56 11.4844V44.5156C55.9916 47.5589 54.7789 50.4751 52.627 52.627C50.4751 54.7789 47.5589 55.9916 44.5156 56H11.4844C8.44112 55.9916 5.52491 54.7789 3.373 52.627C1.22108 50.4751 0.00841846 47.5589 0 44.5156L0 11.4844C0.00841846 8.44112 1.22108 5.52491 3.373 3.373C5.52491 1.22108 8.44112 0.00841846 11.4844 0Z" fill="white"/>
<g clip-path="url(#clip1_2744_15979)">
<path d="M28 56C43.464 56 56 43.464 56 28C56 12.536 43.464 0 28 0C12.536 0 0 12.536 0 28C0 43.464 12.536 56 28 56Z" fill="white"/>
</g>
<g clip-path="url(#clip2_2744_15979)">
<path d="M34.6174 18.7863C34.8004 18.7456 34.8817 18.8066 34.9928 18.9286C35.623 19.6292 37.6373 22.0892 38.1847 22.7601C38.2863 22.8821 38.216 23.0151 38.1346 23.0854C34.0685 26.257 29.5441 30.7501 27.0231 33.9624C26.9731 34.0343 27.0137 34.0343 27.0544 34.0234C31.4458 32.1326 41.7629 29.1127 46.4093 28.2698V22.3848L28.2242 8L10.0078 22.3739V28.8078C15.6488 25.4547 28.7012 20.2595 34.6174 18.7863Z" fill="#006AFF"/>
<path d="M19.8198 43.5084C19.6681 43.5897 19.5445 43.5694 19.4225 43.4474L16.0273 39.4016C15.9366 39.289 15.9256 39.228 16.0476 39.056C18.6719 35.2135 24.0282 29.2253 27.4438 26.6949C27.5048 26.6542 27.4845 26.6026 27.4125 26.6339C23.8546 27.7927 13.7409 32.1435 10 34.2579V47.9999H46.403V34.7662C41.4423 35.6091 26.5805 40.0319 19.8198 43.5084Z" fill="#006AFF"/>
</g>
</g>
<defs>
<clipPath id="clip0_2744_15979">
<rect width="56" height="56" fill="white"/>
</clipPath>
<clipPath id="clip1_2744_15979">
<rect width="56" height="56" fill="white"/>
</clipPath>
<clipPath id="clip2_2744_15979">
<rect width="36.416" height="40" fill="white" transform="translate(10 8)"/>
</clipPath>
</defs>
</svg>
