<svg width="56" height="56" viewBox="0 0 56 56" fill="none" xmlns="http://www.w3.org/2000/svg">
<g clip-path="url(#clip0_2730_15897)">
<path fill-rule="evenodd" clip-rule="evenodd" d="M11.4844 0H44.5156C47.5589 0.00841846 50.4751 1.22108 52.627 3.373C54.7789 5.52491 55.9916 8.44112 56 11.4844V44.5156C55.9916 47.5589 54.7789 50.4751 52.627 52.627C50.4751 54.7789 47.5589 55.9916 44.5156 56H11.4844C8.44112 55.9916 5.52491 54.7789 3.373 52.627C1.22108 50.4751 0.00841846 47.5589 0 44.5156L0 11.4844C0.00841846 8.44112 1.22108 5.52491 3.373 3.373C5.52491 1.22108 8.44112 0.00841846 11.4844 0Z" fill="white"/>
<g clip-path="url(#clip1_2730_15897)">
<path d="M28 56C43.464 56 56 43.464 56 28C56 12.536 43.464 0 28 0C12.536 0 0 12.536 0 28C0 43.464 12.536 56 28 56Z" fill="white"/>
</g>
<path d="M12.4517 25.0943L12.4124 26.3409L9.16334 29.8747C10.5179 29.8747 11.3817 29.8649 11.8725 29.8354C11.7253 30.5029 11.6075 31.0526 11.4897 31.8771C10.8419 31.8182 9.82101 31.8084 8.80015 31.8084C7.6615 31.8084 6.67009 31.8182 5.875 31.8771L5.90445 30.6207L9.15353 27.1066C7.73021 27.1066 7.20997 27.1164 6.62101 27.136C6.74862 26.5078 6.84678 25.8109 6.93512 25.114C7.97561 25.1336 8.38788 25.1532 9.72285 25.1532C10.9695 25.1532 11.6664 25.1336 12.4517 25.0943ZM14.7584 29.0011C14.7584 29.8354 15.0333 30.2575 15.5044 30.2575C16.1327 30.2575 16.6235 29.2465 16.6235 28.0097C16.6235 27.1655 16.3486 26.7532 15.8971 26.7532C15.2689 26.7532 14.7584 27.7544 14.7584 29.0011ZM19.0284 27.9115C19.0284 30.179 17.4284 32.0735 15.2983 32.0735C13.394 32.0735 12.4124 30.7778 12.4124 29.0796C12.4124 26.8219 14.0321 24.9373 16.1425 24.9373C18.0762 24.9373 19.0284 26.233 19.0284 27.9115ZM44.5793 29.0011C44.5793 29.8354 44.8541 30.2575 45.3253 30.2575C45.9535 30.2575 46.4443 29.2465 46.4443 28.0097C46.4443 27.1655 46.1695 26.7532 45.7179 26.7532C45.0897 26.7532 44.5793 27.7544 44.5793 29.0011ZM48.9278 27.8722C48.9278 30.1692 47.2983 32.0833 45.1486 32.0833C43.2149 32.0833 42.2333 30.7679 42.2333 29.0501C42.2333 26.763 43.8725 24.8489 46.0124 24.8489C47.9658 24.8489 48.9278 26.1643 48.9278 27.8722ZM29.9928 27.136C30.1597 25.9679 30.0713 24.9176 28.7756 24.9176C27.8333 24.9176 26.8222 25.7127 26.1057 27.0379C26.2627 25.9385 26.1744 24.9176 24.8885 24.9176C23.9265 24.9176 22.8762 25.752 22.1597 27.136C22.3462 26.233 22.3069 25.2023 22.248 24.9863C21.502 25.114 20.8541 25.1827 19.9413 25.2023C19.9707 25.8305 19.9314 26.6551 19.8136 27.4305L19.5094 29.4821C19.3916 30.287 19.264 31.2195 19.1265 31.8084H21.5511C21.5609 31.4551 21.659 30.8955 21.7179 30.3949L21.9241 28.9814C22.091 28.0686 22.8271 26.979 23.3867 26.979C23.7106 26.979 23.7008 27.2931 23.6124 27.8821L23.3768 29.4722C23.259 30.2771 23.1314 31.2097 22.994 31.7986H25.448C25.4578 31.4452 25.5363 30.8857 25.6051 30.3851L25.8112 28.9716C25.9781 28.0587 26.7143 26.9692 27.2738 26.9692C27.5977 26.9692 27.5879 27.2735 27.5388 27.6759L26.9498 31.779H29.1879L29.9928 27.136ZM41.7032 29.8845L41.4382 31.5041C41.0357 31.7201 40.2799 32.0342 39.4063 32.0342C37.9241 32.0342 37.6198 31.2391 37.8554 29.5606L38.2382 26.8514H37.502L37.7081 25.0943L38.5032 25.0551L38.8075 23.779L41.0652 22.9348L40.7805 25.0551H42.3314C42.2824 25.271 42.0959 26.4784 42.0468 26.8514H40.5351L40.1916 29.3544C40.1032 30.0023 40.1523 30.2281 40.594 30.2281C40.9278 30.2281 41.4087 30.0317 41.7032 29.8845Z" fill="black"/>
<path d="M33.1546 30.6501C33.9792 30.5519 34.5387 29.7568 34.6761 28.9716L34.6957 28.7556C34.3424 28.6771 33.8319 28.6182 33.3411 28.6771C32.87 28.736 32.4773 28.9323 32.2712 29.217C32.1141 29.4231 32.0356 29.6685 32.0651 29.9532C32.1141 30.3851 32.5951 30.7188 33.1546 30.6501ZM32.4479 31.9065C31.2896 32.0538 30.5239 31.5924 30.2982 30.5421C30.1509 29.8845 30.3571 29.1384 30.7006 28.6869C31.1718 28.0979 31.9276 27.7249 32.8601 27.6072C33.6062 27.5188 34.2344 27.5581 34.8233 27.6759L34.8528 27.5777C34.8724 27.4206 34.8822 27.2538 34.8626 27.0575C34.8037 26.5667 34.4111 26.2624 33.4491 26.3802C32.8012 26.4587 32.173 26.6943 31.692 26.9593L31.2209 25.5458C31.8687 25.1728 32.6933 24.8881 33.6356 24.7703C35.4319 24.5446 36.6982 25.1237 36.8552 26.4391C36.8945 26.7924 36.9043 27.1654 36.8552 27.4992C36.6197 29.1286 36.4724 30.3556 36.4135 31.1802C36.4037 31.3078 36.4037 31.5237 36.4135 31.8378H34.1853C34.2344 31.7102 34.2736 31.5335 34.3129 31.3176C34.3423 31.1703 34.3522 30.9937 34.3718 30.7679C33.9104 31.4157 33.2626 31.8084 32.4479 31.9065Z" fill="black"/>
</g>
<defs>
<clipPath id="clip0_2730_15897">
<rect width="56" height="56" fill="white"/>
</clipPath>
<clipPath id="clip1_2730_15897">
<rect width="56" height="56" fill="white"/>
</clipPath>
</defs>
</svg>
