<svg width="56" height="56" viewBox="0 0 56 56" fill="none" xmlns="http://www.w3.org/2000/svg">
<g clip-path="url(#clip0_2635_7831)">
<path fill-rule="evenodd" clip-rule="evenodd" d="M11.4844 0H44.5156C47.5589 0.00841846 50.4751 1.22108 52.627 3.373C54.7789 5.52491 55.9916 8.44112 56 11.4844V44.5156C55.9916 47.5589 54.7789 50.4751 52.627 52.627C50.4751 54.7789 47.5589 55.9916 44.5156 56H11.4844C8.44112 55.9916 5.52491 54.7789 3.373 52.627C1.22108 50.4751 0.00841846 47.5589 0 44.5156L0 11.4844C0.00841846 8.44112 1.22108 5.52491 3.373 3.373C5.52491 1.22108 8.44112 0.00841846 11.4844 0Z" fill="white"/>
<g clip-path="url(#clip1_2635_7831)">
<path d="M28 56C43.464 56 56 43.464 56 28C56 12.536 43.464 0 28 0C12.536 0 0 12.536 0 28C0 43.464 12.536 56 28 56Z" fill="white"/>
</g>
<path d="M9.625 22.225C9.625 17.8146 9.625 15.6094 10.4833 13.9248C11.2383 12.443 12.443 11.2383 13.9248 10.4833C15.6094 9.625 17.8146 9.625 22.225 9.625H33.775C38.1854 9.625 40.3907 9.625 42.0751 10.4833C43.5569 11.2383 44.7617 12.443 45.5166 13.9248C46.375 15.6094 46.375 17.8146 46.375 22.225V33.775C46.375 38.1854 46.375 40.3907 45.5166 42.0751C44.7617 43.5569 43.5569 44.7617 42.0751 45.5166C40.3907 46.375 38.1854 46.375 33.775 46.375H22.225C17.8146 46.375 15.6094 46.375 13.9248 45.5166C12.443 44.7617 11.2383 43.5569 10.4833 42.0751C9.625 40.3907 9.625 38.1854 9.625 33.775V22.225Z" fill="#4087FC"/>
<path d="M17.85 20.125C16.9318 20.125 16.1875 20.9645 16.1875 22V31.0937C16.1875 33.7343 18.0855 35.875 20.4269 35.875L30.275 35.7813C31.1932 35.7813 31.9375 34.9418 31.9375 33.9062V24.7188C31.9375 22.0781 29.6851 20.125 27.3438 20.125H17.85Z" fill="white"/>
<path d="M34.1848 23.705C33.5907 24.2924 33.25 25.1402 33.25 26.0312V29.8366C33.25 30.7276 33.5907 31.5755 34.1848 32.1628L37.8815 35.4189C38.6337 36.1625 39.8125 35.5601 39.8125 34.4319V21.6149C39.8125 20.4866 38.6337 19.8842 37.8815 20.6279L34.1848 23.705Z" fill="white"/>
</g>
<defs>
<clipPath id="clip0_2635_7831">
<rect width="56" height="56" fill="white"/>
</clipPath>
<clipPath id="clip1_2635_7831">
<rect width="56" height="56" fill="white"/>
</clipPath>
</defs>
</svg>
