<svg width="68" height="68" viewBox="0 0 68 68" fill="none" xmlns="http://www.w3.org/2000/svg">
<rect width="68" height="68" rx="12" fill="#F7F7F7"/>
<path d="M23.3335 47.334C23.3335 41.4429 28.1091 36.6673 34.0002 36.6673C39.8912 36.6673 44.6668 41.4429 44.6668 47.334H42.0002C42.0002 42.9157 38.4184 39.334 34.0002 39.334C29.5819 39.334 26.0002 42.9157 26.0002 47.334H23.3335ZM34.0002 35.334C29.5802 35.334 26.0002 31.754 26.0002 27.334C26.0002 22.914 29.5802 19.334 34.0002 19.334C38.4202 19.334 42.0002 22.914 42.0002 27.334C42.0002 31.754 38.4202 35.334 34.0002 35.334ZM34.0002 32.6673C36.9468 32.6673 39.3335 30.2807 39.3335 27.334C39.3335 24.3873 36.9468 22.0007 34.0002 22.0007C31.0535 22.0007 28.6668 24.3873 28.6668 27.334C28.6668 30.2807 31.0535 32.6673 34.0002 32.6673Z" fill="#8A8A8D"/>
<path d="M23.3335 47.334C23.3335 41.4429 28.1091 36.6673 34.0002 36.6673C39.8912 36.6673 44.6668 41.4429 44.6668 47.334H42.0002C42.0002 42.9157 38.4184 39.334 34.0002 39.334C29.5819 39.334 26.0002 42.9157 26.0002 47.334H23.3335ZM34.0002 35.334C29.5802 35.334 26.0002 31.754 26.0002 27.334C26.0002 22.914 29.5802 19.334 34.0002 19.334C38.4202 19.334 42.0002 22.914 42.0002 27.334C42.0002 31.754 38.4202 35.334 34.0002 35.334ZM34.0002 32.6673C36.9468 32.6673 39.3335 30.2807 39.3335 27.334C39.3335 24.3873 36.9468 22.0007 34.0002 22.0007C31.0535 22.0007 28.6668 24.3873 28.6668 27.334C28.6668 30.2807 31.0535 32.6673 34.0002 32.6673Z" fill="black" fill-opacity="0.2"/>
</svg>
