<svg width="472" height="472" viewBox="0 0 472 472" fill="none" xmlns="http://www.w3.org/2000/svg">
<path d="M472 360.986H0V361.222H472V360.986Z" fill="#EBEBEB"/>
<path d="M424.706 376.174H393.44V376.41H424.706V376.174Z" fill="#EBEBEB"/>
<path d="M312.672 378.742H304.469V378.978H312.672V378.742Z" fill="#EBEBEB"/>
<path d="M392.496 367.414H374.381V367.65H392.496V367.414Z" fill="#EBEBEB"/>
<path d="M90.2938 369H49.5225V369.236H90.2938V369Z" fill="#EBEBEB"/>
<path d="M104.681 369H98.7051V369.236H104.681V369Z" fill="#EBEBEB"/>
<path d="M212.541 372.984H124.107V373.22H212.541V372.984Z" fill="#EBEBEB"/>
<path d="M223.728 318.883H41.4511C40.0232 318.881 38.6546 318.312 37.6457 317.301C36.6369 316.29 36.0703 314.921 36.0703 313.493V57.263C36.0827 55.8432 36.6548 54.4857 37.6623 53.4853C38.6698 52.4849 40.0313 51.9224 41.4511 51.9199H223.728C225.158 51.9199 226.529 52.4878 227.54 53.4987C228.55 54.5096 229.118 55.8806 229.118 57.3102V313.493C229.118 314.922 228.55 316.294 227.54 317.304C226.529 318.315 225.158 318.883 223.728 318.883ZM41.4511 52.1087C40.0858 52.1112 38.7772 52.6554 37.8126 53.6217C36.848 54.588 36.3063 55.8976 36.3063 57.263V313.493C36.3063 314.858 36.848 316.168 37.8126 317.134C38.7772 318.1 40.0858 318.645 41.4511 318.647H223.728C225.094 318.645 226.404 318.101 227.37 317.135C228.336 316.169 228.88 314.859 228.882 313.493V57.263C228.88 55.8967 228.336 54.5872 227.37 53.6211C226.404 52.6551 225.094 52.1112 223.728 52.1087H41.4511Z" fill="#EBEBEB"/>
<path d="M427.925 318.883H245.638C244.209 318.881 242.84 318.312 241.83 317.302C240.819 316.291 240.251 314.922 240.248 313.493V57.263C240.263 55.8423 240.837 54.4848 241.846 53.4847C242.855 52.4845 244.218 51.9223 245.638 51.9199H427.925C429.343 51.9248 430.702 52.4884 431.707 53.4886C432.713 54.4887 433.284 55.8448 433.296 57.263V313.493C433.296 314.919 432.731 316.287 431.724 317.298C430.717 318.308 429.351 318.878 427.925 318.883ZM245.638 52.1087C244.272 52.1112 242.963 52.6551 241.996 53.6211C241.03 54.5872 240.487 55.8967 240.484 57.263V313.493C240.487 314.859 241.03 316.169 241.996 317.135C242.963 318.101 244.272 318.645 245.638 318.647H427.925C429.291 318.645 430.6 318.101 431.567 317.135C432.533 316.169 433.076 314.859 433.079 313.493V57.263C433.076 55.8967 432.533 54.5872 431.567 53.6211C430.6 52.6551 429.291 52.1112 427.925 52.1087H245.638Z" fill="#EBEBEB"/>
<path d="M206.216 269.861H86.876V278.282H206.216V269.861Z" fill="#EBEBEB"/>
<path d="M206.217 269.861H154.325V278.282H206.217V269.861Z" fill="#E0E0E0"/>
<path d="M104.51 278.281H86.876V360.985H104.51V278.281Z" fill="#EBEBEB"/>
<path d="M104.51 286.815L86.876 280.811V278.281H104.51V286.815Z" fill="#E0E0E0"/>
<path d="M206.217 278.281H188.583V360.985H206.217V278.281Z" fill="#E0E0E0"/>
<path d="M171.959 278.281H154.325V360.985H171.959V278.281Z" fill="#EBEBEB"/>
<path d="M171.95 286.815L154.325 280.811V278.281H171.95V286.815Z" fill="#E0E0E0"/>
<path d="M138.768 278.281H121.134V360.985H138.768V278.281Z" fill="#E0E0E0"/>
<path d="M217.432 82.2891H67.0244V210.362H217.432V82.2891Z" fill="#EBEBEB"/>
<path d="M217.432 210.352H219.112L219.112 82.2791H217.432L217.432 210.352Z" fill="#E0E0E0"/>
<path d="M211.777 204.688V87.9434L72.6978 87.9434V204.688H211.777Z" fill="#F5F5F5"/>
<path d="M140.552 186.969C149.048 158.649 151.408 116.877 169.476 122.635C187.544 128.394 163.878 190.16 163.878 190.16L140.552 186.969Z" fill="white"/>
<path d="M155.146 188.376C146.499 147.331 148.68 92.8433 121.814 94.0894C94.9474 95.3354 121.814 190.16 121.814 190.16L155.146 188.376Z" fill="white"/>
<path d="M174.131 183.768H115.31C114.11 183.729 112.942 184.164 112.059 184.978C111.177 185.792 110.649 186.92 110.59 188.12C109.391 215.213 113.828 242.872 122.088 269.861H167.126C175.386 242.825 179.823 215.213 178.624 188.12C178.578 186.956 178.085 185.854 177.249 185.044C176.412 184.234 175.295 183.777 174.131 183.768Z" fill="#EBEBEB"/>
<path d="M307.933 96.5703H304.619V360.985H307.933V96.5703Z" fill="#E0E0E0"/>
<path d="M385.804 96.5703H382.49V360.985H385.804V96.5703Z" fill="#E0E0E0"/>
<path d="M284.436 96.5703H281.123V360.985H284.436V96.5703Z" fill="#EBEBEB"/>
<path d="M362.308 96.5703H358.994V360.985H362.308V96.5703Z" fill="#EBEBEB"/>
<path d="M385.803 94.7578H281.123V98.3733H385.803V94.7578Z" fill="#EBEBEB"/>
<path d="M385.803 159.508H281.123V163.123H385.803V159.508Z" fill="#EBEBEB"/>
<path d="M385.803 224.256H281.123V227.871H385.803V224.256Z" fill="#EBEBEB"/>
<path d="M385.803 289.006H281.123V292.621H385.803V289.006Z" fill="#EBEBEB"/>
<path d="M385.803 353.754H281.123V357.369H385.803V353.754Z" fill="#EBEBEB"/>
<path d="M385.804 94.7578H362.308V98.3733H385.804V94.7578Z" fill="#E0E0E0"/>
<path d="M385.804 159.508H362.308V163.123H385.804V159.508Z" fill="#E0E0E0"/>
<path d="M385.804 224.256H362.308V227.871H385.804V224.256Z" fill="#E0E0E0"/>
<path d="M385.804 289.006H362.308V292.621H385.804V289.006Z" fill="#E0E0E0"/>
<path d="M385.804 353.754H362.308V357.369H385.804V353.754Z" fill="#E0E0E0"/>
<path d="M323.348 116.781V111.684H310.765V116.781C310.765 118.379 310.131 119.912 309.001 121.043C307.872 122.174 306.34 122.811 304.742 122.813C303.144 122.813 301.611 123.448 300.48 124.577C299.349 125.706 298.712 127.238 298.71 128.836V159.535H335.413V128.836C335.41 127.238 334.774 125.706 333.643 124.577C332.512 123.448 330.979 122.813 329.381 122.813C327.781 122.813 326.246 122.178 325.115 121.047C323.984 119.915 323.348 118.381 323.348 116.781Z" fill="#F0F0F0"/>
<path d="M349.394 203.205H294.245V224.266H349.394V203.205Z" fill="#F0F0F0"/>
<path d="M349.394 224.256H358.994V203.195H349.394V224.256Z" fill="#E6E6E6"/>
<path d="M349.394 214.893H358.994V212.57H349.394V214.893Z" fill="#EBEBEB"/>
<path d="M349.394 212.57H294.245V214.893H349.394V212.57Z" fill="#F5F5F5"/>
<path d="M334.62 316.523H291.545V353.755H334.62V316.523Z" fill="#F0F0F0"/>
<path d="M334.62 353.764H342.115V316.532H334.62V353.764Z" fill="#E6E6E6"/>
<path d="M334.62 337.197H342.115V333.091H334.62V337.197Z" fill="#EBEBEB"/>
<path d="M334.62 333.09H291.545V337.196H334.62V333.09Z" fill="#F5F5F5"/>
<path d="M334.62 330.211H342.115V328.748H334.62V330.211Z" fill="#EBEBEB"/>
<path d="M334.62 328.748H291.545V330.211H334.62V328.748Z" fill="#F5F5F5"/>
<path d="M302.043 251.15H294.245V289.005H302.043V251.15Z" fill="#F0F0F0"/>
<path d="M302.043 264.641H294.245V275.515H302.043V264.641Z" fill="#FAFAFA"/>
<path d="M302.042 289.016H328.568V251.161H302.042V289.016Z" fill="#E6E6E6"/>
<path d="M314.088 246.262H305.28V289.006H314.088V246.262Z" fill="#EBEBEB"/>
<path d="M314.088 259.846H305.28V266.425H314.088V259.846Z" fill="#FAFAFA"/>
<path d="M314.088 270.834H305.28V277.414H314.088V270.834Z" fill="#FAFAFA"/>
<path d="M314.097 289.006H344.05V246.262H314.097V289.006Z" fill="#E0E0E0"/>
<path d="M323.896 251.15H319.147V289.005H323.896V251.15Z" fill="#F0F0F0"/>
<path d="M323.074 255.947H319.959V284.211H323.074V255.947Z" fill="#FAFAFA"/>
<path d="M323.887 289.016H340.02V251.161H323.887V289.016Z" fill="#E6E6E6"/>
<path d="M336.574 249.16H331.212V289.006H336.574V249.16Z" fill="#EBEBEB"/>
<path d="M336.574 261.818H331.212V267.954H336.574V261.818Z" fill="#FAFAFA"/>
<path d="M336.574 272.07H331.212V278.206H336.574V272.07Z" fill="#FAFAFA"/>
<path d="M336.574 289.006H354.793V249.16H336.574V289.006Z" fill="#E0E0E0"/>
<path d="M334.135 199.767C338.721 195.181 338.721 187.745 334.135 183.159C329.549 178.573 322.114 178.573 317.527 183.159C312.941 187.745 312.941 195.181 317.527 199.767C322.114 204.353 329.549 204.353 334.135 199.767Z" fill="#F5F5F5"/>
<path d="M340.134 203.075C344.57 202.355 347.582 198.175 346.862 193.739C346.142 189.303 341.962 186.291 337.526 187.011C333.09 187.731 330.078 191.911 330.798 196.347C331.518 200.783 335.698 203.795 340.134 203.075Z" fill="#EBEBEB"/>
<path d="M236 403.616C337.086 403.616 419.032 398.832 419.032 392.93C419.032 387.028 337.086 382.244 236 382.244C134.914 382.244 52.9678 387.028 52.9678 392.93C52.9678 398.832 134.914 403.616 236 403.616Z" fill="#F5F5F5"/>
<path d="M119.048 319.723H240.295V382.319C240.295 383.121 240.137 383.916 239.83 384.657C239.523 385.398 239.073 386.071 238.506 386.638C237.939 387.205 237.266 387.655 236.525 387.962C235.784 388.269 234.99 388.427 234.188 388.427H125.156C124.353 388.427 123.559 388.269 122.818 387.962C122.077 387.655 121.404 387.205 120.837 386.638C120.27 386.071 119.82 385.398 119.513 384.657C119.206 383.916 119.048 383.121 119.048 382.319V319.723Z" fill="#4353FF"/>
<path d="M119.048 319.723H204.848L194.294 306.214C193.133 304.732 190.263 303.533 187.875 303.533H110.712C108.333 303.533 107.333 304.732 108.494 306.214L119.048 319.723Z" fill="#4353FF"/>
<path opacity="0.2" d="M119.048 319.723H204.848L194.294 306.214C193.133 304.732 190.263 303.533 187.875 303.533H110.712C108.333 303.533 107.333 304.732 108.494 306.214L119.048 319.723Z" fill="black"/>
<path d="M240.296 319.722H154.505L165.059 310.914C166.22 309.97 169.09 309.168 171.478 309.168H248.631C251.019 309.168 252.011 309.951 250.85 310.914L240.296 319.722Z" fill="#4353FF"/>
<path opacity="0.2" d="M154.505 319.723H240.296V382.319C240.296 383.121 240.138 383.916 239.831 384.657C239.524 385.398 239.074 386.071 238.507 386.638C237.94 387.205 237.266 387.655 236.525 387.962C235.784 388.269 234.99 388.427 234.188 388.427H160.613C159.81 388.427 159.016 388.269 158.275 387.962C157.534 387.655 156.861 387.205 156.294 386.638C155.727 386.071 155.277 385.398 154.97 384.657C154.663 383.916 154.505 383.121 154.505 382.319V319.723Z" fill="white"/>
<path opacity="0.5" d="M129.696 319.723V362.656L132.66 360.315L134.747 362.656L136.559 360.05L138.419 362.656L141.005 360.702L143.856 362.656V319.723H129.696Z" fill="white"/>
<path d="M148.888 226.07L133.643 213.27" stroke="#4353FF" stroke-miterlimit="10"/>
<path d="M156.789 232.705L152.145 228.797" stroke="#4353FF" stroke-miterlimit="10"/>
<path d="M202.461 259.496L252.757 196.635L185.789 140.41L141.421 191.32L134.813 204.055C134.485 204.416 134.235 204.841 134.079 205.304C133.923 205.766 133.864 206.256 133.906 206.743C133.947 207.229 134.089 207.702 134.321 208.131C134.554 208.56 134.872 208.937 135.257 209.237L195.673 259.968C196.656 260.759 197.901 261.151 199.159 261.063C200.418 260.976 201.597 260.416 202.461 259.496Z" fill="#4353FF"/>
<path opacity="0.5" d="M167.966 213.137L160.726 224.795L163.643 225.428L164.634 228.127L166.569 228.241L167.466 230.554L169.835 231.243L171.657 234.141L178.898 222.482L167.966 213.137Z" fill="white"/>
<path opacity="0.1" d="M250.566 194.794L205.462 245.109L141.393 191.32L185.789 140.41L250.566 194.794Z" fill="black"/>
<path d="M250.566 194.795L205.462 245.11L224.134 246.488L268.54 195.578L250.566 194.795Z" fill="#4353FF"/>
<path opacity="0.3" d="M250.566 194.795L205.462 245.11L224.134 246.488L268.54 195.578L250.566 194.795Z" fill="black"/>
<path d="M167.825 139.617L122.711 189.942L141.393 191.32L185.789 140.41L167.825 139.617Z" fill="#4353FF"/>
<path opacity="0.4" d="M167.825 139.617L122.711 189.942L141.393 191.32L185.789 140.41L167.825 139.617Z" fill="black"/>
<path opacity="0.1" d="M236.68 210.285L250.567 194.794L185.789 140.41L177.501 160.385L236.68 210.285Z" fill="black"/>
<path opacity="0.2" d="M141.393 191.32L185.789 140.41L177.501 160.385L146.235 195.389L141.393 191.32Z" fill="black"/>
<path d="M266.209 100.065C266.388 100.669 266.209 101.264 265.812 101.377C265.416 101.49 264.953 101.094 264.774 100.49C264.594 99.8855 264.774 99.2907 265.17 99.168C265.567 99.0453 266.039 99.4607 266.209 100.065Z" fill="#263238"/>
<path d="M266.275 101.254C266.097 103.331 265.633 105.374 264.896 107.324C265.401 107.499 265.938 107.562 266.47 107.508C267.001 107.454 267.515 107.285 267.974 107.012L266.275 101.254Z" fill="#ED847E"/>
<path d="M267.464 96.0332C267.544 95.9871 267.604 95.9132 267.634 95.8255C267.652 95.7797 267.66 95.7308 267.658 95.6818C267.656 95.6327 267.644 95.5846 267.623 95.5404C267.602 95.4961 267.571 95.4567 267.534 95.4246C267.497 95.3924 267.454 95.3682 267.407 95.3535C266.854 95.1414 266.258 95.0659 265.67 95.1333C265.082 95.2007 264.518 95.409 264.028 95.7405C263.964 95.8053 263.925 95.8909 263.92 95.9816C263.914 96.0724 263.941 96.1621 263.996 96.2345C264.051 96.3068 264.131 96.3568 264.22 96.3753C264.309 96.3938 264.401 96.3796 264.481 96.3352C264.873 96.078 265.321 95.9181 265.787 95.8689C266.253 95.8196 266.725 95.8824 267.162 96.052C267.211 96.0699 267.263 96.0774 267.315 96.0742C267.367 96.0709 267.418 96.057 267.464 96.0332Z" fill="#263238"/>
<path d="M287.203 104.104C287.618 109.107 288.855 118.264 291.809 120.378C291.809 120.378 291.111 126.391 280.481 127.93C268.832 129.648 274.062 122.965 274.062 122.965C280.189 120.51 279.33 115.819 277.574 111.552L282.067 106.398C283.795 104.491 286.976 101.545 287.203 104.104Z" fill="#FFC3BD"/>
<path d="M295.614 122.824C296.558 121.965 294.67 118.529 293.508 118.047C290.469 116.773 278.036 118.047 273.363 122.059C272.976 122.723 272.742 123.465 272.678 124.231C272.614 124.997 272.723 125.768 272.995 126.487L295.614 122.824Z" fill="white"/>
<path d="M335.206 375.155C334.899 375.295 334.567 375.372 334.23 375.382C333.892 375.391 333.557 375.334 333.242 375.212C333.118 375.113 333.026 374.979 332.981 374.827C332.935 374.675 332.938 374.513 332.987 374.362C333.012 374.239 333.064 374.122 333.139 374.021C333.214 373.92 333.311 373.837 333.421 373.777C334.441 373.182 336.961 373.966 337.065 374.003C337.1 374.013 337.131 374.032 337.154 374.059C337.178 374.086 337.193 374.119 337.197 374.154C337.202 374.192 337.196 374.23 337.179 374.263C337.162 374.297 337.136 374.325 337.103 374.343C336.5 374.678 335.864 374.95 335.206 375.155ZM333.827 374.003L333.61 374.098C333.546 374.133 333.49 374.181 333.446 374.24C333.402 374.299 333.371 374.366 333.355 374.438C333.289 374.777 333.421 374.881 333.459 374.91C333.912 375.231 335.451 374.768 336.518 374.23C335.649 373.957 334.73 373.88 333.827 374.003Z" fill="#4353FF"/>
<path d="M337.065 374.354C337.034 374.363 337.001 374.363 336.97 374.354C336.026 374.165 334.054 372.985 333.95 372.098C333.935 371.958 333.969 371.817 334.047 371.7C334.124 371.583 334.24 371.497 334.374 371.456C334.505 371.397 334.647 371.367 334.79 371.367C334.933 371.367 335.074 371.397 335.205 371.456C336.3 371.909 337.15 374.023 337.178 374.108C337.197 374.136 337.207 374.169 337.207 374.203C337.207 374.236 337.197 374.269 337.178 374.297C337.165 374.315 337.148 374.329 337.128 374.339C337.109 374.349 337.087 374.354 337.065 374.354ZM334.61 371.777C334.583 371.768 334.553 371.768 334.526 371.777C334.308 371.871 334.318 371.984 334.327 372.031C334.384 372.56 335.724 373.514 336.678 373.863C336.395 373.249 335.734 372.06 335.064 371.777C334.918 371.721 334.756 371.721 334.61 371.777Z" fill="#4353FF"/>
<path d="M279.877 385.294C278.867 385.294 277.895 385.152 277.565 384.699C277.48 384.58 277.435 384.438 277.435 384.293C277.435 384.147 277.48 384.005 277.565 383.887C277.628 383.778 277.712 383.682 277.812 383.606C277.913 383.53 278.028 383.474 278.15 383.443C279.462 383.094 282.219 384.661 282.332 384.727C282.367 384.744 282.395 384.772 282.413 384.806C282.431 384.841 282.438 384.88 282.431 384.918C282.425 384.957 282.406 384.992 282.378 385.019C282.35 385.045 282.314 385.062 282.275 385.067C281.484 385.215 280.682 385.29 279.877 385.294ZM278.631 383.764C278.51 383.759 278.389 383.775 278.273 383.811C278.121 383.845 277.989 383.937 277.904 384.066C277.772 384.302 277.82 384.416 277.904 384.482C278.273 384.991 280.264 385.001 281.68 384.793C280.74 384.257 279.705 383.907 278.631 383.764Z" fill="#4353FF"/>
<path d="M282.256 385.078H282.18C281.236 384.653 279.348 382.944 279.49 382.057C279.49 381.849 279.679 381.585 280.189 381.538C280.373 381.517 280.56 381.535 280.737 381.59C280.914 381.645 281.078 381.737 281.217 381.859C282.228 382.68 282.435 384.804 282.445 384.889C282.45 384.921 282.446 384.955 282.432 384.985C282.419 385.015 282.397 385.041 282.369 385.059C282.334 385.077 282.295 385.084 282.256 385.078ZM280.368 381.887H280.255C279.915 381.887 279.896 382.057 279.886 382.095C279.801 382.633 281.085 383.983 282.048 384.558C281.966 383.658 281.603 382.806 281.01 382.123C280.833 381.967 280.604 381.883 280.368 381.887Z" fill="#4353FF"/>
<path d="M290.923 384.888H283.04L282.257 366.65H290.139L290.923 384.888Z" fill="#FFC3BD"/>
<path d="M346.288 372.436L339.028 374.938L331.495 357.748L338.754 355.246L346.288 372.436Z" fill="#FFC3BD"/>
<path d="M337.301 373.136L345.797 370.54C345.948 370.494 346.109 370.501 346.255 370.559C346.401 370.617 346.523 370.724 346.6 370.861L350.14 377.091C350.225 377.244 350.274 377.413 350.285 377.588C350.295 377.762 350.266 377.936 350.2 378.098C350.134 378.259 350.032 378.403 349.902 378.52C349.772 378.637 349.618 378.723 349.45 378.772C346.477 379.631 344.995 379.895 341.275 381.037C338.982 381.736 333.204 383.926 329.947 384.577C326.691 385.229 325.643 382.113 326.908 381.556C332.572 379.055 334.894 376.213 336.244 374.004C336.48 373.596 336.855 373.288 337.301 373.136Z" fill="#263238"/>
<path d="M283.096 383.973H291.696C291.852 383.975 292.002 384.029 292.124 384.126C292.245 384.224 292.33 384.359 292.366 384.511L293.924 391.515C293.962 391.684 293.962 391.86 293.923 392.029C293.884 392.197 293.807 392.355 293.698 392.49C293.588 392.624 293.45 392.732 293.293 392.806C293.136 392.879 292.964 392.915 292.791 392.912C289.685 392.865 285.239 392.676 281.302 392.676C276.743 392.676 274.827 392.931 269.474 392.931C266.246 392.931 265.349 389.665 266.699 389.363C272.863 388.013 275.874 387.871 281.199 384.586C281.763 384.212 282.419 384 283.096 383.973Z" fill="#263238"/>
<path d="M305.988 125.4C308.282 127.506 310.265 129.611 312.323 131.81C314.381 134.01 316.288 136.285 318.138 138.711C320.07 141.175 321.824 143.775 323.386 146.489C324.24 147.985 324.978 149.544 325.595 151.153C325.756 151.596 325.916 152.021 326.048 152.503C326.203 152.99 326.332 153.484 326.435 153.985L326.596 154.768L326.709 155.637C326.815 156.432 326.815 157.239 326.709 158.034C326.493 159.537 325.937 160.97 325.086 162.226C324.464 163.143 323.735 163.983 322.914 164.727C321.595 165.925 320.152 166.978 318.61 167.871C315.893 169.425 313.051 170.748 310.114 171.826C304.541 173.895 298.799 175.474 292.952 176.546L291.3 170.882C296.426 168.664 301.618 166.266 306.404 163.708C308.734 162.486 310.976 161.104 313.116 159.573C314.007 158.94 314.827 158.212 315.561 157.402C315.784 157.163 315.971 156.892 316.118 156.6C316.193 156.439 316.118 156.458 316.023 156.798C315.957 157.43 315.967 156.939 315.815 156.6C315.768 156.439 315.683 156.222 315.598 156.014C315.513 155.807 315.41 155.571 315.306 155.344C314.794 154.315 314.224 153.315 313.597 152.352C312.139 150.187 310.563 148.104 308.877 146.112C307.14 144.054 305.309 142.005 303.43 139.995C301.552 137.984 299.579 135.954 297.766 134.085L305.988 125.4Z" fill="#FFC3BD"/>
<path d="M293.462 169.986L286.032 172.233L290.809 180.087C290.809 180.087 295.198 178.275 296.171 174.546L293.462 169.986Z" fill="#FFC3BD"/>
<path d="M283.03 175.017L285.957 181.493L290.762 180.096L285.985 172.232L283.03 175.017Z" fill="#FFC3BD"/>
<path d="M288.581 127.534C287.873 135.086 303.846 146.773 303.846 146.773L319.224 136.247C316.553 131.322 312.65 127.175 307.896 124.211C299.079 118.566 289.469 118.151 288.581 127.534Z" fill="#4353FF"/>
<g opacity="0.3">
<path d="M288.581 127.534C287.873 135.086 303.846 146.773 303.846 146.773L319.224 136.247C316.553 131.322 312.65 127.175 307.896 124.211C299.079 118.566 289.469 118.151 288.581 127.534Z" fill="white"/>
</g>
<path d="M262.432 126.93C262.432 126.93 255.532 137.522 271.92 194.332L313.588 188.177C313.003 182.418 306.036 157.299 305.8 129.838C305.79 128.512 305.512 127.201 304.982 125.985C304.452 124.77 303.681 123.674 302.716 122.765C301.751 121.855 300.611 121.15 299.366 120.693C298.121 120.236 296.797 120.036 295.472 120.105C294.264 120.171 293.018 120.256 291.781 120.379C285.833 120.909 279.92 121.782 274.072 122.994C270.097 124.005 266.205 125.321 262.432 126.93Z" fill="#4353FF"/>
<g opacity="0.3">
<path d="M262.432 126.93C262.432 126.93 255.532 137.522 271.92 194.332L313.588 188.177C313.003 182.418 306.036 157.299 305.8 129.838C305.79 128.512 305.512 127.201 304.982 125.985C304.452 124.77 303.681 123.674 302.716 122.765C301.751 121.855 300.611 121.15 299.366 120.693C298.121 120.236 296.797 120.036 295.472 120.105C294.264 120.171 293.018 120.256 291.781 120.379C285.833 120.909 279.92 121.782 274.072 122.994C270.097 124.005 266.205 125.321 262.432 126.93Z" fill="white"/>
</g>
<path opacity="0.2" d="M261.413 145.188L261.555 145.027L271.353 145.896C272.845 152.221 267.389 160.849 264.509 164.851C263.123 158.357 262.09 151.793 261.413 145.188Z" fill="black"/>
<path opacity="0.2" d="M282.257 366.66L282.663 376.062H290.545L290.139 366.66H282.257Z" fill="black"/>
<path opacity="0.2" d="M338.754 355.246L331.495 357.748L335.384 366.612L342.644 364.11L338.754 355.246Z" fill="black"/>
<path d="M286.174 92.8135C287.911 100.432 289.308 104.802 286.655 109.805C282.671 117.254 272.42 116.536 268.445 109.588C264.868 103.33 262.621 91.9261 269.078 86.7907C270.493 85.6546 272.174 84.8982 273.963 84.5932C275.752 84.2882 277.589 84.4445 279.301 85.0475C281.012 85.6505 282.542 86.6801 283.744 88.0391C284.947 89.398 285.783 91.0413 286.174 92.8135Z" fill="#FFC3BD"/>
<path d="M270.872 100.282L267.974 102.056L268.248 92.1444C266.379 92.2247 264.536 91.6909 262.999 90.6246C264.047 89.624 280.359 83.9128 285.447 84.904C285.976 84.6868 286.618 83.7051 286.618 83.7051C286.618 83.7051 286.816 84.9417 285.957 85.4137C286.58 85.291 288.138 85.5931 288.572 86.5088C287.857 86.3136 287.098 86.3567 286.41 86.6315C286.41 86.6315 292.074 87.4905 290.063 95.3446C287.807 104.001 288.553 108.976 288.553 108.976C288.553 108.976 284.343 112.233 280.68 111.629C276.772 107.324 271.127 102.151 270.872 100.282Z" fill="#263238"/>
<path d="M265.321 89.8411C260.724 89.8411 259.072 87.5944 257.892 85.7064C261.196 85.3571 268.077 83.2331 273.184 82.8744C278.291 82.5157 283.889 83.4691 282.2 85.7064C280.51 87.9437 265.321 89.8411 265.321 89.8411Z" fill="#263238"/>
<path d="M266.331 87.7922C262.555 87.2636 258.873 83.7047 261.705 80.2969C262.753 82.7985 269.824 82.5058 274.846 81.458C281.454 80.0798 286.032 82.3076 283.691 86.8105C282.407 89.2743 266.331 87.7922 266.331 87.7922Z" fill="#263238"/>
<path d="M274.95 98.0247C275.49 99.8886 275.404 101.878 274.704 103.689C273.76 106.058 271.665 105.577 270.57 103.528C269.626 101.64 268.908 98.2135 270.513 96.5048C272.118 94.7962 274.27 95.7874 274.95 98.0247Z" fill="#FFC3BD"/>
<path d="M286.702 192.152C286.702 192.152 293.461 249.689 298.37 272.232C303.741 296.927 330.239 364.253 330.239 364.253L343.455 359.684C343.455 359.684 326.463 308.991 321.951 274.469C318.487 247.961 313.55 188.178 313.55 188.178L286.702 192.152Z" fill="#263238"/>
<path d="M326.861 360.024C326.794 360.024 329.57 365.688 329.57 365.688L345.004 360.675L343.192 356.068L326.861 360.024Z" fill="#4353FF"/>
<path opacity="0.3" d="M290.432 221.67C292.546 237.661 295.255 256.598 297.634 268.691C301.137 250.16 301.958 226.758 290.432 221.67Z" fill="black"/>
<path d="M271.92 194.332C271.92 194.332 266.312 248.385 267.2 272.4C268.087 297.379 279.755 374.239 279.755 374.239H293.094C293.094 374.239 290.639 298.832 291.206 274.307C291.857 247.564 301.882 189.904 301.882 189.904L271.92 194.332Z" fill="#263238"/>
<path d="M277.159 368.926C277.102 368.926 277.914 374.458 277.914 374.458H294.142L294.585 369.521L277.159 368.926Z" fill="#4353FF"/>
<path d="M269.333 140.204C267.86 142.545 266.369 144.65 264.821 146.812C263.273 148.973 261.649 151.06 259.997 153.137C256.629 157.35 252.98 161.33 249.075 165.05C248.018 165.994 247.045 166.938 245.903 167.797L245.072 168.467L244.657 168.797C244.506 168.92 244.44 168.986 244.128 169.213C243.193 169.88 242.166 170.408 241.079 170.78C239.396 171.355 237.636 171.673 235.859 171.724C234.355 171.774 232.85 171.708 231.356 171.526C225.896 170.81 220.569 169.302 215.544 167.051L217.177 161.387C222.007 161.96 226.871 162.194 231.734 162.086C232.809 162.029 233.881 161.913 234.943 161.736C235.744 161.619 236.521 161.377 237.247 161.019C237.473 160.896 237.596 160.773 237.567 160.745C237.539 160.717 237.69 160.622 237.775 160.537L238.096 160.245L238.729 159.65C239.578 158.895 240.381 157.979 241.211 157.149C242.844 155.393 244.468 153.59 246.007 151.673C247.546 149.757 249.103 147.831 250.614 145.849C252.124 143.866 253.587 141.856 255.06 139.845C256.532 137.834 257.967 135.72 259.327 133.766L269.333 140.204Z" fill="#FFC3BD"/>
<path d="M274.818 137.701C277.99 148.085 259.572 159.593 259.572 159.593L247.603 144.347C250.301 139.32 253.632 134.66 257.515 130.48C265.661 121.616 272.401 129.8 274.818 137.701Z" fill="#4353FF"/>
<g opacity="0.3">
<path d="M274.818 137.701C277.99 148.085 259.572 159.593 259.572 159.593L247.603 144.347C250.301 139.32 253.632 134.66 257.515 130.48C265.661 121.616 272.401 129.8 274.818 137.701Z" fill="white"/>
</g>
<path d="M219.953 161.736L210.258 159.961L211.277 168.344C211.277 168.344 216.318 171.176 219.972 166.748L219.953 161.736Z" fill="#FFC3BD"/>
<path d="M206.52 161.849L208.615 167.9L211.258 168.344L210.239 159.961L206.52 161.849Z" fill="#FFC3BD"/>
</svg>
