<svg width="38" height="22" viewBox="0 0 38 22" fill="none" xmlns="http://www.w3.org/2000/svg">
<path d="M0.241477 12.7983V10.3438L11.9006 4.95739V7.98295L3.61648 11.5369L3.71023 11.375V11.767L3.61648 11.6051L11.9006 15.1591V18.1847L0.241477 12.7983ZM22.8587 0.227272L17.2337 21.125H14.532L20.157 0.227272H22.8587ZM37.1428 12.7983L25.4837 18.1847V15.1591L33.7678 11.6051L33.674 11.767V11.375L33.7678 11.5369L25.4837 7.98295V4.95739L37.1428 10.3438V12.7983Z" fill="#8A8A8D"/>
<path d="M0.241477 12.7983V10.3438L11.9006 4.95739V7.98295L3.61648 11.5369L3.71023 11.375V11.767L3.61648 11.6051L11.9006 15.1591V18.1847L0.241477 12.7983ZM22.8587 0.227272L17.2337 21.125H14.532L20.157 0.227272H22.8587ZM37.1428 12.7983L25.4837 18.1847V15.1591L33.7678 11.6051L33.674 11.767V11.375L33.7678 11.5369L25.4837 7.98295V4.95739L37.1428 10.3438V12.7983Z" fill="black" fill-opacity="0.2"/>
</svg>
