<svg width="22" height="27" viewBox="0 0 22 27" fill="none" xmlns="http://www.w3.org/2000/svg">
<path d="M21.7075 5.7925L16.7075 0.7925C16.6146 0.699666 16.5042 0.626052 16.3829 0.575864C16.2615 0.525676 16.1314 0.499897 16 0.5H6C5.46957 0.5 4.96086 0.710714 4.58579 1.08579C4.21071 1.46086 4 1.96957 4 2.5V4.5H2C1.46957 4.5 0.960859 4.71071 0.585786 5.08579C0.210714 5.46086 0 5.96957 0 6.5V24.5C0 25.0304 0.210714 25.5391 0.585786 25.9142C0.960859 26.2893 1.46957 26.5 2 26.5H16C16.5304 26.5 17.0391 26.2893 17.4142 25.9142C17.7893 25.5391 18 25.0304 18 24.5V22.5H20C20.5304 22.5 21.0391 22.2893 21.4142 21.9142C21.7893 21.5391 22 21.0304 22 20.5V6.5C22.0001 6.36864 21.9743 6.23855 21.9241 6.11715C21.8739 5.99576 21.8003 5.88544 21.7075 5.7925ZM16 24.5H2V6.5H11.5863L16 10.9137V21.48C16 21.4875 16 21.4937 16 21.5C16 21.5063 16 21.5125 16 21.52V24.5ZM20 20.5H18V10.5C18.0001 10.3686 17.9743 10.2385 17.9241 10.1172C17.8739 9.99576 17.8003 9.88544 17.7075 9.7925L12.7075 4.7925C12.6146 4.69967 12.5042 4.62605 12.3829 4.57586C12.2615 4.52568 12.1314 4.4999 12 4.5H6V2.5H15.5863L20 6.91375V20.5ZM13 16.5C13 16.7652 12.8946 17.0196 12.7071 17.2071C12.5196 17.3946 12.2652 17.5 12 17.5H6C5.73478 17.5 5.48043 17.3946 5.29289 17.2071C5.10536 17.0196 5 16.7652 5 16.5C5 16.2348 5.10536 15.9804 5.29289 15.7929C5.48043 15.6054 5.73478 15.5 6 15.5H12C12.2652 15.5 12.5196 15.6054 12.7071 15.7929C12.8946 15.9804 13 16.2348 13 16.5ZM13 20.5C13 20.7652 12.8946 21.0196 12.7071 21.2071C12.5196 21.3946 12.2652 21.5 12 21.5H6C5.73478 21.5 5.48043 21.3946 5.29289 21.2071C5.10536 21.0196 5 20.7652 5 20.5C5 20.2348 5.10536 19.9804 5.29289 19.7929C5.48043 19.6054 5.73478 19.5 6 19.5H12C12.2652 19.5 12.5196 19.6054 12.7071 19.7929C12.8946 19.9804 13 20.2348 13 20.5Z" fill="#8A8A8D"/>
<path d="M21.7075 5.7925L16.7075 0.7925C16.6146 0.699666 16.5042 0.626052 16.3829 0.575864C16.2615 0.525676 16.1314 0.499897 16 0.5H6C5.46957 0.5 4.96086 0.710714 4.58579 1.08579C4.21071 1.46086 4 1.96957 4 2.5V4.5H2C1.46957 4.5 0.960859 4.71071 0.585786 5.08579C0.210714 5.46086 0 5.96957 0 6.5V24.5C0 25.0304 0.210714 25.5391 0.585786 25.9142C0.960859 26.2893 1.46957 26.5 2 26.5H16C16.5304 26.5 17.0391 26.2893 17.4142 25.9142C17.7893 25.5391 18 25.0304 18 24.5V22.5H20C20.5304 22.5 21.0391 22.2893 21.4142 21.9142C21.7893 21.5391 22 21.0304 22 20.5V6.5C22.0001 6.36864 21.9743 6.23855 21.9241 6.11715C21.8739 5.99576 21.8003 5.88544 21.7075 5.7925ZM16 24.5H2V6.5H11.5863L16 10.9137V21.48C16 21.4875 16 21.4937 16 21.5C16 21.5063 16 21.5125 16 21.52V24.5ZM20 20.5H18V10.5C18.0001 10.3686 17.9743 10.2385 17.9241 10.1172C17.8739 9.99576 17.8003 9.88544 17.7075 9.7925L12.7075 4.7925C12.6146 4.69967 12.5042 4.62605 12.3829 4.57586C12.2615 4.52568 12.1314 4.4999 12 4.5H6V2.5H15.5863L20 6.91375V20.5ZM13 16.5C13 16.7652 12.8946 17.0196 12.7071 17.2071C12.5196 17.3946 12.2652 17.5 12 17.5H6C5.73478 17.5 5.48043 17.3946 5.29289 17.2071C5.10536 17.0196 5 16.7652 5 16.5C5 16.2348 5.10536 15.9804 5.29289 15.7929C5.48043 15.6054 5.73478 15.5 6 15.5H12C12.2652 15.5 12.5196 15.6054 12.7071 15.7929C12.8946 15.9804 13 16.2348 13 16.5ZM13 20.5C13 20.7652 12.8946 21.0196 12.7071 21.2071C12.5196 21.3946 12.2652 21.5 12 21.5H6C5.73478 21.5 5.48043 21.3946 5.29289 21.2071C5.10536 21.0196 5 20.7652 5 20.5C5 20.2348 5.10536 19.9804 5.29289 19.7929C5.48043 19.6054 5.73478 19.5 6 19.5H12C12.2652 19.5 12.5196 19.6054 12.7071 19.7929C12.8946 19.9804 13 20.2348 13 20.5Z" fill="black" fill-opacity="0.2"/>
</svg>
