<svg width="32" height="33" viewBox="0 0 32 33" fill="none" xmlns="http://www.w3.org/2000/svg">
<path d="M27 5.5H5C4.46957 5.5 3.96086 5.71071 3.58579 6.08579C3.21071 6.46086 3 6.96957 3 7.5V25.5C3 26.0304 3.21071 26.5391 3.58579 26.9142C3.96086 27.2893 4.46957 27.5 5 27.5H27C27.5304 27.5 28.0391 27.2893 28.4142 26.9142C28.7893 26.5391 29 26.0304 29 25.5V7.5C29 6.96957 28.7893 6.46086 28.4142 6.08579C28.0391 5.71071 27.5304 5.5 27 5.5ZM27 7.5V20.3438L23.7412 17.0863C23.5555 16.9005 23.335 16.7531 23.0923 16.6526C22.8497 16.552 22.5896 16.5003 22.3269 16.5003C22.0642 16.5003 21.8041 16.552 21.5614 16.6526C21.3187 16.7531 21.0982 16.9005 20.9125 17.0863L18.4125 19.5863L12.9125 14.0863C12.5375 13.7115 12.029 13.5009 11.4987 13.5009C10.9685 13.5009 10.46 13.7115 10.085 14.0863L5 19.1712V7.5H27ZM5 22L11.5 15.5L21.5 25.5H5V22ZM27 25.5H24.3288L19.8288 21L22.3288 18.5L27 23.1725V25.5ZM18 13C18 12.7033 18.088 12.4133 18.2528 12.1666C18.4176 11.92 18.6519 11.7277 18.926 11.6142C19.2001 11.5006 19.5017 11.4709 19.7926 11.5288C20.0836 11.5867 20.3509 11.7296 20.5607 11.9393C20.7704 12.1491 20.9133 12.4164 20.9712 12.7074C21.0291 12.9983 20.9993 13.2999 20.8858 13.574C20.7723 13.8481 20.58 14.0824 20.3334 14.2472C20.0867 14.412 19.7967 14.5 19.5 14.5C19.1022 14.5 18.7206 14.342 18.4393 14.0607C18.158 13.7794 18 13.3978 18 13Z" fill="#8A8A8D"/>
<path d="M27 5.5H5C4.46957 5.5 3.96086 5.71071 3.58579 6.08579C3.21071 6.46086 3 6.96957 3 7.5V25.5C3 26.0304 3.21071 26.5391 3.58579 26.9142C3.96086 27.2893 4.46957 27.5 5 27.5H27C27.5304 27.5 28.0391 27.2893 28.4142 26.9142C28.7893 26.5391 29 26.0304 29 25.5V7.5C29 6.96957 28.7893 6.46086 28.4142 6.08579C28.0391 5.71071 27.5304 5.5 27 5.5ZM27 7.5V20.3438L23.7412 17.0863C23.5555 16.9005 23.335 16.7531 23.0923 16.6526C22.8497 16.552 22.5896 16.5003 22.3269 16.5003C22.0642 16.5003 21.8041 16.552 21.5614 16.6526C21.3187 16.7531 21.0982 16.9005 20.9125 17.0863L18.4125 19.5863L12.9125 14.0863C12.5375 13.7115 12.029 13.5009 11.4987 13.5009C10.9685 13.5009 10.46 13.7115 10.085 14.0863L5 19.1712V7.5H27ZM5 22L11.5 15.5L21.5 25.5H5V22ZM27 25.5H24.3288L19.8288 21L22.3288 18.5L27 23.1725V25.5ZM18 13C18 12.7033 18.088 12.4133 18.2528 12.1666C18.4176 11.92 18.6519 11.7277 18.926 11.6142C19.2001 11.5006 19.5017 11.4709 19.7926 11.5288C20.0836 11.5867 20.3509 11.7296 20.5607 11.9393C20.7704 12.1491 20.9133 12.4164 20.9712 12.7074C21.0291 12.9983 20.9993 13.2999 20.8858 13.574C20.7723 13.8481 20.58 14.0824 20.3334 14.2472C20.0867 14.412 19.7967 14.5 19.5 14.5C19.1022 14.5 18.7206 14.342 18.4393 14.0607C18.158 13.7794 18 13.3978 18 13Z" fill="black" fill-opacity="0.2"/>
</svg>
