<svg width="32" height="33" viewBox="0 0 32 33" fill="none" xmlns="http://www.w3.org/2000/svg">
<path d="M16 3.5C13.4288 3.5 10.9154 4.26244 8.77759 5.6909C6.63975 7.11935 4.97351 9.14968 3.98957 11.5251C3.00563 13.9006 2.74819 16.5144 3.2498 19.0362C3.75141 21.5579 4.98953 23.8743 6.80762 25.6924C8.6257 27.5105 10.9421 28.7486 13.4638 29.2502C15.9856 29.7518 18.5995 29.4944 20.9749 28.5104C23.3503 27.5265 25.3807 25.8603 26.8091 23.7224C28.2376 21.5846 29 19.0712 29 16.5C28.9964 13.0533 27.6256 9.74882 25.1884 7.31163C22.7512 4.87445 19.4467 3.50364 16 3.5ZM16 5.5C18.1312 5.49774 20.2166 6.11815 22 7.285V9.75L19.2288 12.9675L15.295 13.5L15.2563 13.4725L12.7975 11.865C12.5795 11.7114 12.333 11.603 12.0725 11.5461C11.812 11.4892 11.5428 11.485 11.2806 11.5337C11.0184 11.5824 10.7686 11.683 10.5459 11.8296C10.3232 11.9762 10.1321 12.1659 9.98376 12.3875L7.36626 16.3C7.1482 16.626 7.03083 17.009 7.02876 17.4013L7.00001 21.93L6.59126 22.1987C5.58077 20.5304 5.03206 18.6234 5.00135 16.6732C4.97064 14.7229 5.45905 12.7996 6.41651 11.1003C7.37397 9.40097 8.76605 7.9868 10.4501 7.00271C12.1341 6.01862 14.0495 5.5 16 5.5ZM7.78626 23.8088L8.10126 23.6025C8.37632 23.4211 8.6023 23.1745 8.75909 22.8847C8.91589 22.5948 8.99864 22.2708 9.00001 21.9412L9.02626 17.4125L11.6463 13.5C11.6591 13.5099 11.6724 13.5191 11.6863 13.5275L14.145 15.1362C14.5571 15.4271 15.0641 15.5508 15.5638 15.4825L19.5 14.9487C19.9854 14.884 20.4302 14.6433 20.75 14.2725L23.5213 11.0525C23.8312 10.6894 24.001 10.2274 24 9.75V8.95875C25.3526 10.3897 26.2956 12.158 26.7304 14.0785C27.1651 15.999 27.0756 18.001 26.4713 19.875L24.4538 18.03C24.1733 17.7726 23.8252 17.6005 23.4503 17.5341C23.0754 17.4677 22.6894 17.5096 22.3375 17.655L18.53 19.2362C18.2116 19.3699 17.9331 19.5833 17.7211 19.8559C17.5092 20.1284 17.371 20.451 17.32 20.7925L17.0213 22.8162C16.9494 23.3034 17.0599 23.7998 17.3313 24.2106C17.6028 24.6214 18.0162 24.9176 18.4925 25.0425L21.175 25.75L21.47 26.0462C19.2795 27.3031 16.7229 27.7667 14.2305 27.3592C11.7382 26.9517 9.46235 25.6978 7.78626 23.8088ZM23.125 24.875L22.5875 24.3363C22.3368 24.0846 22.0235 23.9042 21.68 23.8137L19 23.1063L19.2988 21.0825L23.105 19.5L25.625 21.81C24.9827 22.9737 24.1358 24.0119 23.125 24.875Z" fill="#8A8A8D"/>
<path d="M16 3.5C13.4288 3.5 10.9154 4.26244 8.77759 5.6909C6.63975 7.11935 4.97351 9.14968 3.98957 11.5251C3.00563 13.9006 2.74819 16.5144 3.2498 19.0362C3.75141 21.5579 4.98953 23.8743 6.80762 25.6924C8.6257 27.5105 10.9421 28.7486 13.4638 29.2502C15.9856 29.7518 18.5995 29.4944 20.9749 28.5104C23.3503 27.5265 25.3807 25.8603 26.8091 23.7224C28.2376 21.5846 29 19.0712 29 16.5C28.9964 13.0533 27.6256 9.74882 25.1884 7.31163C22.7512 4.87445 19.4467 3.50364 16 3.5ZM16 5.5C18.1312 5.49774 20.2166 6.11815 22 7.285V9.75L19.2288 12.9675L15.295 13.5L15.2563 13.4725L12.7975 11.865C12.5795 11.7114 12.333 11.603 12.0725 11.5461C11.812 11.4892 11.5428 11.485 11.2806 11.5337C11.0184 11.5824 10.7686 11.683 10.5459 11.8296C10.3232 11.9762 10.1321 12.1659 9.98376 12.3875L7.36626 16.3C7.1482 16.626 7.03083 17.009 7.02876 17.4013L7.00001 21.93L6.59126 22.1987C5.58077 20.5304 5.03206 18.6234 5.00135 16.6732C4.97064 14.7229 5.45905 12.7996 6.41651 11.1003C7.37397 9.40097 8.76605 7.9868 10.4501 7.00271C12.1341 6.01862 14.0495 5.5 16 5.5ZM7.78626 23.8088L8.10126 23.6025C8.37632 23.4211 8.6023 23.1745 8.75909 22.8847C8.91589 22.5948 8.99864 22.2708 9.00001 21.9412L9.02626 17.4125L11.6463 13.5C11.6591 13.5099 11.6724 13.5191 11.6863 13.5275L14.145 15.1362C14.5571 15.4271 15.0641 15.5508 15.5638 15.4825L19.5 14.9487C19.9854 14.884 20.4302 14.6433 20.75 14.2725L23.5213 11.0525C23.8312 10.6894 24.001 10.2274 24 9.75V8.95875C25.3526 10.3897 26.2956 12.158 26.7304 14.0785C27.1651 15.999 27.0756 18.001 26.4713 19.875L24.4538 18.03C24.1733 17.7726 23.8252 17.6005 23.4503 17.5341C23.0754 17.4677 22.6894 17.5096 22.3375 17.655L18.53 19.2362C18.2116 19.3699 17.9331 19.5833 17.7211 19.8559C17.5092 20.1284 17.371 20.451 17.32 20.7925L17.0213 22.8162C16.9494 23.3034 17.0599 23.7998 17.3313 24.2106C17.6028 24.6214 18.0162 24.9176 18.4925 25.0425L21.175 25.75L21.47 26.0462C19.2795 27.3031 16.7229 27.7667 14.2305 27.3592C11.7382 26.9517 9.46235 25.6978 7.78626 23.8088ZM23.125 24.875L22.5875 24.3363C22.3368 24.0846 22.0235 23.9042 21.68 23.8137L19 23.1063L19.2988 21.0825L23.105 19.5L25.625 21.81C24.9827 22.9737 24.1358 24.0119 23.125 24.875Z" fill="black" fill-opacity="0.2"/>
</svg>
