<svg width="33" height="33" viewBox="0 0 33 33" fill="none" xmlns="http://www.w3.org/2000/svg">
<path d="M9.10609 25.8333L3.16669 30.5V5.83333C3.16669 5.09696 3.76365 4.5 4.50002 4.5H28.5C29.2364 4.5 29.8334 5.09696 29.8334 5.83333V24.5C29.8334 25.2364 29.2364 25.8333 28.5 25.8333H9.10609ZM8.18378 23.1667H27.1667V7.16667H5.83335V25.0135L8.18378 23.1667ZM11.1667 13.8333H21.8334V16.5H11.1667V13.8333Z" fill="#8A8A8D"/>
<path d="M9.10609 25.8333L3.16669 30.5V5.83333C3.16669 5.09696 3.76365 4.5 4.50002 4.5H28.5C29.2364 4.5 29.8334 5.09696 29.8334 5.83333V24.5C29.8334 25.2364 29.2364 25.8333 28.5 25.8333H9.10609ZM8.18378 23.1667H27.1667V7.16667H5.83335V25.0135L8.18378 23.1667ZM11.1667 13.8333H21.8334V16.5H11.1667V13.8333Z" fill="black" fill-opacity="0.2"/>
</svg>
