<svg width="32" height="33" viewBox="0 0 32 33" fill="none" xmlns="http://www.w3.org/2000/svg">
<path d="M28 19.5C28 19.7652 27.8946 20.0196 27.7071 20.2071C27.5196 20.3946 27.2652 20.5 27 20.5H24V22.5H26C26.2652 22.5 26.5196 22.6054 26.7071 22.7929C26.8946 22.9804 27 23.2348 27 23.5C27 23.7652 26.8946 24.0196 26.7071 24.2071C26.5196 24.3946 26.2652 24.5 26 24.5H24V26.5C24 26.7652 23.8946 27.0196 23.7071 27.2071C23.5196 27.3946 23.2652 27.5 23 27.5C22.7348 27.5 22.4804 27.3946 22.2929 27.2071C22.1054 27.0196 22 26.7652 22 26.5V19.5C22 19.2348 22.1054 18.9804 22.2929 18.7929C22.4804 18.6054 22.7348 18.5 23 18.5H27C27.2652 18.5 27.5196 18.6054 27.7071 18.7929C27.8946 18.9804 28 19.2348 28 19.5ZM11.5 22C11.5 22.9283 11.1313 23.8185 10.4749 24.4749C9.8185 25.1313 8.92826 25.5 8 25.5H7V26.5C7 26.7652 6.89464 27.0196 6.70711 27.2071C6.51957 27.3946 6.26522 27.5 6 27.5C5.73478 27.5 5.48043 27.3946 5.29289 27.2071C5.10536 27.0196 5 26.7652 5 26.5V19.5C5 19.2348 5.10536 18.9804 5.29289 18.7929C5.48043 18.6054 5.73478 18.5 6 18.5H8C8.92826 18.5 9.8185 18.8687 10.4749 19.5251C11.1313 20.1815 11.5 21.0717 11.5 22ZM9.5 22C9.5 21.6022 9.34196 21.2206 9.06066 20.9393C8.77936 20.658 8.39782 20.5 8 20.5H7V23.5H8C8.39782 23.5 8.77936 23.342 9.06066 23.0607C9.34196 22.7794 9.5 22.3978 9.5 22ZM20.5 23C20.5 24.1935 20.0259 25.3381 19.182 26.182C18.3381 27.0259 17.1935 27.5 16 27.5H14C13.7348 27.5 13.4804 27.3946 13.2929 27.2071C13.1054 27.0196 13 26.7652 13 26.5V19.5C13 19.2348 13.1054 18.9804 13.2929 18.7929C13.4804 18.6054 13.7348 18.5 14 18.5H16C17.1935 18.5 18.3381 18.9741 19.182 19.818C20.0259 20.6619 20.5 21.8065 20.5 23ZM18.5 23C18.5 22.337 18.2366 21.7011 17.7678 21.2322C17.2989 20.7634 16.663 20.5 16 20.5H15V25.5H16C16.663 25.5 17.2989 25.2366 17.7678 24.7678C18.2366 24.2989 18.5 23.663 18.5 23ZM5 14.5V5.5C5 4.96957 5.21071 4.46086 5.58579 4.08579C5.96086 3.71071 6.46957 3.5 7 3.5H19C19.1314 3.4999 19.2615 3.52568 19.3829 3.57586C19.5042 3.62605 19.6146 3.69967 19.7075 3.7925L26.7075 10.7925C26.8003 10.8854 26.8739 10.9958 26.9241 11.1172C26.9743 11.2385 27.0001 11.3686 27 11.5V14.5C27 14.7652 26.8946 15.0196 26.7071 15.2071C26.5196 15.3946 26.2652 15.5 26 15.5C25.7348 15.5 25.4804 15.3946 25.2929 15.2071C25.1054 15.0196 25 14.7652 25 14.5V12.5H19C18.7348 12.5 18.4804 12.3946 18.2929 12.2071C18.1054 12.0196 18 11.7652 18 11.5V5.5H7V14.5C7 14.7652 6.89464 15.0196 6.70711 15.2071C6.51957 15.3946 6.26522 15.5 6 15.5C5.73478 15.5 5.48043 15.3946 5.29289 15.2071C5.10536 15.0196 5 14.7652 5 14.5ZM20 10.5H23.5863L20 6.91375V10.5Z" fill="#8A8A8D"/>
<path d="M28 19.5C28 19.7652 27.8946 20.0196 27.7071 20.2071C27.5196 20.3946 27.2652 20.5 27 20.5H24V22.5H26C26.2652 22.5 26.5196 22.6054 26.7071 22.7929C26.8946 22.9804 27 23.2348 27 23.5C27 23.7652 26.8946 24.0196 26.7071 24.2071C26.5196 24.3946 26.2652 24.5 26 24.5H24V26.5C24 26.7652 23.8946 27.0196 23.7071 27.2071C23.5196 27.3946 23.2652 27.5 23 27.5C22.7348 27.5 22.4804 27.3946 22.2929 27.2071C22.1054 27.0196 22 26.7652 22 26.5V19.5C22 19.2348 22.1054 18.9804 22.2929 18.7929C22.4804 18.6054 22.7348 18.5 23 18.5H27C27.2652 18.5 27.5196 18.6054 27.7071 18.7929C27.8946 18.9804 28 19.2348 28 19.5ZM11.5 22C11.5 22.9283 11.1313 23.8185 10.4749 24.4749C9.8185 25.1313 8.92826 25.5 8 25.5H7V26.5C7 26.7652 6.89464 27.0196 6.70711 27.2071C6.51957 27.3946 6.26522 27.5 6 27.5C5.73478 27.5 5.48043 27.3946 5.29289 27.2071C5.10536 27.0196 5 26.7652 5 26.5V19.5C5 19.2348 5.10536 18.9804 5.29289 18.7929C5.48043 18.6054 5.73478 18.5 6 18.5H8C8.92826 18.5 9.8185 18.8687 10.4749 19.5251C11.1313 20.1815 11.5 21.0717 11.5 22ZM9.5 22C9.5 21.6022 9.34196 21.2206 9.06066 20.9393C8.77936 20.658 8.39782 20.5 8 20.5H7V23.5H8C8.39782 23.5 8.77936 23.342 9.06066 23.0607C9.34196 22.7794 9.5 22.3978 9.5 22ZM20.5 23C20.5 24.1935 20.0259 25.3381 19.182 26.182C18.3381 27.0259 17.1935 27.5 16 27.5H14C13.7348 27.5 13.4804 27.3946 13.2929 27.2071C13.1054 27.0196 13 26.7652 13 26.5V19.5C13 19.2348 13.1054 18.9804 13.2929 18.7929C13.4804 18.6054 13.7348 18.5 14 18.5H16C17.1935 18.5 18.3381 18.9741 19.182 19.818C20.0259 20.6619 20.5 21.8065 20.5 23ZM18.5 23C18.5 22.337 18.2366 21.7011 17.7678 21.2322C17.2989 20.7634 16.663 20.5 16 20.5H15V25.5H16C16.663 25.5 17.2989 25.2366 17.7678 24.7678C18.2366 24.2989 18.5 23.663 18.5 23ZM5 14.5V5.5C5 4.96957 5.21071 4.46086 5.58579 4.08579C5.96086 3.71071 6.46957 3.5 7 3.5H19C19.1314 3.4999 19.2615 3.52568 19.3829 3.57586C19.5042 3.62605 19.6146 3.69967 19.7075 3.7925L26.7075 10.7925C26.8003 10.8854 26.8739 10.9958 26.9241 11.1172C26.9743 11.2385 27.0001 11.3686 27 11.5V14.5C27 14.7652 26.8946 15.0196 26.7071 15.2071C26.5196 15.3946 26.2652 15.5 26 15.5C25.7348 15.5 25.4804 15.3946 25.2929 15.2071C25.1054 15.0196 25 14.7652 25 14.5V12.5H19C18.7348 12.5 18.4804 12.3946 18.2929 12.2071C18.1054 12.0196 18 11.7652 18 11.5V5.5H7V14.5C7 14.7652 6.89464 15.0196 6.70711 15.2071C6.51957 15.3946 6.26522 15.5 6 15.5C5.73478 15.5 5.48043 15.3946 5.29289 15.2071C5.10536 15.0196 5 14.7652 5 14.5ZM20 10.5H23.5863L20 6.91375V10.5Z" fill="black" fill-opacity="0.2"/>
</svg>
