<svg width="44" height="44" viewBox="0 0 44 44" fill="none" xmlns="http://www.w3.org/2000/svg">
<rect width="44" height="44" rx="8" fill="#121212"/>
<g clip-path="url(#clip0_2877_6994)">
<path d="M32.8155 13.4311C32.7107 13.3494 32.5886 13.2927 32.4586 13.2652C32.3286 13.2377 32.1941 13.2402 32.0652 13.2725L25.3791 14.9437L18.6689 11.5881C18.4819 11.4948 18.2678 11.4716 18.0652 11.5225L11.0652 13.2725C10.8759 13.3198 10.7078 13.429 10.5877 13.5828C10.4676 13.7366 10.4024 13.9261 10.4023 14.1212V29.8712C10.4024 30.0042 10.4327 30.1354 10.491 30.2549C10.5493 30.3743 10.6341 30.479 10.7389 30.5608C10.8437 30.6426 10.9658 30.6995 11.0958 30.727C11.2259 30.7546 11.3605 30.7522 11.4895 30.72L18.1756 29.0487L24.8858 32.4043C25.0076 32.4644 25.1415 32.4958 25.2773 32.4962C25.3489 32.4962 25.4201 32.4874 25.4895 32.47L32.4895 30.72C32.6788 30.6726 32.8469 30.5634 32.967 30.4096C33.0871 30.2558 33.1523 30.0663 33.1523 29.8712V14.1212C33.1524 13.9881 33.122 13.8568 33.0637 13.7372C33.0053 13.6176 32.9204 13.5129 32.8155 13.4311ZM19.1523 13.7865L24.4023 16.4115V30.2059L19.1523 27.5809V13.7865ZM12.1523 14.8048L17.4023 13.4923V27.4376L12.1523 28.7501V14.8048ZM31.4023 29.1876L26.1523 30.5001V16.5548L31.4023 15.2423V29.1876Z" fill="white"/>
</g>
<defs>
<clipPath id="clip0_2877_6994">
<rect width="28" height="28" fill="white" transform="translate(8 8)"/>
</clipPath>
</defs>
</svg>
