<svg width="44" height="44" viewBox="0 0 44 44" fill="none" xmlns="http://www.w3.org/2000/svg">
<rect width="44" height="44" rx="8" fill="#FF4D4F"/>
<path d="M28.464 18.288C28.464 19.136 28.264 19.936 27.864 20.688C27.464 21.44 26.824 22.056 25.944 22.536C25.064 23 23.936 23.232 22.56 23.232H19.536V30H16.8V13.32H22.56C23.84 13.32 24.92 13.544 25.8 13.992C26.696 14.424 27.36 15.016 27.792 15.768C28.24 16.52 28.464 17.36 28.464 18.288ZM22.56 21C23.6 21 24.376 20.768 24.888 20.304C25.4 19.824 25.656 19.152 25.656 18.288C25.656 16.464 24.624 15.552 22.56 15.552H19.536V21H22.56Z" fill="white"/>
</svg>
