<svg width="24" height="25" viewBox="0 0 24 25" fill="none" xmlns="http://www.w3.org/2000/svg">
<path d="M20.9996 12.5004C20.9996 12.6993 20.9206 12.8901 20.7799 13.0307C20.6393 13.1714 20.4485 13.2504 20.2496 13.2504H5.55993L11.0302 18.7198C11.0999 18.7895 11.1552 18.8722 11.1929 18.9632C11.2306 19.0543 11.25 19.1519 11.25 19.2504C11.25 19.349 11.2306 19.4465 11.1929 19.5376C11.1552 19.6286 11.0999 19.7114 11.0302 19.781C10.9606 19.8507 10.8778 19.906 10.7868 19.9437C10.6957 19.9814 10.5982 20.0008 10.4996 20.0008C10.4011 20.0008 10.3035 19.9814 10.2124 19.9437C10.1214 19.906 10.0387 19.8507 9.96899 19.781L3.21899 13.031C3.14926 12.9614 3.09394 12.8787 3.05619 12.7876C3.01845 12.6966 2.99902 12.599 2.99902 12.5004C2.99902 12.4019 3.01845 12.3043 3.05619 12.2132C3.09394 12.1222 3.14926 12.0394 3.21899 11.9698L9.96899 5.21979C10.1097 5.07906 10.3006 5 10.4996 5C10.6986 5 10.8895 5.07906 11.0302 5.21979C11.171 5.36052 11.25 5.55139 11.25 5.75042C11.25 5.94944 11.171 6.14031 11.0302 6.28104L5.55993 11.7504H20.2496C20.4485 11.7504 20.6393 11.8294 20.7799 11.9701C20.9206 12.1107 20.9996 12.3015 20.9996 12.5004Z" fill="#8A8A8D"/>
<path d="M20.9996 12.5004C20.9996 12.6993 20.9206 12.8901 20.7799 13.0307C20.6393 13.1714 20.4485 13.2504 20.2496 13.2504H5.55993L11.0302 18.7198C11.0999 18.7895 11.1552 18.8722 11.1929 18.9632C11.2306 19.0543 11.25 19.1519 11.25 19.2504C11.25 19.349 11.2306 19.4465 11.1929 19.5376C11.1552 19.6286 11.0999 19.7114 11.0302 19.781C10.9606 19.8507 10.8778 19.906 10.7868 19.9437C10.6957 19.9814 10.5982 20.0008 10.4996 20.0008C10.4011 20.0008 10.3035 19.9814 10.2124 19.9437C10.1214 19.906 10.0387 19.8507 9.96899 19.781L3.21899 13.031C3.14926 12.9614 3.09394 12.8787 3.05619 12.7876C3.01845 12.6966 2.99902 12.599 2.99902 12.5004C2.99902 12.4019 3.01845 12.3043 3.05619 12.2132C3.09394 12.1222 3.14926 12.0394 3.21899 11.9698L9.96899 5.21979C10.1097 5.07906 10.3006 5 10.4996 5C10.6986 5 10.8895 5.07906 11.0302 5.21979C11.171 5.36052 11.25 5.55139 11.25 5.75042C11.25 5.94944 11.171 6.14031 11.0302 6.28104L5.55993 11.7504H20.2496C20.4485 11.7504 20.6393 11.8294 20.7799 11.9701C20.9206 12.1107 20.9996 12.3015 20.9996 12.5004Z" fill="black" fill-opacity="0.2"/>
</svg>
