<svg width="500" height="500" viewBox="0 0 500 500" fill="none" xmlns="http://www.w3.org/2000/svg">
<path d="M250 427.56C357.082 427.56 443.89 422.492 443.89 416.24C443.89 409.988 357.082 404.92 250 404.92C142.917 404.92 56.1099 409.988 56.1099 416.24C56.1099 422.492 142.917 427.56 250 427.56Z" fill="#F5F5F5"/>
<path d="M126.61 197.54C120 197.54 116.89 190.89 116.76 190.61C116.647 190.299 116.655 189.956 116.782 189.65C116.91 189.345 117.148 189.098 117.449 188.96C117.75 188.821 118.092 188.801 118.407 188.903C118.722 189.005 118.987 189.221 119.15 189.51C119.15 189.6 121.78 195.05 126.81 194.91C127.141 194.929 127.452 195.071 127.683 195.308C127.914 195.546 128.047 195.862 128.055 196.193C128.064 196.524 127.948 196.846 127.731 197.096C127.513 197.345 127.209 197.504 126.88 197.54H126.61Z" fill="#4353FF"/>
<path d="M213 105.19C212.425 105.193 211.85 105.156 211.28 105.08C211.109 105.054 210.945 104.995 210.798 104.906C210.65 104.817 210.521 104.7 210.418 104.561C210.315 104.423 210.241 104.265 210.2 104.097C210.158 103.93 210.15 103.756 210.175 103.585C210.201 103.414 210.26 103.25 210.349 103.102C210.438 102.954 210.555 102.825 210.694 102.723C210.833 102.62 210.99 102.546 211.158 102.504C211.325 102.463 211.499 102.454 211.67 102.48C211.73 102.48 217.75 103.33 220.39 99.04C220.48 98.8929 220.598 98.765 220.738 98.6635C220.877 98.5621 221.035 98.489 221.203 98.4486C221.37 98.4083 221.544 98.4013 221.714 98.4281C221.885 98.4549 222.048 98.515 222.195 98.605C222.342 98.6949 222.47 98.813 222.572 98.9524C222.673 99.0918 222.746 99.2498 222.787 99.4174C222.827 99.585 222.834 99.7589 222.807 99.9292C222.78 100.1 222.72 100.263 222.63 100.41C220 104.57 215.45 105.19 213 105.19Z" fill="#4353FF"/>
<path opacity="0.6" d="M213 105.19C212.425 105.193 211.85 105.156 211.28 105.08C211.109 105.054 210.945 104.995 210.798 104.906C210.65 104.817 210.521 104.7 210.418 104.561C210.315 104.423 210.241 104.265 210.2 104.097C210.158 103.93 210.15 103.756 210.175 103.585C210.201 103.414 210.26 103.25 210.349 103.102C210.438 102.954 210.555 102.825 210.694 102.723C210.833 102.62 210.99 102.546 211.158 102.504C211.325 102.463 211.499 102.454 211.67 102.48C211.73 102.48 217.75 103.33 220.39 99.04C220.48 98.8929 220.598 98.765 220.738 98.6635C220.877 98.5621 221.035 98.489 221.203 98.4486C221.37 98.4083 221.544 98.4013 221.714 98.4281C221.885 98.4549 222.048 98.515 222.195 98.605C222.342 98.6949 222.47 98.813 222.572 98.9524C222.673 99.0918 222.746 99.2498 222.787 99.4174C222.827 99.585 222.834 99.7589 222.807 99.9292C222.78 100.1 222.72 100.263 222.63 100.41C220 104.57 215.45 105.19 213 105.19Z" fill="white"/>
<path d="M64.6002 155.27C62.0631 155.184 59.5991 154.398 57.4802 153C57.3307 152.904 57.2022 152.779 57.1026 152.632C57.003 152.485 56.9343 152.319 56.9007 152.145C56.867 151.971 56.8692 151.791 56.907 151.618C56.9448 151.444 57.0175 151.28 57.1206 151.136C57.2238 150.991 57.3552 150.869 57.5069 150.777C57.6587 150.685 57.8276 150.625 58.0033 150.6C58.1791 150.575 58.3581 150.586 58.5295 150.632C58.7009 150.679 58.861 150.76 59.0002 150.87C59.0502 150.87 64.0902 154.28 68.3402 151.57C68.4857 151.464 68.6514 151.389 68.827 151.35C69.0026 151.31 69.1844 151.307 69.3613 151.34C69.5381 151.374 69.7063 151.443 69.8554 151.544C70.0046 151.644 70.1315 151.775 70.2285 151.926C70.3255 152.078 70.3904 152.248 70.4193 152.425C70.4483 152.603 70.4406 152.785 70.3967 152.959C70.3528 153.134 70.2738 153.297 70.1643 153.44C70.0548 153.583 69.9173 153.702 69.7602 153.79C68.2196 154.772 66.4272 155.286 64.6002 155.27Z" fill="#4353FF"/>
<path opacity="0.6" d="M64.6002 155.27C62.0631 155.184 59.5991 154.398 57.4802 153C57.3307 152.904 57.2022 152.779 57.1026 152.632C57.003 152.485 56.9343 152.319 56.9007 152.145C56.867 151.971 56.8692 151.791 56.907 151.618C56.9448 151.444 57.0175 151.28 57.1206 151.136C57.2238 150.991 57.3552 150.869 57.5069 150.777C57.6587 150.685 57.8276 150.625 58.0033 150.6C58.1791 150.575 58.3581 150.586 58.5295 150.632C58.7009 150.679 58.861 150.76 59.0002 150.87C59.0502 150.87 64.0902 154.28 68.3402 151.57C68.4857 151.464 68.6514 151.389 68.827 151.35C69.0026 151.31 69.1844 151.307 69.3613 151.34C69.5381 151.374 69.7063 151.443 69.8554 151.544C70.0046 151.644 70.1315 151.775 70.2285 151.926C70.3255 152.078 70.3904 152.248 70.4193 152.425C70.4483 152.603 70.4406 152.785 70.3967 152.959C70.3528 153.134 70.2738 153.297 70.1643 153.44C70.0548 153.583 69.9173 153.702 69.7602 153.79C68.2196 154.772 66.4272 155.286 64.6002 155.27Z" fill="white"/>
<path d="M407.63 120.199C405.097 120.131 402.631 119.37 400.5 117.999C400.214 117.802 400.017 117.499 399.955 117.156C399.892 116.814 399.968 116.461 400.165 116.174C400.363 115.888 400.666 115.692 401.008 115.629C401.351 115.566 401.704 115.642 401.99 115.839C402.04 115.839 407.09 119.239 411.34 116.539C411.485 116.447 411.647 116.384 411.817 116.354C411.986 116.324 412.16 116.327 412.328 116.365C412.496 116.402 412.655 116.472 412.796 116.57C412.937 116.669 413.058 116.794 413.15 116.939C413.243 117.085 413.306 117.246 413.336 117.416C413.366 117.585 413.362 117.759 413.325 117.927C413.288 118.095 413.218 118.254 413.119 118.396C413.021 118.537 412.895 118.657 412.75 118.749C411.22 119.719 409.441 120.223 407.63 120.199Z" fill="#4353FF"/>
<path opacity="0.6" d="M407.63 120.199C405.097 120.131 402.631 119.37 400.5 117.999C400.214 117.802 400.017 117.499 399.955 117.156C399.892 116.814 399.968 116.461 400.165 116.174C400.363 115.888 400.666 115.692 401.008 115.629C401.351 115.566 401.704 115.642 401.99 115.839C402.04 115.839 407.09 119.239 411.34 116.539C411.485 116.447 411.647 116.384 411.817 116.354C411.986 116.324 412.16 116.327 412.328 116.365C412.496 116.402 412.655 116.472 412.796 116.57C412.937 116.669 413.058 116.794 413.15 116.939C413.243 117.085 413.306 117.246 413.336 117.416C413.366 117.585 413.362 117.759 413.325 117.927C413.288 118.095 413.218 118.254 413.119 118.396C413.021 118.537 412.895 118.657 412.75 118.749C411.22 119.719 409.441 120.223 407.63 120.199Z" fill="white"/>
<path d="M246.81 223.49C240.68 223.49 237.34 217.55 237.19 217.28C237.022 216.975 236.981 216.615 237.078 216.281C237.174 215.946 237.4 215.663 237.705 215.495C238.01 215.326 238.369 215.286 238.704 215.383C239.039 215.479 239.322 215.705 239.49 216.01C239.49 216.09 242.49 221.33 247.49 220.82C247.824 220.808 248.151 220.924 248.403 221.144C248.655 221.364 248.814 221.671 248.849 222.004C248.883 222.336 248.79 222.67 248.588 222.936C248.385 223.203 248.09 223.383 247.76 223.44C247.46 223.47 247.13 223.49 246.81 223.49Z" fill="#4353FF"/>
<path opacity="0.6" d="M246.81 223.49C240.68 223.49 237.34 217.55 237.19 217.28C237.022 216.975 236.981 216.615 237.078 216.281C237.174 215.946 237.4 215.663 237.705 215.495C238.01 215.326 238.369 215.286 238.704 215.383C239.039 215.479 239.322 215.705 239.49 216.01C239.49 216.09 242.49 221.33 247.49 220.82C247.824 220.808 248.151 220.924 248.403 221.144C248.655 221.364 248.814 221.671 248.849 222.004C248.883 222.336 248.79 222.67 248.588 222.936C248.385 223.203 248.09 223.383 247.76 223.44C247.46 223.47 247.13 223.49 246.81 223.49Z" fill="white"/>
<path d="M79.0001 250.2C78.6817 250.198 78.3751 250.079 78.1377 249.867C77.9004 249.654 77.7485 249.363 77.7105 249.047C77.6725 248.73 77.751 248.411 77.9313 248.149C78.1116 247.886 78.3814 247.698 78.6901 247.62C78.7501 247.62 84.6201 246.07 85.4201 241.09C85.4477 240.92 85.5085 240.757 85.599 240.611C85.6896 240.464 85.8082 240.337 85.9479 240.236C86.0877 240.135 86.2459 240.063 86.4135 240.023C86.5812 239.984 86.7551 239.978 86.9251 240.005C87.0952 240.033 87.2581 240.094 87.4047 240.184C87.5513 240.275 87.6786 240.393 87.7793 240.533C87.8801 240.673 87.9523 240.831 87.9919 240.999C88.0315 241.166 88.0377 241.34 88.0101 241.51C86.9401 248.22 79.6301 250.09 79.3201 250.17C79.2146 250.19 79.1075 250.2 79.0001 250.2Z" fill="#4353FF"/>
<path opacity="0.6" d="M79.0001 250.2C78.6817 250.198 78.3751 250.079 78.1377 249.867C77.9004 249.654 77.7485 249.363 77.7105 249.047C77.6725 248.73 77.751 248.411 77.9313 248.149C78.1116 247.886 78.3814 247.698 78.6901 247.62C78.7501 247.62 84.6201 246.07 85.4201 241.09C85.4477 240.92 85.5085 240.757 85.599 240.611C85.6896 240.464 85.8082 240.337 85.9479 240.236C86.0877 240.135 86.2459 240.063 86.4135 240.023C86.5812 239.984 86.7551 239.978 86.9251 240.005C87.0952 240.033 87.2581 240.094 87.4047 240.184C87.5513 240.275 87.6786 240.393 87.7793 240.533C87.8801 240.673 87.9523 240.831 87.9919 240.999C88.0315 241.166 88.0377 241.34 88.0101 241.51C86.9401 248.22 79.6301 250.09 79.3201 250.17C79.2146 250.19 79.1075 250.2 79.0001 250.2Z" fill="black"/>
<path d="M371 159.05C370.673 159.061 370.354 158.95 370.105 158.737C369.856 158.525 369.696 158.226 369.655 157.902C369.615 157.577 369.698 157.249 369.888 156.982C370.078 156.715 370.36 156.529 370.68 156.46C370.74 156.46 376.61 154.92 377.41 149.94C377.427 149.76 377.48 149.585 377.567 149.426C377.654 149.267 377.773 149.128 377.916 149.017C378.059 148.906 378.223 148.826 378.399 148.781C378.574 148.736 378.757 148.728 378.935 148.757C379.114 148.786 379.285 148.851 379.437 148.949C379.59 149.047 379.72 149.175 379.821 149.325C379.922 149.475 379.991 149.645 380.023 149.823C380.056 150.001 380.051 150.184 380.01 150.36C378.93 157.07 371.62 158.94 371.31 159.01C371.209 159.038 371.105 159.052 371 159.05Z" fill="#4353FF"/>
<path opacity="0.6" d="M371 159.05C370.673 159.061 370.354 158.95 370.105 158.737C369.856 158.525 369.696 158.226 369.655 157.902C369.615 157.577 369.698 157.249 369.888 156.982C370.078 156.715 370.36 156.529 370.68 156.46C370.74 156.46 376.61 154.92 377.41 149.94C377.427 149.76 377.48 149.585 377.567 149.426C377.654 149.267 377.773 149.128 377.916 149.017C378.059 148.906 378.223 148.826 378.399 148.781C378.574 148.736 378.757 148.728 378.935 148.757C379.114 148.786 379.285 148.851 379.437 148.949C379.59 149.047 379.72 149.175 379.821 149.325C379.922 149.475 379.991 149.645 380.023 149.823C380.056 150.001 380.051 150.184 380.01 150.36C378.93 157.07 371.62 158.94 371.31 159.01C371.209 159.038 371.105 159.052 371 159.05Z" fill="black"/>
<path d="M424.73 208.909H424.51C424.19 208.849 416.77 207.489 415.24 200.909C415.2 200.74 415.195 200.564 415.224 200.393C415.253 200.221 415.316 200.057 415.409 199.91C415.502 199.763 415.623 199.635 415.766 199.536C415.909 199.436 416.07 199.366 416.24 199.329C416.41 199.291 416.585 199.287 416.756 199.316C416.927 199.346 417.091 199.409 417.238 199.501C417.385 199.594 417.512 199.715 417.612 199.857C417.711 200 417.782 200.16 417.82 200.329C418.96 205.229 424.92 206.329 424.98 206.329C425.295 206.397 425.575 206.577 425.766 206.836C425.957 207.095 426.047 207.415 426.019 207.736C425.991 208.057 425.846 208.356 425.612 208.578C425.379 208.8 425.072 208.928 424.75 208.939L424.73 208.909Z" fill="#4353FF"/>
<path d="M401.29 257.12C399 257.156 396.773 256.372 395.01 254.91C394.863 254.805 394.74 254.671 394.647 254.516C394.554 254.361 394.495 254.188 394.472 254.009C394.45 253.829 394.464 253.647 394.515 253.474C394.566 253.301 394.653 253.14 394.769 253.002C394.885 252.863 395.029 252.75 395.191 252.67C395.352 252.59 395.529 252.544 395.71 252.536C395.89 252.527 396.07 252.556 396.239 252.62C396.408 252.685 396.562 252.783 396.69 252.91C400.56 256.13 405.99 253.43 406.05 253.4C406.361 253.241 406.721 253.212 407.053 253.319C407.385 253.425 407.661 253.66 407.82 253.97C407.98 254.28 408.009 254.641 407.902 254.973C407.795 255.305 407.561 255.581 407.25 255.74C405.387 256.626 403.354 257.097 401.29 257.12Z" fill="#4353FF"/>
<path d="M340 92.9999C339.772 93.0017 339.548 92.943 339.35 92.8299C339.08 92.6799 332.55 88.8999 333.35 82.1499C333.39 81.8038 333.566 81.4877 333.838 81.2711C334.111 81.0545 334.459 80.9551 334.805 80.9949C335.151 81.0347 335.467 81.2103 335.684 81.4832C335.901 81.7561 336 82.1038 335.96 82.4499C335.39 87.4499 340.63 90.5199 340.68 90.5499C340.935 90.6938 341.134 90.9187 341.246 91.1889C341.358 91.4591 341.376 91.759 341.298 92.0407C341.22 92.3225 341.049 92.5701 340.814 92.7439C340.579 92.9177 340.292 93.0078 340 92.9999Z" fill="#4353FF"/>
<path d="M78.79 98.3303C78.6179 98.3376 78.4462 98.3108 78.2845 98.2517C78.1228 98.1925 77.9743 98.1021 77.8476 97.9855C77.7208 97.869 77.6183 97.7286 77.5457 97.5725C77.4732 97.4163 77.4322 97.2474 77.425 97.0753C77.4178 96.9033 77.4445 96.7315 77.5036 96.5698C77.5628 96.4081 77.6532 96.2597 77.7698 96.1329C77.8863 96.0062 78.0267 95.9036 78.1828 95.8311C78.339 95.7586 78.5079 95.7176 78.68 95.7103C83.68 95.2703 85.68 89.5303 85.68 89.4703C85.7961 89.1512 86.0317 88.8897 86.3369 88.7409C86.6422 88.5921 86.9933 88.5676 87.3162 88.6727C87.6392 88.7777 87.9087 89.0041 88.0679 89.304C88.2272 89.6039 88.2638 89.954 88.17 90.2803C88.08 90.5903 85.68 97.7403 78.91 98.2803L78.79 98.3303Z" fill="#4353FF"/>
<path d="M176.36 137.9C172.81 139.56 169.68 147.54 170.7 159C171.72 170.46 147.98 162.42 144.75 175.26C138.92 198.5 178.01 212.47 194.67 198.5C204.98 189.86 214.67 161.38 213.25 145.84C211.73 129.13 185.81 117.92 176.36 137.9Z" fill="#263238"/>
<path d="M213.87 167.22C214.31 167.09 214.95 166.9 215.5 166.72L217.22 166.14C218.37 165.74 219.51 165.3 220.64 164.83C222.891 163.906 225.088 162.854 227.22 161.68C231.398 159.451 235.157 156.514 238.33 153C241.16 149.64 243.19 145.06 244.78 140.36C245.59 138 246.27 135.57 246.85 133.1C247.43 130.63 247.98 128.1 248.4 125.67L252.48 125.92C252.487 131.328 251.9 136.72 250.73 142C250.135 144.705 249.329 147.36 248.32 149.94C247.274 152.663 245.872 155.235 244.15 157.59C240.628 162.106 236.26 165.893 231.29 168.74C228.895 170.156 226.41 171.412 223.85 172.5C222.57 173.04 221.28 173.5 219.96 173.99C219.31 174.22 218.65 174.44 217.96 174.64C217.27 174.84 216.66 175.03 215.84 175.23L213.87 167.22Z" fill="#7F3E3B"/>
<path d="M252.46 127.291L254.16 121.181L247.41 121.701C247.41 121.701 246.93 125.701 249.26 128.111L252.46 127.291Z" fill="#7F3E3B"/>
<path d="M255.17 114.07L249.01 115.68L247.41 121.7L254.16 121.18L255.17 114.07Z" fill="#7F3E3B"/>
<path d="M206.23 168.78C209.34 165.95 217.23 163.78 217.23 163.78L225.88 176.78C225.88 176.78 216.01 183.37 211.82 181.84C207.46 180.32 203.33 171.41 206.23 168.78Z" fill="#4353FF"/>
<path d="M177.74 353.69L183.13 359.61L198.6 348.59L193.21 342.67L177.74 353.69Z" fill="#7F3E3B"/>
<path d="M147.32 377.08L154.55 380.67L165.18 365.08L157.95 361.49L147.32 377.08Z" fill="#7F3E3B"/>
<path d="M155.7 379.78L150.12 372.63C150.026 372.505 149.89 372.419 149.737 372.388C149.585 372.357 149.425 372.382 149.29 372.46L143 376.06C142.845 376.155 142.711 376.282 142.608 376.433C142.505 376.583 142.435 376.754 142.403 376.934C142.371 377.113 142.377 377.297 142.422 377.474C142.466 377.651 142.547 377.817 142.66 377.96C144.66 380.42 145.73 381.51 148.19 384.66C149.69 386.59 152.75 391.09 154.83 393.76C156.91 396.43 159.67 394.52 159.04 393.22C156.22 387.39 156.04 383.93 156.14 381.15C156.16 380.656 156.004 380.17 155.7 379.78Z" fill="#263238"/>
<path d="M184.74 359.72L181.06 350.88C180.995 350.722 180.879 350.589 180.731 350.504C180.582 350.419 180.41 350.386 180.24 350.41L172.44 351.41C172.255 351.43 172.076 351.493 171.92 351.595C171.764 351.697 171.634 351.835 171.541 351.997C171.448 352.159 171.395 352.341 171.387 352.527C171.378 352.714 171.413 352.9 171.49 353.07C172.83 356.14 173.64 357.57 175.26 361.46C176.26 363.85 178.58 370.13 179.95 373.46C181.32 376.79 184.84 376 184.58 374.54C183.41 368 183.81 363.78 184.78 361.21C184.872 360.971 184.916 360.717 184.909 360.461C184.902 360.205 184.845 359.953 184.74 359.72Z" fill="#263238"/>
<path opacity="0.2" d="M198.59 348.59L190.62 354.27L184.59 348.81L193.2 342.67L198.59 348.59Z" fill="black"/>
<path opacity="0.2" d="M157.95 361.49L165.18 365.08L159.69 373.12L152.46 369.52L157.95 361.49Z" fill="black"/>
<path d="M217.12 169.79C217.12 169.79 217.36 169.43 212.98 217.21L180.28 219.5C179.9 206.16 180.9 196.74 174.67 169.33C179.265 168.405 183.92 167.817 188.6 167.57C193.556 167.24 198.529 167.266 203.48 167.65C209.87 168.26 217.12 169.79 217.12 169.79Z" fill="#4353FF"/>
<path d="M177.13 177.25C174.7 176.13 172.57 174.93 170.36 173.66C168.15 172.39 166.06 171.03 163.98 169.59C159.747 166.716 155.81 163.426 152.23 159.77L150.91 158.34L150.57 157.98C150.375 157.756 150.192 157.523 150.02 157.28C149.711 156.839 149.443 156.371 149.22 155.88C148.558 154.318 148.218 152.637 148.22 150.94C148.242 148.239 148.605 145.551 149.3 142.94C150.57 138.054 152.332 133.31 154.56 128.78L158.38 130.26C157.79 132.53 157.23 134.89 156.73 137.2C156.23 139.51 155.81 141.84 155.53 144.12C155.206 146.264 155.118 148.437 155.27 150.6C155.32 151.349 155.51 152.082 155.83 152.76C155.83 152.83 155.93 152.91 155.96 152.92L156.27 153.21L157.5 154.38C160.933 157.489 164.612 160.315 168.5 162.83C170.45 164.12 172.5 165.3 174.5 166.49C176.5 167.68 178.65 168.81 180.6 169.8L177.13 177.25Z" fill="#7F3E3B"/>
<path d="M187.54 171.16C183.83 165.99 176.54 166.07 176.54 166.07L167.75 179.07C167.75 179.07 177.56 185.75 181.75 184.26C186.19 182.68 189.83 174.34 187.54 171.16Z" fill="#4353FF"/>
<path d="M203.48 167.65L188.6 167.57C186.32 168.49 185 174.42 200.1 179.44C210.57 173.49 205 168.2 203.48 167.65Z" fill="white"/>
<path d="M190.16 150.82C191.07 155.61 191.96 164.39 188.6 167.57C188.6 167.57 189.9 172.44 200.1 179.44C207.25 172.27 203.48 167.65 203.48 167.65C198.15 166.34 198.31 162.38 199.26 158.65L190.16 150.82Z" fill="#7F3E3B"/>
<path d="M221 198.38H220.84C220.313 198.337 219.824 198.086 219.481 197.683C219.138 197.28 218.969 196.758 219.01 196.23C219.37 191.77 216.01 188.4 212.15 184.49C207.72 180.02 202.69 174.95 202.49 167.06C202.477 166.53 202.675 166.016 203.041 165.632C203.406 165.247 203.91 165.024 204.44 165.01C204.971 164.997 205.485 165.195 205.869 165.561C206.254 165.927 206.477 166.43 206.49 166.96C206.65 173.26 210.89 177.54 214.99 181.68C219.09 185.82 223.5 190.26 222.99 196.55C222.948 197.049 222.72 197.514 222.351 197.853C221.983 198.191 221.501 198.38 221 198.38Z" fill="#263238"/>
<path d="M191.77 208.5C191.609 208.5 191.447 208.48 191.29 208.44C190.776 208.313 190.333 207.986 190.06 207.532C189.786 207.079 189.703 206.535 189.83 206.02C191.76 198.18 189.23 192.02 186.55 185.54C184.15 179.72 181.67 173.7 182.87 166.66C182.974 166.151 183.272 165.701 183.701 165.408C184.131 165.114 184.658 164.999 185.17 165.088C185.683 165.176 186.141 165.461 186.447 165.881C186.753 166.302 186.884 166.825 186.81 167.34C185.81 173.24 187.96 178.48 190.24 184.02C192.92 190.51 195.95 197.87 193.71 207.02C193.596 207.446 193.343 207.823 192.992 208.09C192.641 208.358 192.212 208.502 191.77 208.5Z" fill="#263238"/>
<path opacity="0.2" d="M197.38 157L193.38 157.47C193.574 158.547 193.96 159.58 194.52 160.52C195.31 161.71 197.07 162.23 198.81 162.28C198.808 161.043 198.977 159.811 199.31 158.62L197.38 157Z" fill="black"/>
<path d="M181.31 146.001C184.24 153.461 185.31 156.681 190.42 159.341C198.1 163.341 206.62 158.131 205.98 149.951C205.41 142.581 200.72 131.621 192.29 131.001C190.434 130.856 188.571 131.188 186.879 131.965C185.187 132.743 183.721 133.939 182.621 135.442C181.521 136.944 180.823 138.703 180.594 140.551C180.365 142.399 180.611 144.275 181.31 146.001Z" fill="#7F3E3B"/>
<path d="M189.34 129.92C195.03 133.42 190.16 154.01 180.53 152.92C170.9 151.83 180.93 124.75 189.34 129.92Z" fill="#263238"/>
<path d="M189.13 130C184.84 132.85 187.77 137.81 202.23 134.87C202.23 134.86 196.25 125.26 189.13 130Z" fill="#263238"/>
<path d="M182.35 153.25C182.982 154.664 184.147 155.77 185.59 156.33C187.52 157.05 188.65 155.33 188.27 153.46C187.92 151.75 186.5 149.3 184.5 149.4C184.063 149.43 183.64 149.568 183.27 149.802C182.9 150.037 182.594 150.36 182.381 150.742C182.167 151.125 182.052 151.554 182.047 151.992C182.042 152.43 182.146 152.863 182.35 153.25Z" fill="#7F3E3B"/>
<path d="M213 217.21C213 217.21 230.5 274.34 231.91 298.92C233.37 324.49 195.4 354.83 195.4 354.83L185.95 344.46C185.95 344.46 216.8 318.26 212.57 299.28C206.72 273.12 189 218.89 189 218.89L213 217.21Z" fill="#263238"/>
<path opacity="0.2" d="M202.09 235.911C200.49 230.911 196.93 234.271 195.69 239.571C198.16 247.571 201.02 256.93 203.74 266.3C204.79 258 205.22 245.711 202.09 235.911Z" fill="black"/>
<path d="M183.39 343.96L195.38 356.33L200.5 353.5L187.83 339.71L183.39 343.96Z" fill="#4353FF"/>
<path d="M204.35 217.82C204.35 217.82 199.35 273.82 194.35 305.01C190.3 330.21 162.79 371.37 162.79 371.37L152.71 366.68C152.71 366.68 171.2 322.61 174.08 305.48C183.32 250.65 170.84 234.83 180.29 219.48L204.35 217.82Z" fill="#263238"/>
<path d="M152 366.791L163.37 372.371L167.1 367.741L153.8 361.471L152 366.791Z" fill="#4353FF"/>
<path d="M179.66 217.62L178.39 220.62C178.29 220.85 178.57 221.07 178.95 221.04L213.25 218.64C213.54 218.64 213.78 218.46 213.78 218.27L213.87 215.27C213.87 215.07 213.61 214.92 213.29 214.94L180.17 217.26C180.059 217.264 179.952 217.3 179.861 217.364C179.771 217.428 179.701 217.517 179.66 217.62Z" fill="white"/>
<path d="M184.36 221.001L183.48 221.061C183.3 221.061 183.16 220.991 183.16 220.881L183.31 217.051C183.31 216.941 183.47 216.831 183.64 216.821L184.53 216.761C184.71 216.761 184.85 216.831 184.84 216.941L184.69 220.771C184.69 220.901 184.54 221.001 184.36 221.001Z" fill="#263238"/>
<path d="M210.78 219.16L209.89 219.22C209.71 219.22 209.57 219.15 209.58 219.04L209.73 215.21C209.73 215.1 209.88 215 210.06 214.98L210.94 214.92C211.12 214.92 211.26 214.99 211.26 215.1L211.11 218.94C211.1 219.05 211 219.15 210.78 219.16Z" fill="#263238"/>
<path d="M197.57 220.091L196.68 220.151C196.51 220.151 196.37 220.081 196.37 219.971L196.52 216.131C196.52 216.021 196.67 215.921 196.85 215.911L197.74 215.851C197.91 215.851 198.05 215.921 198.05 216.031L197.9 219.861C197.9 220.001 197.75 220.071 197.57 220.091Z" fill="#263238"/>
<path d="M193.36 143.2C192.88 143.36 192.68 144.08 192.92 144.82L194.67 144.26C194.43 143.52 193.84 143 193.36 143.2Z" fill="#263238"/>
<path d="M201 140.781C200.51 140.941 200.31 141.671 200.55 142.411L202.31 141.841C202 141.101 201.43 140.631 201 140.781Z" fill="#263238"/>
<path d="M200.75 140.891L202.36 139.811C202.36 139.811 201.9 141.491 200.75 140.891Z" fill="#263238"/>
<path d="M199 143.801C200.005 145.036 201.176 146.126 202.48 147.041C202.238 147.369 201.928 147.64 201.57 147.835C201.213 148.03 200.817 148.145 200.41 148.171L199 143.801Z" fill="#630F0F"/>
<path d="M199.12 151.281C199.149 151.255 199.171 151.222 199.181 151.185C199.192 151.147 199.192 151.108 199.18 151.071C199.164 151.023 199.13 150.984 199.085 150.961C199.04 150.939 198.988 150.935 198.94 150.951C198.175 151.216 197.359 151.297 196.557 151.19C195.754 151.082 194.988 150.788 194.32 150.331C194.303 150.313 194.282 150.299 194.258 150.289C194.235 150.279 194.21 150.274 194.185 150.274C194.16 150.274 194.135 150.279 194.112 150.289C194.089 150.299 194.068 150.313 194.05 150.331C194.031 150.348 194.016 150.368 194.005 150.392C193.995 150.415 193.989 150.44 193.989 150.466C193.989 150.491 193.995 150.517 194.005 150.54C194.016 150.563 194.031 150.584 194.05 150.601C194.765 151.113 195.593 151.444 196.464 151.566C197.335 151.688 198.222 151.597 199.05 151.301L199.12 151.281Z" fill="#263238"/>
<path d="M190.83 142.751C190.881 142.708 190.919 142.653 190.94 142.591C191.078 142.125 191.326 141.7 191.664 141.352C192.002 141.003 192.419 140.742 192.88 140.591C192.929 140.579 192.974 140.558 193.015 140.528C193.055 140.499 193.089 140.461 193.115 140.419C193.141 140.376 193.159 140.328 193.166 140.279C193.174 140.23 193.172 140.179 193.16 140.131C193.148 140.082 193.127 140.036 193.097 139.996C193.068 139.956 193.031 139.921 192.988 139.895C192.945 139.869 192.898 139.852 192.848 139.844C192.799 139.837 192.749 139.839 192.7 139.851C192.12 140.033 191.593 140.352 191.161 140.78C190.73 141.208 190.407 141.733 190.22 142.311C190.188 142.406 190.196 142.51 190.241 142.6C190.286 142.69 190.365 142.759 190.46 142.791C190.519 142.818 190.585 142.829 190.651 142.822C190.716 142.815 190.778 142.79 190.83 142.751Z" fill="#263238"/>
<path d="M202.81 137.81C202.832 137.799 202.849 137.782 202.86 137.76C202.892 137.721 202.916 137.676 202.931 137.627C202.945 137.579 202.95 137.528 202.944 137.478C202.938 137.427 202.923 137.379 202.898 137.335C202.873 137.29 202.84 137.251 202.8 137.22C202.332 136.833 201.779 136.563 201.186 136.433C200.593 136.302 199.977 136.315 199.39 136.47C199.342 136.486 199.297 136.511 199.259 136.545C199.22 136.578 199.189 136.619 199.167 136.665C199.144 136.71 199.131 136.76 199.129 136.811C199.126 136.862 199.133 136.912 199.15 136.96C199.184 137.054 199.253 137.131 199.343 137.176C199.432 137.221 199.535 137.229 199.63 137.2C200.096 137.081 200.583 137.075 201.051 137.183C201.519 137.29 201.954 137.509 202.32 137.82C202.39 137.877 202.478 137.907 202.567 137.905C202.657 137.903 202.743 137.87 202.81 137.81Z" fill="#263238"/>
<path d="M162.75 131.731C162.507 131.73 162.269 131.665 162.06 131.541L131.64 112.801C131.373 112.604 131.19 112.315 131.127 111.99C131.064 111.665 131.125 111.328 131.299 111.046C131.473 110.764 131.746 110.557 132.065 110.467C132.384 110.378 132.725 110.411 133.02 110.561L163.44 129.301C163.685 129.45 163.875 129.675 163.98 129.942C164.085 130.209 164.099 130.503 164.021 130.779C163.943 131.055 163.776 131.297 163.546 131.469C163.317 131.641 163.037 131.733 162.75 131.731Z" fill="#4353FF"/>
<path d="M138.53 114.87C140.24 114.8 142 114.72 142.23 113.18C142.46 111.64 140.81 111.05 139.23 110.47L138.8 110.31C138.8 110.16 138.73 110.01 138.69 109.87L139.04 109.48C140.16 108.24 141.33 106.96 140.42 105.74C139.51 104.52 137.95 105.24 136.42 105.95L135.95 106.17C135.82 106.08 135.69 106.01 135.55 105.93C135.41 105.85 135.55 105.61 135.55 105.47C135.47 103.77 135.39 102.01 133.86 101.78C132.33 101.55 131.73 103.2 131.15 104.78C131.1 104.91 131.05 105.06 130.99 105.21L130.54 105.32L130.16 104.98C128.92 103.85 127.64 102.69 126.42 103.59C125.2 104.49 125.92 106.06 126.63 107.59L126.85 108.06C126.763 108.186 126.683 108.316 126.61 108.45H126.15C124.45 108.53 122.68 108.61 122.45 110.15C122.22 111.69 123.88 112.28 125.45 112.86L125.88 113.02C125.88 113.17 125.95 113.32 125.99 113.46C125.87 113.6 125.75 113.74 125.64 113.85C124.52 115.09 123.36 116.36 124.26 117.59C125.16 118.82 126.73 118.08 128.26 117.38L128.74 117.16L129.13 117.4C129.13 117.56 129.13 117.72 129.13 117.86C129.21 119.56 129.29 121.32 130.82 121.55C132.35 121.78 132.96 120.13 133.54 118.55C133.54 118.43 133.64 118.28 133.69 118.12C133.842 118.093 133.993 118.056 134.14 118.01L134.53 118.36C135.76 119.48 137.04 120.65 138.27 119.75C139.5 118.85 138.76 117.28 138.05 115.75C137.99 115.62 137.91 115.45 137.84 115.28L138.08 114.89L138.53 114.87Z" fill="#4353FF"/>
<path opacity="0.7" d="M138.53 114.87C140.24 114.8 142 114.72 142.23 113.18C142.46 111.64 140.81 111.05 139.23 110.47L138.8 110.31C138.8 110.16 138.73 110.01 138.69 109.87L139.04 109.48C140.16 108.24 141.33 106.96 140.42 105.74C139.51 104.52 137.95 105.24 136.42 105.95L135.95 106.17C135.82 106.08 135.69 106.01 135.55 105.93C135.41 105.85 135.55 105.61 135.55 105.47C135.47 103.77 135.39 102.01 133.86 101.78C132.33 101.55 131.73 103.2 131.15 104.78C131.1 104.91 131.05 105.06 130.99 105.21L130.54 105.32L130.16 104.98C128.92 103.85 127.64 102.69 126.42 103.59C125.2 104.49 125.92 106.06 126.63 107.59L126.85 108.06C126.763 108.186 126.683 108.316 126.61 108.45H126.15C124.45 108.53 122.68 108.61 122.45 110.15C122.22 111.69 123.88 112.28 125.45 112.86L125.88 113.02C125.88 113.17 125.95 113.32 125.99 113.46C125.87 113.6 125.75 113.74 125.64 113.85C124.52 115.09 123.36 116.36 124.26 117.59C125.16 118.82 126.73 118.08 128.26 117.38L128.74 117.16L129.13 117.4C129.13 117.56 129.13 117.72 129.13 117.86C129.21 119.56 129.29 121.32 130.82 121.55C132.35 121.78 132.96 120.13 133.54 118.55C133.54 118.43 133.64 118.28 133.69 118.12C133.842 118.093 133.993 118.056 134.14 118.01L134.53 118.36C135.76 119.48 137.04 120.65 138.27 119.75C139.5 118.85 138.76 117.28 138.05 115.75C137.99 115.62 137.91 115.45 137.84 115.28L138.08 114.89L138.53 114.87Z" fill="white"/>
<path d="M153.67 132.051L152.42 124.051L160.58 128.051C160.273 129.398 159.578 130.625 158.58 131.581C158.17 132.048 157.636 132.39 157.04 132.567C156.443 132.744 155.809 132.749 155.21 132.581L153.67 132.051Z" fill="#7F3E3B"/>
<path d="M157 120.13L161.18 123.8L160.58 128L152.42 124.04L157 120.13Z" fill="#7F3E3B"/>
<path d="M158.32 383.61C158.405 383.549 158.485 383.483 158.56 383.41C158.646 383.332 158.709 383.232 158.742 383.121C158.776 383.01 158.778 382.893 158.75 382.78C158.51 381.78 155.75 380.78 155.44 380.71C155.406 380.695 155.368 380.692 155.332 380.701C155.296 380.71 155.263 380.731 155.24 380.76C155.22 380.791 155.208 380.828 155.208 380.865C155.208 380.902 155.22 380.939 155.24 380.97C155.69 381.97 156.59 383.61 157.6 383.78C157.853 383.818 158.111 383.757 158.32 383.61ZM155.75 381.23C156.84 381.64 158.25 382.34 158.38 382.87C158.39 382.92 158.385 382.971 158.368 383.019C158.35 383.067 158.32 383.108 158.28 383.14C158.204 383.237 158.104 383.313 157.99 383.36C157.877 383.407 157.753 383.425 157.63 383.41C157.08 383.31 156.4 382.51 155.75 381.23Z" fill="#4353FF"/>
<path d="M158.83 380.94C158.895 380.901 158.953 380.85 159 380.79C159.098 380.672 159.151 380.524 159.151 380.37C159.151 380.217 159.098 380.069 159 379.95C158.926 379.824 158.824 379.715 158.703 379.632C158.582 379.549 158.445 379.494 158.3 379.47C157.15 379.26 155.3 380.68 155.23 380.74C155.204 380.762 155.184 380.79 155.172 380.821C155.16 380.853 155.155 380.887 155.16 380.92C155.166 380.952 155.178 380.982 155.197 381.008C155.217 381.034 155.241 381.056 155.27 381.07C156.433 381.46 157.698 381.414 158.83 380.94ZM155.83 380.79C156.515 380.232 157.358 379.903 158.24 379.85C158.332 379.862 158.42 379.895 158.496 379.947C158.573 379.999 158.636 380.069 158.68 380.15C158.81 380.36 158.75 380.47 158.68 380.54C158.32 380.97 156.68 381.05 155.77 380.82L155.83 380.79Z" fill="#4353FF"/>
<path d="M184.92 364.25C185.124 364.876 185.519 365.422 186.05 365.81C186.2 365.899 186.367 365.952 186.54 365.968C186.713 365.984 186.887 365.96 187.05 365.9C187.148 365.873 187.236 365.819 187.304 365.745C187.373 365.671 187.42 365.579 187.44 365.48C187.65 364.48 185.03 362.01 184.5 361.48C184.468 361.459 184.429 361.447 184.39 361.447C184.351 361.447 184.313 361.459 184.28 361.48C184.245 361.499 184.218 361.529 184.201 361.565C184.185 361.601 184.181 361.642 184.19 361.68C184.338 362.561 184.583 363.423 184.92 364.25ZM187 365C187.057 365.115 187.081 365.243 187.07 365.37C187.07 365.42 187.07 365.47 186.93 365.51C186.814 365.555 186.688 365.573 186.564 365.563C186.439 365.552 186.318 365.514 186.21 365.45C185.6 365.09 185.04 363.89 184.68 362.19C185.591 363.004 186.373 363.952 187 365Z" fill="#4353FF"/>
<path d="M184.23 361.751C184.227 361.771 184.227 361.791 184.23 361.811C185.05 362.641 187.5 363.981 188.29 363.521C188.46 363.421 188.64 363.201 188.5 362.721C187.99 360.881 184.5 361.461 184.33 361.491C184.295 361.495 184.262 361.51 184.236 361.533C184.209 361.556 184.19 361.587 184.18 361.621C184.181 361.669 184.198 361.715 184.23 361.751ZM188.13 362.701L188.18 362.821C188.18 363.021 188.18 363.141 188.18 363.191C187.72 363.451 185.87 362.591 184.89 361.811C185.71 361.721 187.69 361.641 188.13 362.701Z" fill="#4353FF"/>
<path d="M193.16 143.311L194.77 142.221C194.77 142.221 194.31 143.911 193.16 143.311Z" fill="#263238"/>
<path d="M323.89 405.27L316.14 405.28L314.05 387.34L321.8 387.33L323.89 405.27Z" fill="#FFC3BD"/>
<path d="M390.6 371.97L384.73 377.04L371.44 364.81L377.3 359.74L390.6 371.97Z" fill="#FFC3BD"/>
<path d="M383.59 376.84L390.73 370.66C390.847 370.564 390.993 370.511 391.145 370.511C391.297 370.511 391.443 370.564 391.56 370.66L397 375C397.133 375.112 397.239 375.251 397.312 375.409C397.385 375.566 397.423 375.737 397.423 375.91C397.423 376.084 397.385 376.255 397.312 376.412C397.239 376.569 397.133 376.709 397 376.82C394.67 378.77 392.88 380.08 390 382.58C388.22 384.12 383 388.96 380.54 391.09C378.08 393.22 375.75 390.97 376.54 389.87C380.24 384.95 382.54 380.59 382.9 378C382.989 377.546 383.233 377.135 383.59 376.84Z" fill="#263238"/>
<path d="M316.19 404.381H324.66C324.814 404.382 324.963 404.434 325.083 404.531C325.202 404.627 325.286 404.761 325.32 404.911L326.86 411.801C326.898 411.967 326.897 412.139 326.859 412.305C326.821 412.471 326.745 412.626 326.639 412.759C326.532 412.892 326.397 412.999 326.243 413.072C326.089 413.145 325.92 413.182 325.75 413.181C322.69 413.131 318.28 412.961 314.44 412.961C309.96 412.961 307.33 413.081 302.07 413.091C298.89 413.091 298 409.881 299.33 409.591C305.39 408.251 309.09 408.241 314.33 405.001C314.88 404.625 315.525 404.41 316.19 404.381Z" fill="#263238"/>
<path d="M291 182.511C289.44 181.911 288.1 181.361 286.7 180.721C285.3 180.081 283.95 179.451 282.59 178.781C279.877 177.447 277.21 175.961 274.59 174.321C271.953 172.705 269.418 170.928 267 169.001C266.39 168.501 265.77 168.001 265.17 167.491L263.39 165.861C262.8 165.321 262.24 164.701 261.67 164.121C261.38 163.801 261.13 163.571 260.8 163.191C260.47 162.811 260.15 162.441 259.86 162.061C258.766 160.615 257.837 159.052 257.09 157.401C256.395 155.893 255.803 154.339 255.32 152.751C254.401 149.751 253.732 146.681 253.32 143.571C252.531 137.584 252.38 131.53 252.87 125.511H258.69C259.09 128.221 259.51 131.071 260.06 133.811C260.61 136.551 261.19 139.291 261.9 141.931C262.571 144.509 263.42 147.039 264.44 149.501C265.286 151.678 266.478 153.704 267.97 155.501L268.46 156.001C268.61 156.161 268.91 156.401 269.13 156.601C269.61 157.011 270.05 157.441 270.56 157.831C271.56 158.631 272.56 159.421 273.68 160.181C275.84 161.681 278.12 163.111 280.5 164.451C282.88 165.791 285.31 167.061 287.78 168.261C289.02 168.871 290.27 169.471 291.52 170.031C292.77 170.591 294.08 171.181 295.2 171.661L291 182.511Z" fill="#FFC3BD"/>
<path d="M292.24 189.11C287.827 186.367 283.658 183.248 279.78 179.79L282.87 164C288.615 165.634 294.456 166.91 300.36 167.82C310.11 169.08 299.19 193.25 292.24 189.11Z" fill="#263238"/>
<path d="M258.89 126.87L259.44 117L251.24 119.63C251.24 119.63 249.33 126.7 254.65 128.56L258.89 126.87Z" fill="#FFC3BD"/>
<path d="M258.45 111.69L251.68 114.51L251.24 119.63L259.44 117L258.45 111.69Z" fill="#FFC3BD"/>
<path opacity="0.2" d="M314.06 387.34L315.13 396.59L322.88 396.58L321.81 387.33L314.06 387.34Z" fill="black"/>
<path opacity="0.2" d="M377.31 359.74L371.44 364.81L378.3 371.11L384.16 366.04L377.31 359.74Z" fill="black"/>
<path d="M330.16 167.501C330.177 166.952 330.086 166.405 329.891 165.892C329.695 165.379 329.401 164.909 329.023 164.51C328.646 164.111 328.193 163.791 327.691 163.568C327.19 163.345 326.649 163.224 326.1 163.211C303.98 162.801 289.59 169.001 288.6 169.401C288.231 169.55 287.905 169.791 287.655 170.1C287.405 170.41 287.238 170.779 287.17 171.171C286.25 176.711 283.64 199.931 296.43 236.271L337.43 230.401C336.88 224.351 329.24 196.591 330.16 167.501Z" fill="#263238"/>
<path d="M297 166.611C294.57 169.861 293.47 177.351 301.52 182.831C311.42 175.441 316.52 167.491 318.03 163.351C310.926 163.707 303.878 164.799 297 166.611Z" fill="white"/>
<path d="M295.16 169.651C294.629 169.651 294.121 169.44 293.745 169.065C293.37 168.69 293.16 168.181 293.16 167.651C293.16 166.001 294.59 164.581 295.8 163.651C299.86 160.651 307.8 158.361 317.8 161.251C318.291 161.413 318.701 161.759 318.942 162.217C319.183 162.675 319.238 163.208 319.094 163.705C318.951 164.202 318.62 164.625 318.171 164.883C317.723 165.141 317.192 165.216 316.69 165.091C305.09 161.741 297.94 166.501 297.17 167.871C297.115 168.364 296.879 168.819 296.508 169.148C296.136 169.477 295.656 169.656 295.16 169.651Z" fill="#4353FF"/>
<path d="M311.78 144.341C311.48 150.111 311.85 160.551 316.31 163.731C313.69 167.201 310.2 171.271 303.57 172.461C299.57 173.171 298.2 171.691 298.03 169.821C297.974 168.919 298.173 168.019 298.604 167.225C299.036 166.431 299.682 165.774 300.47 165.331C304.78 162.831 303.92 158.811 302.37 155.011L311.78 144.341Z" fill="#FFC3BD"/>
<path d="M294.55 215.53C294.325 215.529 294.101 215.488 293.89 215.41C293.39 215.233 292.981 214.866 292.752 214.388C292.523 213.909 292.494 213.36 292.67 212.86C292.948 212.16 293.077 211.411 293.049 210.658C293.022 209.906 292.838 209.168 292.51 208.49L292.3 207.92C291.959 207.248 291.505 206.64 290.96 206.12C289.79 205.182 288.98 203.867 288.669 202.4C288.357 200.933 288.562 199.403 289.25 198.07C289.496 197.499 289.641 196.89 289.68 196.27C289.489 195.558 289.182 194.882 288.77 194.27C287.945 193.09 287.457 191.707 287.36 190.27C287.473 188.767 288.018 187.33 288.93 186.13C289.274 185.675 289.544 185.169 289.73 184.63C289.737 184.074 289.628 183.522 289.41 183.01C288.929 181.874 288.81 180.616 289.07 179.41C289.476 178.05 290.311 176.857 291.45 176.01C291.772 175.767 292.052 175.473 292.28 175.14C292.423 174.657 292.423 174.143 292.28 173.66C291.976 172.502 292.137 171.271 292.73 170.23C293.43 169.13 293.36 168.85 293.3 168.62C293.199 168.269 293.155 167.905 293.17 167.54C293.17 167.01 293.381 166.501 293.756 166.126C294.131 165.751 294.639 165.54 295.17 165.54C295.7 165.54 296.209 165.751 296.584 166.126C296.959 166.501 297.17 167.01 297.17 167.54V167.6C297.45 168.73 297.53 170.08 296.17 172.29C296.186 172.525 296.216 172.759 296.26 172.99C296.561 174.09 296.517 175.256 296.132 176.329C295.747 177.403 295.041 178.332 294.11 178.99C293.47 179.55 293.11 179.89 292.97 180.38C292.949 180.842 293.042 181.302 293.24 181.72C293.665 182.79 293.833 183.944 293.73 185.09C293.508 186.239 293.03 187.323 292.33 188.26C291.866 188.845 291.544 189.53 291.39 190.26C291.551 190.96 291.847 191.622 292.26 192.21C292.979 193.284 293.466 194.497 293.69 195.77C293.745 196.974 293.537 198.175 293.08 199.29C292.754 200.001 292.6 200.779 292.63 201.56C292.945 202.254 293.397 202.876 293.96 203.39C294.885 204.295 295.62 205.376 296.12 206.57L296.3 207.09C297.284 209.326 297.345 211.86 296.47 214.14C296.34 214.546 296.083 214.9 295.738 215.15C295.393 215.4 294.976 215.533 294.55 215.53Z" fill="#4353FF"/>
<path d="M329.79 167.171C330.88 168.171 331.79 169.011 332.71 169.971C333.63 170.931 334.53 171.861 335.42 172.821C337.2 174.741 338.88 176.761 340.5 178.821C343.875 183.091 346.7 187.767 348.91 192.741C349.467 194.071 349.954 195.43 350.37 196.811C350.58 197.511 350.76 198.241 350.93 198.981L350.99 199.251L351.08 199.721C351.14 200.031 351.17 200.361 351.2 200.721C351.248 201.388 351.228 202.058 351.14 202.721C350.992 203.916 350.63 205.075 350.07 206.141C349.602 207.029 349.035 207.861 348.38 208.621C347.296 209.859 346.048 210.942 344.67 211.841C342.319 213.38 339.786 214.623 337.13 215.541C335.87 216.001 334.6 216.391 333.32 216.721C332.04 217.051 330.8 217.361 329.41 217.591L327.61 212.061C328.61 211.501 329.68 210.911 330.69 210.311C331.7 209.711 332.69 209.081 333.69 208.451C335.549 207.276 337.299 205.937 338.92 204.451C339.541 203.852 340.089 203.18 340.55 202.451C340.9 201.881 340.87 201.501 340.77 201.621C340.763 201.654 340.763 201.688 340.77 201.721L340.71 201.541C340.56 201.081 340.42 200.611 340.22 200.131C339.849 199.155 339.425 198.2 338.95 197.271C337.946 195.296 336.803 193.394 335.53 191.581C334.26 189.701 332.86 187.861 331.38 186.061C329.9 184.261 328.38 182.491 326.77 180.741C325.98 179.871 325.17 179.021 324.35 178.181C323.53 177.341 322.67 176.461 321.94 175.761L329.79 167.171Z" fill="#FFC3BD"/>
<path d="M327.21 163.38C331.73 164.05 338.82 175.38 338.82 175.38L327.31 190.81C327.31 190.81 321.17 184.96 319.38 179.81C316 169.93 318.33 162.08 327.21 163.38Z" fill="#263238"/>
<path d="M321.18 202.221C320.833 202.217 320.492 202.123 320.193 201.947C319.893 201.772 319.644 201.522 319.47 201.221C318.782 199.876 318.485 198.366 318.61 196.861C318.663 196.24 318.609 195.614 318.45 195.011C318.049 194.39 317.545 193.842 316.96 193.391C315.809 192.534 314.913 191.379 314.37 190.051C313.999 188.591 314.065 187.054 314.56 185.631C314.742 185.089 314.84 184.522 314.85 183.951C314.598 183.265 314.233 182.626 313.77 182.061C312.74 181.002 312.136 179.6 312.075 178.124C312.015 176.648 312.5 175.201 313.44 174.061C313.711 173.653 313.93 173.213 314.09 172.751C314.038 171.992 313.855 171.248 313.55 170.551C312.979 169.371 312.783 168.045 312.99 166.751C313.363 164.91 314.292 163.228 315.65 161.931L315.78 161.801C316.153 161.446 316.649 161.249 317.164 161.251C317.678 161.253 318.173 161.453 318.544 161.809C318.915 162.166 319.134 162.653 319.156 163.167C319.177 163.681 319 164.184 318.66 164.571L318.43 164.801C317.613 165.589 317.064 166.614 316.86 167.731C316.968 168.233 317.119 168.724 317.31 169.201C317.835 170.412 318.097 171.721 318.08 173.041C317.925 174.136 317.517 175.18 316.89 176.091C316.457 176.681 316.172 177.367 316.06 178.091C316.296 178.71 316.634 179.284 317.06 179.791C317.868 180.794 318.457 181.956 318.79 183.201C318.943 184.361 318.83 185.541 318.46 186.651C318.207 187.355 318.114 188.107 318.19 188.851C318.57 189.464 319.062 190 319.64 190.431C320.657 191.23 321.498 192.231 322.11 193.371C322.543 194.494 322.72 195.7 322.63 196.901C322.556 197.679 322.655 198.465 322.92 199.201C323.191 199.656 323.271 200.2 323.142 200.713C323.012 201.227 322.684 201.669 322.23 201.941C321.913 202.129 321.549 202.226 321.18 202.221Z" fill="#4353FF"/>
<path opacity="0.2" d="M307.94 148.69L302.38 155C302.799 155.97 303.134 156.973 303.38 158C305.72 157.31 308.63 154.22 308.53 151.68C308.514 150.656 308.314 149.644 307.94 148.69Z" fill="black"/>
<path d="M296.25 127.93C293.78 132.23 295.36 138.35 295.36 138.35C296.023 138.781 296.788 139.027 297.578 139.062C298.367 139.097 299.152 138.921 299.85 138.55L299.15 127.15L296.25 127.93Z" fill="#263238"/>
<path d="M315.72 138.85C313.83 146.31 313.1 150.77 308.56 153.92C301.73 158.66 293.07 153.44 292.7 145.57C292.36 138.48 295.51 127.48 303.47 125.88C305.221 125.517 307.036 125.609 308.741 126.145C310.447 126.682 311.987 127.646 313.215 128.946C314.443 130.246 315.317 131.839 315.756 133.572C316.194 135.306 316.182 137.123 315.72 138.85Z" fill="#FFC3BD"/>
<path d="M293.94 147.53H293.67L276.72 143.94C275.798 143.745 274.992 143.192 274.478 142.402C273.964 141.613 273.785 140.652 273.98 139.73C274.175 138.808 274.728 138.002 275.517 137.488C276.307 136.974 277.268 136.795 278.19 136.99C278.357 137.026 278.516 137.094 278.658 137.191C278.799 137.289 278.919 137.413 279.012 137.557C279.105 137.701 279.169 137.862 279.199 138.031C279.23 138.199 279.226 138.372 279.19 138.54C279.115 138.877 278.911 139.172 278.621 139.359C278.33 139.546 277.978 139.611 277.64 139.54C277.52 139.511 277.396 139.508 277.276 139.53C277.155 139.553 277.041 139.6 276.94 139.67C276.838 139.736 276.751 139.821 276.682 139.92C276.613 140.02 276.565 140.132 276.54 140.25C276.496 140.491 276.542 140.74 276.67 140.95C276.808 141.149 277.014 141.291 277.25 141.35L294.2 144.94C294.515 145.009 294.793 145.191 294.982 145.452C295.171 145.713 295.257 146.035 295.224 146.356C295.191 146.677 295.04 146.974 294.801 147.19C294.562 147.407 294.252 147.528 293.93 147.53H293.94Z" fill="#4353FF"/>
<path d="M293.87 147.831L291.82 147.391L292.47 144.391L294.47 144.821C294.874 144.907 295.228 145.15 295.453 145.497C295.678 145.844 295.756 146.266 295.67 146.671C295.57 147.055 295.33 147.387 294.996 147.602C294.663 147.817 294.261 147.899 293.87 147.831Z" fill="white"/>
<path d="M311.09 134.75C311.09 131.91 308.95 129.84 301.81 130.39C295.98 130.83 293.14 128.11 294.81 124.32C299.53 126.78 298.75 123.56 307.75 123.17C316.75 122.78 319.36 126.17 320.31 131.44C325.82 139.61 316.31 143 316.31 143L312.59 146.25C311.819 146.425 311.016 146.391 310.263 146.15C309.51 145.909 308.836 145.47 308.31 144.88C308.31 144.88 307.58 138.25 311.09 134.75Z" fill="#263238"/>
<path d="M301.53 121.76L301.3 121.88C301.086 121.994 300.906 122.163 300.777 122.368C300.649 122.574 300.577 122.81 300.569 123.052C300.561 123.295 300.617 123.535 300.731 123.749C300.845 123.962 301.014 124.142 301.22 124.27L322.1 137.18C322.296 137.301 322.519 137.37 322.749 137.382C322.98 137.394 323.209 137.348 323.417 137.249C323.624 137.149 323.804 137 323.939 136.813C324.074 136.626 324.16 136.409 324.19 136.18C324.287 135.536 324.193 134.876 323.92 134.284C323.646 133.692 323.204 133.194 322.65 132.85L304.85 121.85C304.352 121.547 303.784 121.379 303.202 121.364C302.619 121.348 302.043 121.485 301.53 121.76Z" fill="#4353FF"/>
<path d="M305.29 123.14L310.63 115.32C310.783 115.098 311.015 114.941 311.279 114.884C311.542 114.826 311.818 114.871 312.05 115.01L326.79 123.84C326.919 123.916 327.031 124.018 327.117 124.14C327.203 124.262 327.263 124.401 327.291 124.548C327.32 124.694 327.316 124.845 327.282 124.991C327.247 125.136 327.182 125.272 327.09 125.39L320.7 133.83L305.29 123.14Z" fill="#4353FF"/>
<path d="M305.29 123.14L307.42 119.33L323.88 130.21L320.7 133.83L305.29 123.14Z" fill="#4353FF"/>
<path opacity="0.6" d="M305.29 123.14L307.42 119.33L323.88 130.21L320.7 133.83L305.29 123.14Z" fill="white"/>
<path d="M316.67 148.001C315.208 148.999 313.413 149.386 311.67 149.081C309.4 148.641 309.4 146.341 310.97 144.711C312.38 143.241 315.27 141.711 317.09 142.981C318.91 144.251 318.48 146.751 316.67 148.001Z" fill="#FFC3BD"/>
<path d="M312.22 394.811H325.34C325.34 394.811 323.28 348.151 320.45 324.171C319.59 316.871 320.52 306.871 320.61 295.701C320.73 281.631 321.38 266.301 322.02 254.271C322.7 241.601 323.27 232.471 323.27 232.471L296.43 236.301C296.43 236.301 293.77 302.731 297.94 326.011C302.28 350.191 312.22 394.811 312.22 394.811Z" fill="#4353FF"/>
<path opacity="0.2" d="M320.61 295.671C320.73 281.601 321.38 266.271 322.02 254.241L318.02 248.891C313.08 258.141 316.51 282.771 320.61 295.671Z" fill="black"/>
<path d="M309.22 234.44C309.22 234.44 325.89 300.27 333.81 321.56C342.48 344.86 374.41 372.1 374.41 372.1L382.48 363.22C382.48 363.22 365.59 336.89 353.14 311.56C347.19 278.67 337.47 230.4 337.47 230.4L309.22 234.44Z" fill="#4353FF"/>
<path d="M373.33 373.44L385.98 362.51L382.71 358.74L368.36 370.71L373.33 373.44Z" fill="#263238"/>
<path d="M310.57 395.111L326.21 395.091L326.2 390.041L308.73 389.801L310.57 395.111Z" fill="#263238"/>
<path d="M304.2 137.391C303.7 137.241 303.11 137.721 302.87 138.471L304.65 139.041C304.89 138.291 304.69 137.551 304.2 137.391Z" fill="#263238"/>
<path d="M296.4 135.921C295.89 135.921 295.4 136.501 295.4 137.291L297.26 137.411C297.29 136.621 296.92 136.001 296.4 135.921Z" fill="#263238"/>
<path d="M299.09 138.2C298 139.939 296.678 141.52 295.16 142.9C295.525 143.279 295.968 143.573 296.458 143.763C296.949 143.953 297.475 144.034 298 144L299.09 138.2Z" fill="#ED847E"/>
<path d="M306.74 136.591C306.802 136.606 306.867 136.606 306.93 136.591C307.022 136.561 307.099 136.496 307.144 136.41C307.189 136.324 307.198 136.224 307.17 136.131C307.014 135.569 306.726 135.054 306.329 134.627C305.932 134.201 305.439 133.876 304.89 133.681C304.844 133.666 304.795 133.66 304.747 133.665C304.699 133.669 304.652 133.684 304.61 133.707C304.568 133.731 304.531 133.763 304.501 133.801C304.472 133.84 304.451 133.884 304.44 133.931C304.426 133.977 304.422 134.025 304.427 134.073C304.432 134.12 304.447 134.166 304.47 134.208C304.493 134.25 304.525 134.287 304.563 134.317C304.6 134.346 304.644 134.368 304.69 134.381C305.124 134.548 305.513 134.817 305.823 135.165C306.132 135.513 306.354 135.93 306.47 136.381C306.496 136.434 306.534 136.481 306.581 136.517C306.627 136.553 306.682 136.579 306.74 136.591Z" fill="#263238"/>
<path d="M294.09 134.87C294.15 134.88 294.211 134.875 294.269 134.856C294.326 134.837 294.378 134.804 294.42 134.76C294.721 134.413 295.1 134.141 295.526 133.968C295.951 133.794 296.412 133.723 296.87 133.76C296.967 133.774 297.065 133.75 297.144 133.692C297.223 133.634 297.275 133.547 297.29 133.45C297.304 133.356 297.281 133.26 297.225 133.183C297.168 133.106 297.084 133.055 296.99 133.04C296.41 132.983 295.825 133.066 295.284 133.281C294.743 133.497 294.261 133.84 293.88 134.28C293.845 134.314 293.817 134.354 293.798 134.399C293.779 134.443 293.769 134.492 293.769 134.54C293.769 134.589 293.779 134.637 293.798 134.681C293.817 134.726 293.845 134.767 293.88 134.8C293.942 134.842 294.015 134.866 294.09 134.87Z" fill="#263238"/>
<path d="M382.49 379.58C382.999 379.115 383.455 378.595 383.85 378.03C383.87 378 383.88 377.966 383.88 377.93C383.88 377.894 383.87 377.86 383.85 377.83C383.835 377.797 383.808 377.77 383.776 377.753C383.743 377.737 383.706 377.732 383.67 377.74C383.35 377.74 380.5 378.21 380.13 379.12C380.089 379.22 380.075 379.329 380.089 379.436C380.103 379.543 380.144 379.644 380.21 379.73C380.304 379.884 380.437 380.012 380.594 380.101C380.751 380.19 380.929 380.238 381.11 380.24C381.632 380.186 382.12 379.953 382.49 379.58ZM383.29 378.18C382.46 379.25 381.66 379.87 381.12 379.87C380.997 379.867 380.877 379.832 380.772 379.769C380.667 379.706 380.58 379.617 380.52 379.51C380.497 379.474 380.484 379.433 380.484 379.39C380.484 379.347 380.497 379.306 380.52 379.27C380.66 378.8 382.15 378.38 383.29 378.18Z" fill="#4353FF"/>
<path d="M383.82 378.071C383.846 378.046 383.867 378.015 383.88 377.981C383.895 377.951 383.902 377.919 383.902 377.886C383.902 377.853 383.895 377.82 383.88 377.791C383.81 377.721 382.28 376.091 381.14 376.101C381 376.101 380.862 376.13 380.735 376.187C380.607 376.244 380.493 376.327 380.4 376.431C380.294 376.523 380.222 376.648 380.197 376.786C380.171 376.924 380.194 377.067 380.26 377.191C380.67 377.971 382.9 378.291 383.78 378.111L383.82 378.071ZM380.68 376.631C380.796 376.53 380.946 376.477 381.1 376.481C381.83 376.481 382.83 377.331 383.31 377.781C382.31 377.831 380.78 377.471 380.53 377.011C380.53 376.961 380.46 376.861 380.62 376.691L380.68 376.631Z" fill="#4353FF"/>
<path d="M315.43 405.46C315.462 405.449 315.491 405.429 315.512 405.403C315.533 405.376 315.546 405.344 315.55 405.31C315.559 405.273 315.554 405.234 315.538 405.2C315.522 405.165 315.494 405.137 315.46 405.12C315.1 404.94 311.99 403.36 311.05 403.89C310.96 403.938 310.884 404.008 310.829 404.094C310.775 404.18 310.744 404.279 310.74 404.38C310.719 404.546 310.741 404.714 310.802 404.87C310.863 405.025 310.962 405.163 311.09 405.27C311.94 406.02 314.16 405.71 315.41 405.46H315.43ZM311.29 404.18C311.88 403.98 313.57 404.62 314.8 405.18C313.09 405.47 311.8 405.4 311.33 404.97C311.246 404.899 311.182 404.807 311.144 404.704C311.105 404.601 311.094 404.489 311.11 404.38C311.11 404.341 311.121 404.302 311.143 404.268C311.164 404.234 311.194 404.207 311.23 404.19L311.29 404.18Z" fill="#4353FF"/>
<path d="M315.43 405.461H315.48C315.506 405.441 315.526 405.415 315.54 405.385C315.554 405.356 315.561 405.323 315.56 405.291C315.56 405.211 315.33 403.121 314.35 402.291C314.213 402.174 314.054 402.087 313.882 402.033C313.71 401.98 313.529 401.962 313.35 401.981C312.84 401.981 312.7 402.291 312.67 402.491C312.53 403.371 314.38 405.041 315.32 405.491C315.359 405.492 315.397 405.481 315.43 405.461ZM313.18 402.371H313.37C313.503 402.356 313.638 402.369 313.766 402.411C313.894 402.452 314.011 402.52 314.11 402.611C314.681 403.282 315.03 404.113 315.11 404.991C314.16 404.421 312.89 403.111 312.98 402.581C313 402.511 313 402.421 313.18 402.371Z" fill="#4353FF"/>
<path d="M328.55 211.54L321.09 213.9L326.88 219.66C326.88 219.66 333.64 216.73 331.52 213.75L328.55 211.54Z" fill="#FFC3BD"/>
<path d="M318.02 220.48L323.33 223.7L326.88 219.66L321.09 213.9L318.02 220.48Z" fill="#FFC3BD"/>
</svg>
