<svg width="484" height="313" viewBox="0 0 484 313" fill="none" xmlns="http://www.w3.org/2000/svg">
<g filter="url(#filter0_d_416_2541)">
<rect x="24" y="12" width="435.475" height="265.071" rx="13.6322" fill="white"/>
<path d="M431.088 56.9953C430.921 56.9953 430.698 56.9397 430.531 56.8283C429.975 56.55 429.808 55.8265 430.086 55.3256C430.086 55.2699 432.145 51.5408 432.145 46.9768C432.145 42.4129 430.142 38.6281 430.142 38.6281C429.863 38.0716 430.03 37.4037 430.587 37.1254C431.144 36.8471 431.811 37.014 432.09 37.5706C432.201 37.7376 434.483 41.8006 434.483 47.0325C434.483 52.2644 432.201 56.3274 432.09 56.4944C431.867 56.7727 431.478 56.9953 431.088 56.9953ZM428.75 53.5445C428.806 53.4332 429.975 50.7616 429.975 46.9768C429.975 43.1921 428.806 40.5205 428.75 40.4092C428.528 39.8526 427.86 39.5743 427.303 39.8526C426.747 40.0752 426.468 40.7431 426.747 41.2997C426.747 41.2997 427.748 43.693 427.748 46.9768C427.748 50.2607 426.747 52.654 426.747 52.654C426.524 53.2106 426.747 53.8785 427.303 54.1011C427.47 54.1567 427.581 54.2124 427.748 54.2124C428.194 54.2124 428.583 53.9898 428.75 53.5445ZM423.463 51.9861C423.797 51.9304 424.075 51.7078 424.242 51.4295C424.298 51.3182 425.522 49.2588 425.522 46.9768C425.522 44.6949 424.298 42.5799 424.242 42.5242C423.908 41.9676 423.24 41.8006 422.739 42.1346C422.183 42.4685 422.016 43.1364 422.35 43.6374C422.35 43.6374 423.296 45.3071 423.296 46.9768C423.296 47.7004 423.129 48.4796 422.906 49.0362L415.671 42.8025C415.392 42.5799 415.003 42.4685 414.669 42.5799C414.335 42.6912 414.001 42.9138 413.89 43.3034C413.89 43.3591 413.277 45.0288 413.277 46.9768C413.277 48.9249 413.89 50.5946 413.89 50.7059C414.112 51.2625 414.724 51.5965 415.337 51.3738C415.893 51.1512 416.227 50.539 416.005 49.9267C416.005 49.9267 415.504 48.4796 415.504 46.9768C415.504 46.5316 415.559 46.0863 415.615 45.6967L422.572 51.7078C422.795 51.8748 423.018 51.9861 423.296 51.9861H423.463Z" fill="#111111"/>
<path d="M127.634 165.485V123.863H154.171V130.122H135.076V142.438H152.527V148.496H135.076V165.485H127.634ZM159.074 165.485V123.863H166.256V165.485H159.074ZM181.4 166.004C175.285 166.004 171.16 162.225 171.16 156.774V156.716C171.16 151.293 175.371 148.034 182.784 147.573L190.774 147.082V144.977C190.774 141.89 188.755 140.015 185.121 140.015C181.717 140.015 179.64 141.602 179.179 143.852L179.121 144.111H172.458L172.487 143.765C172.919 138.342 177.621 134.275 185.38 134.275C193.024 134.275 197.956 138.314 197.956 144.457V165.485H190.774V160.783H190.601C188.841 163.985 185.438 166.004 181.4 166.004ZM178.313 156.485C178.313 158.995 180.39 160.524 183.534 160.524C187.659 160.524 190.774 157.783 190.774 154.149V151.842L183.794 152.274C180.246 152.505 178.313 154.034 178.313 156.457V156.485ZM201.533 165.485L211.426 150.226L201.648 134.91H209.725L215.869 145.64H216.042L222.128 134.91H229.973L220.137 150.024L229.887 165.485H222.041L215.695 154.524H215.522L209.205 165.485H201.533Z" fill="#111111"/>
<path d="M263.548 166.148C252.126 166.148 244.742 157.697 244.742 144.659V144.63C244.742 131.564 252.068 123.199 263.548 123.199C272.173 123.199 278.547 128.507 280.105 136.294L280.162 136.583H276.211L276.038 136.064C274.451 130.439 270.038 126.862 263.548 126.862C254.549 126.862 248.78 133.814 248.78 144.63V144.659C248.78 155.447 254.606 162.485 263.548 162.485C270.009 162.485 274.394 158.937 276.124 153.024L276.211 152.765H280.162L280.105 153.053C278.547 160.899 272.201 166.148 263.548 166.148ZM294.267 166.033C288.354 166.033 284.316 162.485 284.316 157.178V157.12C284.316 152.015 288.181 148.928 295.075 148.467L304.42 147.89V145.294C304.42 140.967 301.68 138.342 297.007 138.342C292.652 138.342 289.796 140.448 289.162 143.852L289.104 144.14H285.412L285.441 143.794C286.018 138.631 290.287 134.939 297.065 134.939C303.93 134.939 308.228 138.804 308.228 144.948V165.485H304.42V160.004H304.305C302.661 163.581 298.709 166.033 294.267 166.033ZM288.21 157.178C288.21 160.466 290.979 162.687 295.046 162.687C300.296 162.687 304.42 158.995 304.42 154.207V150.89L295.536 151.495C290.835 151.784 288.21 153.832 288.21 157.12V157.178ZM314.631 165.485V135.487H318.439V140.881H318.554C319.621 137.217 322.275 134.939 325.909 134.939C326.919 134.939 327.813 135.141 328.275 135.285V139.006C327.784 138.804 326.717 138.602 325.419 138.602C321.15 138.602 318.439 141.833 318.439 146.909V165.485H314.631ZM341.86 166.033C334.303 166.033 329.169 159.86 329.169 150.486V150.457C329.169 141.083 334.332 134.939 341.832 134.939C346.533 134.939 350.398 137.592 352.1 141.746H352.187V123.863H356.023V165.485H352.187V159.255H352.071C350.341 163.379 346.591 166.033 341.86 166.033ZM342.581 162.629C348.235 162.629 352.215 157.726 352.215 150.486V150.457C352.215 143.246 348.177 138.342 342.581 138.342C336.813 138.342 333.092 143.102 333.092 150.457V150.486C333.092 157.899 336.813 162.629 342.581 162.629Z" fill="#989898"/>
</g>
<defs>
<filter id="filter0_d_416_2541" x="0.246832" y="0.123416" width="482.981" height="312.578" filterUnits="userSpaceOnUse" color-interpolation-filters="sRGB">
<feFlood flood-opacity="0" result="BackgroundImageFix"/>
<feColorMatrix in="SourceAlpha" type="matrix" values="0 0 0 0 0 0 0 0 0 0 0 0 0 0 0 0 0 0 127 0" result="hardAlpha"/>
<feOffset dy="11.8766"/>
<feGaussianBlur stdDeviation="11.8766"/>
<feComposite in2="hardAlpha" operator="out"/>
<feColorMatrix type="matrix" values="0 0 0 0 0 0 0 0 0 0 0 0 0 0 0 0 0 0 0.12 0"/>
<feBlend mode="normal" in2="BackgroundImageFix" result="effect1_dropShadow_416_2541"/>
<feBlend mode="normal" in="SourceGraphic" in2="effect1_dropShadow_416_2541" result="shape"/>
</filter>
</defs>
</svg>
