<svg width="47" height="48" viewBox="0 0 47 48" fill="none" xmlns="http://www.w3.org/2000/svg">
<path d="M14.1512 20.5663C21.642 26.6998 31.8615 24.3944 36.9801 15.4214L46.9091 1.06675e-05H40.5945C39.2097 -0.0033188 37.9033 0.772895 37.0728 2.09975L25.7715 20.1284C25.5701 20.4801 25.3188 20.7853 25.0247 21.0241C23.7183 22.0955 21.9325 21.6941 21.0378 20.1284L9.81668 2.17936C8.98972 0.852503 7.6851 0.0729816 6.30207 0.0729816H0L9.8559 15.4214C11.0072 17.4416 12.4633 19.1863 14.1494 20.5663H14.1512Z" fill="black"/>
<path d="M32.7646 27.4371C25.2734 21.3002 15.05 23.6025 9.92935 32.5786L0 48H6.31122C7.69253 48.0034 8.99363 47.2238 9.82241 45.9035L21.1349 27.8683C21.3345 27.5167 21.5893 27.2115 21.8834 26.9727C23.1899 25.9011 24.974 26.3026 25.8687 27.8683L37.0903 45.8173C37.9173 47.1441 39.2219 47.9238 40.6068 47.9238H46.9091L37.0511 32.582C35.8997 30.5651 34.4435 28.8204 32.761 27.4403L32.7646 27.4371Z" fill="#4353FF"/>
</svg>
