<svg width="47" height="48" viewBox="0 0 47 48" fill="none" xmlns="http://www.w3.org/2000/svg">
<path d="M14.1966 20.5663C21.6874 26.6998 31.9069 24.3944 37.0255 15.4214L46.9545 1.06675e-05H40.64C39.2551 -0.0033188 37.9487 0.772895 37.1182 2.09975L25.8169 20.1284C25.6155 20.4801 25.3642 20.7853 25.0701 21.0241C23.7637 22.0955 21.9779 21.6941 21.0832 20.1284L9.86209 2.17936C9.03513 0.852503 7.73051 0.0729816 6.34748 0.0729816H0.0454102L9.90131 15.4214C11.0527 17.4416 12.5088 19.1863 14.1948 20.5663H14.1966Z" fill="white"/>
<path d="M32.81 27.4371C25.3188 21.3002 15.0954 23.6025 9.97476 32.5786L0.0454102 48H6.35663C7.73794 48.0034 9.03904 47.2238 9.86782 45.9035L21.1803 27.8683C21.3799 27.5167 21.6348 27.2115 21.9288 26.9727C23.2353 25.9011 25.0194 26.3026 25.9141 27.8683L37.1357 45.8173C37.9627 47.1441 39.2673 47.9238 40.6522 47.9238H46.9545L37.0965 32.582C35.9451 30.5651 34.4889 28.8204 32.8064 27.4403L32.81 27.4371Z" fill="#4353FF"/>
</svg>
