<svg width="52" height="52" viewBox="0 0 52 52" fill="none" xmlns="http://www.w3.org/2000/svg">
<path opacity="0.8" d="M0 12.8C0 8.31958 0 6.07937 0.871948 4.36808C1.63893 2.86278 2.86278 1.63893 4.36808 0.871948C6.07937 0 8.31958 0 12.8 0H39.2C43.6804 0 45.9206 0 47.6319 0.871948C49.1372 1.63893 50.3611 2.86278 51.1281 4.36808C52 6.07937 52 8.31958 52 12.8V39.2C52 43.6804 52 45.9206 51.1281 47.6319C50.3611 49.1372 49.1372 50.3611 47.6319 51.1281C45.9206 52 43.6804 52 39.2 52H12.8C8.31958 52 6.07937 52 4.36808 51.1281C2.86278 50.3611 1.63893 49.1372 0.871948 47.6319C0 45.9206 0 43.6804 0 39.2V12.8Z" fill="url(#paint0_linear_230_2704)"/>
<path d="M44.9922 24.8828C44.9922 33.577 36.4891 40.625 26 40.625C22.4917 40.625 19.3058 41.2924 15.9842 42.4219C15.9538 42.4323 15.9232 42.4425 15.8925 42.4526C14.9412 42.7651 14.3701 41.6947 14.9101 40.8515C15.7944 39.4707 16.2037 38.3814 15.6914 38.1065C10.4657 35.3019 7.00781 30.4271 7.00781 24.8828C7.00781 16.1886 15.5109 9.14062 26 9.14062C36.4891 9.14062 44.9922 16.1886 44.9922 24.8828Z" fill="white"/>
<defs>
<linearGradient id="paint0_linear_230_2704" x1="26" y1="0" x2="26" y2="52" gradientUnits="userSpaceOnUse">
<stop stop-color="#5CF777"/>
<stop offset="1" stop-color="#0EBC29"/>
</linearGradient>
</defs>
</svg>
