<svg width="472" height="472" viewBox="0 0 472 472" fill="none" xmlns="http://www.w3.org/2000/svg">
<path d="M472 360.985H0V361.221H472V360.985Z" fill="#EBEBEB"/>
<path d="M424.704 369.973H338.895V370.209H424.704V369.973Z" fill="#EBEBEB"/>
<path d="M312.672 367.414H289.176V367.65H312.672V367.414Z" fill="#EBEBEB"/>
<path d="M366.374 378.742H329.945V378.978H366.374V378.742Z" fill="#EBEBEB"/>
<path d="M70.8956 377.156H49.5234V377.392H70.8956V377.156Z" fill="#EBEBEB"/>
<path d="M104.681 377.156H79.2969V377.392H104.681V377.156Z" fill="#EBEBEB"/>
<path d="M212.541 373.172H168.324V373.408H212.541V373.172Z" fill="#EBEBEB"/>
<path d="M223.728 318.883H41.4511C40.0232 318.881 38.6546 318.312 37.6457 317.301C36.6369 316.29 36.0703 314.921 36.0703 313.493V57.263C36.0827 55.8432 36.6548 54.4857 37.6623 53.4853C38.6698 52.4849 40.0313 51.9224 41.4511 51.9199H223.728C225.158 51.9199 226.529 52.4878 227.54 53.4987C228.55 54.5096 229.118 55.8806 229.118 57.3102V313.493C229.118 314.922 228.55 316.294 227.54 317.304C226.529 318.315 225.158 318.883 223.728 318.883ZM41.4511 52.1087C40.0858 52.1112 38.7772 52.6554 37.8126 53.6217C36.848 54.588 36.3063 55.8976 36.3063 57.263V313.493C36.3063 314.858 36.848 316.168 37.8126 317.134C38.7772 318.1 40.0858 318.645 41.4511 318.647H223.728C225.094 318.645 226.404 318.101 227.37 317.135C228.336 316.169 228.88 314.859 228.882 313.493V57.263C228.88 55.8967 228.336 54.5872 227.37 53.6211C226.404 52.6551 225.094 52.1112 223.728 52.1087H41.4511Z" fill="#EBEBEB"/>
<path d="M427.923 318.883H245.636C244.208 318.881 242.838 318.312 241.828 317.302C240.817 316.291 240.249 314.922 240.246 313.493V57.263C240.261 55.8423 240.835 54.4848 241.844 53.4847C242.853 52.4845 244.216 51.9223 245.636 51.9199H427.923C429.341 51.9248 430.7 52.4884 431.705 53.4886C432.711 54.4887 433.282 55.8448 433.294 57.263V313.493C433.294 314.919 432.729 316.287 431.722 317.298C430.715 318.308 429.349 318.878 427.923 318.883ZM245.636 52.1087C244.27 52.1112 242.961 52.6551 241.994 53.6211C241.028 54.5872 240.485 55.8967 240.482 57.263V313.493C240.485 314.859 241.028 316.169 241.994 317.135C242.961 318.101 244.27 318.645 245.636 318.647H427.923C429.289 318.645 430.599 318.101 431.565 317.135C432.531 316.169 433.074 314.859 433.077 313.493V57.263C433.074 55.8967 432.531 54.5872 431.565 53.6211C430.599 52.6551 429.289 52.1112 427.923 52.1087H245.636Z" fill="#EBEBEB"/>
<path d="M402.331 355.624H420.031V257.429H402.331V355.624Z" fill="#F0F0F0"/>
<path d="M221.668 360.985H416.633V355.614H221.668V360.985Z" fill="#F0F0F0"/>
<path d="M402.335 257.419H218.273V355.614H402.335V257.419Z" fill="#F5F5F5"/>
<path d="M404.175 257.419H422.262V252.737H404.175V257.419Z" fill="#F0F0F0"/>
<path d="M404.173 252.737H216.043V257.42H404.173V252.737Z" fill="#FAFAFA"/>
<path d="M395.98 292.857H224.672V267.256H395.98V292.857ZM225.824 291.696H394.8V268.474H225.824V291.696Z" fill="#E0E0E0"/>
<path d="M395.98 345.787H224.672V299.956H395.98V345.787ZM225.824 344.56H394.8V301.136H225.824V344.56Z" fill="#E0E0E0"/>
<path d="M249.283 271.655H371.324C372.189 271.655 372.891 270.953 372.891 270.088V269.408C372.891 268.543 372.189 267.841 371.324 267.841H249.283C248.418 267.841 247.716 268.543 247.716 269.408V270.088C247.716 270.953 248.418 271.655 249.283 271.655Z" fill="#E0E0E0"/>
<path d="M249.283 304.364H371.324C372.189 304.364 372.891 303.663 372.891 302.797V302.118C372.891 301.252 372.189 300.55 371.324 300.55H249.283C248.418 300.55 247.716 301.252 247.716 302.118V302.797C247.716 303.663 248.418 304.364 249.283 304.364Z" fill="#E0E0E0"/>
<path d="M53.9041 360.985H61.2578L61.2578 236H53.9041L53.9041 360.985Z" fill="#E6E6E6"/>
<path d="M51.5883 360.985H56.6953L56.6953 236H51.5883L51.5883 360.985Z" fill="#F0F0F0"/>
<path d="M137.494 236H50.0039V245.034H137.494V236Z" fill="#F0F0F0"/>
<path d="M140.787 360.985H148.141V245.043H140.787V360.985Z" fill="#E6E6E6"/>
<path d="M138.475 360.985H143.582V245.043H138.475V360.985Z" fill="#F0F0F0"/>
<path d="M187.338 360.985H194.691V245.043H187.338V360.985Z" fill="#E6E6E6"/>
<path d="M185.006 360.985H190.113V245.043H185.006V360.985Z" fill="#F0F0F0"/>
<path d="M100.451 360.985H107.805L107.805 245.043H100.451L100.451 360.985Z" fill="#E6E6E6"/>
<path d="M98.1273 360.985H103.234L103.234 245.043H98.1273L98.1273 360.985Z" fill="#F0F0F0"/>
<path d="M137.504 245.034H194.691V236H137.504V245.034Z" fill="#E6E6E6"/>
<path d="M130.083 166.116H59.3867L65.6454 111.392H123.824L130.083 166.116Z" fill="#EBEBEB"/>
<path d="M98.5803 166.116H90.8867V236H98.5803V166.116Z" fill="#F5F5F5"/>
<path d="M110.448 236H79.0508C79.0508 235.114 79.4029 234.264 80.0296 233.637C80.6563 233.01 81.5063 232.658 82.3925 232.658H107.078C107.519 232.655 107.957 232.738 108.366 232.905C108.774 233.071 109.146 233.316 109.459 233.627C109.773 233.938 110.021 234.307 110.191 234.715C110.361 235.122 110.448 235.559 110.448 236Z" fill="#F0F0F0"/>
<path d="M98.5803 172.167L90.8867 168.495V166.116H98.5803V172.167Z" fill="#E0E0E0"/>
<path d="M127.809 235.802H161.009L165.115 190.707H131.915L127.809 235.802Z" fill="#E6E6E6"/>
<path d="M126.09 235.802H159.29L163.397 190.707H130.196L126.09 235.802Z" fill="#F0F0F0"/>
<path d="M154.748 230.808L157.948 195.701H134.735L131.535 230.808H154.748Z" fill="white"/>
<path d="M401 203.46H333.608L320.496 250.16H387.888L401 203.46Z" fill="#E6E6E6"/>
<path d="M387.89 250.16L387.626 252.737H320.215L320.489 250.16H387.89Z" fill="#E6E6E6"/>
<path d="M398.936 203.46H331.534L318.422 250.16H385.823L398.936 203.46Z" fill="#F0F0F0"/>
<path d="M385.057 247.111L395.904 206.67C396.055 206.094 395.762 205.594 395.271 205.594H333.307C333.059 205.623 332.827 205.73 332.644 205.9C332.46 206.069 332.336 206.293 332.288 206.538L321.45 246.95C321.29 247.526 321.583 248.027 322.073 248.027H384.038C384.283 248.002 384.514 247.9 384.697 247.735C384.88 247.571 385.006 247.352 385.057 247.111Z" fill="white"/>
<path d="M368.253 250.16L367.979 252.737H293.762L294.035 250.16H368.253Z" fill="#F0F0F0"/>
<path d="M414.965 81.5991H251.445V182.522H414.965V81.5991Z" fill="#F0F0F0"/>
<path d="M410.321 86.2437H256.09V177.887H410.321V86.2437Z" fill="white"/>
<path d="M414.962 182.532H416.633V81.6087H414.962V182.532Z" fill="#E6E6E6"/>
<path d="M236.001 403.617C337.087 403.617 419.033 398.832 419.033 392.931C419.033 387.029 337.087 382.245 236.001 382.245C134.915 382.245 52.9688 387.029 52.9688 392.931C52.9688 398.832 134.915 403.617 236.001 403.617Z" fill="#F5F5F5"/>
<path d="M198.648 66.0801C203.053 62.1594 208.758 59.5917 215.762 58.3771C222.767 57.1625 230.171 57.9334 237.975 60.6899C245.753 63.4464 252.868 68.4244 259.319 75.624C265.316 82.3201 269.369 89.334 271.477 96.6657C273.58 103.446 273.773 110.674 272.034 117.556C270.382 123.936 266.865 129.678 261.933 134.048C258.424 137.339 254.141 139.692 249.482 140.892C245.322 141.928 241.027 142.323 236.748 142.063C232.638 141.798 225.508 141.097 215.357 139.958C212.98 139.699 210.591 139.567 208.201 139.561C206.564 139.55 204.932 139.737 203.339 140.118C202.076 140.44 200.849 140.889 199.677 141.459C198.544 142.015 196.628 143.044 193.909 144.564C188.32 147.982 183.462 147.384 179.333 142.771C178.308 141.68 177.509 140.397 176.982 138.995C176.455 137.593 176.212 136.101 176.265 134.605C176.372 131.565 177.971 128.661 181.061 125.892C187.355 119.861 195.785 116.574 204.501 116.754C209.462 116.92 214.411 117.336 219.331 118C224.561 118.633 228.421 119.029 230.914 119.161C233.388 119.303 235.87 119.096 238.286 118.548C240.697 118.014 242.926 116.858 244.753 115.196C246.54 113.645 247.971 111.726 248.949 109.57C249.926 107.415 250.427 105.074 250.417 102.707C250.492 97.6727 248.604 92.9936 244.753 88.67C240.203 83.5913 235.574 81.0016 230.866 80.9009C226.159 80.8002 220.555 82.1533 214.054 84.9601C207.439 88.0627 202.169 87.4334 198.242 83.0721C197.124 81.8741 196.269 80.4559 195.731 78.9084C195.193 77.3609 194.984 75.7182 195.117 74.0852C195.146 72.5835 195.472 71.1024 196.078 69.7281C196.685 68.3538 197.558 67.1137 198.648 66.0801ZM153.015 167.739C150.548 165.059 149.171 161.555 149.154 157.912C149.097 154.187 150.705 150.854 153.978 147.915C155.324 146.67 156.915 145.717 158.649 145.118C160.382 144.518 162.222 144.285 164.05 144.432C165.902 144.544 167.713 145.028 169.373 145.855C171.034 146.683 172.511 147.836 173.717 149.247C174.956 150.588 175.913 152.165 176.531 153.884C177.149 155.603 177.415 157.428 177.314 159.252C177.213 161.075 176.746 162.86 175.941 164.5C175.137 166.139 174.011 167.601 172.631 168.797C169.403 171.685 165.941 172.919 162.247 172.497C158.678 172.138 155.378 170.438 153.015 167.739Z" fill="#407BFF"/>
<g opacity="0.5">
<path d="M283.06 129.375C284.385 126.226 286.583 123.521 289.394 121.578C292.698 119.224 296.555 117.767 300.59 117.349C305.29 116.843 310.042 117.538 314.4 119.369C318.517 120.892 322.236 123.329 325.275 126.496C327.909 129.237 329.738 132.65 330.562 136.361C331.321 139.83 331.025 143.446 329.712 146.745C328.821 149.165 327.334 151.321 325.389 153.013C323.646 154.511 321.685 155.733 319.573 156.638C317.547 157.5 313.963 158.879 308.821 160.773C307.619 161.214 306.443 161.725 305.3 162.302C304.514 162.688 303.778 163.17 303.11 163.737C302.579 164.191 302.098 164.701 301.675 165.257C301.269 165.795 300.599 166.748 299.665 168.089C297.777 171.072 295.306 171.953 292.254 170.732C291.501 170.456 290.809 170.033 290.219 169.489C289.63 168.945 289.153 168.289 288.818 167.56C288.481 166.707 288.326 165.793 288.361 164.876C288.397 163.96 288.623 163.06 289.026 162.236C290.591 157.837 293.836 154.239 298.05 152.23C300.462 151.106 302.929 150.104 305.442 149.228C308.094 148.284 310.039 147.538 311.266 147.009C312.484 146.481 313.621 145.785 314.646 144.942C315.672 144.105 316.462 143.015 316.94 141.78C317.423 140.608 317.647 139.346 317.597 138.08C317.546 136.814 317.222 135.574 316.647 134.445C315.384 131.96 313.209 130.059 310.577 129.139C307.179 127.799 304.347 127.67 302.081 128.752C299.33 130.216 296.923 132.25 295.02 134.718C292.591 137.796 289.91 138.74 286.977 137.55C286.155 137.243 285.405 136.768 284.776 136.155C284.148 135.542 283.653 134.806 283.324 133.992C282.976 133.278 282.773 132.503 282.728 131.71C282.683 130.918 282.795 130.124 283.06 129.375ZM285.637 189.036C283.813 188.345 282.312 186.999 281.426 185.26C280.973 184.346 280.728 183.343 280.708 182.323C280.689 181.303 280.895 180.291 281.313 179.36C281.653 178.437 282.183 177.595 282.867 176.888C283.551 176.181 284.376 175.624 285.287 175.254C286.202 174.864 287.186 174.662 288.181 174.662C289.175 174.662 290.159 174.864 291.074 175.254C291.99 175.598 292.827 176.124 293.535 176.798C294.244 177.472 294.81 178.282 295.2 179.179C295.59 180.076 295.796 181.042 295.806 182.02C295.815 182.998 295.628 183.969 295.256 184.873C294.93 185.842 294.393 186.727 293.685 187.465C292.977 188.203 292.114 188.775 291.159 189.14C289.371 189.804 287.398 189.767 285.637 189.036Z" fill="#407BFF"/>
</g>
<g opacity="0.1">
<path d="M346.552 123.815C345.698 122.472 345.243 120.913 345.24 119.322C345.208 117.436 345.67 115.574 346.58 113.922C347.631 111.998 349.154 110.373 351.008 109.202C352.679 108.025 354.597 107.244 356.615 106.918C358.363 106.634 360.156 106.837 361.798 107.503C363.335 108.125 364.65 109.194 365.574 110.571C366.267 111.551 366.702 112.691 366.839 113.884C366.947 114.946 366.896 116.019 366.687 117.066C366.48 118.079 366.058 119.816 365.423 122.276C365.279 122.855 365.166 123.442 365.083 124.032C364.973 124.759 365.031 125.502 365.253 126.203C365.356 126.506 365.545 127.015 365.828 127.733C366.001 128.027 366.113 128.352 366.159 128.69C366.204 129.027 366.183 129.37 366.095 129.7C366.007 130.029 365.855 130.337 365.647 130.607C365.439 130.877 365.18 131.104 364.884 131.273C364.27 131.704 363.509 131.874 362.77 131.745C362.353 131.651 361.96 131.47 361.617 131.215C361.274 130.96 360.988 130.635 360.778 130.263C360.113 129.321 359.645 128.255 359.4 127.129C359.204 126.152 359.182 125.149 359.334 124.164C359.538 122.943 359.805 121.733 360.136 120.539C360.476 119.265 360.703 118.33 360.825 117.707C360.944 117.086 360.979 116.451 360.929 115.819C360.875 115.204 360.664 114.612 360.315 114.101C359.993 113.608 359.569 113.189 359.07 112.875C358.572 112.561 358.011 112.357 357.427 112.279C356.129 112.103 354.814 112.442 353.764 113.223C353.168 113.555 352.647 114.006 352.234 114.548C351.822 115.091 351.526 115.714 351.366 116.376C351.202 117.819 351.347 119.28 351.791 120.662C352.329 122.409 351.98 123.683 350.762 124.504C350.428 124.737 350.049 124.899 349.649 124.978C349.25 125.058 348.838 125.054 348.44 124.967C348.064 124.911 347.703 124.781 347.379 124.583C347.055 124.385 346.773 124.124 346.552 123.815ZM370.105 138.598C369.356 139.11 368.446 139.328 367.547 139.212C367.072 139.144 366.618 138.971 366.22 138.705C365.821 138.438 365.487 138.086 365.243 137.673C364.979 137.299 364.796 136.874 364.705 136.426C364.614 135.977 364.617 135.515 364.715 135.068C364.806 134.614 364.988 134.182 365.249 133.8C365.51 133.417 365.845 133.091 366.234 132.84C366.608 132.579 367.031 132.397 367.477 132.305C367.923 132.212 368.384 132.211 368.83 132.302C369.279 132.384 369.706 132.559 370.084 132.814C370.463 133.069 370.785 133.399 371.03 133.784C371.314 134.166 371.512 134.605 371.608 135.072C371.704 135.538 371.697 136.02 371.587 136.484C371.375 137.349 370.846 138.104 370.105 138.598Z" fill="#407BFF"/>
</g>
<path d="M175.383 386.681L168.246 384.831L172.504 368.509L179.64 370.36L175.383 386.681Z" fill="#FFC3BD"/>
<path d="M168.17 382.943L176.138 385.464C176.204 385.48 176.266 385.51 176.321 385.551C176.375 385.592 176.421 385.643 176.456 385.702C176.49 385.761 176.512 385.826 176.521 385.894C176.529 385.962 176.524 386.03 176.506 386.096L174.826 392.279C174.708 392.604 174.469 392.87 174.16 393.023C173.85 393.176 173.494 393.204 173.164 393.101C170.408 392.157 169.133 391.609 165.612 390.495C163.45 389.816 158.239 388.277 155.228 387.333C152.217 386.389 153.34 383.557 154.652 383.736C160.713 384.369 164.234 383.859 166.754 382.981C167.209 382.813 167.707 382.799 168.17 382.943Z" fill="#263238"/>
<path opacity="0.2" d="M179.643 370.369L172.506 368.519L170.316 376.93L177.453 378.78L179.643 370.369Z" fill="black"/>
<path d="M197.624 203.46C197.624 203.46 184.559 265.547 181.085 285.872C177.309 308.131 169.012 371.861 169.012 371.861L181.142 376.269C181.142 376.269 200.126 308.688 203.005 287.288C209.037 266.369 224.321 203.46 224.321 203.46H197.624Z" fill="#407BFF"/>
<path opacity="0.3" d="M214.402 223.728C210.163 233.904 208.624 252.435 209.361 263.518C212.721 250.434 216.45 235.49 219.339 223.785C218.404 220.566 217.12 217.186 214.402 223.728Z" fill="black"/>
<path d="M180.899 377.704L167.891 373.947L168.381 368.443L183.863 372.795L180.899 377.704Z" fill="#263238"/>
<path d="M165.244 383.34C165.888 383.524 166.549 383.641 167.217 383.689C167.251 383.695 167.286 383.689 167.316 383.674C167.347 383.659 167.372 383.634 167.387 383.604C167.405 383.577 167.415 383.546 167.415 383.514C167.415 383.482 167.405 383.451 167.387 383.425C167.208 383.198 165.65 381.244 164.678 381.301C164.566 381.305 164.457 381.337 164.362 381.395C164.266 381.453 164.186 381.534 164.13 381.631C164.034 381.767 163.976 381.926 163.961 382.091C163.946 382.257 163.975 382.424 164.045 382.575C164.338 382.968 164.765 383.24 165.244 383.34ZM166.849 383.34C165.49 383.179 164.574 382.849 164.348 382.396C164.303 382.298 164.287 382.189 164.301 382.083C164.314 381.976 164.356 381.875 164.423 381.791C164.449 381.743 164.488 381.703 164.534 381.673C164.58 381.643 164.633 381.626 164.687 381.621C165.197 381.603 166.198 382.556 166.849 383.321V383.34Z" fill="#407BFF"/>
<path d="M167.182 383.689H167.267C167.295 383.684 167.321 383.674 167.344 383.657C167.367 383.641 167.386 383.619 167.399 383.594C167.399 383.509 168.268 381.593 167.777 380.706C167.71 380.592 167.62 380.494 167.512 380.418C167.405 380.341 167.283 380.288 167.154 380.262C167.012 380.221 166.86 380.227 166.722 380.28C166.584 380.333 166.467 380.429 166.389 380.555C165.964 381.253 166.54 383.009 167.107 383.632C167.125 383.659 167.151 383.678 167.182 383.689ZM167.182 380.611C167.247 380.631 167.307 380.664 167.359 380.708C167.411 380.751 167.454 380.805 167.484 380.866C167.655 381.646 167.558 382.461 167.21 383.179C166.767 382.48 166.427 381.178 166.71 380.725C166.71 380.64 166.852 380.545 167.097 380.592L167.182 380.611Z" fill="#407BFF"/>
<path d="M207.734 150.285C207.102 151.814 206.497 153.173 205.846 154.57C205.195 155.968 204.496 157.336 203.788 158.705C202.353 161.433 200.843 164.124 199.181 166.748C195.876 172.203 191.878 177.207 187.287 181.635L187.117 181.805C186.876 182.022 186.61 182.209 186.324 182.362C185.538 182.786 184.674 183.046 183.785 183.126C183.276 183.163 182.765 183.163 182.255 183.126C181.494 183.077 180.737 182.973 179.99 182.815C178.649 182.532 177.46 182.182 176.289 181.814C173.967 181.078 171.805 180.181 169.681 179.275C167.557 178.369 165.462 177.387 163.404 176.32C161.346 175.254 159.326 174.187 157.324 172.978C156.86 172.695 156.513 172.255 156.344 171.739C156.175 171.222 156.196 170.662 156.403 170.159C156.61 169.656 156.989 169.244 157.473 168.996C157.957 168.748 158.513 168.68 159.043 168.806C163.423 169.863 167.793 171.043 172.098 172.091C174.241 172.629 176.384 173.101 178.442 173.498C179.412 173.694 180.392 173.836 181.378 173.922C181.749 173.944 182.12 173.944 182.491 173.922C182.633 173.922 182.69 173.922 182.652 173.922C182.316 173.932 181.99 174.033 181.708 174.215L180.764 174.942C182.59 172.92 184.284 170.783 185.833 168.542C187.419 166.248 188.92 163.822 190.364 161.386C191.809 158.951 193.196 156.392 194.509 153.834C195.821 151.276 197.123 148.642 198.285 146.178L198.341 146.056C198.898 144.804 199.93 143.825 201.209 143.333C202.488 142.842 203.91 142.879 205.162 143.436C206.413 143.993 207.393 145.025 207.884 146.304C208.375 147.583 208.338 149.005 207.781 150.256L207.734 150.285Z" fill="#FFC3BD"/>
<path d="M206.282 140.297C200.203 140.467 196.031 147.066 192.047 155.288C195.1 160.567 199.476 164.959 204.744 168.032C204.744 168.032 220.716 139.891 206.282 140.297Z" fill="#E0E0E0"/>
<path d="M157.022 173.017L151.547 171.619L155.814 166.135C155.814 166.135 160.534 166.881 162.327 170.855L160.383 172.242C159.911 172.605 159.367 172.862 158.787 172.996C158.207 173.129 157.605 173.136 157.022 173.017Z" fill="#FFC3BD"/>
<path d="M150.217 166.012L151.275 165.068C151.707 164.689 152.26 164.475 152.834 164.462C153.409 164.45 153.97 164.641 154.418 165.002L155.815 166.125L151.548 171.61L149.802 168.891C149.513 168.442 149.396 167.903 149.472 167.374C149.548 166.845 149.813 166.361 150.217 166.012Z" fill="#FFC3BD"/>
<path d="M239.267 385.832H231.8L230.016 369.198H237.483L239.267 385.832Z" fill="#FFC3BD"/>
<path d="M231.146 385.001H239.538C239.677 384.993 239.813 385.04 239.917 385.132C240.021 385.224 240.085 385.353 240.095 385.492L240.501 391.873C240.493 392.216 240.352 392.543 240.107 392.783C239.861 393.023 239.532 393.157 239.189 393.157C236.272 393.1 234.875 392.94 231.184 392.94C228.918 392.94 222.688 393.166 219.525 393.166C216.363 393.166 216.476 390.183 217.807 389.919C223.764 388.701 227.747 387.03 229.862 385.445C230.229 385.159 230.681 385.004 231.146 385.001Z" fill="#263238"/>
<path opacity="0.2" d="M237.483 369.198H230.016L230.941 377.779H238.408L237.483 369.198Z" fill="black"/>
<path d="M212.219 203.46C212.219 203.46 213.871 265.878 215.051 286.447C216.372 308.971 227.559 375.703 227.559 375.703H241.247C241.247 375.703 238.245 308.122 235.979 286.023C236.923 261.818 237.546 203.441 237.546 203.441L212.219 203.46Z" fill="#407BFF"/>
<path d="M241.795 375.703H226.275L225.539 370.709L242.21 370.992L241.795 375.703Z" fill="#263238"/>
<path d="M228.502 386.247C229.173 386.233 229.841 386.147 230.494 385.992C230.526 385.986 230.555 385.97 230.577 385.947C230.599 385.923 230.613 385.893 230.617 385.86C230.626 385.829 230.624 385.795 230.612 385.764C230.6 385.733 230.579 385.708 230.551 385.69C230.315 385.539 228.2 384.142 227.284 384.491C227.182 384.529 227.091 384.592 227.02 384.675C226.949 384.757 226.9 384.857 226.878 384.963C226.819 385.125 226.808 385.3 226.847 385.468C226.885 385.635 226.972 385.788 227.096 385.907C227.509 386.185 228.008 386.305 228.502 386.247ZM230.012 385.756C228.672 386.011 227.69 385.964 227.341 385.634C227.269 385.555 227.22 385.458 227.198 385.353C227.176 385.248 227.183 385.14 227.218 385.039C227.227 384.987 227.249 384.938 227.282 384.897C227.315 384.855 227.358 384.823 227.407 384.803C227.898 384.614 229.144 385.218 230.012 385.756Z" fill="#407BFF"/>
<path d="M230.448 386.002H230.533C230.559 385.986 230.58 385.966 230.596 385.941C230.613 385.917 230.623 385.889 230.628 385.86C230.628 385.775 230.798 383.708 230.042 383.028C229.946 382.936 229.829 382.867 229.701 382.828C229.573 382.788 229.438 382.779 229.306 382.801C229.16 382.803 229.019 382.853 228.905 382.944C228.79 383.034 228.709 383.16 228.674 383.302C228.504 384.085 229.618 385.586 230.363 386.011L230.448 386.002ZM229.391 383.085C229.461 383.083 229.531 383.095 229.596 383.121C229.661 383.147 229.719 383.186 229.769 383.236C230.182 383.921 230.355 384.725 230.26 385.52C229.608 384.992 228.862 383.849 228.976 383.339C228.976 383.236 229.061 383.122 229.316 383.094L229.391 383.085Z" fill="#407BFF"/>
<path d="M200.769 145.102C201.171 143.88 201.896 142.789 202.866 141.944C203.836 141.098 205.016 140.53 206.282 140.297C208.126 139.867 209.996 139.552 211.879 139.353C217.539 139.041 223.212 139.041 228.871 139.353C231.836 139.486 234.856 139.835 237.264 140.175H237.349C237.967 140.247 238.564 140.444 239.104 140.754C239.644 141.064 240.115 141.481 240.489 141.979C240.862 142.477 241.131 143.046 241.277 143.651C241.424 144.256 241.446 144.885 241.342 145.499C239.457 155.119 238.224 164.854 237.651 174.64C237.065 188.857 237.858 200.015 237.575 203.442H197.625C195.199 168.769 198.333 153.004 200.769 145.102Z" fill="#E0E0E0"/>
<path d="M231.582 118.198C232.279 118.701 232.834 119.377 233.191 120.159C233.549 120.94 233.697 121.802 233.622 122.658C233.547 123.514 233.25 124.336 232.762 125.044C232.274 125.751 231.61 126.32 230.837 126.694C232.451 129.366 228.156 134.086 223.832 131.122C219.509 128.157 225.616 115.678 231.582 118.198Z" fill="#263238"/>
<path d="M213.701 115.329C213.108 115.346 212.52 115.209 211.996 114.932C211.472 114.654 211.028 114.245 210.709 113.744C210.391 113.244 210.207 112.669 210.177 112.076C210.147 111.484 210.272 110.893 210.539 110.363C208.528 109.58 208.887 105.19 212.512 105.001C216.137 104.813 218.006 114.224 213.701 115.329Z" fill="#263238"/>
<path d="M212.521 143.063C212.251 142.815 212.049 142.501 211.937 142.152C211.825 141.803 211.806 141.431 211.881 141.072C211.956 140.713 212.123 140.38 212.366 140.105C212.609 139.83 212.92 139.623 213.267 139.505C216.91 138.164 217.571 135.521 217.279 132.642C217.195 131.832 217.062 131.028 216.882 130.234L223.065 125.297L227.615 121.672C226.483 126.392 225.218 134.615 227.615 138.778C227.884 139.213 227.988 139.731 227.908 140.236C227.829 140.742 227.571 141.202 227.181 141.534C225.614 142.922 222.404 144.715 217.118 144.432C214.692 144.309 213.342 143.753 212.521 143.063Z" fill="#FFC3BD"/>
<path d="M198.722 145.272C199.172 143.913 199.966 142.693 201.026 141.731C202.086 140.768 203.377 140.096 204.773 139.778C206.565 139.494 208.37 139.305 210.182 139.212C210.371 139.185 210.564 139.205 210.744 139.271C210.923 139.337 211.083 139.447 211.209 139.59C211.336 139.733 211.425 139.906 211.468 140.092C211.511 140.278 211.507 140.472 211.457 140.656C208.294 152.4 203.782 175.896 205.179 204.999C205.186 205.18 205.155 205.361 205.089 205.53C205.023 205.699 204.924 205.852 204.796 205.981C204.669 206.11 204.517 206.212 204.349 206.28C204.181 206.348 204.001 206.381 203.82 206.377H195.89C195.546 206.383 195.213 206.258 194.958 206.026C194.704 205.794 194.548 205.474 194.521 205.131C192.133 169.571 196.353 151.852 198.722 145.272Z" fill="#263238"/>
<path d="M237.046 139.466C234.507 139.103 231.952 138.87 229.39 138.768C228.926 138.734 228.465 138.865 228.089 139.138C227.712 139.411 227.444 139.808 227.332 140.259C224.396 153.192 221.781 181.928 221.668 205.046C221.672 205.222 221.71 205.396 221.781 205.557C221.852 205.718 221.953 205.864 222.081 205.986C222.208 206.108 222.358 206.203 222.522 206.267C222.686 206.331 222.861 206.362 223.037 206.358H237.197C237.548 206.366 237.887 206.236 238.143 205.996C238.399 205.756 238.551 205.425 238.566 205.074C238.66 200.421 238.018 189.517 238.566 175.98C239.089 166.334 240.3 156.738 242.191 147.264C242.681 144.611 239.849 139.863 237.046 139.466Z" fill="#263238"/>
<path d="M242.023 143.573C245.053 148.142 247.809 152.72 250.415 157.525C251.699 159.932 252.964 162.377 254.106 164.945C254.672 166.229 255.229 167.541 255.748 168.929C256.321 170.43 256.763 171.977 257.07 173.554C257.303 174.703 257.354 175.882 257.221 177.047C257.067 177.99 256.823 178.916 256.494 179.813C255.956 181.275 255.296 182.69 254.521 184.042C253.132 186.494 251.583 188.853 249.886 191.103C246.621 195.461 243.05 199.581 239.2 203.432C238.755 203.878 238.162 204.144 237.534 204.182C236.905 204.219 236.285 204.023 235.79 203.633C235.296 203.243 234.963 202.684 234.854 202.064C234.744 201.444 234.867 200.805 235.197 200.269V200.213C237.945 195.785 240.72 191.273 243.231 186.799C244.477 184.571 245.666 182.305 246.62 180.115C247.573 177.925 248.272 175.527 247.781 175.461C247.48 174.457 247.114 173.473 246.686 172.516C246.214 171.44 245.676 170.326 245.109 169.221C243.958 167.003 242.721 164.747 241.428 162.528C238.841 158.073 236.085 153.579 233.357 149.227V149.171C232.614 148.022 232.359 146.625 232.647 145.287C232.934 143.95 233.741 142.781 234.891 142.039C236.04 141.296 237.437 141.041 238.774 141.329C240.112 141.616 241.28 142.424 242.023 143.573Z" fill="#FFC3BD"/>
<path d="M236.149 139.344C242.229 139.231 245.448 144.376 249.431 152.56C244.919 160.915 236.31 164.53 236.31 164.53C236.31 164.53 224.198 139.552 236.149 139.344Z" fill="#E0E0E0"/>
<path d="M233.033 200.024L229.531 201.138L236.017 206.066C236.017 206.066 241.322 203.309 239.66 200.808L238.584 200.326C236.832 199.553 234.859 199.446 233.033 200.024Z" fill="#FFC3BD"/>
<path d="M227.568 205.462L231.505 209.417C231.632 209.541 231.784 209.637 231.95 209.7C232.116 209.762 232.294 209.79 232.471 209.78C232.649 209.77 232.822 209.724 232.981 209.643C233.14 209.563 233.28 209.451 233.393 209.313L236.008 206.066L229.522 201.138L227.502 203.904C227.316 204.125 227.219 204.407 227.232 204.696C227.244 204.984 227.364 205.258 227.568 205.462Z" fill="#FFC3BD"/>
<path opacity="0.2" d="M216.883 130.272C217.063 131.066 217.196 131.87 217.279 132.679C219.62 133.274 222.943 130.593 223.255 128.318C223.295 127.32 223.232 126.32 223.066 125.335L216.883 130.272Z" fill="black"/>
<path d="M231.496 114.97C229.9 121.936 229.334 126.09 225.048 129.196C223.646 130.221 221.998 130.857 220.27 131.037C218.543 131.218 216.798 130.938 215.214 130.225C213.63 129.512 212.263 128.392 211.253 126.98C210.243 125.567 209.625 123.911 209.463 122.182C208.915 115.649 211.615 105.35 219.243 103.519C226.87 101.688 233.091 107.993 231.496 114.97Z" fill="#FFC3BD"/>
<path d="M228.267 121.068C226.247 121.172 224.094 114.045 228.55 110.609C227.842 110.996 225.907 110.288 226.247 108.957C224.934 109.504 219.195 109.268 220.583 106.936C217.666 107.692 211.303 106.427 210.623 103.642C209.944 100.857 213.229 100.763 213.739 101.131C212.294 99.1106 212.323 96.1465 216.155 95.0703C219.988 93.9941 225.765 99.5354 225.765 99.5354C225.161 98.0722 227.285 96.8922 229.485 98.1477C231.684 99.4033 232.713 102.972 232.713 102.972C232.713 101.895 237.848 103.34 235.413 107.852C237.933 108.796 239.085 110.137 238.925 112.468C238.764 114.8 237.169 114.932 237.169 114.932C237.506 115.772 237.553 116.7 237.302 117.569C237.05 118.438 236.515 119.198 235.781 119.728C233.166 121.833 230.882 119.359 228.267 121.068Z" fill="#263238"/>
<path d="M232.268 121.606C231.38 122.906 230.069 123.856 228.558 124.297C226.614 124.816 225.953 123.079 226.746 121.267C227.463 119.633 229.332 117.387 231.164 117.67C232.995 117.953 233.363 119.983 232.268 121.606Z" fill="#FFC3BD"/>
<path d="M219.952 114.687C219.857 115.253 219.461 115.678 219.074 115.631C218.687 115.583 218.441 115.074 218.536 114.498C218.63 113.922 219.027 113.554 219.414 113.554C219.801 113.554 219.999 114.111 219.952 114.687Z" fill="#263238"/>
<path d="M213.04 113.431C212.946 114.007 212.559 114.432 212.172 114.375C211.785 114.319 211.539 113.818 211.634 113.242C211.728 112.666 212.115 112.298 212.502 112.298C212.889 112.298 213.134 112.865 213.04 113.431Z" fill="#263238"/>
<path d="M215.77 114.715C214.765 116.376 213.536 117.891 212.117 119.218C212.484 119.563 212.921 119.826 213.398 119.988C213.875 120.151 214.381 120.21 214.883 120.162L215.77 114.715Z" fill="#ED847E"/>
<path d="M216.109 122.975C216.796 123.052 217.491 122.992 218.154 122.798C218.817 122.603 219.434 122.278 219.97 121.842C220.001 121.809 220.019 121.765 220.019 121.719C220.019 121.674 220.001 121.63 219.97 121.597C219.936 121.567 219.892 121.551 219.847 121.551C219.802 121.551 219.759 121.567 219.725 121.597C219.135 122.064 218.448 122.392 217.714 122.555C216.98 122.719 216.218 122.714 215.486 122.541C215.464 122.535 215.44 122.534 215.418 122.538C215.395 122.541 215.373 122.55 215.354 122.562C215.334 122.575 215.318 122.591 215.305 122.61C215.292 122.629 215.283 122.65 215.278 122.673C215.273 122.695 215.272 122.717 215.276 122.739C215.28 122.761 215.288 122.783 215.3 122.801C215.313 122.82 215.329 122.836 215.348 122.848C215.367 122.86 215.388 122.868 215.411 122.871C215.641 122.923 215.874 122.957 216.109 122.975Z" fill="#263238"/>
<path d="M220.236 110.76C220.179 110.775 220.127 110.804 220.085 110.844C220.052 110.875 220.026 110.913 220.008 110.954C219.99 110.995 219.98 111.04 219.98 111.085C219.98 111.13 219.99 111.175 220.008 111.216C220.026 111.258 220.052 111.295 220.085 111.326C220.452 111.737 220.914 112.053 221.43 112.247C221.946 112.441 222.501 112.507 223.049 112.44C223.094 112.435 223.138 112.422 223.178 112.399C223.217 112.377 223.252 112.347 223.28 112.31C223.307 112.274 223.327 112.232 223.337 112.188C223.348 112.144 223.349 112.098 223.341 112.053C223.333 112.008 223.317 111.964 223.292 111.925C223.267 111.887 223.235 111.853 223.197 111.827C223.159 111.801 223.117 111.782 223.072 111.772C223.027 111.762 222.981 111.761 222.935 111.77C222.503 111.808 222.067 111.742 221.665 111.578C221.262 111.414 220.905 111.156 220.623 110.826C220.57 110.78 220.507 110.75 220.438 110.738C220.37 110.727 220.3 110.734 220.236 110.76Z" fill="#263238"/>
<path d="M211.086 109.051C211.138 109.074 211.194 109.086 211.251 109.086C211.308 109.086 211.364 109.074 211.416 109.051C211.819 108.85 212.262 108.74 212.712 108.728C213.162 108.717 213.609 108.804 214.022 108.985C214.102 109.03 214.197 109.043 214.287 109.02C214.377 108.997 214.454 108.941 214.503 108.862C214.544 108.78 214.553 108.686 214.526 108.598C214.5 108.51 214.441 108.436 214.362 108.39C213.852 108.145 213.294 108.019 212.729 108.019C212.163 108.019 211.605 108.145 211.095 108.39C211.054 108.408 211.017 108.434 210.987 108.468C210.956 108.501 210.933 108.54 210.919 108.583C210.905 108.626 210.899 108.671 210.904 108.716C210.908 108.761 210.922 108.804 210.944 108.843C210.966 108.927 211.016 109 211.086 109.051Z" fill="#263238"/>
</svg>
