<svg width="52" height="52" viewBox="0 0 52 52" fill="none" xmlns="http://www.w3.org/2000/svg">
<path d="M0 12.8C0 8.31958 0 6.07937 0.871948 4.36808C1.63893 2.86278 2.86278 1.63893 4.36808 0.871948C6.07937 0 8.31958 0 12.8 0H39.2C43.6804 0 45.9206 0 47.6319 0.871948C49.1372 1.63893 50.3611 2.86278 51.1281 4.36808C52 6.07937 52 8.31958 52 12.8V39.2C52 43.6804 52 45.9206 51.1281 47.6319C50.3611 49.1372 49.1372 50.3611 47.6319 51.1281C45.9206 52 43.6804 52 39.2 52H12.8C8.31958 52 6.07937 52 4.36808 51.1281C2.86278 50.3611 1.63893 49.1372 0.871948 47.6319C0 45.9206 0 43.6804 0 39.2V12.8Z" fill="url(#paint0_linear_230_2707)"/>
<path d="M9.88433 18.1797C8.4464 14.3122 9.63344 11.887 11.3773 10.484C13.2101 9.0095 15.718 10.1673 17.0631 12.0971L19.1541 15.0974C20.066 16.4057 19.4353 18.8147 18.8692 20.3056C18.0084 22.5727 19.1064 24.2429 20.6267 26.1322C23.9934 30.316 27.3611 33.2803 29.1304 33.3633C29.4559 33.3785 29.797 33.3353 30.1418 33.2508C32.809 32.5974 35.7422 32.0329 38.0271 33.5561L39.4906 34.5318C41.4447 35.8345 42.7541 38.3469 41.343 40.2243C39.1592 43.1298 35.0977 42.5427 32.8882 41.6406C19.9898 35.6484 12.8296 26.1016 9.88433 18.1797Z" fill="#FEFEFE"/>
<defs>
<linearGradient id="paint0_linear_230_2707" x1="26" y1="0" x2="26" y2="52" gradientUnits="userSpaceOnUse">
<stop stop-color="#5CF777"/>
<stop offset="1" stop-color="#0EBC29"/>
</linearGradient>
</defs>
</svg>
