<svg width="24" height="24" viewBox="0 0 24 24" fill="none" xmlns="http://www.w3.org/2000/svg">
<path d="M21 14.2496V19.4996C21 19.8974 20.842 20.279 20.5607 20.5603C20.2794 20.8416 19.8978 20.9996 19.5 20.9996H4.5C4.10218 20.9996 3.72064 20.8416 3.43934 20.5603C3.15804 20.279 3 19.8974 3 19.4996V14.2496C3 14.0507 3.07902 13.8599 3.21967 13.7193C3.36032 13.5786 3.55109 13.4996 3.75 13.4996C3.94891 13.4996 4.13968 13.5786 4.28033 13.7193C4.42098 13.8599 4.5 14.0507 4.5 14.2496V19.4996H19.5V14.2496C19.5 14.0507 19.579 13.8599 19.7197 13.7193C19.8603 13.5786 20.0511 13.4996 20.25 13.4996C20.4489 13.4996 20.6397 13.5786 20.7803 13.7193C20.921 13.8599 21 14.0507 21 14.2496ZM8.78063 8.03024L11.25 5.55993V14.2496C11.25 14.4485 11.329 14.6393 11.4697 14.7799C11.6103 14.9206 11.8011 14.9996 12 14.9996C12.1989 14.9996 12.3897 14.9206 12.5303 14.7799C12.671 14.6393 12.75 14.4485 12.75 14.2496V5.55993L15.2194 8.03024C15.3601 8.17097 15.551 8.25003 15.75 8.25003C15.949 8.25003 16.1399 8.17097 16.2806 8.03024C16.4214 7.88951 16.5004 7.69864 16.5004 7.49961C16.5004 7.30059 16.4214 7.10972 16.2806 6.96899L12.5306 3.21899C12.461 3.14926 12.3783 3.09394 12.2872 3.05619C12.1962 3.01845 12.0986 2.99902 12 2.99902C11.9014 2.99902 11.8038 3.01845 11.7128 3.05619C11.6217 3.09394 11.539 3.14926 11.4694 3.21899L7.71937 6.96899C7.57864 7.10972 7.49958 7.30059 7.49958 7.49961C7.49958 7.69864 7.57864 7.88951 7.71937 8.03024C7.86011 8.17097 8.05098 8.25003 8.25 8.25003C8.44902 8.25003 8.63989 8.17097 8.78063 8.03024Z" fill="#8A8A8D"/>
<path d="M21 14.2496V19.4996C21 19.8974 20.842 20.279 20.5607 20.5603C20.2794 20.8416 19.8978 20.9996 19.5 20.9996H4.5C4.10218 20.9996 3.72064 20.8416 3.43934 20.5603C3.15804 20.279 3 19.8974 3 19.4996V14.2496C3 14.0507 3.07902 13.8599 3.21967 13.7193C3.36032 13.5786 3.55109 13.4996 3.75 13.4996C3.94891 13.4996 4.13968 13.5786 4.28033 13.7193C4.42098 13.8599 4.5 14.0507 4.5 14.2496V19.4996H19.5V14.2496C19.5 14.0507 19.579 13.8599 19.7197 13.7193C19.8603 13.5786 20.0511 13.4996 20.25 13.4996C20.4489 13.4996 20.6397 13.5786 20.7803 13.7193C20.921 13.8599 21 14.0507 21 14.2496ZM8.78063 8.03024L11.25 5.55993V14.2496C11.25 14.4485 11.329 14.6393 11.4697 14.7799C11.6103 14.9206 11.8011 14.9996 12 14.9996C12.1989 14.9996 12.3897 14.9206 12.5303 14.7799C12.671 14.6393 12.75 14.4485 12.75 14.2496V5.55993L15.2194 8.03024C15.3601 8.17097 15.551 8.25003 15.75 8.25003C15.949 8.25003 16.1399 8.17097 16.2806 8.03024C16.4214 7.88951 16.5004 7.69864 16.5004 7.49961C16.5004 7.30059 16.4214 7.10972 16.2806 6.96899L12.5306 3.21899C12.461 3.14926 12.3783 3.09394 12.2872 3.05619C12.1962 3.01845 12.0986 2.99902 12 2.99902C11.9014 2.99902 11.8038 3.01845 11.7128 3.05619C11.6217 3.09394 11.539 3.14926 11.4694 3.21899L7.71937 6.96899C7.57864 7.10972 7.49958 7.30059 7.49958 7.49961C7.49958 7.69864 7.57864 7.88951 7.71937 8.03024C7.86011 8.17097 8.05098 8.25003 8.25 8.25003C8.44902 8.25003 8.63989 8.17097 8.78063 8.03024Z" fill="black" fill-opacity="0.2"/>
</svg>
