<svg width="15" height="16" viewBox="0 0 15 16" fill="none" xmlns="http://www.w3.org/2000/svg">
<path d="M4.52508 6.57644C6.92041 8.53772 10.1883 7.80052 11.825 4.93127L15 3.4111e-06L12.9808 3.4111e-06C12.538 -0.00106124 12.1203 0.247147 11.8547 0.671432L8.24088 6.43639C8.17648 6.54887 8.09613 6.64646 8.00209 6.72283C7.58435 7.06543 7.0133 6.93706 6.72721 6.43639L3.13906 0.696888C2.87462 0.272603 2.45745 0.0233371 2.0152 0.0233371L0 0.0233371L3.1516 4.93127C3.51976 5.57725 3.98537 6.13515 4.5245 6.57644H4.52508Z" fill="#121212"/>
<path d="M10.477 8.77351C8.08162 6.81113 4.81249 7.54731 3.17508 10.4176L0 15.3488H2.01812C2.45982 15.3499 2.87587 15.1006 3.14089 14.6784L6.75824 8.91136C6.82207 8.79896 6.90357 8.70137 6.99761 8.625C7.41537 8.28233 7.98587 8.4107 8.27198 8.91136L11.8603 14.6509C12.1247 15.0752 12.5419 15.3245 12.9847 15.3245H15L11.8477 10.4187C11.4795 9.77373 11.0139 9.21582 10.4759 8.77453L10.477 8.77351Z" fill="#121212"/>
</svg>
