<svg width="60" height="61" viewBox="0 0 60 61" fill="none" xmlns="http://www.w3.org/2000/svg">
<path d="M50.625 0.5H9.375C4.19733 0.5 0 4.69733 0 9.875V51.125C0 56.3027 4.19733 60.5 9.375 60.5H50.625C55.8027 60.5 60 56.3027 60 51.125V9.875C60 4.69733 55.8027 0.5 50.625 0.5Z" fill="#1DA1F2"/>
<path d="M45 21.125C43.875 21.6875 42.75 21.875 41.4375 22.0625C42.75 21.3125 43.6875 20.1875 44.0625 18.6875C42.9375 19.4375 41.625 19.8125 40.125 20.1875C39 19.0625 37.3125 18.3125 35.625 18.3125C31.6875 18.3125 28.6875 22.0625 29.625 25.8125C24.5625 25.625 20.0625 23.1875 16.875 19.4375C15.1875 22.25 16.125 25.8125 18.75 27.6875C17.8125 27.6875 16.875 27.3125 15.9375 26.9375C15.9375 29.75 18 32.375 20.8125 33.125C19.875 33.3125 18.9375 33.5 18 33.3125C18.75 35.75 21 37.625 23.8125 37.625C21.5625 39.3125 18.1875 40.25 15 39.875C17.8125 41.5625 21 42.6875 24.375 42.6875C35.8125 42.6875 42.1875 33.125 41.8125 24.3125C43.125 23.5625 44.25 22.4375 45 21.125Z" fill="white"/>
</svg>
