<svg width="16" height="16" viewBox="0 0 16 16" fill="none" xmlns="http://www.w3.org/2000/svg">
<path d="M4.71705 6.85544C7.214 8.89993 10.6205 8.13145 12.3267 5.14047L15.6364 3.55582e-06H13.5315C13.0699 -0.00110627 12.6344 0.257632 12.3576 0.699917L8.59049 6.70946C8.52336 6.8267 8.4396 6.92843 8.34157 7.00804C7.90611 7.36517 7.31083 7.23136 7.0126 6.70946L3.27223 0.726453C2.99657 0.284168 2.5617 0.0243272 2.10069 0.0243272H0L3.2853 5.14047C3.66908 5.81386 4.15445 6.39543 4.71645 6.85544H4.71705Z" fill="black"/>
<path d="M10.9215 9.14571C8.42448 7.10008 5.01666 7.86749 3.30978 10.8595L0 16H2.10374C2.56418 16.0011 2.99788 15.7413 3.27414 15.3012L7.04495 9.28942C7.11149 9.17225 7.19645 9.07051 7.29447 8.9909C7.72996 8.6337 8.32466 8.76752 8.62291 9.28942L12.3634 15.2724C12.6391 15.7147 13.074 15.9746 13.5356 15.9746H15.6364L12.3503 10.8607C11.9666 10.1884 11.4812 9.60678 10.9203 9.14678L10.9215 9.14571Z" fill="#4353FF"/>
</svg>
