<svg width="14" height="14" viewBox="0 0 14 14" fill="none" xmlns="http://www.w3.org/2000/svg">
<path d="M6.33301 6.33301V3.66634H7.66634V6.33301H10.333V7.66634H7.66634V10.333H6.33301V7.66634H3.66634V6.33301H6.33301ZM6.99967 13.6663C3.31777 13.6663 0.333008 10.6815 0.333008 6.99967C0.333008 3.31777 3.31777 0.333008 6.99967 0.333008C10.6815 0.333008 13.6663 3.31777 13.6663 6.99967C13.6663 10.6815 10.6815 13.6663 6.99967 13.6663ZM6.99967 12.333C9.94521 12.333 12.333 9.94521 12.333 6.99967C12.333 4.05415 9.94521 1.66634 6.99967 1.66634C4.05415 1.66634 1.66634 4.05415 1.66634 6.99967C1.66634 9.94521 4.05415 12.333 6.99967 12.333Z" fill="white"/>
</svg>
