<svg width="16" height="16" viewBox="0 0 16 16" fill="none" xmlns="http://www.w3.org/2000/svg">
<path d="M4.66634 3.33366V1.33366C4.66634 0.965472 4.96482 0.666992 5.33301 0.666992H10.6663C11.0345 0.666992 11.333 0.965472 11.333 1.33366V3.33366H13.9997C14.3679 3.33366 14.6663 3.63214 14.6663 4.00033V13.3337C14.6663 13.7019 14.3679 14.0003 13.9997 14.0003H1.99967C1.63149 14.0003 1.33301 13.7019 1.33301 13.3337V4.00033C1.33301 3.63214 1.63149 3.33366 1.99967 3.33366H4.66634ZM2.66634 10.667V12.667H13.333V10.667H2.66634ZM2.66634 9.33366H13.333V4.66699H2.66634V9.33366ZM5.99967 2.00033V3.33366H9.99967V2.00033H5.99967ZM7.33301 7.33366H8.66634V8.66699H7.33301V7.33366Z" fill="#8A8A8D"/>
<path d="M4.66634 3.33366V1.33366C4.66634 0.965472 4.96482 0.666992 5.33301 0.666992H10.6663C11.0345 0.666992 11.333 0.965472 11.333 1.33366V3.33366H13.9997C14.3679 3.33366 14.6663 3.63214 14.6663 4.00033V13.3337C14.6663 13.7019 14.3679 14.0003 13.9997 14.0003H1.99967C1.63149 14.0003 1.33301 13.7019 1.33301 13.3337V4.00033C1.33301 3.63214 1.63149 3.33366 1.99967 3.33366H4.66634ZM2.66634 10.667V12.667H13.333V10.667H2.66634ZM2.66634 9.33366H13.333V4.66699H2.66634V9.33366ZM5.99967 2.00033V3.33366H9.99967V2.00033H5.99967ZM7.33301 7.33366H8.66634V8.66699H7.33301V7.33366Z" fill="black" fill-opacity="0.2"/>
</svg>
